<?xml version="1.0" encoding="utf-8"?>
<!-- Generator: Adobe Illustrator 26.0.0, SVG Export Plug-In . SVG Version: 6.00 Build 0)  -->
<svg version="1.1" id="Layer_1" xmlns="http://www.w3.org/2000/svg" xmlns:xlink="http://www.w3.org/1999/xlink" x="0px" y="0px"
	 viewBox="0 0 4500 4000" style="enable-background:new 0 0 4500 4000;" xml:space="preserve">
<style type="text/css">
	.st0{fill:#081C23;}
	.st1{fill:#FFD36A;}
	.st2{fill:#EEEEEE;}
	.st3{opacity:0.17;fill:#081C23;}
	.st4{fill:#A3A8AD;}
	.st5{opacity:0.17;}
	.st6{fill:#393D46;}
</style>
<g>
	<g>
		<path class="st0" d="M1975.37,3005.05c-52.96-22.02-109.34,33.34-169.04,91.95c-58.26,57.2-118.51,116.33-169.73,101.38
			c-41.09-12-55.78-68.58-72.79-134.11c-11.27-43.41-23.67-91-45.9-132.49c-21.84-44.21-57.15-70.77-64.58-76.02
			c-0.53-0.38-1.03-0.77-1.52-1.19c-103.68-90.05-192.32-197.76-261.44-318.63c-3.36-5.88-9.47-9.52-16.11-9.52h-0.12
			c-14.4,0-23.4,16.07-16.11,28.82c52.83,92.5,117.5,178.69,193.3,256.52c35.18,36.12,72.16,69.72,110.65,100.85
			c0.11,0.13,0.18,0.28,0.29,0.4c36.67,42.07,52.34,102.43,67.49,160.81c18.98,73.13,36.91,142.21,97.3,159.85
			c70.42,20.58,138.03-45.77,203.55-110.09c48.98-48.09,99.64-97.82,131.67-84.49c18.36,7.63,48.69,44.06,45.56,202.2
			c-0.19,9.93,7.38,18.27,17.16,18.62c0.2,0,0.4,0.01,0.6,0.01c4.88,0,9.48-2.09,12.87-5.89c1.59-4.35,3.05-8.33,4.65-12.68
			C2045.78,3102.43,2023.62,3025.12,1975.37,3005.05z"/>
		<g>
			<path class="st0" d="M3662.47,1305.44h-150.98l2.92-1.75c13.37-8.03,22.76-20.82,26.44-35.98c3.68-15.16,1.19-30.83-7.01-44.1
				l-33.45-54.13l215.56-129.63c13.37-8.03,22.76-20.82,26.44-35.98c3.68-15.16,1.19-30.81-7.01-44.08l-18.01-29.15
				c-16.57-26.85-52.06-35.45-79.12-19.2l-207.81,124.96l142.51-228.04c13.82-22.12,11.09-50.91-6.62-70.05l-32.15-34.71
				c-17.29-18.69-44.33-23.89-67.33-12.99l-282.33,133.97l206.54-169.96c13.93-11.46,21.63-28.38,21.1-46.42
				c-0.53-18.05-9.2-34.47-23.78-45.1l-16.57-12.07c-22.1-16.1-51.87-14.73-72.41,3.36l-86.15,75.93l48.06-101.48
				c11.9-25.12,4.22-55.23-18.23-71.59l-29.74-21.66c-14.33-10.43-32.34-13.73-49.42-9.03c-17.1,4.7-30.9,16.73-37.9,33.02
				l-133.87,312.08c-5.32,12.35-6.02,25.72-2.7,37.98c-20.42-13.5-41.24-26.42-62.41-38.73c16.57-3.49,30.98-14.09,39.13-29.36
				l155.41-291.11c7.33-13.75,8.84-29.53,4.22-44.42c-4.62-14.9-14.78-27.04-28.62-34.24l-30.92-16.07
				c-28.02-14.56-62.92-3.73-77.78,24.14l-128.2,240.13l86.4-264.19c4.85-14.8,3.6-30.57-3.49-44.41
				c-7.09-13.86-19.16-24.08-34-28.79l-15.18-4.83c-30.19-9.62-62.75,7.07-72.59,37.18l-14.03,42.86l-5.85-71.76
				c-1.92-23.51-17.69-43.33-40.16-50.48l-50.06-15.91c-30.19-9.62-62.75,7.07-72.59,37.18l-87.19,266.56l-26.6-80.97
				c32.62-23.66,51.21-59.73,55.3-107.36c2.13-24.64-0.51-47.84-7.82-68.92c-7.69-22.17-19.86-40.61-36.11-54.78
				c-15.76-13.73-32.49-22.95-49.74-27.4c-13.97-3.6-33.77-6.49-58.83-8.58l-95.56-7.98c-31.73-2.66-59.79,21.01-62.53,52.74
				l-20.91,243.16l-109.29-248.2c-10.28-23.34-35.15-37.37-60.51-34.09l-47.69,6.24c-25.55,3.32-45.5,22.65-49.67,48.04
				l-39.22,239.24c-2.64-2.49-5.53-4.75-8.66-6.73c-14.12-8.96-31.41-11.37-47.42-6.64l-28.02,8.28
				c-27.49,8.13-45.06,35.6-40.88,63.94c2.7,18.27,0.17,25.96-1.57,28.92c-1.3,2.23-2.68,2.79-5.37,3.77
				c-5.81,2.09-9.52,2.06-16.16-3.71c-4.86-4.26-18.29-19.76-37.62-71.69c-21.82-58.6-21.59-80.31-20.5-86.91
				c1.92-11.54,5.81-12.95,8.35-13.88c3.11-1.13,5-1.7,7.84-0.58c3.62,1.43,11.2,6.62,21.25,25.36
				c14.22,26.55,46.99,37.69,74.55,25.38l24.76-11.05c14.86-6.62,26.32-19.31,31.41-34.77c5.09-15.44,3.43-32.41-4.56-46.55
				c-23.61-41.84-52.93-70.33-87.09-84.66c-34.6-14.52-73.22-14.24-114.76,0.83c-55.94,20.27-91.36,56.76-105.25,108.44
				c-12.73,47.38-7.17,103.72,16.56,167.44c23.51,63.19,56.19,109.32,97.09,137.17c17.2,11.71,35.51,19.67,54.72,23.85
				c-48.87,21.1-96.45,45.27-142.47,72.39c2.87-5.6,4.85-11.69,5.77-18.1c2.26-15.44-1.7-30.81-11.11-43.25l-11.31-14.99
				c-19.03-25.15-55.13-30.41-80.53-11.73l-73.2,53.85l-16.12-21.33l45.44-33.43c12.56-9.26,20.74-22.85,22.98-38.32
				c2.24-15.44-1.7-30.81-11.11-43.25l-9.65-12.77c-19.01-25.15-55.13-30.41-80.51-11.73l-46.65,34.32l-12.94-17.1l71.97-52.97
				c12.58-9.26,20.76-22.87,23-38.31c2.24-15.44-1.7-30.81-11.11-43.27l-9.65-12.77c-19.01-25.13-55.13-30.4-80.53-11.73
				l-147.19,108.31c-12.58,9.26-20.74,22.85-22.98,38.3c-2.26,15.46,1.7,30.81,11.11,43.27l122.98,162.71
				c-11.99-6.83-24.57-11.67-37.58-14.48c-22.59-4.86-44.84-4.32-66.15,1.62c-7.5,2.09-15.63,4.9-24.34,8.35
				c1.34-2.39,2.53-4.92,3.54-7.54l9.3-24.19c5.83-15.12,5.05-32.15-2.15-46.67c-7.24-14.59-19.8-25.12-35.37-29.64
				c-57.94-16.84-112.98,1.24-159.16,52.29c-30.36,33.56-44.69,70.76-42.58,110.59c2.13,39.9,19.7,74.67,52.25,103.33
				c19.52,17.2,41.5,28.25,65.33,32.87c23.46,4.56,46.12,3.49,67.31-3.19c2.24-0.7,4.58-1.49,7.01-2.36
				c-2.51,3.17-4.71,6.64-6.54,10.39l-11.48,23.46c-3.04,6.18-4.88,12.78-5.58,19.48c-7.58-2.07-15.57-2.6-23.53-1.43
				c-16.42,2.41-31.04,11.75-40.13,25.64l-15.63,23.95c-15.78,24.19-11.22,56.62,10.64,75.48c14.69,12.65,17.48,20.31,17.99,23.02
				c0.45,2.36-0.13,3.51-1.49,5.9c-2.94,5.17-5.71,7.45-14.59,7.3c-6.56-0.11-27.11-3.28-76.21-30.43
				c-55.34-30.62-69.56-47.35-73.1-53.12c-6.05-9.86-4.15-13.22-2.88-15.42c1.6-2.83,2.56-4.34,5.41-5.28
				c3.73-1.23,13.03-2.11,33.28,5.81c28.09,10.99,60.26-1.81,73.25-29.15l11.35-23.89c6.96-14.67,7.43-31.72,1.28-46.76
				c-6.15-15.05-18.4-26.87-33.66-32.47c-45.48-16.67-86.49-19.52-121.92-8.5c-35.92,11.2-65.15,36.24-86.89,74.48
				c-29.28,51.49-32.17,102.08-8.62,150.37c21.5,44.08,62.77,83.21,122.66,116.34c14.35,7.94,28.47,14.75,42.31,20.5H877.1
				c-121.64,0-220.57,98.95-220.57,220.57v753.77c0,121.62,98.94,220.57,220.57,220.57h244.02
				c89.73,170.83,216.42,319.2,369.44,434.49c20.45,34.97,32.26,79.25,43.77,122.41c18.74,70.37,39.92,149.62,108.7,176.11
				c-21.82,1.43-43.26,4.7-64.02,9.79l-21.51,5.3v150.41l37.94-13.8c25.94-9.43,40.45-11.41,48.04-11.41
				c19.95,0,35.28,4.2,45.56,12.46c8.79,7.05,12.71,15.73,12.71,28.11c0,8.77-1.77,17.4-5.26,25.63
				c-4.09,9.56-10.5,20.08-19.06,31.26l-148.11,193.18v43.12h307.74l64.5-147.43c8.56,82.72,78.67,147.43,163.59,147.43
				c57.72,0,108.55-29.9,137.92-74.99v-317.18c-21.76-33.41-55.43-58.44-95.51-68.99l0.94-1.04l8.41-22.33l0.09-4.85
				c0.21-10.91,0.26-21.4,0.17-31.56c50.37,5.94,101.61,9.01,153.57,9.01c499.2,0,932.56-281.87,1149.62-695.13h242.1
				c121.62,0,220.57-98.95,220.57-220.57v-753.77C3883.04,1404.39,3784.09,1305.44,3662.47,1305.44z M3338.23,609.1l1.64,1.21
				l-45.56,37.48L3338.23,609.1z"/>
		</g>
		<circle class="st1" cx="2266.47" cy="1902.85" r="923.78"/>
		<path class="st0" d="M3659.16,1392.25h-753.78c-70.61,0-128.57,55.02-133.35,124.44c-4.78-69.42-62.74-124.44-133.35-124.44
			h-753.78c-61.15,0-112.81,41.28-128.66,97.42c-15.86-56.14-67.51-97.42-128.66-97.42H873.78c-73.73,0-133.71,59.98-133.71,133.7
			v753.79c0,73.73,59.98,133.71,133.71,133.71h753.78c61.15,0,112.81-41.28,128.66-97.42c15.86,56.14,67.51,97.42,128.66,97.42
			h753.78c70.61,0,128.57-55.03,133.35-124.44c4.78,69.41,62.74,124.44,133.35,124.44h753.78c73.73,0,133.71-59.98,133.71-133.71
			v-753.79C3792.86,1452.23,3732.88,1392.25,3659.16,1392.25z"/>
		<g>
			<g>
				<path class="st2" d="M1261.53,1848.54h32.87c0.53-9.61,1.25-19.18,2.06-28.71h-32.96
					C1262.72,1829.37,1262.03,1838.94,1261.53,1848.54z"/>
				<path class="st2" d="M3236.48,1819.83c0.81,9.54,1.53,19.1,2.06,28.71h32.87c-0.51-9.6-1.2-19.17-1.97-28.71H3236.48z"/>
				<path class="st2" d="M3659.16,1333.67h-562.43c-34.75-50.49-74.34-98.19-118.62-142.47
					c-190.09-190.09-442.82-294.77-711.64-294.77c-268.82,0-521.56,104.69-711.64,294.77c-44.28,44.27-83.87,91.97-118.62,142.47
					H873.78c-106.03,0-192.28,86.26-192.28,192.28v753.79c0,106.03,86.26,192.28,192.28,192.28h562.44
					c34.75,50.49,74.33,98.19,118.61,142.47c190.09,190.09,442.82,294.77,711.64,294.77c268.82,0,521.55-104.68,711.64-294.77
					c44.27-44.27,83.86-91.98,118.61-142.47h562.44c106.03,0,192.28-86.26,192.28-192.28v-753.79
					C3851.44,1419.93,3765.18,1333.67,3659.16,1333.67z M3818.64,2279.74c0,87.94-71.54,159.48-159.48,159.48h-572.7
					c0.01,0.13,0,0.26,0.01,0.38h-8.18c-174.5,263.04-473.2,436.86-811.82,436.86s-637.32-173.82-811.82-436.86h-9.83
					c0-0.13-0.02-0.25-0.03-0.38H873.78c-87.94,0-159.48-71.54-159.48-159.48v-753.79c0-87.94,71.54-159.48,159.48-159.48h540.78
					c-0.23,0.36-0.46,0.72-0.69,1.08h39.77c174.34-263.87,473.57-438.32,812.82-438.32s638.48,174.45,812.82,438.32h39.77
					c-0.23-0.36-0.46-0.72-0.69-1.08h540.78c87.94,0,159.48,71.54,159.48,159.48V2279.74z"/>
			</g>
		</g>
		<path class="st3" d="M1416.85,2254.15v21.98c18.76,3.11,36.21,13.87,45.77,31.12c21.98,39.63,35.86,81.3,42.87,124.75
			c2.47,3.28,4.8,6.65,7.05,10.08c12.58,5.68,23.16,15.26,30.16,27.11h84.86c61.15,0,112.81-41.28,128.66-97.42
			c15.86,56.14,67.51,97.42,128.66,97.42h753.78c70.61,0,128.57-55.03,133.35-124.44c4.78,69.41,62.74,124.44,133.35,124.44h91.82
			c4.59-9.41,11.36-17.63,19.64-23.98c0.32-0.7,0.6-1.42,0.96-2.11c2.64-8.12,7.15-15.14,13.54-21.07c0.8-0.8,1.59-1.59,2.39-2.39
			c0.22-0.22,0.48-0.4,0.7-0.62c8.2-18.77,25-33.34,45.13-38.25c1.93-2.28,3.85-4.57,5.79-6.85c0.17-5.17,0.11-10.38-0.27-15.67
			c-1.61-22.25,11.41-42.34,29.58-54.23v-49.86H1416.85z"/>
		<path class="st3" d="M3081.1,1447.22c0.38-5.29,0.45-10.51,0.27-15.67c-6.45-7.57-12.81-15.22-19.21-22.83
			c-4.94-2.11-9.53-4.88-13.79-8.09c-14.25-8.09-25.36-21.36-30.57-37.05c-6.41-5.68-11.71-12.56-15.56-20.26
			c-1.96-2.23-3.79-4.57-5.44-7.04h-95.42c-70.61,0-128.57,55.03-133.35,124.44c-4.78-69.41-62.74-124.44-133.35-124.44h-753.78
			c-61.15,0-112.81,41.28-128.66,97.42c-15.86-56.14-67.51-97.42-128.66-97.42h-87.09c-4.06,7.32-9.48,13.83-15.88,19.18
			c-1.34,2.19-2.85,4.26-4.43,6.28c-3.12,12.02-9.65,22.85-18.5,31.31c-7.72,36.41-20.4,71.54-39.04,105.17
			c-9.56,17.25-27.01,28.01-45.77,31.12v21.98h1697.81v-49.86C3092.51,1489.56,3079.49,1469.47,3081.1,1447.22z"/>
		<g>
			<g>
				<g>
					<g>
						<path class="st4" d="M1596.95,2224.1H904.4c-8.32,0-15.06-6.74-15.06-15.06v-692.55c0-8.32,6.74-15.06,15.06-15.06h692.55
							c8.32,0,15.06,6.74,15.06,15.06v692.55C1612.01,2217.36,1605.27,2224.1,1596.95,2224.1z"/>
					</g>
					<g>
						<path class="st4" d="M1627.57,2380.64H873.78c-55.64,0-100.9-45.26-100.9-100.9v-753.79c0-55.64,45.27-100.9,100.9-100.9
							h753.78c55.64,0,100.9,45.27,100.9,100.9v753.79C1728.47,2335.38,1683.2,2380.64,1627.57,2380.64z M873.78,1443.8
							c-45.3,0-82.16,36.85-82.16,82.16v753.79c0,45.3,36.86,82.16,82.16,82.16h753.78c45.3,0,82.16-36.86,82.16-82.16v-753.79
							c0-45.3-36.86-82.16-82.16-82.16H873.78z"/>
					</g>
				</g>
			</g>
			<g>
				<g>
					<g>
						<path class="st4" d="M2608.06,2224.1h-692.55c-8.32,0-15.06-6.74-15.06-15.06v-692.55c0-8.32,6.74-15.06,15.06-15.06h692.55
							c8.32,0,15.06,6.74,15.06,15.06v692.55C2623.12,2217.36,2616.38,2224.1,2608.06,2224.1z"/>
					</g>
					<g>
						<g>
							<path class="st4" d="M2638.68,2380.64h-753.78c-55.64,0-100.9-45.26-100.9-100.9v-753.79c0-55.64,45.27-100.9,100.9-100.9
								h753.78c55.64,0,100.9,45.27,100.9,100.9v753.79C2739.58,2335.38,2694.31,2380.64,2638.68,2380.64z M1884.89,1443.8
								c-45.3,0-82.16,36.85-82.16,82.16v753.79c0,45.3,36.86,82.16,82.16,82.16h753.78c45.3,0,82.16-36.86,82.16-82.16v-753.79
								c0-45.3-36.86-82.16-82.16-82.16H1884.89z"/>
						</g>
					</g>
				</g>
			</g>
			<g>
				<g>
					<g>
						<path class="st4" d="M3628.54,2224.1h-692.55c-8.32,0-15.06-6.74-15.06-15.06v-692.55c0-8.32,6.74-15.06,15.06-15.06h692.55
							c8.32,0,15.06,6.74,15.06,15.06v692.55C3643.6,2217.36,3636.86,2224.1,3628.54,2224.1z"/>
					</g>
					<g>
						<path class="st4" d="M3659.16,2380.64h-753.78c-55.64,0-100.9-45.26-100.9-100.9v-753.79c0-55.64,45.26-100.9,100.9-100.9
							h753.78c55.64,0,100.9,45.27,100.9,100.9v753.79C3760.06,2335.38,3714.8,2380.64,3659.16,2380.64z M2905.37,1443.8
							c-45.3,0-82.16,36.85-82.16,82.16v753.79c0,45.3,36.86,82.16,82.16,82.16h753.78c45.3,0,82.16-36.86,82.16-82.16v-753.79
							c0-45.3-36.86-82.16-82.16-82.16H2905.37z"/>
					</g>
				</g>
			</g>
		</g>
		<g>
			<g>
				<g>
					<path class="st1" d="M1028.76,1299.46c-39.21,0-82.88-13.18-130.12-39.31c-54.7-30.25-92.02-65.24-110.92-103.99
						c-19.22-39.39-16.6-81.12,7.78-124.01c36.63-64.43,95.34-82.4,174.48-53.38c7.8,2.86,14.07,8.91,17.22,16.6
						c3.15,7.7,2.91,16.43-0.66,23.94l-11.35,23.89c-6.64,13.98-23.07,20.55-37.39,14.94c-36.81-14.4-60.89-10.54-73.6,11.83
						c-7.68,13.51-6.58,27.97,3.38,44.2c10.4,16.94,38.5,38.16,83.52,63.06c40.19,22.23,70.28,33.66,89.44,33.96
						c18.23,0.28,31.21-6.77,39.64-21.59c11.51-20.25,4.11-41.29-22.62-64.34c-11.16-9.63-13.49-26.22-5.41-38.59l15.63-23.94
						c4.64-7.11,12.13-11.89,20.54-13.12c8.39-1.23,16.92,1.21,23.4,6.68c23.24,19.64,39.54,42.82,48.44,68.88
						c11.67,34.16,7.65,68.97-11.96,103.47c-23.82,41.9-58.27,65.44-102.4,69.96C1040.22,1299.18,1034.54,1299.46,1028.76,1299.46z
						 M902.19,975.34c-42.07,0-74.36,20.51-97.86,61.83c-22.62,39.8-25.14,78.33-7.48,114.53c17.97,36.83,53.87,70.33,106.7,99.55
						c52.35,28.96,99.86,41.49,141.2,37.24c41.24-4.23,72.18-25.45,94.59-64.87c18.11-31.86,21.87-63.87,11.18-95.15
						c-8.3-24.3-23.57-45.96-45.38-64.4c-4.25-3.59-9.84-5.19-15.36-4.38c-5.53,0.81-10.45,3.95-13.5,8.63l-15.63,23.94
						c-5.31,8.13-3.79,19.01,3.54,25.33c30.56,26.35,38.91,52.28,24.82,77.07c-10.28,18.08-26.65,27.08-48.64,26.73
						c-21.14-0.34-51.95-11.86-94.2-35.23c-47.23-26.12-75.78-47.92-87.27-66.64c-11.9-19.4-13.1-37.75-3.55-54.55
						c15.43-27.13,44.41-32.6,86.15-16.27c9.38,3.67,20.13-0.65,24.5-9.84l11.35-23.89c2.38-5.01,2.53-10.59,0.43-15.73
						c-2.1-5.13-6.11-9-11.3-10.91C942.93,979.68,921.53,975.34,902.19,975.34z"/>
				</g>
				<g>
					<path class="st1" d="M1202.68,1065.2c-14.95,0-30.48-2.65-46.57-7.97c-8.16-2.7-14.75-8.78-18.08-16.7
						c-3.32-7.89-3.07-16.82,0.7-24.51l11.49-23.46c6.48-13.23,21.79-19.77,35.62-15.2c24.15,7.99,43.62,3.33,59.53-14.25
						c8.84-9.77,13.51-19.98,13.86-30.36c0.34-10.15-3.43-18.54-11.51-25.66c-6.09-5.37-13.23-8.05-21.83-8.21
						c-6.03-0.07-18.64,2.62-44.15,16.23c-27.52,14.82-49.68,24.91-65.86,29.99c-16.67,5.25-34.66,6.06-53.45,2.41
						c-18.83-3.65-36.34-12.51-52.04-26.33c-26.62-23.45-40.99-51.58-42.69-83.61c-1.7-32.02,10.18-62.33,35.3-90.1
						c38.97-43.06,82.81-57.91,130.29-44.11c7.88,2.29,14.25,7.63,17.92,15.05c3.7,7.45,4.1,16.18,1.11,23.95l-9.31,24.19
						c-5.29,13.75-19.54,21.44-33.88,18.31c-19.35-4.24-34.77,0.35-47.13,14.01c-7.36,8.13-10.75,16.26-10.37,24.86
						c0.38,8.55,3.46,15.26,9.41,20.5c6.91,6.09,14.62,8.21,23.54,6.48c9.98-1.93,27.89-9.4,53.23-22.21
						c23.43-12.23,43.65-20.77,60.02-25.34c16.84-4.7,34.52-5.11,52.56-1.22c18.09,3.9,35.27,12.94,51.07,26.85l0,0
						c27.65,24.34,42.04,54.17,42.78,88.66c0.74,34.35-13.24,67.63-41.55,98.92C1273.26,1048.87,1239.76,1065.19,1202.68,1065.2z
						 M1176.78,986.08c-7.19,0-14.09,4.12-17.43,10.96l-11.49,23.46c-2.47,5.04-2.64,10.91-0.46,16.09
						c2.19,5.21,6.53,9.21,11.9,10.98c52.54,17.36,96.97,4.92,135.83-38.03c26.51-29.3,39.61-60.22,38.93-91.88
						c-0.67-31.53-13.91-58.86-39.33-81.25l0,0c-14.48-12.75-30.12-21.01-46.49-24.54c-16.41-3.54-32.45-3.18-47.68,1.07
						c-15.69,4.39-35.24,12.66-58.11,24.59c-26.61,13.45-44.89,21.02-55.94,23.15c-12.05,2.34-22.89-0.64-32.19-8.83
						c-8.02-7.06-12.34-16.38-12.84-27.68c-0.5-11.25,3.87-22.06,12.99-32.13c14.81-16.37,33.94-22.13,56.84-17.12
						c9.26,2.02,18.8-3.15,22.22-12.03l9.31-24.19c1.97-5.12,1.7-10.87-0.73-15.78c-2.4-4.84-6.53-8.32-11.65-9.8
						c-44.05-12.79-83.27,0.67-119.91,41.17c-23.24,25.69-34.24,53.53-32.69,82.74c1.55,29.2,14.76,54.94,39.26,76.52
						c14.32,12.61,30.22,20.68,47.26,23.98c17.11,3.32,33.42,2.6,48.46-2.13c15.57-4.89,37.13-14.73,64.1-29.25
						c22.35-11.93,38.46-17.62,49.14-17.44c10.96,0.2,20.5,3.82,28.36,10.74c10.36,9.12,15.39,20.44,14.95,33.63
						c-0.43,12.85-5.98,25.24-16.48,36.84c-18.63,20.59-42.27,26.34-70.26,17.09C1180.71,986.39,1178.73,986.08,1176.78,986.08z"/>
				</g>
				<g>
					<path class="st1" d="M1416.6,884.5c-9,0-17.91-4.05-23.7-11.72L1193.51,609c-4.82-6.37-6.83-14.23-5.68-22.14
						c1.15-7.9,5.33-14.86,11.76-19.6l147.2-108.3c12.99-9.56,31.47-6.87,41.2,6l9.65,12.77c4.82,6.37,6.83,14.23,5.68,22.14
						c-1.15,7.9-5.33,14.86-11.76,19.6l-79.19,58.26c-4.23,3.11-6.97,7.68-7.73,12.87c-0.76,5.19,0.57,10.36,3.73,14.54l23.57,31.18
						c6.39,8.45,18.53,10.22,27.06,3.94l53.66-39.48c12.99-9.56,31.47-6.87,41.2,6l9.65,12.77c4.82,6.37,6.83,14.23,5.68,22.14
						c-1.15,7.9-5.33,14.86-11.76,19.6l-52.64,38.73c-4.23,3.11-6.97,7.68-7.73,12.87c-0.76,5.19,0.57,10.36,3.73,14.54l26.76,35.4
						c6.39,8.45,18.53,10.22,27.06,3.94l80.21-59.02c12.99-9.56,31.47-6.87,41.2,6l11.33,14.99c4.82,6.37,6.83,14.23,5.68,22.14
						c-1.15,7.9-5.33,14.86-11.76,19.6l-147.2,108.3C1428.84,882.63,1422.7,884.5,1416.6,884.5z M1364.3,463.4
						c-4.01,0-8.04,1.22-11.49,3.76l-147.2,108.3c-4.23,3.11-6.97,7.68-7.73,12.87c-0.76,5.19,0.57,10.36,3.73,14.54L1401,866.64
						c6.39,8.45,18.53,10.22,27.06,3.94l147.2-108.3c4.23-3.11,6.97-7.68,7.73-12.87c0.76-5.19-0.57-10.36-3.73-14.54l-11.33-14.99
						c-6.39-8.45-18.53-10.22-27.06-3.94l-80.21,59.02c-12.99,9.56-31.47,6.87-41.2-6l-26.76-35.4c-4.82-6.37-6.83-14.23-5.68-22.14
						c1.15-7.9,5.33-14.86,11.76-19.6l52.64-38.73c4.23-3.11,6.97-7.68,7.73-12.87c0.76-5.19-0.57-10.36-3.73-14.54l-9.65-12.77
						c-6.39-8.45-18.53-10.22-27.06-3.94l-53.66,39.48c-12.99,9.56-31.47,6.87-41.2-6l-23.57-31.18
						c-4.82-6.37-6.83-14.23-5.68-22.14c1.15-7.9,5.33-14.86,11.76-19.6l79.19-58.26c4.23-3.11,6.97-7.68,7.73-12.87
						c0.76-5.19-0.57-10.36-3.73-14.54l-9.65-12.77C1376.07,466.06,1370.22,463.4,1364.3,463.4z"/>
				</g>
				<g>
					<path class="st1" d="M1790.09,675.85c-25.42,0-49.22-7.48-71.15-22.42c-35.96-24.48-65.07-66.08-86.5-123.66
						c-21.63-58.09-26.93-108.63-15.75-150.22c11.35-42.25,40.82-72.26,87.57-89.2c70.19-25.44,126.58-1.5,167.59,71.15
						c4.08,7.23,4.93,15.91,2.33,23.81c-2.61,7.92-8.47,14.4-16.08,17.8l-24.76,11.05c-14.11,6.3-30.85,0.62-38.11-12.92
						c-18.44-34.41-39.26-46.85-63.64-38.01c-14.78,5.36-23.49,17.07-26.62,35.8c-3.26,19.53,4.1,53.66,21.89,101.44
						c15.87,42.65,31.19,70.61,45.54,83.12c13.67,11.92,28.19,14.87,44.38,9c22.13-8.02,30.4-28.77,25.28-63.43
						c-2.14-14.47,6.86-28.52,20.92-32.67l28.01-8.27c8.21-2.42,17.06-1.19,24.29,3.4c7.2,4.56,12.08,11.99,13.38,20.39
						c4.62,29.69,1.71,57.62-8.65,83.02c-13.64,33.43-39.62,57.28-77.21,70.91C1824.56,672.55,1806.97,675.85,1790.09,675.85z
						 M1756.07,290.59c-15.14,0-31.23,3.11-48.34,9.31c-43.45,15.74-70.77,43.43-81.21,82.28c-10.62,39.51-5.42,87.97,15.46,144.04
						c20.68,55.56,48.5,95.53,82.69,118.8c33.65,22.91,72.23,26.73,114.66,11.36c34.78-12.61,58.75-34.54,71.26-65.19
						c9.66-23.67,12.36-49.78,8.02-77.62c-0.86-5.51-4.06-10.38-8.78-13.37c-4.75-3.01-10.57-3.83-15.97-2.23l-28.01,8.27
						c-9.24,2.73-15.15,11.94-13.74,21.44c5.85,39.63-4.87,64.69-31.87,74.47c-19.7,7.14-38.04,3.47-54.52-10.9
						c-15.85-13.83-31.68-42.37-48.38-87.24c-18.68-50.16-26-85.06-22.39-106.67c3.74-22.36,14.9-37.06,33.18-43.68
						c29.53-10.7,55.13,3.69,76.07,42.76c4.75,8.87,15.74,12.57,25.01,8.44l24.76-11.05c5-2.23,8.85-6.5,10.56-11.7
						c1.73-5.26,1.19-10.81-1.52-15.62C1834.34,315.73,1799.09,290.59,1756.07,290.59z"/>
				</g>
				<g>
					<path class="st1" d="M1979.78,613.2c-7.97,0-15.54-3.18-21.19-9.03c-6.58-6.8-9.48-16.06-7.95-25.4l55.56-338.96
						c2.13-13,12.34-22.88,25.4-24.59l47.7-6.23c12.96-1.68,25.69,5.48,30.96,17.44l138.12,313.66c3.8,8.62,3.32,18.28-1.3,26.49
						c-4.62,8.21-12.64,13.62-21.98,14.84l-33.83,4.42c-13.52,1.77-26.46-5.87-31.43-18.58l-15.33-39.16
						c-3.27-8.35-11.76-13.37-20.65-12.21l-68.69,8.98c-8.98,1.17-15.91,8.29-16.84,17.3l-4.27,41.23
						c-1.42,13.72-11.96,24.54-25.63,26.33l-24.71,3.23C1982.39,613.11,1981.08,613.2,1979.78,613.2z M2016.23,241.44l-55.56,338.96
						c-1.01,6.14,0.9,12.22,5.22,16.69c4.32,4.47,10.34,6.57,16.51,5.76l24.71-3.23c8.98-1.17,15.91-8.29,16.84-17.3l4.27-41.23
						c1.42-13.72,11.96-24.54,25.63-26.33l68.69-8.98c13.53-1.77,26.46,5.87,31.43,18.58l15.33,39.16
						c3.27,8.35,11.77,13.37,20.65,12.21l33.83-4.42c6.14-0.8,11.4-4.35,14.44-9.74c3.04-5.39,3.35-11.73,0.86-17.4l-138.12-313.66
						c-3.46-7.86-11.82-12.57-20.33-11.46l-47.7,6.23C2024.33,226.41,2017.63,232.9,2016.23,241.44L2016.23,241.44z M2070.25,457.27
						c-7.67,0-15.01-2.96-20.6-8.4c-6.53-6.35-9.74-15.2-8.81-24.26l2.84-27.7c1.42-13.83,11.63-24.41,25.4-26.32
						c13.78-1.91,26.48,5.49,31.61,18.42l10.32,25.99c3.4,8.56,2.67,18.02-2,25.95c-4.67,7.93-12.58,13.17-21.71,14.36l-13.16,1.72
						C2072.84,457.19,2071.54,457.27,2070.25,457.27z M2073.23,380.46c-0.95,0-1.87,0.07-2.76,0.19
						c-6.98,0.97-15.54,6.08-16.69,17.29l-2.84,27.7c-0.61,5.95,1.5,11.76,5.79,15.94c4.29,4.17,10.16,6.13,16.09,5.35l13.16-1.72
						c6-0.78,11.19-4.22,14.26-9.43c3.07-5.21,3.54-11.43,1.31-17.05l-10.32-25.99C2087.6,383.6,2079.8,380.46,2073.23,380.46z"/>
				</g>
				<g>
					<path class="st1" d="M2502.62,599.59c-0.83,0-1.66-0.03-2.49-0.1l-36.87-3.08c-12.65-1.05-23.21-10.04-26.28-22.35
						l-29.74-119.13c-2.02-8.09-8.96-13.99-17.27-14.68c-10.67-0.9-20.09,7.06-21.01,17.73l-8.61,100.18
						c-1.4,16.24-15.77,28.33-31.99,26.99l-34.97-2.92c-7.9-0.66-15.07-4.36-20.18-10.42c-5.11-6.06-7.55-13.75-6.87-21.65
						l28.17-327.67c1.4-16.24,15.75-28.35,31.99-26.99l95.57,7.98c23.47,1.96,41.67,4.58,54.12,7.78
						c12.94,3.35,25.8,10.53,38.21,21.34l0,0c12.5,10.89,21.91,25.26,27.98,42.72c6,17.31,8.14,36.56,6.37,57.22
						c-3.54,41.18-19.76,71.45-48.2,89.96c-7.38,4.8-10.55,14.17-7.72,22.78l37.92,115.43c3.11,9.47,1.28,19.79-4.9,27.61
						C2520.19,595.48,2511.65,599.59,2502.62,599.59z M2388.34,430c0.82,0,1.65,0.03,2.48,0.1c12.65,1.05,23.21,10.04,26.29,22.35
						l29.74,119.13c2.02,8.09,8.96,13.99,17.26,14.68l36.87,3.08c6.62,0.55,12.78-2.12,16.9-7.33c4.12-5.21,5.29-11.83,3.22-18.14
						l-37.92-115.43c-4.27-12.99,0.6-27.16,11.84-34.47c25.68-16.72,40.36-44.41,43.61-82.31c1.65-19.23-0.31-37.07-5.84-53.01
						c-5.48-15.76-13.91-28.68-25.05-38.39l0,0c-11.21-9.77-22.68-16.21-34.08-19.16c-11.89-3.06-29.53-5.58-52.43-7.5l-95.57-7.98
						c-10.68-0.88-20.1,7.06-21.01,17.73l-28.17,327.67c-0.45,5.19,1.16,10.24,4.52,14.22c3.36,3.98,8.07,6.41,13.26,6.84
						l34.97,2.92c10.69,0.9,20.1-7.06,21.01-17.73l8.61-100.18C2360.16,441.69,2373.15,430,2388.34,430z M2414.75,380.61
						c-2.27,0-4.6-0.1-7.01-0.3l-12.39-1.03c-7.9-0.66-15.07-4.36-20.18-10.42c-5.11-6.06-7.55-13.75-6.87-21.65l4.88-56.75
						c1.4-16.24,15.76-28.35,31.99-26.99l9.16,0.76c13.33,1.11,23.16,3.48,30.03,7.25c7.08,3.88,13.02,10.57,17.64,19.89
						c4.56,9.21,6.28,20.67,5.13,34.06v0C2464,361.67,2445.94,380.61,2414.75,380.61z M2402.68,273.54
						c-9.98,0-18.51,7.68-19.38,17.8l-4.88,56.75c-0.45,5.19,1.16,10.24,4.52,14.22c3.36,3.98,8.07,6.41,13.26,6.84l12.39,1.03
						c30.13,2.51,45.51-11.98,48.41-45.61c0.99-11.51-0.4-21.16-4.12-28.68c-3.67-7.41-8.19-12.62-13.41-15.48
						c-5.53-3.03-14.27-5.06-26-6.04l-9.16-0.76C2403.77,273.56,2403.22,273.54,2402.68,273.54z"/>
				</g>
				<g>
					<path class="st1" d="M2785.89,680.33c-2.96,0-5.96-0.45-8.92-1.39l-32.8-10.43c-11.43-3.63-19.49-13.7-20.53-25.64
						l-14.04-159.9c-1.03-11.68-9.89-16.8-17.17-17.63c-7.28-0.84-17.07,2.14-20.72,13.29l-40.28,123.18
						c-5.04,15.4-21.71,23.94-37.14,19.03L2579.1,616c-7.59-2.41-13.76-7.64-17.39-14.73c-3.63-7.09-4.27-15.15-1.79-22.72
						l102.37-313.03c5.04-15.4,21.7-23.94,37.14-19.03l50.05,15.92c11.5,3.66,19.57,13.8,20.55,25.83l9.42,115.4
						c0.96,11.72,9.82,16.89,17.12,17.75c7.3,0.86,17.12-2.1,20.78-13.28l27.63-84.48c5.04-15.4,21.7-23.94,37.15-19.03l15.18,4.83
						c7.59,2.41,13.76,7.64,17.39,14.73c3.63,7.08,4.26,15.15,1.79,22.72l-102.37,313.03
						C2810.04,672.37,2798.37,680.33,2785.89,680.33z M2690.13,455.04c1.17,0,2.32,0.07,3.46,0.2
						c11.96,1.37,24.68,10.21,26.14,26.85l14.04,159.9c0.69,7.85,5.98,14.46,13.49,16.85l32.8,10.43
						c10.15,3.23,21.09-2.38,24.4-12.5l102.37-313.03c1.62-4.97,1.21-10.27-1.18-14.92c-2.38-4.65-6.44-8.09-11.42-9.67l-15.18-4.83
						c-10.15-3.23-21.09,2.38-24.4,12.5l-27.63,84.48c-5.21,15.93-19.63,21.63-31.63,20.22c-11.99-1.41-24.7-10.32-26.06-27.02
						l-9.42-115.4c-0.64-7.9-5.94-14.56-13.5-16.96l-50.05-15.92c-10.15-3.23-21.09,2.38-24.4,12.5l-102.37,313.03
						c-1.63,4.97-1.21,10.27,1.18,14.92c2.38,4.65,6.44,8.09,11.42,9.67l15.18,4.83c10.15,3.23,21.09-2.38,24.4-12.5l40.28-123.18
						C2666.74,461.09,2678.98,455.04,2690.13,455.04z"/>
				</g>
				<g>
					<path class="st1" d="M2911.67,743.79c-4.59,0-9.23-1.06-13.56-3.31l-30.93-16.06c-7.08-3.68-12.28-9.9-14.64-17.52
						c-2.36-7.62-1.6-15.69,2.16-22.73l155.4-291.11c7.61-14.25,25.46-19.79,39.8-12.34l30.92,16.06
						c7.08,3.68,12.28,9.9,14.64,17.52s1.6,15.69-2.16,22.73l-155.4,291.11C2932.6,738.09,2922.29,743.79,2911.67,743.79z
						 M3036.31,387.57c-6.98,0-13.75,3.75-17.24,10.28l-155.4,291.11c-2.47,4.62-2.97,9.93-1.42,14.93
						c1.55,5.01,4.97,9.09,9.62,11.51l30.92,16.06c9.42,4.89,21.14,1.26,26.14-8.11l155.4-291.11c2.47-4.62,2.97-9.93,1.42-14.93
						c-1.55-5.01-4.97-9.09-9.62-11.51l-30.92-16.06C3042.38,388.27,3039.33,387.57,3036.31,387.57z"/>
				</g>
				<g>
					<path class="st1" d="M3086.03,857.51c-6.3,0-12.61-2.02-17.94-6.08l-43.97-33.45c-10.84-8.25-14.66-22.75-9.29-35.26
						l133.88-312.08c3.58-8.33,10.64-14.49,19.39-16.89c8.75-2.4,17.96-0.71,25.29,4.62l29.73,21.66
						c11.49,8.37,15.42,23.78,9.33,36.63l-66.4,140.19c-5.01,10.58,0.04,19.48,5.88,23.88c5.85,4.4,15.79,6.79,24.58-0.95
						l118.3-104.25c10.5-9.25,25.73-9.96,37.04-1.72l16.57,12.07c7.46,5.44,11.9,13.85,12.17,23.08
						c0.27,9.23-3.66,17.89-10.79,23.75l-264.93,218.02C3099.37,855.24,3092.71,857.51,3086.03,857.51z M3175.97,462.85
						c-1.73,0-3.47,0.23-5.18,0.7c-5.74,1.58-10.39,5.62-12.73,11.1l-133.88,312.08c-3.53,8.22-1.02,17.75,6.1,23.16l43.97,33.45
						c7.22,5.49,17.15,5.3,24.15-0.46l264.93-218.01c4.68-3.85,7.27-9.54,7.09-15.6c-0.18-6.06-3.09-11.59-7.99-15.16l-16.57-12.07
						c-7.43-5.41-17.43-4.95-24.33,1.13l-118.3,104.25c-12.52,11.03-27.81,8.67-37.42,1.44c-9.6-7.23-16.1-21.28-8.95-36.35
						l66.4-140.19c4-8.44,1.42-18.56-6.13-24.06l-29.73-21.66C3184.02,464.13,3180.04,462.85,3175.97,462.85z"/>
				</g>
				<g>
					<path class="st1" d="M3338.32,1098.7c-8.23,0-16.01-3.38-21.68-9.51l-22.94-24.78c-9.46-10.22-10.57-25.37-2.71-36.86
						l23.44-34.25c5.16-7.55,4.43-17.5-1.78-24.21l-46.44-50.17c-6.08-6.56-15.8-8.14-23.64-3.85l-37.52,20.56
						c-11.94,6.54-26.74,4.13-35.98-5.85l-16.45-17.77c-6.48-6.99-9.16-16.38-7.35-25.74c1.8-9.36,7.78-17.08,16.39-21.16
						l314.01-149.01c11.76-5.58,25.61-2.91,34.45,6.64l32.15,34.73c9.06,9.79,10.45,24.52,3.38,35.83l-182.14,291.47
						c-4.93,7.89-13.08,12.92-22.34,13.8C3340.21,1098.66,3339.26,1098.7,3338.32,1098.7z M3251.92,902.5
						c8.05,0,15.97,3.28,21.74,9.51l46.44,50.17c9.46,10.22,10.57,25.37,2.71,36.86l-23.44,34.25c-5.16,7.55-4.43,17.5,1.78,24.21
						l22.94,24.78c4.15,4.49,10.03,6.73,16.11,6.16c6.09-0.57,11.44-3.88,14.68-9.06l182.14-291.47c4.64-7.43,3.73-17.11-2.22-23.54
						l-32.15-34.73c-5.81-6.28-14.91-8.03-22.63-4.36L3166.01,874.3c-5.66,2.68-9.58,7.75-10.77,13.9
						c-1.18,6.15,0.57,12.31,4.83,16.91l16.45,17.77c6.07,6.56,15.79,8.14,23.64,3.85l37.52-20.56
						C3242.17,903.7,3247.07,902.5,3251.92,902.5z M3364.47,915.05c-8.24,0-16.05-3.39-21.7-9.5l-8.79-9.5
						c-6.24-6.74-8.98-15.81-7.5-24.88c1.47-9.07,6.94-16.81,14.99-21.23l24.23-13.3c14.12-7.76,28.34-2.56,36.16,6.02
						c7.82,8.59,11.67,23.22,2.63,36.57l-15.43,22.8c-5.1,7.53-13.22,12.25-22.29,12.93
						C3365.99,915.02,3365.23,915.05,3364.47,915.05z M3350.23,898.64c4.06,4.38,9.8,6.65,15.76,6.18
						c5.96-0.45,11.29-3.55,14.64-8.5l15.43-22.8c6.34-9.37,3.03-18.79-1.73-24.02c-4.76-5.23-13.84-9.4-23.75-3.95l-24.23,13.3
						c-5.29,2.9-8.88,7.99-9.85,13.94c-0.97,5.96,0.83,11.91,4.93,16.34L3350.23,898.64z"/>
				</g>
				<g>
					<path class="st1" d="M3462.07,1295.19c-9.96,0-19.72-5-25.3-14.03L3354.51,1148c-4.19-6.79-5.47-14.8-3.59-22.56
						c1.88-7.76,6.69-14.29,13.53-18.41l285.07-171.41c13.84-8.32,31.99-3.91,40.48,9.82l18.01,29.15c4.2,6.79,5.47,14.8,3.59,22.56
						c-1.88,7.76-6.69,14.29-13.53,18.41l-223.21,134.22c-4.49,2.7-7.65,7-8.89,12.09c-1.24,5.1-0.4,10.36,2.36,14.82l38.14,61.75
						c4.2,6.79,5.47,14.8,3.59,22.56c-1.88,7.76-6.69,14.29-13.52,18.41l-19.28,11.59
						C3472.51,1293.84,3467.26,1295.19,3462.07,1295.19z M3664.72,941.57c-3.41,0-6.86,0.89-9.97,2.76l-285.07,171.41
						c-4.49,2.7-7.65,7-8.89,12.09c-1.24,5.1-0.4,10.36,2.36,14.82l82.26,133.17c5.57,9.02,17.5,11.92,26.59,6.45l19.28-11.59
						c4.49-2.7,7.65-7,8.88-12.09c1.24-5.1,0.4-10.36-2.36-14.82l-38.14-61.75c-4.19-6.79-5.47-14.8-3.59-22.56
						c1.88-7.76,6.69-14.29,13.53-18.41l223.21-134.22c4.49-2.7,7.65-7,8.88-12.09c1.24-5.09,0.4-10.36-2.36-14.82l-18.01-29.15
						C3677.68,944.85,3671.27,941.57,3664.72,941.57z"/>
				</g>
			</g>
		</g>
		<g>
			<g>
				<path class="st0" d="M1819.04,3684.88h-270.55v-13.01l143.48-187.13c9.71-12.67,17.07-24.82,21.89-36.12
					c4.69-11.04,7.08-22.63,7.08-34.45c0-19.3-6.91-34.23-21.11-45.64c-14.39-11.55-34.46-17.41-59.65-17.41
					c-13.67,0-32.42,4.29-55.72,12.76l-7.77,2.83v-100.68l4.41-1.09c26.98-6.64,55.24-10,84-10c24.13,0,46.58,3.41,66.75,10.13
					c20.26,6.75,37.98,16.37,52.69,28.58c14.78,12.29,26.43,27.05,34.62,43.89c8.22,16.9,12.39,35.62,12.39,55.65
					c0,36.44-12.04,72.4-35.77,106.89l-53.5,78.78h123.16L1819.04,3684.88z M1562,3673.29h249.46l36.24-82.84h-127.32l65.81-96.91
					c22.4-32.55,33.75-66.3,33.75-100.35c0-18.25-3.77-35.27-11.22-50.58c-7.47-15.35-18.1-28.82-31.61-40.04
					c-13.59-11.29-30.06-20.2-48.95-26.5c-18.98-6.33-40.21-9.54-63.08-9.54c-26.27,0-52.08,2.9-76.82,8.61v75.11
					c21.25-7.21,38.29-10.73,51.91-10.73c27.89,0,50.4,6.72,66.9,19.96c16.88,13.56,25.44,31.96,25.44,54.68
					c0,13.39-2.69,26.5-8,38.99c-5.2,12.2-13.06,25.19-23.36,38.63L1562,3673.29z"/>
			</g>
		</g>
		<g>
			<g>
				<g>
					<g>
						<path class="st1" d="M2016.12,3389.6c0-20.48,13.4-37.96,31.86-44.18v-75.77c-68.7,6.95-122.32,64.97-122.32,135.5v17.9h90.47
							V3389.6z"/>
					</g>
					<g>
						<path class="st1" d="M2075.78,3269.66v75.22c19.35,5.68,33.59,23.6,33.59,44.73v33.46h88.68v-17.9
							C2198.05,3334.63,2144.46,3276.63,2075.78,3269.66z"/>
					</g>
					<path class="st4" d="M2062.74,3493.84c-24.41,0-44.56-19.03-46.44-42.98h-90.65v92.03c0,75.22,60.98,136.2,136.2,136.2
						c75.22,0,136.2-60.98,136.2-136.2v-92.03h-88.87C2107.31,3474.81,2087.16,3493.84,2062.74,3493.84z"/>
				</g>
				<path class="st2" d="M2062.75,3366.63L2062.75,3366.63c-15.58,0-28.33,14.43-28.33,32.06v39.62c0,17.64,12.75,32.06,28.33,32.06
					h0c15.58,0,28.33-14.43,28.33-32.06v-39.62C2091.07,3381.06,2078.32,3366.63,2062.75,3366.63z"/>
			</g>
		</g>
		<path class="st2" d="M3359.51,1296.44L3359.51,1296.44c14.68,0,23.9-15.84,16.67-28.62c-67.17-118.61-154.09-227.21-259.24-321.57
			c-231.79-208-533.47-322.71-844.91-322.8c-338.8-0.09-657.33,131.8-896.88,371.35c-82.44,82.44-152.07,174.27-208,273.04
			c-7.23,12.77,2,28.6,16.67,28.6h0c6.92,0,13.27-3.75,16.69-9.77c211.52-373.25,612.36-625.73,1071.16-625.73
			c458.79,0,859.64,252.47,1071.16,625.73C3346.23,1292.69,3352.59,1296.44,3359.51,1296.44z"/>
		<path class="st2" d="M2346.04,3119.44c-10.1,0.61-17.97,8.98-17.97,19.1v1.89c0,9.51,7.97,17.15,17.46,16.6
			c310.88-17.74,600.68-147.21,822.66-369.18c77.83-77.83,144.23-164.02,198.47-256.52c7.48-12.76-1.75-28.82-16.54-28.82h0
			c-6.82,0-13.1,3.64-16.55,9.53C3131.56,2856.32,2767.02,3094.21,2346.04,3119.44z"/>
		<path class="st2" d="M2015.85,2981.11c-54.37-22.02-112.26,33.34-173.56,91.95c-59.82,57.2-121.68,116.33-174.26,101.38
			c-42.19-12-57.27-68.58-74.73-134.11c-11.57-43.41-24.31-91-47.13-132.49c-22.42-44.21-58.68-70.77-66.3-76.02
			c-0.54-0.38-1.06-0.77-1.56-1.19c-106.45-90.05-197.45-197.76-268.42-318.63c-3.45-5.88-9.72-9.52-16.54-9.52h-0.13
			c-14.79,0-24.03,16.07-16.54,28.82c54.24,92.5,120.64,178.69,198.47,256.52c36.12,36.12,74.09,69.72,113.61,100.85
			c0.11,0.13,0.18,0.28,0.3,0.4c37.65,42.07,53.74,102.43,69.29,160.81c19.49,73.13,37.9,142.21,99.9,159.85
			c72.3,20.58,141.72-45.77,208.99-110.09c50.29-48.09,102.3-97.82,135.18-84.49c18.85,7.63,50,44.06,46.78,202.2
			c-0.2,9.93,7.58,18.27,17.62,18.62c0.21,0,0.42,0.01,0.62,0.01c5.01,0,9.74-2.09,13.21-5.89c1.64-4.35,3.14-8.33,4.77-12.68
			C2088.15,3078.49,2065.39,3001.18,2015.85,2981.11z"/>
		<g>
			<g>
				<g>
					<g>
						<g>
							<g>
								<path class="st2" d="M2365.12,836.53c-15.72,0-22.98-19.13-29.38-36.02c-5.67-14.96-11.03-29.09-19.98-29.09
									c-8.95,0-14.29,14.13-19.96,29.08c-6.4,16.89-13.64,36.02-29.37,36.02c-15.7,0-22.95-19.13-29.34-36.02
									c-5.66-14.96-11.01-29.09-19.94-29.09c-8.94,0-14.28,14.13-19.94,29.09c-6.39,16.88-13.63,36.02-29.34,36.02
									c-15.7,0-22.95-19.13-29.34-36.01c-5.66-14.96-11.02-29.1-19.95-29.1c-2.82,0-5.1-2.53-5.1-5.65c0-3.12,2.28-5.65,5.1-5.65
									c15.71,0,22.96,19.14,29.35,36.02c5.66,14.96,11.01,29.08,19.94,29.08c8.94,0,14.28-14.13,19.94-29.09
									c6.39-16.88,13.63-36.02,29.34-36.02c15.7,0,22.95,19.13,29.34,36.02c5.66,14.96,11.01,29.09,19.94,29.09
									c8.95,0,14.3-14.13,19.97-29.1c6.4-16.88,13.64-36.01,29.36-36.01c15.72,0,22.98,19.13,29.38,36.02
									c5.67,14.96,11.03,29.09,19.98,29.09c8.96,0,14.31-14.13,19.98-29.09c6.4-16.88,13.65-36.02,29.38-36.02
									c2.82,0,5.1,2.53,5.1,5.65c0,3.12-2.28,5.65-5.1,5.65c-8.96,0-14.31,14.13-19.98,29.09
									C2388.1,817.4,2380.84,836.53,2365.12,836.53z"/>
							</g>
						</g>
					</g>
					<g>
						<g>
							<g>
								<path class="st2" d="M2415.62,3063.94c-15.72,0-22.98-19.13-29.38-36.02c-5.67-14.96-11.03-29.09-19.98-29.09
									c-8.95,0-14.29,14.13-19.96,29.08c-6.4,16.89-13.64,36.02-29.37,36.02c-15.7,0-22.95-19.13-29.34-36.02
									c-5.66-14.96-11.01-29.09-19.94-29.09s-14.28,14.13-19.94,29.09c-6.39,16.88-13.63,36.02-29.34,36.02
									c-15.7,0-22.95-19.13-29.34-36.01c-5.66-14.96-11.02-29.1-19.95-29.1c-2.82,0-5.1-2.53-5.1-5.65s2.28-5.65,5.1-5.65
									c15.71,0,22.96,19.14,29.35,36.02c5.66,14.96,11.01,29.08,19.94,29.08c8.94,0,14.28-14.13,19.94-29.09
									c6.39-16.88,13.63-36.02,29.34-36.02s22.95,19.13,29.34,36.02c5.66,14.96,11.01,29.09,19.94,29.09
									c8.95,0,14.3-14.13,19.97-29.1c6.4-16.88,13.64-36.01,29.36-36.01c15.72,0,22.98,19.13,29.38,36.02
									c5.67,14.96,11.03,29.09,19.98,29.09c8.96,0,14.31-14.13,19.98-29.09c6.4-16.88,13.65-36.02,29.38-36.02
									c2.82,0,5.1,2.53,5.1,5.65s-2.28,5.65-5.1,5.65c-8.96,0-14.31,14.13-19.98,29.09
									C2438.6,3044.81,2431.35,3063.94,2415.62,3063.94z"/>
							</g>
						</g>
					</g>
				</g>
				<g>
					<path class="st2" d="M1616.83,905.46c-2.6-2.6-6.82-2.6-9.43,0.01l-76.06,76.06c-2.61,2.61-2.62,6.83-0.01,9.43l75.86,75.86
						c2.6,2.6,6.82,2.6,9.43-0.01l76.06-76.06c2.61-2.61,2.62-6.83,0.01-9.43L1616.83,905.46z M1611.92,1052.67l-66.44-66.44
						l66.62-66.62l66.44,66.44L1611.92,1052.67z"/>
					<path class="st2" d="M3013.98,2787.95l-75.86-75.86c-2.6-2.6-6.82-2.6-9.43,0.01l-76.06,76.06c-2.61,2.61-2.62,6.83-0.01,9.43
						l75.86,75.86c2.6,2.6,6.82,2.6,9.43-0.01l76.06-76.06C3016.57,2794.77,3016.58,2790.55,3013.98,2787.95z M2933.21,2859.3
						l-66.44-66.44l66.62-66.62l66.44,66.44L2933.21,2859.3z"/>
				</g>
				<g>
					<path class="st2" d="M2873.4,913.29c-20.95-20.95-54.91-20.95-75.86,0l-9.64,9.64c-20.95,20.95-20.95,54.91,0,75.86l9.42,9.42
						c20.95,20.95,54.91,20.95,75.86,0l9.63-9.63c20.95-20.95,20.95-54.93,0-75.88L2873.4,913.29z M2802.05,994.05L2802.05,994.05
						c-18.35-18.35-18.35-48.09,0-66.44l0.18-0.18c18.35-18.35,48.09-18.35,66.44,0l0,0c18.35,18.35,18.35,48.09,0,66.44l-0.18,0.18
						C2850.14,1012.4,2820.4,1012.4,2802.05,994.05z"/>
					<path class="st2" d="M1755.72,2994.59l-9.42-9.42c-20.95-20.95-54.91-20.95-75.86,0l-9.64,9.64
						c-20.95,20.95-20.95,54.91,0,75.86l9.42,9.42c20.95,20.95,54.91,20.95,75.86,0l9.64-9.64
						C1776.67,3049.51,1776.67,3015.54,1755.72,2994.59z M1674.95,3065.95L1674.95,3065.95c-18.35-18.35-18.35-48.09,0-66.44
						l0.18-0.18c18.35-18.35,48.09-18.35,66.44,0l0,0c18.35,18.35,18.35,48.09,0,66.44l-0.18,0.18
						C1723.05,3084.29,1693.3,3084.29,1674.95,3065.95z"/>
				</g>
			</g>
		</g>
		<g class="st5">
			<path class="st0" d="M1110.21,2018.92v-331.73c0-100.96,52.92-158.66,154.99-158.66s154.99,57.69,154.99,158.66v54.08h-98.28
				v-60.39c0-45.07-20.79-62.2-53.87-62.2c-33.07,0-53.87,17.13-53.87,62.2v345.25c0,45.07,20.79,61.29,53.87,61.29
				c33.08,0,53.87-16.22,53.87-61.29v-123.5h-51.98v-90.14h150.26v206.43c0,100.96-52.92,158.65-154.99,158.65
				S1110.21,2119.88,1110.21,2018.92z"/>
			<path class="st0" d="M2130.93,2018.92v-481.38h103.96v488.59c0,45.07,19.85,61.29,52.92,61.29c33.08,0,52.92-16.22,52.92-61.29
				v-488.59h100.17v481.38c0,100.96-52.92,158.65-154.99,158.65C2183.85,2177.57,2130.93,2119.88,2130.93,2018.92z"/>
			<path class="st0" d="M3167.05,1546.56h156.88c107.74,0,154.04,47.78,154.04,145.14v25.24c0,64.9-20.79,105.46-67.1,123.49v1.81
				c55.76,18.02,77.49,64.9,77.49,131.6v54.09c0,97.35-53.87,149.64-157.82,149.64h-163.49V1546.56z M3311.64,1803.47
				c38.75,0,62.37-16.23,62.37-66.7v-35.16c0-45.07-16.06-64.91-52.92-64.91H3271v166.77H3311.64z M3330.54,2087.43
				c34.97,0,53.87-15.33,53.87-62.2v-54.99c0-58.6-19.84-76.63-67.1-76.63H3271v193.81H3330.54z"/>
		</g>
		<g>
			<path class="st0" d="M1086.93,2018.92v-331.73c0-100.96,52.92-158.66,154.99-158.66s154.99,57.69,154.99,158.66v54.08h-98.28
				v-60.39c0-45.07-20.79-62.2-53.87-62.2c-33.07,0-53.87,17.13-53.87,62.2v345.25c0,45.07,20.79,61.29,53.87,61.29
				c33.08,0,53.87-16.22,53.87-61.29v-123.5h-51.98v-90.14h150.26v206.43c0,100.96-52.92,158.65-154.99,158.65
				S1086.93,2119.88,1086.93,2018.92z"/>
			<path class="st0" d="M2107.65,2018.92v-481.38h103.96v488.59c0,45.07,19.85,61.29,52.92,61.29c33.08,0,52.92-16.22,52.92-61.29
				v-488.59h100.17v481.38c0,100.96-52.92,158.65-154.99,158.65C2160.57,2177.57,2107.65,2119.88,2107.65,2018.92z"/>
			<path class="st0" d="M3143.76,1546.56h156.88c107.74,0,154.04,47.78,154.04,145.14v25.24c0,64.9-20.79,105.46-67.1,123.49v1.81
				c55.76,18.02,77.49,64.9,77.49,131.6v54.09c0,97.35-53.87,149.64-157.82,149.64h-163.49V1546.56z M3288.36,1803.47
				c38.75,0,62.37-16.23,62.37-66.7v-35.16c0-45.07-16.06-64.91-52.92-64.91h-50.09v166.77H3288.36z M3307.26,2087.43
				c34.97,0,53.87-15.33,53.87-62.2v-54.99c0-58.6-19.84-76.63-67.1-76.63h-46.31v193.81H3307.26z"/>
		</g>
		<g>
			<g>
				<path class="st2" d="M1242.31,2189.48c-105.13,0-163.03-59.2-163.03-166.69v-331.73c0-107.49,57.9-166.69,163.03-166.69
					c105.13,0,163.02,59.2,163.02,166.69v62.12h-114.36v-68.43c0-37.46-14.14-54.17-45.83-54.17c-31.7,0-45.83,16.71-45.83,54.17
					V2030c0,36.83,14.14,53.25,45.83,53.25c31.7,0,45.83-16.42,45.83-53.25v-115.46H1239v-106.22h166.34v214.47
					C1405.34,2130.28,1347.44,2189.48,1242.31,2189.48z M1242.31,1540.44c-96.14,0-146.95,52.08-146.95,150.62v331.73
					c0,98.53,50.81,150.61,146.95,150.61c96.14,0,146.95-52.08,146.95-150.61v-198.4h-134.19v74.07h51.98V2030
					c0,46-20.83,69.33-61.91,69.33s-61.91-23.33-61.91-69.33v-345.25c0-58.05,33.66-70.24,61.91-70.24
					c28.24,0,61.91,12.19,61.91,70.24v52.35h82.21v-46.04C1389.26,1592.52,1338.45,1540.44,1242.31,1540.44z"/>
			</g>
			<g>
				<path class="st2" d="M2263.03,2189.48c-105.13,0-163.02-59.2-163.02-166.69v-489.41h120.03V2030
					c0,46.93,22.69,53.25,44.88,53.25c22.2,0,44.89-6.33,44.89-53.25v-496.62h116.25v489.41
					C2426.06,2130.28,2368.16,2189.48,2263.03,2189.48z M2116.08,1549.45v473.34c0,98.53,50.81,150.61,146.95,150.61
					c96.14,0,146.95-52.08,146.95-150.61v-473.34h-84.1V2030c0,46-20.51,69.33-60.96,69.33c-40.45,0-60.96-23.33-60.96-69.33
					v-480.55H2116.08z"/>
			</g>
			<g>
				<path class="st2" d="M3307.65,2189.48h-171.53V1542.4h164.91c56,0,96.23,12.53,123,38.31c26.3,25.32,39.08,62.9,39.08,114.87
					v25.24c0,61.54-18.67,102.23-56.97,123.8c45.29,21.19,67.36,64.92,67.36,133.1v54.09c0,50.88-14.27,90.29-42.42,117.14
					C3402.9,2175.84,3361.36,2189.48,3307.65,2189.48z M3152.19,2173.41h155.46c99.39,0,149.79-47.64,149.79-141.6v-54.09
					c0-68.7-22.86-108.09-71.93-123.96l-5.57-1.8v-13.15l5.12-1.99c42.28-16.46,61.98-53.32,61.98-116.01v-25.24
					c0-94.82-45.03-137.1-146.01-137.1h-148.84V2173.41z M3307.65,2099.34h-67.57v-209.89h54.34c54.07,0,75.13,23.74,75.13,84.67
					v54.99C3369.55,2077.02,3349.88,2099.34,3307.65,2099.34z M3256.15,2083.26h51.5c28.29,0,45.83-9.06,45.83-54.16v-54.99
					c0-57.98-19.89-68.59-59.06-68.59h-38.27V2083.26z M3288.75,1815.38h-48.67v-182.84h58.12c41.59,0,60.96,23.18,60.96,72.95
					v35.16C3359.16,1790.93,3336.13,1815.38,3288.75,1815.38z M3256.15,1799.31h32.6c38.59,0,54.34-17,54.34-58.67v-35.16
					c0-47.2-17.94-56.87-44.88-56.87h-42.05V1799.31z"/>
			</g>
		</g>
	</g>
	<g>
		<path d="M3084.61,3559.98v-321.71h-190.17l-225.14,368.81v3.78h-76.29l13.1-19.29c33.92-49.28,51.11-101.31,51.11-154.65
			c0-31.2-6.59-60.57-19.6-87.3c-12.77-26.24-30.85-49.19-53.75-68.22c-22.13-18.37-48.47-32.73-78.29-42.68
			c-28.95-9.65-60.84-14.54-94.77-14.54c-38.17,0-75.75,4.48-111.68,13.32l-41.57,10.23v225.66l73.29-26.63
			c30.7-11.16,45.35-12.37,50.22-12.37c18.67,0,32.96,3.55,41.33,10.27c4.89,3.93,7.37,7.68,7.37,17.29
			c0,7.66-1.56,15.21-4.63,22.42c-4.18,9.81-10.95,20.85-20.1,32.8l-180.55,235.47v80.18h401.3l43.49-99.42v28.19h201.17v71.23
			h214.14V3760l81.36-200.01H3084.61z"/>
		<path d="M2104.23,3243.2v-6.54l-31.12,3.15l-31.11-3.16v6.54c-102.84,15.16-179.21,102.92-179.21,208.01v159.66h-81.15l13.1-19.29
			c33.92-49.28,51.11-101.31,51.11-154.65c0-31.19-6.59-60.56-19.6-87.3c-12.77-26.23-30.85-49.18-53.75-68.22
			c-22.12-18.37-48.46-32.73-78.29-42.68c-28.95-9.65-60.84-14.54-94.77-14.54c-38.17,0-75.75,4.48-111.68,13.32l-41.57,10.23
			v225.66l73.29-26.63c30.7-11.16,45.35-12.37,50.22-12.37c18.67,0,32.96,3.55,41.33,10.27c4.89,3.93,7.37,7.68,7.37,17.29
			c0,7.66-1.56,15.2-4.63,22.41c-4.18,9.82-10.95,20.85-20.1,32.8l-176.66,230.39v85.25h397.41l62.22-142.23
			c30.27,79.03,106.88,135.32,196.43,135.32c115.96,0,210.3-94.34,210.3-210.3V3451.2
			C2283.38,3346.14,2207.03,3258.39,2104.23,3243.2z"/>
		<g>
			<path class="st2" d="M1776.88,3781.27H1453.9v-15.53l171.28-223.38c11.59-15.12,20.38-29.63,26.13-43.12
				c5.6-13.17,8.45-27.01,8.45-41.12c0-23.04-8.24-40.87-25.2-54.49c-17.18-13.79-41.14-20.78-71.2-20.78
				c-16.32,0-38.7,5.13-66.52,15.23l-9.28,3.37v-120.18l5.26-1.3c32.2-7.92,65.94-11.94,100.28-11.94c28.8,0,55.61,4.07,79.68,12.1
				c24.18,8.06,45.34,19.54,62.9,34.12c17.64,14.67,31.55,32.29,41.33,52.39c9.81,20.17,14.79,42.52,14.79,66.43
				c0,43.5-14.37,86.43-42.71,127.6l-63.87,94.05h147.02L1776.88,3781.27z M1470.04,3767.44h297.79l43.26-98.89h-151.99
				l78.57-115.69c26.74-38.86,40.29-79.15,40.29-119.79c0-21.79-4.51-42.1-13.39-60.37c-8.92-18.32-21.61-34.4-37.73-47.8
				c-16.23-13.47-35.89-24.12-58.43-31.63c-22.66-7.55-48-11.38-75.31-11.38c-31.35,0-62.18,3.46-91.71,10.28v89.66
				c25.37-8.61,45.71-12.8,61.96-12.8c33.3,0,60.17,8.02,79.87,23.83c20.16,16.19,30.38,38.15,30.38,65.28
				c0,15.98-3.21,31.64-9.55,46.54c-6.21,14.56-15.59,30.07-27.88,46.12L1470.04,3767.44z"/>
		</g>
		<g>
			<path class="st2" d="M2588.26,3781.27h-322.98v-15.53l171.28-223.38c11.59-15.13,20.38-29.63,26.13-43.12
				c5.6-13.17,8.45-27.01,8.45-41.12c0-23.04-8.24-40.87-25.2-54.49c-17.18-13.79-41.14-20.78-71.21-20.78
				c-16.32,0-38.7,5.13-66.52,15.23l-9.28,3.37v-120.18l5.26-1.3c32.21-7.92,65.94-11.94,100.28-11.94c28.8,0,55.61,4.07,79.68,12.1
				c24.18,8.06,45.34,19.54,62.9,34.12c17.64,14.66,31.54,32.29,41.33,52.39c9.81,20.17,14.79,42.52,14.79,66.43
				c0,43.5-14.37,86.43-42.71,127.6l-63.87,94.05h147.02L2588.26,3781.27z M2281.42,3767.44h297.79l43.26-98.89h-151.99
				l78.57-115.69c26.74-38.86,40.29-79.15,40.29-119.79c0-21.79-4.51-42.1-13.39-60.37c-8.92-18.32-21.61-34.41-37.73-47.8
				c-16.23-13.47-35.89-24.12-58.43-31.63c-22.66-7.55-48-11.38-75.31-11.38c-31.35,0-62.18,3.46-91.71,10.28v89.66
				c25.37-8.61,45.71-12.8,61.96-12.8c33.3,0,60.17,8.02,79.87,23.83c20.16,16.19,30.38,38.15,30.38,65.28
				c0,15.98-3.21,31.64-9.55,46.54c-6.2,14.56-15.59,30.07-27.88,46.12L2281.42,3767.44z"/>
		</g>
		<g>
			<path class="st2" d="M3030.56,3781.27h-118.72v-71.23h-201.17v-93.4l204.21-334.51h115.69v321.71h58.16l-43.2,106.2h-14.96
				V3781.27z M2925.67,3767.44h91.05v-71.23h19.48l31.94-78.53h-51.43v-321.71h-94.09l-198.13,324.57v75.68h201.17V3767.44z
				 M2925.67,3617.67h-115.11l115.11-178.33V3617.67z M2835.96,3603.84h75.88v-117.55L2835.96,3603.84z"/>
		</g>
		<g>
			<g>
				<g>
					<g>
						<path class="st1" d="M2012.14,3428.78c0-24.45,16-45.31,38.03-52.73v-90.45c-82.02,8.3-146.03,77.55-146.03,161.76v21.37
							h107.99V3428.78z"/>
					</g>
					<g>
						<path class="st1" d="M2083.36,3285.6v89.79c23.1,6.78,40.1,28.18,40.1,53.39v39.94h105.86v-21.37
							C2229.33,3363.16,2165.35,3293.92,2083.36,3285.6z"/>
					</g>
					<path class="st4" d="M2067.8,3553.21c-29.15,0-53.19-22.72-55.44-51.31h-108.22v109.86c0,89.8,72.79,162.59,162.59,162.59
						c89.8,0,162.59-72.79,162.59-162.59V3501.9h-106.09C2121,3530.5,2096.95,3553.21,2067.8,3553.21z"/>
				</g>
				<g>
					<path class="st6" d="M2067.81,3401.36L2067.81,3401.36c-18.6,0-33.81,17.22-33.81,38.28v47.29c0,21.05,15.22,38.28,33.81,38.28
						h0c18.6,0,33.81-17.23,33.81-38.28v-47.29C2101.62,3418.59,2086.4,3401.36,2067.81,3401.36z"/>
				</g>
			</g>
		</g>
		<polyline points="2870.47,3761.6 2643.63,3761.6 2675.7,3724.46 		"/>
		<polyline points="2748.1,3478 2650.32,3638.13 2678.75,3612.8 		"/>
	</g>
</g>
</svg>
