<svg xmlns="http://www.w3.org/2000/svg" xmlns:xlink="http://www.w3.org/1999/xlink" width="1920" zoomAndPan="magnify" viewBox="0 0 1440 809.999993" height="1080" preserveAspectRatio="xMidYMid meet" version="1.0"><defs><filter x="0%" y="0%" width="100%" height="100%" id="bc7a1a69e7"><feColorMatrix values="0 0 0 0 1 0 0 0 0 1 0 0 0 0 1 0 0 0 1 0" color-interpolation-filters="sRGB"/></filter><mask id="f83ec80d18"><g filter="url(#bc7a1a69e7)"><rect x="-144" width="1728" fill="#000000" y="-80.999999" height="971.999992" fill-opacity="0.73"/></g></mask><clipPath id="e1a91e0f72"><path d="M 0 189 L 1440 189 L 1440 810 L 0 810 Z M 0 189 " clip-rule="nonzero"/></clipPath><clipPath id="514f74f8ac"><path d="M 506 137 L 1440 137 L 1440 810 L 506 810 Z M 506 137 " clip-rule="nonzero"/></clipPath><clipPath id="a9d0a9d54a"><path d="M 0 363 L 1440 363 L 1440 810 L 0 810 Z M 0 363 " clip-rule="nonzero"/></clipPath><clipPath id="2e1fafeaa3"><path d="M 283 443 L 1440 443 L 1440 810 L 283 810 Z M 283 443 " clip-rule="nonzero"/></clipPath><clipPath id="74030c8199"><rect x="0" width="1440" y="0" height="810"/></clipPath></defs><g mask="url(#f83ec80d18)"><g transform="matrix(1, 0, 0, 1, 0, 0.000000000000039746)"><g clip-path="url(#74030c8199)"><g clip-path="url(#e1a91e0f72)"><path fill="#d8eeeb" d="M 0.109375 294.210938 C 520.101562 -12.550781 1013.742188 440.394531 1171.84375 560.277344 C 1329.949219 680.160156 1451.140625 720.796875 1451.140625 720.796875 L 1451.140625 810.199219 L 0.109375 810.199219 Z M 0.109375 294.210938 " fill-opacity="1" fill-rule="nonzero"/></g><g clip-path="url(#514f74f8ac)"><path fill="#78a39c" d="M 506.925781 810.199219 C 506.925781 559.171875 852.445312 518.476562 1065.863281 518.476562 C 1279.277344 518.476562 1451.140625 170.324219 1451.140625 137.289062 L 1451.140625 810.199219 Z M 506.925781 810.199219 " fill-opacity="1" fill-rule="nonzero"/></g><g clip-path="url(#a9d0a9d54a)"><path fill="#21917b" d="M 0.109375 443.121094 C 221.710938 703.671875 408.488281 386.632812 659.167969 364.515625 C 909.789062 342.398438 1451.140625 649.621094 1451.140625 649.621094 L 1451.140625 810.199219 L 0.109375 810.199219 Z M 0.109375 443.121094 " fill-opacity="0.42" fill-rule="nonzero"/></g><g clip-path="url(#2e1fafeaa3)"><path fill="#21917b" d="M 308.773438 810.199219 C 308.773438 810.199219 217.300781 601.84375 384.980469 473.773438 C 552.664062 345.707031 997.257812 660.828125 1154.78125 653.164062 C 1312.304688 645.558594 1451.140625 443.121094 1451.140625 443.121094 L 1451.140625 810.199219 Z M 308.773438 810.199219 " fill-opacity="0.42" fill-rule="nonzero"/></g></g></g></g></svg>