<svg width="750" height="500" viewBox="0 0 750 500" fill="none" xmlns="http://www.w3.org/2000/svg">
<mask id="mask0_14_2772" style="mask-type:luminance" maskUnits="userSpaceOnUse" x="0" y="0" width="750" height="500">
<path d="M750 0H0V500H750V0Z" fill="white"/>
<path d="M0.5 499.5V0.5H749.5V499.5H0.5Z" stroke="white"/>
</mask>
<g mask="url(#mask0_14_2772)">
<g style="mix-blend-mode:color-dodge">
<path d="M215.129 285.52L-221.026 660.672L-183.517 704.28L252.638 329.128L215.129 285.52Z" fill="url(#paint0_linear_14_2772)" style="mix-blend-mode:color-dodge"/>
<path d="M-183.464 703.575L-220.321 660.725L215.076 286.225L251.932 329.075L-183.464 703.575Z" stroke="#87FFFF" stroke-opacity="0.6"/>
</g>
<g style="mix-blend-mode:color-dodge">
<path d="M198.602 318.209L-81.7559 559.355L-77.0542 564.822L203.304 323.676L198.602 318.209Z" fill="url(#paint1_linear_14_2772)" style="mix-blend-mode:color-dodge"/>
<path d="M-77.0012 564.116L-81.0507 559.408L198.549 318.915L202.599 323.623L-77.0012 564.116Z" stroke="#87FFFF" stroke-opacity="0.6"/>
</g>
<g style="mix-blend-mode:color-dodge">
<path d="M92.0995 249.599L-344.055 624.751L-306.546 668.359L129.608 293.207L92.0995 249.599Z" fill="url(#paint2_linear_14_2772)" style="mix-blend-mode:color-dodge"/>
<path d="M-306.493 667.654L-343.35 624.804L92.0465 250.304L128.903 293.154L-306.493 667.654Z" stroke="#87FFFF" stroke-opacity="0.6"/>
</g>
<g style="mix-blend-mode:color-dodge">
<path d="M58.1267 225.029L-181.777 431.379L-163.395 452.751L76.5094 246.401L58.1267 225.029Z" fill="url(#paint3_linear_14_2772)" style="mix-blend-mode:color-dodge"/>
<path d="M-163.342 452.046L-181.072 431.432L58.0737 225.734L75.8042 246.348L-163.342 452.046Z" stroke="#87FFFF" stroke-opacity="0.6"/>
</g>
<g style="mix-blend-mode:color-dodge">
<path d="M193.119 429.826L44.0317 558.061L106.972 631.236L256.059 503.001L193.119 429.826Z" fill="url(#paint4_linear_14_2772)" style="mix-blend-mode:color-dodge"/>
<path d="M107.025 630.531L44.7369 558.114L193.066 430.531L255.354 502.948L107.025 630.531Z" stroke="#87FFFF" stroke-opacity="0.6"/>
</g>
<g style="mix-blend-mode:color-dodge">
<path d="M118.387 275.348L-317.768 650.5L-308.306 661.501L127.849 286.349L118.387 275.348Z" fill="url(#paint5_linear_14_2772)" style="mix-blend-mode:color-dodge"/>
<path d="M-308.253 660.796L-317.063 650.554L118.334 276.053L127.143 286.296L-308.253 660.796Z" stroke="#87FFFF" stroke-opacity="0.6"/>
</g>
<g style="mix-blend-mode:color-dodge">
<path d="M262.094 346.286L-174.061 721.438L-169.639 726.578L266.515 351.426L262.094 346.286Z" fill="url(#paint6_linear_14_2772)" style="mix-blend-mode:color-dodge"/>
<path d="M-169.586 725.873L-173.355 721.491L262.041 346.991L265.81 351.373L-169.586 725.873Z" stroke="#87FFFF" stroke-opacity="0.6"/>
</g>
<path d="M195.74 409.75L71.2399 515.76L67.0399 568.06L54.6699 578.6" stroke="#87FFFF" stroke-opacity="0.6" stroke-width="0.91" stroke-miterlimit="10"/>
<path d="M136.91 390.63L53.9099 461.3L49.7098 513.61L24.0898 535.43" stroke="#87FFFF" stroke-opacity="0.6" stroke-width="0.91" stroke-miterlimit="10"/>
<path d="M151.96 421.14L109.6 457.22L105.09 508.49L42.4502 561.83" stroke="#87FFFF" stroke-opacity="0.6" stroke-width="0.91" stroke-miterlimit="10"/>
<path d="M214.011 403.452C214.086 397.758 209.53 393.082 203.837 393.008C198.143 392.933 193.467 397.489 193.393 403.182C193.318 408.876 197.873 413.552 203.567 413.626C209.26 413.701 213.936 409.146 214.011 403.452Z" fill="#87FFFF" fill-opacity="0.61"/>
<path d="M203.83 393.508C209.248 393.579 213.582 398.028 213.511 403.445C213.44 408.863 208.991 413.197 203.573 413.126C198.156 413.055 193.822 408.606 193.893 403.189C193.964 397.771 198.413 393.437 203.83 393.508Z" stroke="#87FFFF" stroke-opacity="0.6"/>
<path d="M282.22 476.22L157.72 582.23L153.53 634.53L141.16 645.07" stroke="#87FFFF" stroke-opacity="0.6" stroke-width="0.91" stroke-miterlimit="10"/>
<path d="M282.34 476.5C281.019 474.947 280.187 473.038 279.95 471.013C279.713 468.988 280.082 466.939 281.01 465.123C281.937 463.308 283.383 461.808 285.163 460.814C286.943 459.82 288.978 459.376 291.01 459.538C293.042 459.7 294.981 460.461 296.581 461.725C298.18 462.989 299.37 464.698 299.998 466.638C300.626 468.578 300.666 470.66 300.111 472.622C299.556 474.583 298.432 476.337 296.88 477.66C295.85 478.539 294.656 479.206 293.367 479.624C292.079 480.041 290.72 480.2 289.37 480.093C288.02 479.985 286.704 479.612 285.498 478.996C284.291 478.379 283.219 477.531 282.34 476.5Z" stroke="#87FFFF" stroke-opacity="0.6" stroke-width="0.91" stroke-miterlimit="10"/>
<path d="M157.788 421.889C159.44 420.448 159.612 417.94 158.171 416.288C156.73 414.635 154.222 414.464 152.569 415.905C150.917 417.346 150.745 419.854 152.186 421.506C153.627 423.159 156.135 423.33 157.788 421.889Z" stroke="#87FFFF" stroke-opacity="0.6" stroke-width="0.91" stroke-miterlimit="10"/>
<path d="M164 384.88C163.482 384.279 163.154 383.538 163.058 382.75C162.962 381.962 163.102 381.164 163.461 380.456C163.82 379.749 164.381 379.164 165.074 378.776C165.766 378.389 166.558 378.215 167.349 378.279C168.14 378.343 168.894 378.64 169.515 379.133C170.137 379.626 170.597 380.293 170.839 381.049C171.08 381.805 171.091 382.616 170.871 383.378C170.65 384.14 170.208 384.819 169.6 385.33C168.795 386.006 167.756 386.337 166.708 386.253C165.66 386.169 164.687 385.676 164 384.88Z" stroke="#87FFFF" stroke-opacity="0.6" stroke-width="0.91" stroke-miterlimit="10"/>
<path d="M226.9 441C226.382 440.399 226.054 439.658 225.958 438.87C225.862 438.083 226.002 437.284 226.361 436.577C226.72 435.869 227.281 435.284 227.974 434.896C228.666 434.509 229.458 434.336 230.249 434.399C231.04 434.463 231.794 434.76 232.415 435.253C233.037 435.747 233.497 436.414 233.739 437.169C233.98 437.925 233.991 438.736 233.771 439.498C233.55 440.26 233.108 440.94 232.5 441.45C231.695 442.126 230.656 442.458 229.608 442.373C228.56 442.289 227.587 441.796 226.9 441Z" stroke="#87FFFF" stroke-opacity="0.6" stroke-width="0.91" stroke-miterlimit="10"/>
<path d="M93.1999 305.06C92.6815 304.459 92.3534 303.718 92.2574 302.93C92.1614 302.143 92.3018 301.344 92.6608 300.637C93.0198 299.929 93.5811 299.344 94.2733 298.956C94.9656 298.569 95.7575 298.396 96.5484 298.459C97.3393 298.523 98.0935 298.82 98.7149 299.313C99.3364 299.807 99.7971 300.474 100.038 301.229C100.28 301.985 100.291 302.796 100.07 303.558C99.8499 304.32 99.4076 305 98.7999 305.51C97.9947 306.186 96.9556 306.518 95.9076 306.433C94.8596 306.349 93.8869 305.856 93.1999 305.06Z" stroke="#87FFFF" stroke-opacity="0.6" stroke-width="0.91" stroke-miterlimit="10"/>
<path d="M121.13 270.26C120.612 269.659 120.284 268.918 120.188 268.13C120.092 267.343 120.232 266.544 120.591 265.837C120.95 265.129 121.511 264.544 122.204 264.157C122.896 263.769 123.688 263.596 124.479 263.659C125.27 263.723 126.024 264.02 126.645 264.514C127.267 265.007 127.727 265.674 127.969 266.43C128.21 267.186 128.221 267.996 128.001 268.758C127.78 269.52 127.338 270.2 126.73 270.71C125.925 271.386 124.886 271.718 123.838 271.634C122.79 271.549 121.817 271.056 121.13 270.26Z" stroke="#87FFFF" stroke-opacity="0.6" stroke-width="0.91" stroke-miterlimit="10"/>
<path d="M136.86 390.64C135.847 389.45 135.21 387.986 135.029 386.434C134.848 384.882 135.131 383.311 135.843 381.919C136.556 380.528 137.664 379.38 139.029 378.619C140.394 377.858 141.955 377.519 143.512 377.645C145.07 377.771 146.555 378.356 147.781 379.326C149.006 380.297 149.915 381.609 150.395 383.096C150.874 384.584 150.902 386.18 150.474 387.683C150.045 389.186 149.181 390.528 147.99 391.54C147.201 392.213 146.286 392.723 145.299 393.041C144.312 393.36 143.272 393.481 142.239 393.398C141.205 393.314 140.198 393.027 139.275 392.554C138.352 392.081 137.531 391.431 136.86 390.64Z" stroke="#87FFFF" stroke-opacity="0.6" stroke-width="0.91" stroke-miterlimit="10"/>
<path d="M264.22 387.52C263.206 386.331 262.567 384.868 262.385 383.315C262.202 381.763 262.484 380.192 263.195 378.8C263.906 377.408 265.014 376.258 266.378 375.496C267.743 374.734 269.302 374.394 270.86 374.518C272.418 374.643 273.904 375.227 275.13 376.196C276.356 377.165 277.267 378.477 277.748 379.964C278.228 381.451 278.257 383.047 277.83 384.551C277.404 386.054 276.54 387.397 275.35 388.41C273.756 389.767 271.688 390.435 269.601 390.268C267.514 390.101 265.579 389.113 264.22 387.52Z" stroke="#87FFFF" stroke-opacity="0.6" stroke-width="0.91" stroke-miterlimit="10"/>
<path d="M163.92 340C162.91 338.811 162.276 337.349 162.097 335.799C161.917 334.249 162.202 332.681 162.913 331.293C163.625 329.905 164.732 328.759 166.095 328C167.458 327.241 169.015 326.903 170.57 327.029C172.125 327.154 173.608 327.738 174.831 328.706C176.054 329.675 176.963 330.984 177.443 332.468C177.922 333.953 177.951 335.546 177.525 337.047C177.099 338.547 176.238 339.888 175.05 340.9C174.261 341.572 173.346 342.082 172.359 342.401C171.372 342.72 170.332 342.841 169.299 342.757C168.265 342.674 167.258 342.387 166.335 341.914C165.412 341.441 164.591 340.79 163.92 340Z" stroke="#87FFFF" stroke-opacity="0.6" stroke-width="0.91" stroke-miterlimit="10"/>
<path d="M161.42 277.42C160.406 276.231 159.767 274.768 159.585 273.215C159.402 271.663 159.684 270.092 160.395 268.7C161.106 267.308 162.214 266.158 163.578 265.396C164.943 264.634 166.503 264.294 168.06 264.418C169.618 264.543 171.104 265.127 172.33 266.096C173.556 267.065 174.467 268.376 174.948 269.864C175.429 271.351 175.457 272.947 175.03 274.45C174.604 275.954 173.741 277.297 172.55 278.31C170.956 279.667 168.888 280.335 166.801 280.168C164.714 280.001 162.779 279.013 161.42 277.42Z" fill="#87FFFF" fill-opacity="0.61"/>
<path d="M161.801 277.095C160.851 275.982 160.252 274.611 160.081 273.157C159.91 271.703 160.175 270.231 160.841 268.927C161.506 267.624 162.544 266.547 163.822 265.833C165.1 265.119 166.561 264.8 168.021 264.917C169.48 265.033 170.872 265.58 172.02 266.488C173.169 267.396 174.022 268.624 174.472 270.017C174.922 271.41 174.949 272.906 174.549 274.314C174.15 275.722 173.341 276.98 172.226 277.929C170.733 279.2 168.796 279.826 166.841 279.67C164.886 279.513 163.073 278.587 161.801 277.095Z" stroke="#87FFFF" stroke-opacity="0.6"/>
<path d="M168.12 305.09C167.106 303.901 166.467 302.437 166.284 300.885C166.102 299.333 166.384 297.762 167.095 296.37C167.806 294.978 168.914 293.828 170.278 293.066C171.642 292.304 173.202 291.964 174.76 292.088C176.318 292.213 177.804 292.797 179.03 293.766C180.256 294.735 181.167 296.046 181.648 297.533C182.128 299.021 182.157 300.617 181.73 302.12C181.303 303.624 180.44 304.967 179.25 305.98C178.461 306.653 177.547 307.164 176.561 307.483C175.574 307.803 174.534 307.925 173.5 307.842C172.467 307.759 171.459 307.474 170.536 307.001C169.613 306.529 168.792 305.88 168.12 305.09Z" stroke="#87FFFF" stroke-opacity="0.6" stroke-width="0.91" stroke-miterlimit="10"/>
<path d="M105.71 461.19C105.007 460.365 104.564 459.35 104.438 458.273C104.311 457.196 104.507 456.106 105.001 455.141C105.494 454.175 106.263 453.378 107.21 452.85C108.156 452.321 109.238 452.086 110.319 452.172C111.4 452.259 112.43 452.665 113.281 453.337C114.131 454.01 114.762 454.92 115.095 455.951C115.428 456.983 115.448 458.09 115.152 459.133C114.855 460.176 114.256 461.108 113.43 461.81C112.883 462.277 112.249 462.631 111.564 462.853C110.88 463.074 110.158 463.159 109.441 463.101C108.724 463.044 108.026 462.845 107.385 462.517C106.745 462.189 106.176 461.738 105.71 461.19Z" fill="#87FFFF" fill-opacity="0.61"/>
<path d="M106.091 460.866L106.091 460.865C105.451 460.116 105.049 459.193 104.934 458.215C104.82 457.236 104.998 456.246 105.446 455.368C105.894 454.491 106.593 453.766 107.453 453.286C108.314 452.806 109.297 452.592 110.279 452.671C111.261 452.75 112.198 453.118 112.97 453.729C113.743 454.341 114.317 455.167 114.62 456.105C114.922 457.043 114.94 458.049 114.671 458.997C114.401 459.944 113.857 460.791 113.106 461.429L113.105 461.429C112.608 461.854 112.032 462.176 111.41 462.377C110.788 462.579 110.133 462.655 109.481 462.603C108.83 462.551 108.195 462.37 107.613 462.072C107.031 461.774 106.514 461.364 106.091 460.866Z" stroke="#87FFFF" stroke-opacity="0.6"/>
<path d="M47.6299 465.55C46.9266 464.725 46.4838 463.709 46.3576 462.633C46.2314 461.556 46.4274 460.466 46.9208 459.501C47.4142 458.535 48.1829 457.738 49.1295 457.21C50.0762 456.681 51.1583 456.445 52.239 456.532C53.3197 456.619 54.3503 457.024 55.2005 457.697C56.0507 458.37 56.6823 459.28 57.0154 460.311C57.3484 461.343 57.3679 462.45 57.0715 463.493C56.775 464.536 56.1759 465.467 55.3499 466.17C54.8027 466.637 54.1687 466.991 53.4843 467.213C52.7998 467.434 52.0784 467.519 51.3613 467.461C50.6442 467.404 49.9455 467.205 49.3052 466.877C48.6649 466.549 48.0956 466.098 47.6299 465.55Z" fill="#87FFFF" fill-opacity="0.61"/>
<path d="M48.011 465.226L48.0104 465.225C47.3713 464.476 46.9689 463.553 46.8542 462.574C46.7395 461.596 46.9176 460.605 47.366 459.728C47.8144 458.851 48.5129 458.126 49.3732 457.646C50.2335 457.166 51.2169 456.952 52.199 457.031C53.181 457.11 54.1176 457.478 54.8903 458.089C55.6629 458.701 56.2369 459.527 56.5395 460.465C56.8422 461.402 56.8599 462.409 56.5905 463.356C56.3211 464.304 55.7767 465.151 55.026 465.789L55.0253 465.789C54.5281 466.214 53.9521 466.536 53.3302 466.737C52.7084 466.938 52.0529 467.015 51.4013 466.963C50.7498 466.91 50.1149 466.73 49.5332 466.432C48.9514 466.134 48.4342 465.724 48.011 465.226Z" stroke="#87FFFF" stroke-opacity="0.6"/>
<path d="M69.9102 355C69.2069 354.175 68.7641 353.16 68.6379 352.083C68.5116 351.006 68.7076 349.916 69.201 348.951C69.6945 347.985 70.4631 347.188 71.4098 346.66C72.3565 346.131 73.4386 345.896 74.5193 345.982C75.6 346.069 76.6306 346.475 77.4808 347.147C78.331 347.82 78.9626 348.73 79.2956 349.761C79.6287 350.793 79.6482 351.901 79.3517 352.943C79.0553 353.986 78.4562 354.918 77.6302 355.62C76.5228 356.558 75.0889 357.019 73.6422 356.903C72.1955 356.787 70.8537 356.103 69.9102 355Z" fill="#87FFFF" fill-opacity="0.61"/>
<path d="M70.2903 354.675C69.6514 353.925 69.2492 353.003 69.1345 352.025C69.0197 351.046 69.1979 350.056 69.6463 349.178C70.0947 348.301 70.7932 347.576 71.6535 347.096C72.5138 346.616 73.4972 346.402 74.4793 346.481C75.4613 346.56 76.3979 346.928 77.1706 347.539C77.9432 348.151 78.5172 348.977 78.8198 349.915C79.1225 350.853 79.1402 351.859 78.8708 352.807C78.6014 353.754 78.0571 354.6 77.3067 355.239C76.3001 356.091 74.997 356.51 73.6823 356.405C72.3674 356.299 71.1479 355.677 70.2903 354.675Z" stroke="#87FFFF" stroke-opacity="0.6"/>
<path d="M5.67694 447.079C7.67365 444.805 7.44855 441.343 5.17414 439.346C2.89972 437.349 -0.562718 437.574 -2.55943 439.849C-4.55615 442.123 -4.33102 445.585 -2.05661 447.582C0.217807 449.579 3.68023 449.354 5.67694 447.079Z" fill="#87FFFF" fill-opacity="0.61"/>
<path d="M4.84427 439.722C6.91116 441.536 7.11573 444.683 5.30119 446.749C3.48666 448.816 0.340155 449.021 -1.72674 447.206C-3.79363 445.392 -3.99822 442.245 -2.18369 440.178C-0.369154 438.112 2.77737 437.907 4.84427 439.722Z" stroke="#87FFFF" stroke-opacity="0.6"/>
<path d="M-6.05975 412.26C-7.00036 411.154 -7.46339 409.719 -7.34715 408.272C-7.2309 406.824 -6.54487 405.482 -5.43975 404.54C-4.89168 404.073 -4.25687 403.718 -3.57163 403.496C-2.88639 403.274 -2.16415 403.19 -1.44623 403.248C-0.728302 403.305 -0.0287685 403.504 0.612368 403.832C1.2535 404.16 1.82367 404.611 2.29025 405.16C3.23086 406.266 3.6939 407.701 3.57765 409.148C3.4614 410.596 2.77537 411.938 1.67025 412.88C1.12218 413.347 0.487374 413.702 -0.197868 413.924C-0.88311 414.145 -1.60535 414.23 -2.32327 414.172C-3.0412 414.115 -3.74073 413.916 -4.38187 413.588C-5.023 413.26 -5.59317 412.809 -6.05975 412.26Z" fill="#87FFFF" fill-opacity="0.61"/>
<path d="M-5.11535 404.92L-5.11539 404.92C-6.11968 405.777 -6.74311 406.996 -6.84875 408.312C-6.95439 409.627 -6.53361 410.931 -5.67882 411.936C-5.25482 412.435 -4.73669 412.845 -4.15406 413.143C-3.57143 413.441 -2.93572 413.622 -2.2833 413.674C-1.63086 413.726 -0.974527 413.649 -0.351816 413.448C0.270903 413.246 0.84779 412.924 1.34585 412.499L1.34589 412.499C2.35018 411.643 2.97361 410.424 3.07925 409.108C3.18489 407.793 2.76412 406.489 1.90936 405.484L-5.11535 404.92ZM-5.11535 404.92C-4.61729 404.496 -4.0404 404.173 -3.41768 403.972M-5.11535 404.92L-3.41768 403.972M-3.41768 403.972C-2.79496 403.77 -2.13862 403.694 -1.4862 403.746M-3.41768 403.972L-1.4862 403.746M-1.4862 403.746C-0.833779 403.798 -0.198072 403.979 0.384565 404.277M-1.4862 403.746L0.384565 404.277M0.384565 404.277C0.967183 404.575 1.48531 404.985 1.90932 405.484L0.384565 404.277Z" stroke="#87FFFF" stroke-opacity="0.6"/>
<path d="M57 430.38C56.2967 429.555 55.8539 428.54 55.7277 427.463C55.6015 426.386 55.7975 425.296 56.2909 424.331C56.7843 423.365 57.553 422.568 58.4997 422.04C59.4463 421.511 60.5285 421.276 61.6091 421.362C62.6898 421.449 63.7204 421.854 64.5706 422.527C65.4209 423.2 66.0524 424.11 66.3855 425.141C66.7185 426.173 66.738 427.28 66.4416 428.323C66.1451 429.366 65.546 430.297 64.72 431C64.1728 431.467 63.5388 431.821 62.8544 432.043C62.1699 432.264 61.4485 432.349 60.7314 432.291C60.0143 432.234 59.3156 432.035 58.6753 431.707C58.035 431.379 57.4657 430.928 57 430.38Z" fill="#87FFFF" fill-opacity="0.61"/>
<path d="M57.3811 430.056L57.3805 430.055C56.7414 429.306 56.339 428.383 56.2243 427.405C56.1096 426.426 56.2877 425.435 56.7361 424.558C57.1845 423.681 57.883 422.956 58.7433 422.476C59.6036 421.996 60.587 421.782 61.5691 421.861C62.5512 421.94 63.4878 422.308 64.2604 422.919C65.033 423.531 65.607 424.357 65.9096 425.295C66.2123 426.233 66.23 427.239 65.9606 428.187C65.6912 429.134 65.1468 429.981 64.3962 430.619L64.3955 430.619C63.8982 431.044 63.3222 431.366 62.7003 431.567C62.0785 431.768 61.423 431.845 60.7714 431.793C60.1199 431.741 59.485 431.56 58.9033 431.262C58.3215 430.964 57.8043 430.554 57.3811 430.056Z" stroke="#87FFFF" stroke-opacity="0.6"/>
<path d="M170.46 468C169.758 467.174 169.317 466.159 169.192 465.083C169.066 464.007 169.263 462.918 169.757 461.953C170.25 460.988 171.019 460.192 171.965 459.664C172.911 459.136 173.993 458.901 175.073 458.987C176.153 459.074 177.183 459.479 178.033 460.151C178.883 460.823 179.515 461.732 179.849 462.762C180.182 463.793 180.203 464.9 179.908 465.943C179.612 466.985 179.015 467.917 178.19 468.62C177.082 469.561 175.646 470.024 174.197 469.908C172.748 469.792 171.404 469.106 170.46 468Z" fill="#87FFFF" fill-opacity="0.61"/>
<path d="M170.841 467.676C170.203 466.926 169.802 466.003 169.688 465.025C169.574 464.047 169.753 463.057 170.202 462.181C170.65 461.304 171.349 460.58 172.209 460.101C173.069 459.621 174.051 459.407 175.033 459.486C176.014 459.564 176.951 459.932 177.723 460.543C178.496 461.154 179.07 461.98 179.373 462.916C179.676 463.853 179.695 464.859 179.426 465.806C179.158 466.754 178.615 467.6 177.866 468.239C176.859 469.094 175.554 469.515 174.237 469.41C172.92 469.304 171.699 468.68 170.841 467.676Z" stroke="#87FFFF" stroke-opacity="0.6"/>
<path d="M113.431 469.816C120.288 467.166 123.698 459.459 121.048 452.603C118.398 445.746 110.692 442.336 103.835 444.986C96.9784 447.636 93.5681 455.342 96.218 462.199C98.8679 469.055 106.574 472.466 113.431 469.816Z" stroke="#87FFFF" stroke-opacity="0.6" stroke-width="0.91" stroke-miterlimit="10"/>
<path d="M-12.4297 417.48C-13.5642 416.149 -14.4254 414.608 -14.9641 412.944C-15.5028 411.28 -15.7083 409.527 -15.569 407.784C-15.4297 406.041 -14.9483 404.342 -14.1523 402.785C-13.3562 401.228 -12.2612 399.843 -10.9297 398.71C-8.24152 396.423 -4.75506 395.297 -1.23702 395.58C2.28102 395.863 5.54255 397.532 7.83031 400.22C8.96763 401.55 9.83119 403.092 10.3715 404.757C10.9118 406.421 11.1181 408.176 10.9788 409.921C10.8394 411.666 10.3571 413.366 9.5594 414.924C8.76172 416.482 7.66439 417.867 6.33031 419C3.64088 421.285 0.153634 422.409 -3.36445 422.124C-6.88254 421.839 -10.1433 420.169 -12.4297 417.48Z" stroke="#87FFFF" stroke-opacity="0.6" stroke-width="0.91" stroke-miterlimit="10"/>
<path d="M-2.23975 510.23L59.8203 457.39L77.2703 458.79L164.46 384.55" stroke="#87FFFF" stroke-opacity="0.6" stroke-width="0.91" stroke-miterlimit="10"/>
<path d="M-22.77 492.48L51.07 429.61L53.17 403.43L168.63 305.12" stroke="#87FFFF" stroke-opacity="0.6" stroke-width="0.91" stroke-miterlimit="10"/>
<path d="M-42.5801 480.18L1.54993 442.61L19.7399 444.06L41.8099 425.28L61.1999 426.83L163.77 339.56" stroke="#87FFFF" stroke-opacity="0.6" stroke-width="0.91" stroke-miterlimit="10"/>
<path d="M51.1203 262.92L-31.8797 333.6L-36.0797 385.9L-61.6997 407.72" stroke="#87FFFF" stroke-opacity="0.6" stroke-width="0.91" stroke-miterlimit="10"/>
<path d="M83.8498 260.28C83.3314 259.679 83.0033 258.938 82.9073 258.15C82.8113 257.363 82.9517 256.564 83.3107 255.857C83.6697 255.149 84.231 254.564 84.9232 254.177C85.6155 253.789 86.4074 253.616 87.1983 253.679C87.9892 253.743 88.7434 254.04 89.3648 254.534C89.9863 255.027 90.447 255.694 90.6884 256.45C90.9297 257.206 90.9409 258.016 90.7203 258.778C90.4998 259.541 90.0575 260.22 89.4498 260.73C88.6446 261.406 87.6056 261.738 86.5575 261.654C85.5095 261.569 84.5368 261.076 83.8498 260.28Z" fill="#87FFFF" fill-opacity="0.61"/>
<path d="M84.2283 259.953C83.7747 259.428 83.4877 258.779 83.4036 258.09C83.3196 257.401 83.4425 256.702 83.7566 256.083C84.0707 255.464 84.5618 254.952 85.1676 254.613C85.7733 254.274 86.4662 254.122 87.1583 254.178C87.8503 254.233 88.5102 254.494 89.054 254.925C89.5977 255.357 90.0009 255.94 90.2121 256.602C90.4233 257.263 90.433 257.972 90.24 258.639C90.047 259.306 89.6601 259.901 89.1283 260.347C88.4238 260.939 87.5146 261.229 86.5976 261.155C85.6806 261.082 84.8294 260.65 84.2283 259.953Z" stroke="#87FFFF" stroke-opacity="0.6"/>
<path d="M51.0701 262.94C50.0559 261.751 49.4171 260.288 49.2347 258.735C49.0522 257.183 49.3343 255.612 50.0451 254.22C50.756 252.828 51.8637 251.678 53.2282 250.916C54.5926 250.154 56.1525 249.814 57.7104 249.938C59.2683 250.063 60.7542 250.647 61.9802 251.616C63.2062 252.585 64.1172 253.896 64.5978 255.384C65.0785 256.871 65.1072 258.467 64.6804 259.97C64.2536 261.474 63.3904 262.817 62.2001 263.83C61.4112 264.503 60.4973 265.014 59.5108 265.333C58.5242 265.653 57.4843 265.775 56.4506 265.692C55.4169 265.609 54.4096 265.324 53.4864 264.852C52.5632 264.379 51.7421 263.73 51.0701 262.94Z" stroke="#87FFFF" stroke-opacity="0.6" stroke-width="0.91" stroke-miterlimit="10"/>
<path d="M83.8499 214.69C82.8368 213.5 82.1995 212.036 82.0185 210.484C81.8375 208.931 82.121 207.36 82.8331 205.969C83.5453 204.578 84.654 203.429 86.0191 202.668C87.3842 201.908 88.9443 201.569 90.5021 201.695C92.0598 201.821 93.5452 202.406 94.7703 203.376C95.9954 204.346 96.9052 205.658 97.3846 207.146C97.8639 208.633 97.8913 210.23 97.4632 211.733C97.0352 213.236 96.171 214.578 94.9799 215.59C93.3841 216.945 91.3155 217.612 89.2286 217.443C87.1417 217.274 85.2071 216.284 83.8499 214.69Z" stroke="#87FFFF" stroke-opacity="0.6" stroke-width="0.91" stroke-miterlimit="10"/>
<path d="M23.93 239.64C22.9158 238.451 22.277 236.988 22.0946 235.436C21.9121 233.883 22.1941 232.312 22.905 230.92C23.6159 229.528 24.7236 228.378 26.088 227.616C27.4525 226.854 29.0123 226.514 30.5702 226.638C32.1281 226.763 33.6141 227.347 34.8401 228.316C36.0661 229.285 36.977 230.597 37.4577 232.084C37.9383 233.571 37.9671 235.167 37.5403 236.671C37.1135 238.174 36.2503 239.517 35.06 240.53C34.271 241.203 33.3572 241.714 32.3706 242.033C31.3841 242.353 30.3442 242.475 29.3105 242.392C28.2768 242.31 27.2695 242.024 26.3463 241.552C25.423 241.079 24.602 240.43 23.93 239.64Z" fill="#87FFFF" fill-opacity="0.61"/>
<path d="M24.3108 239.316L24.3104 239.316C23.3604 238.202 22.762 236.831 22.5911 235.377C22.4202 233.923 22.6844 232.451 23.3503 231.147C24.0162 229.844 25.0538 228.767 26.3319 228.053C27.61 227.339 29.0711 227.02 30.5304 227.137C31.9897 227.254 33.3816 227.8 34.53 228.708C35.6784 229.616 36.5317 230.845 36.9819 232.238C37.4321 233.631 37.459 235.126 37.0593 236.534C36.6595 237.942 35.851 239.201 34.736 240.149L34.7355 240.15C33.9965 240.78 33.1406 241.259 32.2165 241.558C31.2925 241.857 30.3186 241.971 29.3504 241.894C28.3822 241.816 27.4387 241.549 26.574 241.107C25.7093 240.664 24.9402 240.056 24.3108 239.316Z" stroke="#87FFFF" stroke-opacity="0.6"/>
<path d="M-82.3701 385.62L-20.3201 332.78L-2.87012 334.18L84.3199 259.94" stroke="#87FFFF" stroke-opacity="0.6" stroke-width="0.91" stroke-miterlimit="10"/>
<path d="M266 444.4C265.482 443.799 265.154 443.058 265.058 442.27C264.962 441.482 265.102 440.684 265.461 439.976C265.82 439.269 266.381 438.684 267.074 438.296C267.766 437.909 268.558 437.735 269.349 437.799C270.14 437.863 270.894 438.16 271.515 438.653C272.137 439.146 272.597 439.813 272.839 440.569C273.08 441.325 273.091 442.136 272.871 442.898C272.65 443.66 272.208 444.34 271.6 444.85C270.795 445.526 269.756 445.857 268.708 445.773C267.66 445.689 266.687 445.196 266 444.4Z" stroke="#87FFFF" stroke-opacity="0.6" stroke-width="0.91" stroke-miterlimit="10"/>
<path d="M99.7803 569.74L161.83 516.91L179.28 518.31L266.47 444.07" stroke="#87FFFF" stroke-opacity="0.6" stroke-width="0.91" stroke-miterlimit="10"/>
<path d="M248.53 480.51C248.011 479.91 247.681 479.17 247.584 478.382C247.486 477.595 247.625 476.796 247.983 476.088C248.34 475.379 248.901 474.793 249.592 474.404C250.284 474.015 251.075 473.841 251.867 473.903C252.658 473.965 253.412 474.261 254.035 474.753C254.657 475.246 255.119 475.912 255.362 476.667C255.604 477.423 255.617 478.233 255.397 478.996C255.178 479.759 254.737 480.439 254.13 480.95C253.326 481.627 252.288 481.961 251.24 481.878C250.192 481.796 249.219 481.304 248.53 480.51Z" fill="#87FFFF" fill-opacity="0.61"/>
<path d="M248.908 480.183C248.453 479.658 248.165 479.01 248.08 478.321C247.994 477.632 248.116 476.933 248.429 476.313C248.742 475.693 249.232 475.181 249.837 474.84C250.442 474.5 251.135 474.347 251.827 474.401C252.52 474.456 253.18 474.715 253.724 475.146C254.269 475.576 254.673 476.159 254.886 476.82C255.098 477.481 255.109 478.191 254.917 478.858C254.725 479.525 254.339 480.12 253.808 480.568C253.105 481.16 252.196 481.452 251.279 481.38C250.362 481.308 249.51 480.878 248.908 480.183Z" stroke="#87FFFF" stroke-opacity="0.6"/>
<path d="M82.3101 605.85L144.36 553.01L161.81 554.41L249 480.17" stroke="#87FFFF" stroke-opacity="0.6" stroke-width="0.91" stroke-miterlimit="10"/>
<path d="M27.82 200.39C27.3016 199.789 26.9735 199.048 26.8775 198.26C26.7815 197.473 26.9219 196.674 27.2809 195.967C27.6399 195.259 28.2012 194.674 28.8934 194.287C29.5857 193.899 30.3776 193.726 31.1685 193.789C31.9594 193.853 32.7136 194.15 33.335 194.643C33.9565 195.137 34.4172 195.804 34.6586 196.56C34.9 197.315 34.9111 198.126 34.6905 198.888C34.47 199.65 34.0277 200.33 33.42 200.84C32.6148 201.516 31.5758 201.848 30.5278 201.764C29.4797 201.679 28.507 201.186 27.82 200.39Z" stroke="#87FFFF" stroke-opacity="0.6" stroke-width="0.91" stroke-miterlimit="10"/>
<path d="M-138.41 325.74L-76.3602 272.9L-58.9102 274.3L28.2798 200.06" stroke="#87FFFF" stroke-opacity="0.6" stroke-width="0.91" stroke-miterlimit="10"/>
<path d="M-166.96 427.04L-93.12 364.17L-91.02 337.99L24.44 239.67" stroke="#87FFFF" stroke-opacity="0.6" stroke-width="0.91" stroke-miterlimit="10"/>
<path d="M-122.72 355.57L-78.5897 318L-60.3897 319.46L-38.3297 300.67L-18.9297 302.23L84.0603 214.53" stroke="#87FFFF" stroke-opacity="0.6" stroke-width="0.91" stroke-miterlimit="10"/>
<path d="M66.1602 593.95L121.65 546.71L123.69 521.23L175.73 476.91L184.09 477.58L226.89 441.14" stroke="#87FFFF" stroke-opacity="0.6" stroke-width="0.91" stroke-miterlimit="10"/>
<path d="M74.1201 614.63L167.88 534.79L173.5 464.71L264.26 387.44" stroke="#87FFFF" stroke-opacity="0.6" stroke-width="0.91" stroke-miterlimit="10"/>
<path d="M-67.3599 465.09L-1.31985 408.85L0.670135 384.09L93.4001 305.26" stroke="#87FFFF" stroke-opacity="0.6" stroke-width="0.91" stroke-miterlimit="10"/>
<path d="M-54.71 472.2L40.26 391.33L44.7201 335.75L121.68 270.22" stroke="#87FFFF" stroke-opacity="0.6" stroke-width="0.91" stroke-miterlimit="10"/>
<path d="M-84.52 457.1L-20.11 402.26L-16.39 355.77L-3.29001 344.62L75.03 350.9L161.55 277.23" stroke="#87FFFF" stroke-opacity="0.6" stroke-width="0.91" stroke-miterlimit="10"/>
<path d="M92.4495 371.066C102.74 360.776 102.74 344.092 92.4495 333.802C82.1592 323.512 65.4753 323.512 55.185 333.802C44.8947 344.092 44.8947 360.776 55.185 371.066C65.4753 381.357 82.1592 381.357 92.4495 371.066Z" fill="url(#paint7_radial_14_2772)"/>
<path d="M92.096 334.155C102.191 344.25 102.191 360.618 92.096 370.713C82.0009 380.808 65.6336 380.808 55.5386 370.713C45.4435 360.618 45.4435 344.25 55.5386 334.155C65.6336 324.06 82.0009 324.06 92.096 334.155Z" stroke="#87FFFF" stroke-opacity="0.6"/>
<path d="M195.074 277.978C198.416 263.815 189.645 249.623 175.481 246.28C161.318 242.937 147.126 251.709 143.783 265.873C140.44 280.036 149.212 294.228 163.375 297.571C177.539 300.914 191.731 292.142 195.074 277.978Z" fill="url(#paint8_radial_14_2772)"/>
<path d="M175.366 246.767C189.261 250.046 197.866 263.969 194.587 277.864C191.307 291.758 177.385 300.364 163.49 297.084C149.595 293.805 140.99 279.882 144.269 265.988C147.549 252.093 161.471 243.487 175.366 246.767Z" stroke="#87FFFF" stroke-opacity="0.6"/>
<path d="M169.37 410.52C186.673 410.52 200.7 396.493 200.7 379.19C200.7 361.887 186.673 347.86 169.37 347.86C152.067 347.86 138.04 361.887 138.04 379.19C138.04 396.493 152.067 410.52 169.37 410.52Z" fill="url(#paint9_radial_14_2772)" fill-opacity="0.56"/>
<path d="M200.2 379.19C200.2 396.217 186.397 410.02 169.37 410.02C152.343 410.02 138.54 396.217 138.54 379.19C138.54 362.163 152.343 348.36 169.37 348.36C186.397 348.36 200.2 362.163 200.2 379.19Z" stroke="#87FFFF" stroke-opacity="0.6"/>
<path d="M168.97 411.73C186.273 411.73 200.3 397.703 200.3 380.4C200.3 363.097 186.273 349.07 168.97 349.07C151.667 349.07 137.64 363.097 137.64 380.4C137.64 397.703 151.667 411.73 168.97 411.73Z" fill="url(#paint10_radial_14_2772)" fill-opacity="0.56"/>
<path d="M199.8 380.4C199.8 397.427 185.997 411.23 168.97 411.23C151.943 411.23 138.14 397.427 138.14 380.4C138.14 363.373 151.943 349.57 168.97 349.57C185.997 349.57 199.8 363.373 199.8 380.4Z" stroke="#87FFFF" stroke-opacity="0.6"/>
<path d="M48.5199 495.92C65.823 495.92 79.8499 481.893 79.8499 464.59C79.8499 447.287 65.823 433.26 48.5199 433.26C31.2168 433.26 17.1899 447.287 17.1899 464.59C17.1899 481.893 31.2168 495.92 48.5199 495.92Z" fill="url(#paint11_radial_14_2772)" fill-opacity="0.56"/>
<path d="M79.3499 464.59C79.3499 481.617 65.5469 495.42 48.5199 495.42C31.493 495.42 17.6899 481.617 17.6899 464.59C17.6899 447.563 31.493 433.76 48.5199 433.76C65.5469 433.76 79.3499 447.563 79.3499 464.59Z" stroke="#87FFFF" stroke-opacity="0.6"/>
<path d="M80.8348 242.793C88.4383 235.19 88.4383 222.862 80.8348 215.259C73.2313 207.655 60.9036 207.655 53.3001 215.259C45.6966 222.862 45.6966 235.19 53.3001 242.793C60.9036 250.397 73.2313 250.397 80.8348 242.793Z" fill="url(#paint12_radial_14_2772)"/>
<path d="M80.4813 215.612C87.8895 223.02 87.8895 235.031 80.4813 242.44C73.073 249.848 61.0619 249.848 53.6536 242.44C46.2454 235.031 46.2454 223.02 53.6536 215.612C61.0619 208.204 73.073 208.204 80.4813 215.612Z" stroke="#87FFFF" stroke-opacity="0.6"/>
<g style="mix-blend-mode:color-dodge">
<path d="M556.367 255.844L992.097 -122.797L954.244 -166.358L518.514 212.283L556.367 255.844Z" fill="url(#paint13_linear_14_2772)" style="mix-blend-mode:color-dodge"/>
<path d="M954.194 -165.652L991.392 -122.846L556.417 255.138L519.219 212.332L954.194 -165.652Z" stroke="#87FFFF" stroke-opacity="0.6"/>
</g>
<g style="mix-blend-mode:color-dodge">
<path d="M558.124 206.087L838.209 -37.3013L833.461 -42.7662L553.376 200.622L558.124 206.087Z" fill="url(#paint14_linear_14_2772)" style="mix-blend-mode:color-dodge"/>
<path d="M833.411 -42.0608L837.504 -37.3507L558.174 205.382L554.081 200.672L833.411 -42.0608Z" stroke="#87FFFF" stroke-opacity="0.6"/>
</g>
<g style="mix-blend-mode:color-dodge">
<path d="M484.435 188.402L920.165 -190.239L882.311 -233.8L446.582 144.841L484.435 188.402Z" fill="url(#paint15_linear_14_2772)" style="mix-blend-mode:color-dodge"/>
<path d="M882.262 -233.094L919.46 -190.288L484.485 187.696L447.287 144.89L882.262 -233.094Z" stroke="#87FFFF" stroke-opacity="0.6"/>
</g>
<g style="mix-blend-mode:color-dodge">
<path d="M499.777 69.0083L739.448 -139.262L720.892 -160.616L481.22 47.6543L499.777 69.0083Z" fill="url(#paint16_linear_14_2772)" style="mix-blend-mode:color-dodge"/>
<path d="M720.843 -159.91L738.743 -139.311L499.826 68.3029L481.926 47.7038L720.843 -159.91Z" stroke="#87FFFF" stroke-opacity="0.6"/>
</g>
<g style="mix-blend-mode:color-dodge">
<path d="M787.966 323.322L922.295 206.593L813.949 81.9114L679.62 198.64L787.966 323.322Z" fill="url(#paint17_linear_14_2772)" style="mix-blend-mode:color-dodge"/>
<path d="M813.899 82.6168L921.59 206.544L788.016 322.617L680.326 198.69L813.899 82.6168Z" stroke="#87FFFF" stroke-opacity="0.6"/>
</g>
<g style="mix-blend-mode:color-dodge">
<path d="M531.975 125.761L967.705 -252.879L958.155 -263.87L522.425 114.771L531.975 125.761Z" fill="url(#paint18_linear_14_2772)" style="mix-blend-mode:color-dodge"/>
<path d="M958.105 -263.164L967 -252.929L532.025 125.056L523.13 114.82L958.105 -263.164Z" stroke="#87FFFF" stroke-opacity="0.6"/>
</g>
<g style="mix-blend-mode:color-dodge">
<path d="M517.316 326.315L953.046 -52.3252L948.586 -57.458L512.856 321.183L517.316 326.315Z" fill="url(#paint19_linear_14_2772)" style="mix-blend-mode:color-dodge"/>
<path d="M948.536 -56.7526L952.341 -52.3746L517.366 325.61L513.561 321.232L948.536 -56.7526Z" stroke="#87FFFF" stroke-opacity="0.6"/>
</g>
<path d="M644.73 211.1L768.03 102.85L820.57 106.27L832.82 95.5098" stroke="#87FFFF" stroke-opacity="0.6" stroke-width="0.91" stroke-miterlimit="10"/>
<path d="M634.27 149.92L716.47 77.7497L769.01 81.1696L794.39 58.8896" stroke="#87FFFF" stroke-opacity="0.6" stroke-width="0.91" stroke-miterlimit="10"/>
<path d="M662.38 169.29L704.34 132.46L755.9 135.41L817.94 80.9497" stroke="#87FFFF" stroke-opacity="0.6" stroke-width="0.91" stroke-miterlimit="10"/>
<path d="M645 211.26C643.655 209.716 641.883 208.606 639.907 208.07C637.931 207.534 635.841 207.597 633.9 208.249C631.959 208.901 630.256 210.114 629.005 211.734C627.754 213.355 627.011 215.31 626.871 217.352C626.731 219.395 627.2 221.433 628.219 223.209C629.237 224.984 630.76 226.418 632.593 227.329C634.427 228.24 636.489 228.586 638.519 228.325C640.55 228.063 642.457 227.205 644 225.86C646.068 224.056 647.335 221.505 647.523 218.767C647.711 216.029 646.803 213.329 645 211.26Z" fill="#87FFFF" fill-opacity="0.61"/>
<path d="M639.776 208.553C641.656 209.063 643.343 210.119 644.623 211.588C646.339 213.557 647.203 216.127 647.024 218.733C646.846 221.338 645.64 223.766 643.671 225.483C642.203 226.763 640.388 227.58 638.456 227.829C636.523 228.078 634.561 227.748 632.816 226.881C631.071 226.015 629.622 224.65 628.653 222.96C627.683 221.27 627.237 219.33 627.37 217.386C627.503 215.443 628.21 213.582 629.401 212.04C630.591 210.498 632.213 209.343 634.059 208.723C635.906 208.102 637.896 208.043 639.776 208.553Z" stroke="#87FFFF" stroke-opacity="0.6"/>
<path d="M698.19 306.61L821.49 198.36L874.03 201.77L886.28 191.02" stroke="#87FFFF" stroke-opacity="0.6" stroke-width="0.91" stroke-miterlimit="10"/>
<path d="M700.95 314.204C701.299 308.499 696.957 303.59 691.252 303.241C685.546 302.892 680.638 307.235 680.289 312.94C679.94 318.646 684.282 323.554 689.988 323.903C695.693 324.252 700.602 319.91 700.95 314.204Z" stroke="#87FFFF" stroke-opacity="0.6" stroke-width="0.91" stroke-miterlimit="10"/>
<path d="M662.68 169.53C662.16 168.932 661.474 168.501 660.71 168.293C659.945 168.085 659.135 168.11 658.384 168.362C657.633 168.615 656.974 169.086 656.491 169.714C656.007 170.342 655.721 171.1 655.669 171.891C655.617 172.681 655.801 173.47 656.198 174.156C656.595 174.842 657.187 175.395 657.898 175.744C658.61 176.093 659.409 176.223 660.195 176.118C660.98 176.012 661.716 175.675 662.31 175.15C663.1 174.451 663.583 173.469 663.652 172.416C663.721 171.364 663.372 170.326 662.68 169.53Z" fill="#87FFFF" fill-opacity="0.61"/>
<path d="M660.579 168.776C661.248 168.958 661.848 169.334 662.303 169.858C662.908 170.555 663.214 171.462 663.153 172.383C663.092 173.304 662.67 174.164 661.979 174.775C661.459 175.235 660.815 175.529 660.128 175.622C659.44 175.715 658.741 175.601 658.119 175.295C657.496 174.99 656.978 174.506 656.631 173.906C656.284 173.305 656.123 172.615 656.168 171.923C656.214 171.231 656.464 170.568 656.887 170.019C657.31 169.469 657.887 169.058 658.544 168.836C659.201 168.615 659.909 168.594 660.579 168.776Z" stroke="#87FFFF" stroke-opacity="0.6"/>
<path d="M624.64 176C624.12 175.401 623.434 174.971 622.67 174.763C621.905 174.555 621.095 174.579 620.344 174.832C619.593 175.085 618.934 175.555 618.451 176.184C617.967 176.812 617.681 177.569 617.629 178.36C617.577 179.151 617.761 179.94 618.158 180.626C618.555 181.312 619.147 181.865 619.858 182.214C620.57 182.563 621.369 182.693 622.154 182.587C622.94 182.481 623.676 182.145 624.27 181.62C625.06 180.921 625.543 179.938 625.612 178.886C625.681 177.833 625.332 176.796 624.64 176Z" stroke="#87FFFF" stroke-opacity="0.6" stroke-width="0.91" stroke-miterlimit="10"/>
<path d="M671.25 246.58C670.73 245.981 670.044 245.551 669.279 245.343C668.515 245.135 667.705 245.159 666.954 245.412C666.203 245.665 665.544 246.136 665.06 246.764C664.577 247.392 664.291 248.149 664.239 248.94C664.187 249.731 664.371 250.52 664.768 251.206C665.165 251.892 665.757 252.445 666.468 252.794C667.18 253.143 667.979 253.273 668.764 253.167C669.55 253.062 670.286 252.725 670.88 252.2C671.67 251.501 672.153 250.518 672.222 249.466C672.291 248.413 671.942 247.376 671.25 246.58Z" stroke="#87FFFF" stroke-opacity="0.6" stroke-width="0.91" stroke-miterlimit="10"/>
<path d="M555.64 94.1199C555.119 93.5238 554.432 93.096 553.667 92.8907C552.902 92.6853 552.093 92.7117 551.343 92.9665C550.593 93.2213 549.936 93.693 549.454 94.3218C548.973 94.9506 548.689 95.7082 548.638 96.4987C548.587 97.2891 548.773 98.0767 549.17 98.7618C549.568 99.4468 550.16 99.9984 550.871 100.347C551.583 100.695 552.381 100.824 553.166 100.718C553.951 100.612 554.687 100.275 555.28 99.7499C556.072 99.0495 556.554 98.0641 556.622 97.0092C556.689 95.9542 556.336 94.9154 555.64 94.1199Z" stroke="#87FFFF" stroke-opacity="0.6" stroke-width="0.91" stroke-miterlimit="10"/>
<path d="M517 116.81C516.48 116.211 515.794 115.781 515.029 115.573C514.265 115.365 513.455 115.389 512.704 115.642C511.953 115.895 511.294 116.366 510.81 116.994C510.327 117.622 510.041 118.379 509.989 119.17C509.937 119.961 510.121 120.75 510.518 121.436C510.915 122.122 511.507 122.675 512.218 123.024C512.93 123.373 513.729 123.503 514.514 123.397C515.3 123.292 516.036 122.955 516.63 122.43C517.42 121.731 517.903 120.748 517.972 119.696C518.041 118.643 517.692 117.606 517 116.81Z" stroke="#87FFFF" stroke-opacity="0.6" stroke-width="0.91" stroke-miterlimit="10"/>
<path d="M634.29 149.88C633.257 148.703 631.898 147.859 630.385 147.454C628.872 147.049 627.273 147.102 625.79 147.606C624.307 148.11 623.007 149.043 622.054 150.286C621.101 151.529 620.537 153.026 620.435 154.589C620.333 156.152 620.697 157.71 621.48 159.066C622.264 160.423 623.432 161.516 624.836 162.209C626.241 162.901 627.82 163.162 629.372 162.957C630.925 162.753 632.383 162.092 633.56 161.06C634.343 160.374 634.982 159.54 635.442 158.607C635.902 157.674 636.174 156.659 636.242 155.621C636.309 154.583 636.172 153.541 635.837 152.556C635.502 151.571 634.977 150.662 634.29 149.88Z" stroke="#87FFFF" stroke-opacity="0.6" stroke-width="0.91" stroke-miterlimit="10"/>
<path d="M612.266 286.875C615.425 283.849 615.532 278.836 612.507 275.677C609.481 272.519 604.467 272.411 601.309 275.437C598.15 278.463 598.042 283.476 601.068 286.635C604.094 289.793 609.108 289.901 612.266 286.875Z" stroke="#87FFFF" stroke-opacity="0.6" stroke-width="0.91" stroke-miterlimit="10"/>
<path d="M580.11 169.4C579.077 168.22 577.716 167.372 576.201 166.966C574.685 166.559 573.083 166.611 571.597 167.115C570.111 167.619 568.808 168.552 567.853 169.797C566.898 171.042 566.333 172.542 566.231 174.108C566.129 175.673 566.494 177.234 567.279 178.593C568.064 179.951 569.234 181.046 570.642 181.739C572.05 182.432 573.632 182.692 575.187 182.485C576.743 182.279 578.202 181.616 579.38 180.58C580.163 179.894 580.802 179.061 581.262 178.127C581.722 177.194 581.994 176.18 582.062 175.141C582.129 174.103 581.992 173.062 581.657 172.077C581.322 171.091 580.797 170.182 580.11 169.4Z" stroke="#87FFFF" stroke-opacity="0.6" stroke-width="0.91" stroke-miterlimit="10"/>
<path d="M517.86 157.93C516.826 156.75 515.464 155.904 513.948 155.498C512.433 155.093 510.831 155.146 509.345 155.651C507.86 156.157 506.557 157.091 505.603 158.337C504.649 159.583 504.086 161.084 503.985 162.649C503.884 164.215 504.25 165.776 505.037 167.134C505.823 168.491 506.995 169.585 508.403 170.277C509.812 170.969 511.394 171.227 512.949 171.019C514.504 170.811 515.963 170.147 517.14 169.11C517.922 168.423 518.561 167.589 519.02 166.656C519.479 165.722 519.75 164.707 519.817 163.669C519.883 162.631 519.745 161.589 519.409 160.605C519.074 159.62 518.547 158.711 517.86 157.93Z" stroke="#87FFFF" stroke-opacity="0.6" stroke-width="0.91" stroke-miterlimit="10"/>
<path d="M544.81 168.51C543.776 167.329 542.416 166.482 540.9 166.075C539.385 165.669 537.783 165.72 536.297 166.224C534.811 166.728 533.508 167.662 532.553 168.907C531.598 170.152 531.033 171.652 530.931 173.218C530.829 174.783 531.193 176.344 531.978 177.703C532.764 179.061 533.934 180.156 535.342 180.849C536.75 181.542 538.331 181.802 539.887 181.595C541.442 181.389 542.902 180.726 544.08 179.69C544.862 179.004 545.502 178.171 545.962 177.237C546.422 176.304 546.694 175.289 546.761 174.251C546.829 173.213 546.692 172.171 546.357 171.186C546.022 170.201 545.496 169.292 544.81 168.51Z" fill="#87FFFF" fill-opacity="0.61"/>
<path d="M544.434 168.839L544.434 168.84C545.077 169.572 545.57 170.424 545.883 171.347C546.197 172.27 546.326 173.246 546.262 174.219C546.199 175.191 545.944 176.142 545.513 177.016C545.082 177.891 544.483 178.671 543.75 179.314L543.75 179.314C542.646 180.285 541.278 180.906 539.821 181.1C538.364 181.293 536.882 181.05 535.563 180.4C534.244 179.751 533.147 178.725 532.411 177.452C531.676 176.18 531.334 174.717 531.43 173.25C531.526 171.783 532.054 170.377 532.949 169.211C533.844 168.045 535.065 167.17 536.457 166.698C537.85 166.226 539.351 166.177 540.771 166.558C542.19 166.939 543.465 167.733 544.434 168.839Z" stroke="#87FFFF" stroke-opacity="0.6"/>
<path d="M708.86 129.17C708.144 128.35 707.201 127.762 706.15 127.478C705.098 127.195 703.987 127.23 702.956 127.579C701.925 127.928 701.021 128.575 700.357 129.438C699.694 130.301 699.302 131.342 699.231 132.428C699.159 133.514 699.412 134.597 699.956 135.54C700.5 136.482 701.312 137.242 702.288 137.723C703.265 138.204 704.362 138.384 705.441 138.241C706.52 138.098 707.533 137.638 708.35 136.92C709.444 135.959 710.111 134.603 710.207 133.15C710.302 131.697 709.818 130.266 708.86 129.17Z" fill="#99FFD6" fill-opacity="0.61"/>
<path d="M706.019 127.961C706.975 128.219 707.832 128.754 708.484 129.499C709.355 130.495 709.795 131.797 709.708 133.117C709.621 134.438 709.014 135.67 708.02 136.544C707.277 137.198 706.357 137.616 705.376 137.746C704.395 137.876 703.397 137.712 702.509 137.274C701.622 136.837 700.884 136.146 700.389 135.29C699.894 134.433 699.665 133.448 699.73 132.461C699.795 131.473 700.151 130.527 700.754 129.743C701.357 128.958 702.179 128.37 703.116 128.053C704.054 127.736 705.064 127.704 706.019 127.961Z" stroke="#87FFFF" stroke-opacity="0.6"/>
<path d="M721.6 72.1299C720.882 71.3126 719.938 70.7265 718.886 70.4459C717.835 70.1653 716.725 70.2027 715.695 70.5534C714.665 70.9041 713.762 71.5523 713.101 72.4161C712.439 73.2799 712.049 74.3204 711.979 75.4061C711.909 76.4918 712.163 77.5738 712.708 78.5153C713.253 79.4569 714.065 80.2156 715.041 80.6956C716.018 81.1755 717.114 81.3552 718.193 81.2118C719.271 81.0684 720.283 80.6083 721.1 79.8899C721.643 79.4138 722.087 78.8352 722.407 78.1872C722.726 77.5392 722.914 76.8346 722.961 76.1137C723.007 75.3928 722.911 74.6698 722.677 73.9862C722.444 73.3026 722.078 72.6717 721.6 72.1299Z" fill="#99FFD6" fill-opacity="0.61"/>
<path d="M721.224 72.4599L721.225 72.4606C721.659 72.9531 721.992 73.5265 722.204 74.1478C722.416 74.7692 722.504 75.4263 722.462 76.0815C722.419 76.7368 722.248 77.3772 721.958 77.9662C721.668 78.5552 721.264 79.0811 720.77 79.5138L720.77 79.5144C720.027 80.1676 719.107 80.5858 718.127 80.7161C717.146 80.8465 716.149 80.6832 715.262 80.2469C714.374 79.8105 713.636 79.1208 713.141 78.2648C712.645 77.4089 712.415 76.4252 712.478 75.4383C712.542 74.4513 712.897 73.5053 713.498 72.7201C714.099 71.9348 714.92 71.3455 715.856 71.0267C716.792 70.7079 717.802 70.6739 718.757 70.929C719.713 71.1841 720.571 71.7168 721.224 72.4599Z" stroke="#87FFFF" stroke-opacity="0.6"/>
<path d="M608.59 78.23C607.872 77.4127 606.928 76.8266 605.877 76.546C604.826 76.2654 603.715 76.3028 602.685 76.6535C601.655 77.0042 600.752 77.6524 600.091 78.5162C599.43 79.38 599.039 80.4205 598.969 81.5062C598.899 82.5919 599.153 83.6739 599.698 84.6154C600.243 85.557 601.055 86.3157 602.032 86.7957C603.008 87.2756 604.105 87.4553 605.183 87.3119C606.261 87.1685 607.273 86.7084 608.09 85.99C608.633 85.5139 609.077 84.9353 609.397 84.2873C609.716 83.6393 609.904 82.9347 609.951 82.2138C609.997 81.4929 609.901 80.7699 609.667 80.0863C609.434 79.4027 609.068 78.7719 608.59 78.23Z" fill="#99FFD6" fill-opacity="0.61"/>
<path d="M608.214 78.56L608.215 78.5607C608.649 79.0532 608.982 79.6265 609.194 80.2479C609.407 80.8693 609.494 81.5264 609.452 82.1816C609.41 82.8369 609.238 83.4773 608.948 84.0663C608.658 84.6553 608.254 85.1812 607.761 85.6139L607.76 85.6145C607.017 86.2676 606.098 86.6859 605.117 86.8162C604.137 86.9466 603.14 86.7833 602.252 86.347C601.365 85.9106 600.626 85.2209 600.131 84.3649C599.635 83.509 599.405 82.5253 599.468 81.5384C599.532 80.5514 599.887 79.6054 600.488 78.8202C601.089 78.0349 601.91 77.4456 602.846 77.1268C603.782 76.808 604.792 76.774 605.748 77.0291C606.703 77.2842 607.562 77.8169 608.214 78.56Z" stroke="#87FFFF" stroke-opacity="0.6"/>
<path d="M710.5 19.5401C709.782 18.7227 708.838 18.1367 707.787 17.856C706.736 17.5754 705.625 17.6128 704.595 17.9635C703.565 18.3142 702.663 18.9625 702.001 19.8263C701.34 20.6901 700.95 21.7306 700.88 22.8163C700.81 23.9019 701.063 24.984 701.608 25.9255C702.153 26.867 702.965 27.6258 703.942 28.1057C704.918 28.5857 706.015 28.7653 707.093 28.6219C708.172 28.4785 709.183 28.0185 710 27.3001C711.095 26.3371 711.763 24.9787 711.857 23.5236C711.951 22.0684 711.463 20.6356 710.5 19.5401Z" fill="#99FFD6" fill-opacity="0.61"/>
<path d="M707.658 18.3391C708.613 18.5942 709.472 19.127 710.125 19.87C710.999 20.866 711.443 22.1686 711.358 23.4914C711.273 24.8143 710.665 26.0492 709.67 26.9246C708.927 27.5777 708.008 27.9959 707.027 28.1263C706.047 28.2567 705.05 28.0934 704.162 27.657C703.275 27.2207 702.536 26.5309 702.041 25.675C701.545 24.8191 701.315 23.8354 701.379 22.8484C701.442 21.8614 701.797 20.9155 702.398 20.1302C702.999 19.345 703.82 18.7557 704.756 18.4368C705.693 18.118 706.702 18.084 707.658 18.3391Z" stroke="#87FFFF" stroke-opacity="0.6"/>
<path d="M676.47 11.1098C675.754 10.2901 674.81 9.70151 673.759 9.41836C672.708 9.1352 671.597 9.17028 670.566 9.51913C669.535 9.86799 668.63 10.5149 667.967 11.3781C667.304 12.2412 666.912 13.2817 666.84 14.3679C666.769 15.454 667.021 16.5369 667.566 17.4795C668.11 18.4221 668.922 19.182 669.898 19.6629C670.875 20.1439 671.972 20.3243 673.051 20.1813C674.13 20.0384 675.142 19.5784 675.96 18.8598C677.053 17.8985 677.721 16.5429 677.817 15.0902C677.912 13.6374 677.428 12.206 676.47 11.1098Z" fill="#99FFD6" fill-opacity="0.61"/>
<path d="M673.629 9.90114C674.585 10.1586 675.442 10.6937 676.093 11.4388C676.964 12.4354 677.405 13.7367 677.318 15.0573C677.231 16.378 676.624 17.6104 675.63 18.4842C674.887 19.1376 673.966 19.5557 672.985 19.6857C672.004 19.8157 671.007 19.6516 670.119 19.2144C669.232 18.7772 668.494 18.0864 667.999 17.2295C667.504 16.3725 667.274 15.3881 667.339 14.4007C667.404 13.4133 667.761 12.4674 668.364 11.6827C668.967 10.898 669.789 10.3099 670.726 9.99276C671.663 9.67561 672.674 9.64373 673.629 9.90114Z" stroke="#87FFFF" stroke-opacity="0.6"/>
<path d="M685.31 76.3696C684.592 75.5523 683.648 74.9663 682.596 74.6856C681.545 74.405 680.435 74.4424 679.405 74.7931C678.375 75.1438 677.472 75.7921 676.811 76.6559C676.149 77.5197 675.759 78.5602 675.689 79.6459C675.619 80.7315 675.873 81.8136 676.418 82.7551C676.963 83.6966 677.775 84.4554 678.751 84.9353C679.728 85.4153 680.824 85.5949 681.903 85.4515C682.981 85.3081 683.993 84.8481 684.81 84.1296C685.353 83.6536 685.797 83.075 686.116 82.427C686.436 81.779 686.624 81.0743 686.67 80.3534C686.717 79.6325 686.621 78.9096 686.387 78.2259C686.154 77.5423 685.788 76.9115 685.31 76.3696Z" fill="#99FFD6" fill-opacity="0.61"/>
<path d="M684.934 76.6996L684.935 76.7003C685.369 77.1928 685.702 77.7662 685.914 78.3875C686.126 79.0089 686.214 79.666 686.171 80.3213C686.129 80.9765 685.958 81.617 685.668 82.206C685.378 82.7949 684.974 83.3209 684.48 83.7536L684.48 83.7542C683.737 84.4073 682.817 84.8255 681.837 84.9559C680.856 85.0863 679.859 84.9229 678.972 84.4866C678.084 84.0503 677.346 83.3605 676.851 82.5046C676.355 81.6486 676.124 80.665 676.188 79.678C676.252 78.691 676.607 77.7451 677.208 76.9598C677.809 76.1746 678.63 75.5852 679.566 75.2664C680.502 74.9476 681.512 74.9136 682.467 75.1687C683.423 75.4238 684.281 75.9566 684.934 76.6996Z" stroke="#87FFFF" stroke-opacity="0.6"/>
<path d="M705.385 202.46C707.808 200.627 708.286 197.178 706.454 194.755C704.622 192.333 701.172 191.854 698.75 193.686C696.327 195.519 695.848 198.968 697.68 201.391C699.513 203.813 702.962 204.292 705.385 202.46Z" fill="#99FFD6" fill-opacity="0.61"/>
<path d="M706.055 195.057C707.721 197.259 707.286 200.395 705.083 202.061C702.881 203.727 699.745 203.291 698.079 201.089C696.414 198.887 696.849 195.751 699.051 194.085C701.254 192.419 704.389 192.854 706.055 195.057Z" stroke="#87FFFF" stroke-opacity="0.6"/>
<path d="M714.7 122.7C712.958 120.716 710.666 119.293 708.115 118.612C705.564 117.93 702.868 118.021 700.369 118.871C697.869 119.722 695.678 121.295 694.072 123.391C692.466 125.487 691.518 128.012 691.348 130.647C691.177 133.282 691.792 135.908 693.114 138.194C694.436 140.479 696.406 142.322 698.775 143.488C701.144 144.654 703.805 145.091 706.423 144.744C709.04 144.397 711.496 143.282 713.48 141.54C714.798 140.383 715.876 138.979 716.651 137.406C717.426 135.833 717.883 134.122 717.996 132.373C718.109 130.623 717.877 128.868 717.311 127.208C716.746 125.548 715.858 124.016 714.7 122.7Z" stroke="#87FFFF" stroke-opacity="0.6" stroke-width="0.91" stroke-miterlimit="10"/>
<path d="M672.54 27.7097C679.919 27.7097 685.9 21.7283 685.9 14.3498C685.9 6.97124 679.919 0.989746 672.54 0.989746C665.162 0.989746 659.18 6.97124 659.18 14.3498C659.18 21.7283 665.162 27.7097 672.54 27.7097Z" stroke="#87FFFF" stroke-opacity="0.6" stroke-width="0.91" stroke-miterlimit="10"/>
<path d="M773.18 29.0996L711.73 83.0496L710.59 100.58L624.24 176.39" stroke="#87FFFF" stroke-opacity="0.6" stroke-width="0.91" stroke-miterlimit="10"/>
<path d="M758.54 6.13965L685.42 70.3397L659.12 68.6297L544.77 169.02" stroke="#87FFFF" stroke-opacity="0.6" stroke-width="0.91" stroke-miterlimit="10"/>
<path d="M749.2 -15.3101L705.49 23.06L704.31 41.3299L682.45 60.5199L681.19 80L579.67 169.19" stroke="#87FFFF" stroke-opacity="0.6" stroke-width="0.91" stroke-miterlimit="10"/>
<path d="M519.91 46.2297L602.11 -25.9403L654.65 -22.5203L680.03 -44.8003" stroke="#87FFFF" stroke-opacity="0.6" stroke-width="0.91" stroke-miterlimit="10"/>
<path d="M512.53 78.3499C512.008 77.7538 511.321 77.326 510.556 77.1206C509.792 76.9153 508.983 76.9417 508.233 77.1965C507.483 77.4512 506.825 77.9229 506.344 78.5517C505.862 79.1806 505.578 79.9382 505.528 80.7286C505.477 81.5191 505.662 82.3067 506.06 82.9917C506.458 83.6768 507.05 84.2284 507.761 84.5766C508.472 84.9248 509.271 85.054 510.056 84.9477C510.841 84.8415 511.577 84.5047 512.17 83.9799C512.962 83.2795 513.444 82.2941 513.511 81.2391C513.579 80.1842 513.226 79.1454 512.53 78.3499Z" fill="#87FFFF" fill-opacity="0.61"/>
<path d="M510.427 77.6035C511.096 77.7832 511.697 78.1576 512.154 78.6791C512.763 79.3752 513.071 80.2841 513.012 81.2072C512.953 82.1303 512.531 82.9925 511.839 83.6054C511.319 84.0646 510.676 84.3593 509.989 84.4523C509.302 84.5452 508.603 84.4322 507.981 84.1275C507.358 83.8228 506.84 83.3402 506.492 82.7408C506.145 82.1414 505.982 81.4522 506.027 80.7605C506.071 80.0689 506.319 79.406 506.741 78.8558C507.162 78.3055 507.737 77.8928 508.394 77.6699C509.05 77.447 509.758 77.4239 510.427 77.6035Z" stroke="#87FFFF" stroke-opacity="0.6"/>
<path d="M519.93 46.1899C518.897 45.0129 517.537 44.1687 516.024 43.764C514.511 43.3594 512.912 43.4124 511.429 43.9164C509.946 44.4205 508.646 45.3529 507.693 46.5957C506.74 47.8386 506.177 49.3362 506.075 50.8991C505.973 52.462 506.337 54.0201 507.12 55.3763C507.903 56.7326 509.071 57.8261 510.476 58.5187C511.881 59.2113 513.459 59.4718 515.012 59.2673C516.565 59.0628 518.022 58.4025 519.2 57.3699C520.777 55.983 521.74 54.0269 521.877 51.9309C522.014 49.8349 521.314 47.7701 519.93 46.1899Z" stroke="#87FFFF" stroke-opacity="0.6" stroke-width="0.91" stroke-miterlimit="10"/>
<path d="M467.656 81.7078C470.276 78.2053 469.561 73.2419 466.058 70.6217C462.556 68.0015 457.592 68.7168 454.972 72.2192C452.352 75.7217 453.067 80.6851 456.57 83.3053C460.072 85.9255 465.036 85.2102 467.656 81.7078Z" stroke="#87FFFF" stroke-opacity="0.6" stroke-width="0.91" stroke-miterlimit="10"/>
<path d="M500.73 15.8597C499.699 14.6735 498.339 13.8204 496.823 13.4085C495.306 12.9967 493.702 13.0447 492.212 13.5465C490.723 14.0483 489.417 14.9812 488.459 16.2268C487.501 17.4725 486.934 18.9747 486.831 20.5428C486.729 22.1109 487.094 23.6742 487.881 25.0342C488.669 26.3942 489.842 27.4897 491.253 28.1815C492.664 28.8733 494.249 29.1304 495.806 28.9199C497.364 28.7095 498.823 28.0411 500 26.9997C501.568 25.6155 502.525 23.6672 502.662 21.5802C502.798 19.4931 502.104 17.4367 500.73 15.8597Z" stroke="#87FFFF" stroke-opacity="0.6" stroke-width="0.91" stroke-miterlimit="10"/>
<path d="M661.08 -68.5303L599.62 -14.5703L598.48 2.95972L512.14 78.7597" stroke="#87FFFF" stroke-opacity="0.6" stroke-width="0.91" stroke-miterlimit="10"/>
<path d="M669 285.89C668.48 285.291 667.794 284.861 667.029 284.653C666.265 284.445 665.455 284.469 664.704 284.722C663.953 284.975 663.294 285.446 662.81 286.074C662.327 286.702 662.041 287.46 661.989 288.25C661.937 289.041 662.121 289.83 662.518 290.516C662.915 291.202 663.507 291.755 664.218 292.104C664.93 292.453 665.729 292.583 666.514 292.477C667.3 292.372 668.036 292.035 668.63 291.51C669.42 290.811 669.903 289.829 669.972 288.776C670.041 287.723 669.692 286.686 669 285.89Z" stroke="#87FFFF" stroke-opacity="0.6" stroke-width="0.91" stroke-miterlimit="10"/>
<path d="M817.49 139.01L756.04 192.96L754.9 210.49L668.55 286.3" stroke="#87FFFF" stroke-opacity="0.6" stroke-width="0.91" stroke-miterlimit="10"/>
<path d="M707.33 273.78C706.81 273.182 706.124 272.751 705.36 272.543C704.595 272.335 703.785 272.36 703.034 272.612C702.283 272.865 701.624 273.336 701.141 273.964C700.657 274.592 700.371 275.35 700.319 276.141C700.267 276.931 700.451 277.72 700.848 278.406C701.245 279.092 701.837 279.645 702.548 279.994C703.26 280.343 704.059 280.473 704.844 280.368C705.63 280.262 706.366 279.925 706.96 279.4C707.75 278.701 708.233 277.719 708.302 276.666C708.371 275.614 708.022 274.576 707.33 273.78Z" stroke="#87FFFF" stroke-opacity="0.6" stroke-width="0.91" stroke-miterlimit="10"/>
<path d="M855.87 126.9L794.42 180.85L793.28 198.38L706.93 274.19" stroke="#87FFFF" stroke-opacity="0.6" stroke-width="0.91" stroke-miterlimit="10"/>
<path d="M461.19 13.9998C460.668 13.4037 459.982 12.9759 459.217 12.7705C458.452 12.5652 457.643 12.5916 456.893 12.8464C456.143 13.1011 455.486 13.5728 455.004 14.2017C454.522 14.8305 454.238 15.5881 454.188 16.3785C454.137 17.169 454.323 17.9566 454.72 18.6417C455.118 19.3267 455.71 19.8783 456.421 20.2265C457.133 20.5747 457.931 20.7039 458.716 20.5976C459.501 20.4914 460.237 20.1546 460.83 19.6298C461.622 18.9294 462.104 17.944 462.172 16.889C462.239 15.8341 461.886 14.7953 461.19 13.9998Z" stroke="#87FFFF" stroke-opacity="0.6" stroke-width="0.91" stroke-miterlimit="10"/>
<path d="M609.74 -132.85L548.29 -78.8901L547.14 -61.3601L460.8 14.4499" stroke="#87FFFF" stroke-opacity="0.6" stroke-width="0.91" stroke-miterlimit="10"/>
<path d="M714.46 -146.51L641.33 -82.3103L615.04 -84.0202L500.68 16.3698" stroke="#87FFFF" stroke-opacity="0.6" stroke-width="0.91" stroke-miterlimit="10"/>
<path d="M637.09 -112.94L593.39 -74.5699L592.2 -56.2899L570.35 -37.1099L569.08 -17.6299L467.08 71.92" stroke="#87FFFF" stroke-opacity="0.6" stroke-width="0.91" stroke-miterlimit="10"/>
<path d="M846.4 109.15L791.45 157.39L765.85 155.72L714.31 200.97L713.77 209.37L671.38 246.58" stroke="#87FFFF" stroke-opacity="0.6" stroke-width="0.91" stroke-miterlimit="10"/>
<path d="M865.78 120.04L772.91 201.57L702.52 196.99L612.64 275.9" stroke="#87FFFF" stroke-opacity="0.6" stroke-width="0.91" stroke-miterlimit="10"/>
<path d="M737.8 -42.1104L672.39 15.3197L647.52 13.6996L555.81 94.3497" stroke="#87FFFF" stroke-opacity="0.6" stroke-width="0.91" stroke-miterlimit="10"/>
<path d="M743.04 -28.52L648.98 54.06L593.14 50.43L516.92 117.35" stroke="#87FFFF" stroke-opacity="0.6" stroke-width="0.91" stroke-miterlimit="10"/>
<path d="M732.36 -60.3003L668.57 -4.30031L621.87 -7.34029L608.9 4.0497L603.79 82.7297L518.11 157.95" stroke="#87FFFF" stroke-opacity="0.6" stroke-width="0.91" stroke-miterlimit="10"/>
<path d="M609.205 107.972C623.662 105.92 633.719 92.5359 631.666 78.0784C629.614 63.621 616.23 53.5648 601.772 55.6172C587.315 57.6697 577.259 71.0536 579.311 85.511C581.363 99.9685 594.747 110.025 609.205 107.972Z" fill="url(#paint20_radial_14_2772)"/>
<path d="M631.171 78.1487C633.185 92.3328 623.319 105.464 609.135 107.477C594.951 109.491 581.82 99.6248 579.806 85.4407C577.792 71.2567 587.658 58.1259 601.843 56.1122C616.027 54.0986 629.157 63.9647 631.171 78.1487Z" stroke="#87FFFF" stroke-opacity="0.6"/>
<path d="M636.856 205.855C650.839 195.561 653.829 175.88 643.535 161.896C633.241 147.913 613.56 144.923 599.577 155.217C585.593 165.511 582.603 185.192 592.897 199.175C603.191 213.159 622.872 216.149 636.856 205.855Z" fill="url(#paint21_radial_14_2772)"/>
<path d="M643.132 162.193C653.263 175.954 650.32 195.322 636.559 205.452C622.798 215.583 603.43 212.64 593.3 198.879C583.169 185.118 586.112 165.75 599.873 155.62C613.634 145.489 633.002 148.432 643.132 162.193Z" stroke="#87FFFF" stroke-opacity="0.6"/>
<path d="M629.668 210.009C646.093 204.376 654.842 186.495 649.209 170.07C643.575 153.645 625.694 144.897 609.269 150.53C592.845 156.163 584.096 174.044 589.729 190.469C595.362 206.894 613.244 215.642 629.668 210.009Z" fill="url(#paint22_radial_14_2772)"/>
<path d="M648.736 170.232C654.279 186.396 645.67 203.993 629.506 209.536C613.343 215.08 595.746 206.47 590.202 190.307C584.659 174.143 593.268 156.546 609.432 151.003C625.595 145.459 643.192 154.069 648.736 170.232Z" stroke="#87FFFF" stroke-opacity="0.6"/>
<path d="M749.456 85.11C756.213 69.1147 748.723 50.6706 732.728 43.9139C716.733 37.1572 698.289 44.6466 691.532 60.6419C684.775 76.6372 692.265 95.0814 708.26 101.838C724.255 108.595 742.699 101.105 749.456 85.11Z" fill="url(#paint23_radial_14_2772)"/>
<path d="M732.533 44.3745C748.274 51.0237 755.645 69.1746 748.995 84.9155C742.346 100.656 724.195 108.027 708.454 101.377C692.714 94.7282 685.343 76.5774 691.993 60.8365C698.642 45.0956 716.793 37.7253 732.533 44.3745Z" stroke="#87FFFF" stroke-opacity="0.6"/>
<path d="M491.45 75.1852C501.413 71.038 506.127 59.5995 501.98 49.6365C497.833 39.6735 486.395 34.9589 476.432 39.1061C466.469 43.2533 461.754 54.6918 465.901 64.6548C470.048 74.6177 481.487 79.3323 491.45 75.1852Z" fill="url(#paint24_radial_14_2772)"/>
<path d="M501.519 49.8286C505.56 59.5367 500.966 70.6825 491.258 74.7236C481.55 78.7646 470.404 74.1706 466.363 64.4626C462.322 54.7546 466.916 43.6088 476.624 39.5677C486.332 35.5266 497.478 40.1206 501.519 49.8286Z" stroke="#87FFFF" stroke-opacity="0.6"/>
</g>
<defs>
<linearGradient id="paint0_linear_14_2772" x1="-155.367" y1="634.854" x2="211.298" y2="320.569" gradientUnits="userSpaceOnUse">
<stop stop-color="#99FFFF"/>
<stop offset="1" stop-color="#99FFFF" stop-opacity="0"/>
</linearGradient>
<linearGradient id="paint1_linear_14_2772" x1="-99.3246" y1="541.302" x2="137.785" y2="340.947" gradientUnits="userSpaceOnUse">
<stop stop-color="#99FFFF"/>
<stop offset="1" stop-color="#99FFFF" stop-opacity="0"/>
</linearGradient>
<linearGradient id="paint2_linear_14_2772" x1="-278.592" y1="599.198" x2="88.0729" y2="284.913" gradientUnits="userSpaceOnUse">
<stop stop-color="#99FFFF"/>
<stop offset="1" stop-color="#99FFFF" stop-opacity="0"/>
</linearGradient>
<linearGradient id="paint3_linear_14_2772" x1="-150.811" y1="429.78" x2="50.1735" y2="256.43" gradientUnits="userSpaceOnUse">
<stop stop-color="#99FFFF"/>
<stop offset="1" stop-color="#99FFFF" stop-opacity="0"/>
</linearGradient>
<linearGradient id="paint4_linear_14_2772" x1="90.0182" y1="603.038" x2="214.916" y2="496.202" gradientUnits="userSpaceOnUse">
<stop stop-color="#99FFFF"/>
<stop offset="1" stop-color="#99FFFF" stop-opacity="0"/>
</linearGradient>
<linearGradient id="paint5_linear_14_2772" x1="-285.314" y1="630.446" x2="82.9248" y2="317.994" gradientUnits="userSpaceOnUse">
<stop stop-color="#99FFFF"/>
<stop offset="1" stop-color="#99FFFF" stop-opacity="0"/>
</linearGradient>
<linearGradient id="paint6_linear_14_2772" x1="-119.276" y1="794.073" x2="251.432" y2="484.673" gradientUnits="userSpaceOnUse">
<stop stop-color="#99FFFF"/>
<stop offset="1" stop-color="#99FFFF" stop-opacity="0"/>
</linearGradient>
<radialGradient id="paint7_radial_14_2772" cx="0" cy="0" r="1" gradientUnits="userSpaceOnUse" gradientTransform="translate(73.8124 352.435) scale(26.35)">
<stop stop-color="#FFFFFC"/>
<stop offset="0.16" stop-color="#C5FFFC" stop-opacity="0.75"/>
<stop offset="0.33" stop-color="#91FFFC" stop-opacity="0.52"/>
<stop offset="0.49" stop-color="#65FFFC" stop-opacity="0.34"/>
<stop offset="0.64" stop-color="#44FFFC" stop-opacity="0.19"/>
<stop offset="0.78" stop-color="#2CFFFC" stop-opacity="0.09"/>
<stop offset="0.9" stop-color="#1DFFFC" stop-opacity="0.02"/>
<stop offset="1" stop-color="#18FFFC" stop-opacity="0"/>
</radialGradient>
<radialGradient id="paint8_radial_14_2772" cx="0" cy="0" r="1" gradientUnits="userSpaceOnUse" gradientTransform="translate(169.421 271.933) scale(26.35)">
<stop stop-color="#FFFFFC"/>
<stop offset="0.16" stop-color="#C5FFFC" stop-opacity="0.75"/>
<stop offset="0.33" stop-color="#91FFFC" stop-opacity="0.52"/>
<stop offset="0.49" stop-color="#65FFFC" stop-opacity="0.34"/>
<stop offset="0.64" stop-color="#44FFFC" stop-opacity="0.19"/>
<stop offset="0.78" stop-color="#2CFFFC" stop-opacity="0.09"/>
<stop offset="0.9" stop-color="#1DFFFC" stop-opacity="0.02"/>
<stop offset="1" stop-color="#18FFFC" stop-opacity="0"/>
</radialGradient>
<radialGradient id="paint9_radial_14_2772" cx="0" cy="0" r="1" gradientUnits="userSpaceOnUse" gradientTransform="translate(169.37 379.19) scale(31.33 31.33)">
<stop stop-color="#FFFFFC"/>
<stop offset="0.16" stop-color="#C5FFFC" stop-opacity="0.75"/>
<stop offset="0.33" stop-color="#91FFFC" stop-opacity="0.52"/>
<stop offset="0.49" stop-color="#65FFFC" stop-opacity="0.34"/>
<stop offset="0.64" stop-color="#44FFFC" stop-opacity="0.19"/>
<stop offset="0.78" stop-color="#2CFFFC" stop-opacity="0.09"/>
<stop offset="0.9" stop-color="#1DFFFC" stop-opacity="0.02"/>
<stop offset="1" stop-color="#18FFFC" stop-opacity="0"/>
</radialGradient>
<radialGradient id="paint10_radial_14_2772" cx="0" cy="0" r="1" gradientUnits="userSpaceOnUse" gradientTransform="translate(168.97 380.4) scale(31.33)">
<stop stop-color="#FFFFFC"/>
<stop offset="0.16" stop-color="#C5FFFC" stop-opacity="0.75"/>
<stop offset="0.33" stop-color="#91FFFC" stop-opacity="0.52"/>
<stop offset="0.49" stop-color="#65FFFC" stop-opacity="0.34"/>
<stop offset="0.64" stop-color="#44FFFC" stop-opacity="0.19"/>
<stop offset="0.78" stop-color="#2CFFFC" stop-opacity="0.09"/>
<stop offset="0.9" stop-color="#1DFFFC" stop-opacity="0.02"/>
<stop offset="1" stop-color="#18FFFC" stop-opacity="0"/>
</radialGradient>
<radialGradient id="paint11_radial_14_2772" cx="0" cy="0" r="1" gradientUnits="userSpaceOnUse" gradientTransform="translate(48.5199 464.59) scale(31.33 31.33)">
<stop stop-color="#FFFFFC"/>
<stop offset="0.16" stop-color="#C5FFFC" stop-opacity="0.75"/>
<stop offset="0.33" stop-color="#91FFFC" stop-opacity="0.52"/>
<stop offset="0.49" stop-color="#65FFFC" stop-opacity="0.34"/>
<stop offset="0.64" stop-color="#44FFFC" stop-opacity="0.19"/>
<stop offset="0.78" stop-color="#2CFFFC" stop-opacity="0.09"/>
<stop offset="0.9" stop-color="#1DFFFC" stop-opacity="0.02"/>
<stop offset="1" stop-color="#18FFFC" stop-opacity="0"/>
</radialGradient>
<radialGradient id="paint12_radial_14_2772" cx="0" cy="0" r="1" gradientUnits="userSpaceOnUse" gradientTransform="translate(67.0754 229.028) scale(19.47)">
<stop stop-color="#FFFFFC"/>
<stop offset="0.16" stop-color="#C5FFFC" stop-opacity="0.75"/>
<stop offset="0.33" stop-color="#91FFFC" stop-opacity="0.52"/>
<stop offset="0.49" stop-color="#65FFFC" stop-opacity="0.34"/>
<stop offset="0.64" stop-color="#44FFFC" stop-opacity="0.19"/>
<stop offset="0.78" stop-color="#2CFFFC" stop-opacity="0.09"/>
<stop offset="0.9" stop-color="#1DFFFC" stop-opacity="0.02"/>
<stop offset="1" stop-color="#18FFFC" stop-opacity="0"/>
</radialGradient>
<linearGradient id="paint13_linear_14_2772" x1="917.553" y1="-98.4281" x2="552.346" y2="220.035" gradientUnits="userSpaceOnUse">
<stop stop-color="#99FFFF"/>
<stop offset="1" stop-color="#99FFFF" stop-opacity="0"/>
</linearGradient>
<linearGradient id="paint14_linear_14_2772" x1="810.318" y1="-61.2092" x2="577.001" y2="145.152" gradientUnits="userSpaceOnUse">
<stop stop-color="#99FFFF"/>
<stop offset="1" stop-color="#99FFFF" stop-opacity="0"/>
</linearGradient>
<linearGradient id="paint15_linear_14_2772" x1="845.836" y1="-165.825" x2="480.629" y2="152.638" gradientUnits="userSpaceOnUse">
<stop stop-color="#99FFFF"/>
<stop offset="1" stop-color="#99FFFF" stop-opacity="0"/>
</linearGradient>
<linearGradient id="paint16_linear_14_2772" x1="711.422" y1="-127.924" x2="510.167" y2="46.4832" gradientUnits="userSpaceOnUse">
<stop stop-color="#99FFFF"/>
<stop offset="1" stop-color="#99FFFF" stop-opacity="0"/>
</linearGradient>
<linearGradient id="paint17_linear_14_2772" x1="865.662" y1="158.874" x2="753.237" y2="256.716" gradientUnits="userSpaceOnUse">
<stop stop-color="#99FFFF"/>
<stop offset="1" stop-color="#99FFFF" stop-opacity="0"/>
</linearGradient>
<linearGradient id="paint18_linear_14_2772" x1="924.675" y1="-234.85" x2="561.077" y2="85.4327" gradientUnits="userSpaceOnUse">
<stop stop-color="#99FFFF"/>
<stop offset="1" stop-color="#99FFFF" stop-opacity="0"/>
</linearGradient>
<linearGradient id="paint19_linear_14_2772" x1="999.243" y1="4.39353" x2="638.299" y2="327.578" gradientUnits="userSpaceOnUse">
<stop stop-color="#99FFFF"/>
<stop offset="1" stop-color="#99FFFF" stop-opacity="0"/>
</linearGradient>
<radialGradient id="paint20_radial_14_2772" cx="0" cy="0" r="1" gradientUnits="userSpaceOnUse" gradientTransform="translate(609.881 85.1729) rotate(98.1802) scale(26.44 26.44)">
<stop stop-color="#FFFFFC"/>
<stop offset="0.16" stop-color="#C5FFFC" stop-opacity="0.75"/>
<stop offset="0.33" stop-color="#91FFFC" stop-opacity="0.52"/>
<stop offset="0.49" stop-color="#65FFFC" stop-opacity="0.34"/>
<stop offset="0.64" stop-color="#44FFFC" stop-opacity="0.19"/>
<stop offset="0.78" stop-color="#2CFFFC" stop-opacity="0.09"/>
<stop offset="0.9" stop-color="#1DFFFC" stop-opacity="0.02"/>
<stop offset="1" stop-color="#18FFFC" stop-opacity="0"/>
</radialGradient>
<radialGradient id="paint21_radial_14_2772" cx="0" cy="0" r="1" gradientUnits="userSpaceOnUse" gradientTransform="translate(625.271 176.324) rotate(98.2337) scale(31.3471)">
<stop stop-color="#FFFFFC"/>
<stop offset="0.16" stop-color="#C5FFFC" stop-opacity="0.75"/>
<stop offset="0.33" stop-color="#91FFFC" stop-opacity="0.52"/>
<stop offset="0.49" stop-color="#65FFFC" stop-opacity="0.34"/>
<stop offset="0.64" stop-color="#44FFFC" stop-opacity="0.19"/>
<stop offset="0.78" stop-color="#2CFFFC" stop-opacity="0.09"/>
<stop offset="0.9" stop-color="#1DFFFC" stop-opacity="0.02"/>
<stop offset="1" stop-color="#18FFFC" stop-opacity="0"/>
</radialGradient>
<radialGradient id="paint22_radial_14_2772" cx="0" cy="0" r="1" gradientUnits="userSpaceOnUse" gradientTransform="translate(613.013 181.525) rotate(98.4024) scale(31.4981)">
<stop stop-color="#FFFFFC"/>
<stop offset="0.16" stop-color="#C5FFFC" stop-opacity="0.75"/>
<stop offset="0.33" stop-color="#91FFFC" stop-opacity="0.52"/>
<stop offset="0.49" stop-color="#65FFFC" stop-opacity="0.34"/>
<stop offset="0.64" stop-color="#44FFFC" stop-opacity="0.19"/>
<stop offset="0.78" stop-color="#2CFFFC" stop-opacity="0.09"/>
<stop offset="0.9" stop-color="#1DFFFC" stop-opacity="0.02"/>
<stop offset="1" stop-color="#18FFFC" stop-opacity="0"/>
</radialGradient>
<radialGradient id="paint23_radial_14_2772" cx="0" cy="0" r="1" gradientUnits="userSpaceOnUse" gradientTransform="translate(713.03 72.6992) rotate(98.4476) scale(31.4934 31.4934)">
<stop stop-color="#FFFFFC"/>
<stop offset="0.16" stop-color="#C5FFFC" stop-opacity="0.75"/>
<stop offset="0.33" stop-color="#91FFFC" stop-opacity="0.52"/>
<stop offset="0.49" stop-color="#65FFFC" stop-opacity="0.34"/>
<stop offset="0.64" stop-color="#44FFFC" stop-opacity="0.19"/>
<stop offset="0.78" stop-color="#2CFFFC" stop-opacity="0.09"/>
<stop offset="0.9" stop-color="#1DFFFC" stop-opacity="0.02"/>
<stop offset="1" stop-color="#18FFFC" stop-opacity="0"/>
</radialGradient>
<radialGradient id="paint24_radial_14_2772" cx="0" cy="0" r="1" gradientUnits="userSpaceOnUse" gradientTransform="translate(492.13 63.5071) rotate(98.0689) scale(19.5371 19.5371)">
<stop stop-color="#FFFFFC"/>
<stop offset="0.16" stop-color="#C5FFFC" stop-opacity="0.75"/>
<stop offset="0.33" stop-color="#91FFFC" stop-opacity="0.52"/>
<stop offset="0.49" stop-color="#65FFFC" stop-opacity="0.34"/>
<stop offset="0.64" stop-color="#44FFFC" stop-opacity="0.19"/>
<stop offset="0.78" stop-color="#2CFFFC" stop-opacity="0.09"/>
<stop offset="0.9" stop-color="#1DFFFC" stop-opacity="0.02"/>
<stop offset="1" stop-color="#18FFFC" stop-opacity="0"/>
</radialGradient>
</defs>
</svg>
