<svg xmlns="http://www.w3.org/2000/svg" xmlns:xlink="http://www.w3.org/1999/xlink" viewBox="0 0 588.79 310.94"><defs><style>.cls-1{fill:#fff;}.cls-2{isolation:isolate;}.cls-3{clip-path:url(#clip-path);}.cls-4{fill:#a6a6a6;}.cls-5{fill:#cfcfcf;}.cls-11,.cls-15,.cls-19,.cls-23,.cls-27,.cls-31,.cls-36,.cls-39,.cls-42,.cls-45,.cls-48,.cls-51,.cls-54,.cls-58,.cls-6,.cls-7{mix-blend-mode:multiply;}.cls-6{fill:url(#radial-gradient);}.cls-7{fill:url(#radial-gradient-2);}.cls-8{fill:url(#linear-gradient);}.cls-9{fill:#006fbc;}.cls-10{fill:url(#linear-gradient-2);}.cls-11{fill:url(#radial-gradient-3);}.cls-12{fill:url(#linear-gradient-3);}.cls-13{fill:#0097ce;}.cls-14{fill:url(#linear-gradient-4);}.cls-15{fill:url(#radial-gradient-4);}.cls-16{fill:url(#linear-gradient-5);}.cls-17{fill:#ff3036;}.cls-18{fill:url(#linear-gradient-6);}.cls-19{fill:url(#radial-gradient-5);}.cls-20{fill:url(#linear-gradient-7);}.cls-21{fill:#92377e;}.cls-22{fill:url(#linear-gradient-8);}.cls-23{fill:url(#radial-gradient-6);}.cls-24{fill:url(#linear-gradient-9);}.cls-25{fill:#ffb500;}.cls-26{fill:url(#linear-gradient-10);}.cls-27{fill:url(#radial-gradient-7);}.cls-28{fill:url(#linear-gradient-11);}.cls-29{fill:#919191;}.cls-30{fill:url(#linear-gradient-12);}.cls-31{fill:url(#radial-gradient-8);}.cls-32{fill:url(#linear-gradient-13);}.cls-33{fill:#009d7e;}.cls-34{fill:url(#linear-gradient-14);}.cls-35{mix-blend-mode:overlay;opacity:0.5;}.cls-36{fill:url(#radial-gradient-9);}.cls-37{fill:url(#linear-gradient-15);}.cls-38{fill:url(#linear-gradient-16);}.cls-39{fill:url(#radial-gradient-10);}.cls-40{fill:url(#linear-gradient-17);}.cls-41{fill:url(#linear-gradient-18);}.cls-42{fill:url(#radial-gradient-11);}.cls-43{fill:url(#linear-gradient-19);}.cls-44{fill:url(#linear-gradient-20);}.cls-45{fill:url(#radial-gradient-12);}.cls-46{fill:url(#linear-gradient-21);}.cls-47{fill:url(#linear-gradient-22);}.cls-48{fill:url(#radial-gradient-13);}.cls-49{fill:url(#linear-gradient-23);}.cls-50{fill:url(#linear-gradient-24);}.cls-51{fill:url(#radial-gradient-14);}.cls-52{fill:url(#linear-gradient-25);}.cls-53{fill:url(#linear-gradient-26);}.cls-54{fill:url(#radial-gradient-15);}.cls-55{fill:url(#linear-gradient-27);}.cls-56{fill:url(#linear-gradient-28);}.cls-57{fill:#adadad;}.cls-59{fill:#ebebeb;}</style><clipPath id="clip-path" transform="translate(48.79 14.56)"><rect class="cls-1" width="540" height="288"/></clipPath><radialGradient id="radial-gradient" cx="145.91" cy="170.65" r="106.58" gradientUnits="userSpaceOnUse"><stop offset="0" stop-color="#b8b8b8"/><stop offset="0.24" stop-color="#d2d2d2"/><stop offset="0.52" stop-color="#ebebeb"/><stop offset="0.79" stop-color="#fafafa"/><stop offset="1" stop-color="#fff"/></radialGradient><radialGradient id="radial-gradient-2" cx="155.57" cy="153.1" r="79.91" gradientUnits="userSpaceOnUse"><stop offset="0"/><stop offset="0.03" stop-color="#0c0c0c"/><stop offset="0.19" stop-color="#4b4b4b"/><stop offset="0.34" stop-color="#828282"/><stop offset="0.5" stop-color="#afafaf"/><stop offset="0.64" stop-color="#d2d2d2"/><stop offset="0.78" stop-color="#ebebeb"/><stop offset="0.9" stop-color="#fafafa"/><stop offset="1" stop-color="#fff"/></radialGradient><linearGradient id="linear-gradient" x1="115.14" y1="88.07" x2="208.03" y2="196.26" gradientUnits="userSpaceOnUse"><stop offset="0" stop-color="#c2c2c2"/><stop offset="0.16" stop-color="#d2d2d2"/><stop offset="0.48" stop-color="#ebebeb"/><stop offset="0.77" stop-color="#fafafa"/><stop offset="1" stop-color="#fff"/></linearGradient><linearGradient id="linear-gradient-2" x1="123.09" y1="90.64" x2="200.1" y2="192.46" xlink:href="#linear-gradient"/><radialGradient id="radial-gradient-3" cx="186.23" cy="216.31" r="37.89" gradientTransform="translate(373.17 0.62) rotate(81.64)" xlink:href="#radial-gradient-2"/><linearGradient id="linear-gradient-3" x1="215.85" y1="200.03" x2="259.9" y2="251.33" xlink:href="#linear-gradient"/><linearGradient id="linear-gradient-4" x1="220.46" y1="202.36" x2="255.45" y2="248.63" xlink:href="#linear-gradient"/><radialGradient id="radial-gradient-4" cx="198.01" cy="91.08" r="43.67" gradientTransform="translate(122.4 -113.34) rotate(45)" xlink:href="#radial-gradient-2"/><linearGradient id="linear-gradient-5" x1="224.71" y1="70.1" x2="275.47" y2="129.22" xlink:href="#linear-gradient"/><linearGradient id="linear-gradient-6" x1="230.02" y1="72.79" x2="270.35" y2="126.11" xlink:href="#linear-gradient"/><radialGradient id="radial-gradient-5" cx="159.01" cy="228.56" r="21.26" xlink:href="#radial-gradient-2"/><linearGradient id="linear-gradient-7" x1="148.25" y1="211.26" x2="172.96" y2="240.04" xlink:href="#linear-gradient"/><linearGradient id="linear-gradient-8" x1="150.83" y1="212.57" x2="170.47" y2="238.52" xlink:href="#linear-gradient"/><radialGradient id="radial-gradient-6" cx="204.29" cy="61.28" r="21.26" xlink:href="#radial-gradient-2"/><linearGradient id="linear-gradient-9" x1="193.54" y1="43.98" x2="218.25" y2="72.76" xlink:href="#linear-gradient"/><linearGradient id="linear-gradient-10" x1="196.12" y1="45.29" x2="215.75" y2="71.24" xlink:href="#linear-gradient"/><radialGradient id="radial-gradient-7" cx="33.04" cy="244.96" r="34.2" gradientTransform="translate(263.55 155.72) rotate(76.52)" xlink:href="#radial-gradient-2"/><linearGradient id="linear-gradient-11" x1="64.53" y1="231.69" x2="104.28" y2="277.99" xlink:href="#linear-gradient"/><linearGradient id="linear-gradient-12" x1="68.69" y1="233.79" x2="100.27" y2="275.55" xlink:href="#linear-gradient"/><radialGradient id="radial-gradient-8" cx="105.4" cy="95.01" r="45.98" xlink:href="#radial-gradient-2"/><linearGradient id="linear-gradient-13" x1="82.14" y1="57.59" x2="135.58" y2="119.84" xlink:href="#linear-gradient"/><linearGradient id="linear-gradient-14" x1="87.73" y1="60.42" x2="130.19" y2="116.57" xlink:href="#linear-gradient"/><radialGradient id="radial-gradient-9" cx="110.5" cy="125.13" r="113.3" gradientTransform="translate(120.84 -41.48) rotate(45)" xlink:href="#radial-gradient-2"/><linearGradient id="linear-gradient-15" x1="101.96" y1="47.49" x2="233.67" y2="200.88" xlink:href="#linear-gradient"/><linearGradient id="linear-gradient-16" x1="113.23" y1="51.14" x2="222.42" y2="195.51" xlink:href="#linear-gradient"/><radialGradient id="radial-gradient-10" cx="223.15" cy="235.4" r="53.73" gradientTransform="translate(231.81 -88.84) rotate(45)" xlink:href="#radial-gradient-2"/><linearGradient id="linear-gradient-17" x1="244.76" y1="206.24" x2="307.21" y2="278.98" xlink:href="#linear-gradient"/><linearGradient id="linear-gradient-18" x1="251.29" y1="209.54" x2="300.91" y2="275.15" xlink:href="#linear-gradient"/><radialGradient id="radial-gradient-11" cx="278.45" cy="165.94" r="61.92" xlink:href="#radial-gradient-2"/><linearGradient id="linear-gradient-19" x1="247.12" y1="115.56" x2="319.09" y2="199.38" xlink:href="#linear-gradient"/><linearGradient id="linear-gradient-20" x1="254.64" y1="119.36" x2="311.83" y2="194.97" xlink:href="#linear-gradient"/><radialGradient id="radial-gradient-12" cx="115.37" cy="232.13" r="30.14" gradientTransform="translate(163.5 -22.58) rotate(37.13)" xlink:href="#radial-gradient-2"/><linearGradient id="linear-gradient-21" x1="148.91" y1="222.16" x2="183.94" y2="262.96" xlink:href="#linear-gradient"/><linearGradient id="linear-gradient-22" x1="152.57" y1="224.01" x2="180.41" y2="260.81" xlink:href="#linear-gradient"/><radialGradient id="radial-gradient-13" cx="133.66" cy="94.44" r="30.14" gradientTransform="translate(105.92 -66.85) rotate(45)" xlink:href="#radial-gradient-2"/><linearGradient id="linear-gradient-23" x1="167.2" y1="84.47" x2="202.23" y2="125.27" xlink:href="#linear-gradient"/><linearGradient id="linear-gradient-24" x1="170.86" y1="86.32" x2="198.7" y2="123.12" xlink:href="#linear-gradient"/><radialGradient id="radial-gradient-14" cx="22.95" cy="206.29" r="48.49" gradientTransform="translate(152.6 44.19) rotate(45)" xlink:href="#radial-gradient-2"/><linearGradient id="linear-gradient-25" x1="47.21" y1="181.4" x2="103.58" y2="247.04" xlink:href="#linear-gradient"/><linearGradient id="linear-gradient-26" x1="53.11" y1="184.38" x2="97.89" y2="243.58" xlink:href="#linear-gradient"/><radialGradient id="radial-gradient-15" cx="65.19" cy="148.32" r="65.19" xlink:href="#radial-gradient-2"/><linearGradient id="linear-gradient-27" x1="32.21" y1="95.27" x2="107.99" y2="183.53" xlink:href="#linear-gradient"/><linearGradient id="linear-gradient-28" x1="40.13" y1="99.28" x2="100.34" y2="178.88" xlink:href="#linear-gradient"/></defs><g class="cls-2"><g id="Layer_1" data-name="Layer 1"><rect class="cls-1" x="48.79" y="14.56" width="540" height="288"/><g class="cls-3"><polygon class="cls-4" points="101.12 66.24 10.28 66.24 10.28 65.87 100.9 65.87 123.19 25.34 180.59 25.34 194.25 0.52 310.44 0.52 310.44 0.89 194.47 0.89 180.81 25.72 123.41 25.72 101.12 66.24"/><circle class="cls-4" cx="10.32" cy="66.06" r="0.7"/><circle class="cls-4" cx="310.41" cy="0.7" r="0.7"/><polygon class="cls-4" points="368.75 136.53 353.91 109.56 281.6 109.56 281.55 109.46 258.61 67.76 213.42 67.76 187.5 114.88 91.98 114.88 91.93 114.78 65.21 66.21 65.54 66.03 92.2 114.5 187.28 114.5 213.19 67.39 258.84 67.39 258.89 67.49 281.82 109.19 354.13 109.19 369.07 136.35 368.75 136.53"/><path class="cls-4" d="M319.48,122.19a.71.71,0,0,0,1,.28.72.72,0,0,0,.28-1,.71.71,0,0,0-1.24.68Z" transform="translate(48.79 14.56)"/><polygon class="cls-4" points="156.9 114.78 156.57 114.6 201.77 32.43 284.47 32.43 284.52 32.53 305.65 70.94 363.39 70.94 363.39 71.31 305.43 71.31 305.37 71.22 284.25 32.81 201.99 32.81 156.9 114.78"/><path class="cls-4" d="M314.56,57.27a.7.7,0,0,0,.7-.7.7.7,0,0,0-.7-.71.71.71,0,0,0-.71.71A.7.7,0,0,0,314.56,57.27Z" transform="translate(48.79 14.56)"/><polygon class="cls-4" points="165.27 76.38 159.97 76.38 145.48 50.03 109.83 50.03 109.83 49.66 145.7 49.66 160.19 76 165.27 76 165.27 76.38"/><circle class="cls-4" cx="165.23" cy="76.19" r="0.7"/><polygon class="cls-4" points="128.24 97.32 82.43 97.32 82.43 96.94 128.02 96.94 138.51 77.87 138.84 78.05 128.24 97.32"/><path class="cls-4" d="M90.48,63.77a.69.69,0,0,0-.28-1,.69.69,0,0,0-1,.27.71.71,0,0,0,.28,1A.69.69,0,0,0,90.48,63.77Z" transform="translate(48.79 14.56)"/><polygon class="cls-4" points="241 310.94 134.62 310.94 134.56 310.84 118.73 282.06 13.62 282.06 13.62 281.69 118.95 281.69 119.01 281.78 134.84 310.57 240.78 310.57 279.1 240.91 352.8 240.91 352.8 241.28 279.32 241.28 241 310.94"/><path class="cls-4" d="M-35.13,268a.7.7,0,0,1-.71-.7.71.71,0,0,1,.71-.71.7.7,0,0,1,.7.71A.7.7,0,0,1-35.13,268Z" transform="translate(48.79 14.56)"/><path class="cls-4" d="M304,227.24a.7.7,0,0,0,.7-.7.7.7,0,0,0-.7-.71.71.71,0,0,0-.71.71A.7.7,0,0,0,304,227.24Z" transform="translate(48.79 14.56)"/><polygon class="cls-4" points="57.11 282.03 56.78 281.85 72.29 253.66 137.53 253.66 152.21 280.34 234.65 280.34 242.4 266.24 242.73 266.43 234.87 280.71 151.98 280.71 137.31 254.03 72.51 254.03 57.11 282.03"/><circle class="cls-4" cx="193.76" cy="251.81" r="0.7" transform="translate(-71.56 218.57) rotate(-43.77)"/><polygon class="cls-4" points="239.33 294.56 125.9 294.56 125.9 294.19 239.11 294.19 258.05 259.75 258.38 259.93 239.33 294.56"/><path class="cls-4" d="M210,245.65a.71.71,0,0,0-.27-1,.72.72,0,0,0-1,.28.7.7,0,1,0,1.23.68Z" transform="translate(48.79 14.56)"/><polygon class="cls-4" points="240.44 247.62 168.33 247.62 159.6 231.74 12.14 231.74 12.14 231.37 159.82 231.37 168.55 247.24 240.22 247.24 263.91 204.18 380.11 204.18 380.11 204.55 264.13 204.55 240.44 247.62"/><path class="cls-4" d="M-36.62,217.7a.7.7,0,0,1-.7-.7.7.7,0,0,1,.7-.71.7.7,0,0,1,.7.71A.7.7,0,0,1-36.62,217.7Z" transform="translate(48.79 14.56)"/><circle class="cls-4" cx="380.07" cy="204.37" r="0.7"/><rect class="cls-4" x="251.69" y="226.64" width="62.28" height="0.37"/><path class="cls-4" d="M265.14,213a.7.7,0,0,0,.71-.7.71.71,0,1,0-1.41,0A.7.7,0,0,0,265.14,213Z" transform="translate(48.79 14.56)"/><polygon class="cls-4" points="225.4 198.47 169.17 198.47 169.11 198.37 148.83 161.49 24.77 161.49 24.77 161.12 149.05 161.12 149.1 161.21 169.39 198.09 225.18 198.09 246.49 159.34 342.99 159.34 352.12 175.95 351.8 176.13 342.77 159.72 246.72 159.72 225.4 198.47"/><circle class="cls-4" cx="24.81" cy="161.3" r="0.7"/><path class="cls-4" d="M302.53,161.79a.7.7,0,0,0,1.24-.67.7.7,0,0,0-1.24.67Z" transform="translate(48.79 14.56)"/><polygon class="cls-4" points="79.13 206.87 71.95 206.87 71.95 206.5 78.91 206.5 90.87 184.76 161.94 184.76 161.94 185.13 91.09 185.13 79.13 206.87"/><circle class="cls-4" cx="71.99" cy="206.69" r="0.7"/><polygon class="cls-4" points="238.96 228.36 201.96 228.36 201.9 228.27 185.37 198.21 185.7 198.02 202.18 227.99 238.74 227.99 258.99 191.17 321.59 191.17 326.32 182.57 326.65 182.75 321.81 191.55 259.21 191.55 238.96 228.36"/><path class="cls-4" d="M278.29,168.47a.7.7,0,0,0-1.23-.67.7.7,0,1,0,1.23.67Z" transform="translate(48.79 14.56)"/><polygon class="cls-4" points="204.78 156.09 158.86 156.09 158.8 155.99 136.14 114.78 136.47 114.6 159.08 155.71 204.56 155.71 235.76 98.97 254.56 98.97 264.6 117.22 264.27 117.41 254.34 99.34 235.99 99.34 204.78 156.09"/><path class="cls-4" d="M215,103.07a.71.71,0,1,0,.28-1A.72.72,0,0,0,215,103.07Z" transform="translate(48.79 14.56)"/><polygon class="cls-4" points="224.47 172.3 188.95 172.3 179.94 155.9 180.26 155.72 189.17 171.92 224.25 171.92 244.68 134.77 316.57 134.77 316.57 135.15 244.9 135.15 224.47 172.3"/><path class="cls-4" d="M267.74,121.11a.71.71,0,0,0,.71-.71.71.71,0,1,0-.71.71Z" transform="translate(48.79 14.56)"/><polygon class="cls-4" points="50.03 104.41 29.93 104.41 20.45 87.17 20.78 86.99 30.16 104.04 49.81 104.04 58.91 87.48 77.23 87.48 77.23 87.86 59.14 87.86 50.03 104.41"/><path class="cls-4" d="M-27.54,72.21a.72.72,0,0,0-1-.28.72.72,0,0,0-.28,1,.71.71,0,0,0,1,.28A.72.72,0,0,0-27.54,72.21Z" transform="translate(48.79 14.56)"/><polygon class="cls-4" points="63.56 180.99 46.7 180.99 35.85 161.26 36.18 161.08 46.92 180.62 63.56 180.62 63.56 180.99"/><path class="cls-4" d="M14.73,167a.7.7,0,1,0-.7-.7A.7.7,0,0,0,14.73,167Z" transform="translate(48.79 14.56)"/><polygon class="cls-4" points="25.01 231.98 24.68 231.8 31.33 219.71 136.19 219.71 143.49 206.45 155.88 206.45 155.88 206.83 143.71 206.83 136.41 220.09 31.55 220.09 25.01 231.98"/><path class="cls-4" d="M107.06,192.79a.71.71,0,1,0-.71-.71A.71.71,0,0,0,107.06,192.79Z" transform="translate(48.79 14.56)"/><polygon class="cls-4" points="42.84 161.05 42.52 160.87 56.59 135.27 95.36 135.27 100.89 145.32 128.76 145.32 128.76 145.7 100.67 145.7 95.14 135.65 56.81 135.65 42.84 161.05"/><path class="cls-4" d="M79.93,131.66a.71.71,0,1,0-.7-.7A.71.71,0,0,0,79.93,131.66Z" transform="translate(48.79 14.56)"/><polygon class="cls-4" points="184.26 185.88 179.48 177.19 157.57 177.19 157.57 176.82 179.7 176.82 184.59 185.7 184.26 185.88"/><path class="cls-4" d="M135,171.55a.71.71,0,0,0,1,.27.69.69,0,0,0,.28-.95.71.71,0,1,0-1.24.68Z" transform="translate(48.79 14.56)"/><polygon class="cls-4" points="193.63 140.21 150.33 140.21 150.33 139.84 193.41 139.84 225.18 82.08 253.88 82.08 253.88 82.45 225.4 82.45 193.63 140.21"/><path class="cls-4" d="M205.05,68.42a.7.7,0,0,0,.7-.71.7.7,0,0,0-.7-.7.7.7,0,0,0-.71.7A.71.71,0,0,0,205.05,68.42Z" transform="translate(48.79 14.56)"/><rect class="cls-4" x="271.17" y="89.51" width="27.94" height="0.37"/><path class="cls-4" d="M250.28,75.85a.71.71,0,1,0,0-1.41.71.71,0,0,0,0,1.41Z" transform="translate(48.79 14.56)"/><polygon class="cls-4" points="189.17 81.95 175.41 81.95 175.41 81.58 188.95 81.58 205.53 51.43 275.28 51.43 282.46 64.5 282.13 64.68 275.06 51.81 205.75 51.81 189.17 81.95"/><path class="cls-4" d="M232.87,50.34a.72.72,0,0,0,1,.28.71.71,0,0,0,.27-1,.69.69,0,0,0-.95-.28A.71.71,0,0,0,232.87,50.34Z" transform="translate(48.79 14.56)"/><polygon class="cls-4" points="180.59 44.21 162.06 44.21 151.56 25.11 151.89 24.93 162.28 43.83 180.59 43.83 180.59 44.21"/><circle class="cls-4" cx="180.56" cy="44.02" r="0.7"/><polygon class="cls-4" points="294 49.94 293.67 49.76 303.94 31.08 356.33 31.08 356.33 31.46 304.16 31.46 294 49.94"/><circle class="cls-4" cx="356.29" cy="31.27" r="0.7"/><polygon class="cls-4" points="237.1 213.42 217.24 213.42 208.87 198.22 209.2 198.04 217.46 213.04 236.88 213.04 257.71 175.17 303.75 175.17 303.75 175.55 257.93 175.55 237.1 213.42"/><path class="cls-4" d="M254.93,161.51a.7.7,0,0,0,.7-.71.7.7,0,0,0-.7-.7.7.7,0,0,0-.71.7A.71.71,0,0,0,254.93,161.51Z" transform="translate(48.79 14.56)"/><polygon class="cls-4" points="23.71 281.96 23.38 281.78 44.15 244.03 92.35 244.03 92.35 244.4 44.37 244.4 23.71 281.96"/><circle class="cls-4" cx="92.32" cy="244.22" r="0.7"/><polygon class="cls-4" points="229.35 264.08 164.01 264.08 163.96 263.98 146.26 231.81 146.59 231.63 164.23 263.7 229.35 263.7 229.35 264.08"/><path class="cls-4" d="M180.53,250a.71.71,0,1,0-.71-.71A.71.71,0,0,0,180.53,250Z" transform="translate(48.79 14.56)"/><polygon class="cls-4" points="183.42 235.03 172.86 215.83 195.47 215.83 195.47 216.2 173.5 216.2 183.75 234.84 183.42 235.03"/><path class="cls-4" d="M134.16,220.69a.7.7,0,1,0,.28-1A.69.69,0,0,0,134.16,220.69Z" transform="translate(48.79 14.56)"/><polygon class="cls-4" points="77.21 125.01 46.56 125.01 35.12 104.21 35.45 104.03 46.78 124.64 77.21 124.64 77.21 125.01"/><circle class="cls-4" cx="77.18" cy="124.82" r="0.7"/><polygon class="cls-4" points="230.83 135.82 216.19 135.82 216.19 135.44 230.61 135.44 242.68 113.5 243.01 113.68 230.83 135.82"/><path class="cls-4" d="M194.65,99.4a.7.7,0,1,0-1,.28A.69.69,0,0,0,194.65,99.4Z" transform="translate(48.79 14.56)"/><polygon class="cls-4" points="119.66 79.59 90.03 79.59 82.83 66.49 83.15 66.31 90.25 79.21 119.66 79.21 119.66 79.59"/><path class="cls-4" d="M70.83,65.55a.71.71,0,1,0,0-1.41.71.71,0,0,0,0,1.41Z" transform="translate(48.79 14.56)"/><polygon class="cls-4" points="278.68 14.57 221.46 14.57 214.16 1.3 214.49 1.12 221.68 14.2 278.68 14.2 278.68 14.57"/><path class="cls-4" d="M229.85.53a.7.7,0,0,0,.7-.7.7.7,0,0,0-.7-.71.71.71,0,0,0-.71.71A.7.7,0,0,0,229.85.53Z" transform="translate(48.79 14.56)"/><polygon class="cls-4" points="321.31 71.22 320.98 71.03 332.36 50.33 345.55 50.33 345.55 50.71 332.59 50.71 321.31 71.22"/><path class="cls-4" d="M296.72,36.67a.71.71,0,1,0-.7-.7A.71.71,0,0,0,296.72,36.67Z" transform="translate(48.79 14.56)"/><path class="cls-5" d="M240,177.16a1.86,1.86,0,1,1-1.86-1.86A1.86,1.86,0,0,1,240,177.16Z" transform="translate(48.79 14.56)"/><circle class="cls-5" cx="337.35" cy="70.9" r="0.51"/><path class="cls-5" d="M44.61,237.48A4.47,4.47,0,1,1,40.15,233,4.47,4.47,0,0,1,44.61,237.48Z" transform="translate(48.79 14.56)"/><path class="cls-5" d="M288.05,17.2a.55.55,0,0,1-.55.54.55.55,0,0,1,0-1.09A.55.55,0,0,1,288.05,17.2Z" transform="translate(48.79 14.56)"/><path class="cls-5" d="M281.21,245.94a.55.55,0,0,1-1.09,0,.55.55,0,1,1,1.09,0Z" transform="translate(48.79 14.56)"/><circle class="cls-5" cx="303.28" cy="148.02" r="0.73"/><circle class="cls-5" cx="199.3" cy="174.86" r="3.63"/><path class="cls-5" d="M92.24,47.61a4,4,0,1,1-4-4A4,4,0,0,1,92.24,47.61Z" transform="translate(48.79 14.56)"/><path class="cls-5" d="M205.7,259.21a4.4,4.4,0,1,1-4.4-4.39A4.39,4.39,0,0,1,205.7,259.21Z" transform="translate(48.79 14.56)"/><path class="cls-5" d="M128.52,191.46a.67.67,0,1,1-.67-.67A.67.67,0,0,1,128.52,191.46Z" transform="translate(48.79 14.56)"/><circle class="cls-5" cx="265.69" cy="145.06" r="1.15"/><path class="cls-5" d="M175.73,56.16a.79.79,0,1,1-1.58,0,.79.79,0,1,1,1.58,0Z" transform="translate(48.79 14.56)"/><circle class="cls-5" cx="329.47" cy="187.89" r="0.63"/><path class="cls-5" d="M64.36,78.24a.57.57,0,1,1-.57-.56A.57.57,0,0,1,64.36,78.24Z" transform="translate(48.79 14.56)"/><path class="cls-5" d="M161.35,17.06a.55.55,0,1,1-.55-.56A.55.55,0,0,1,161.35,17.06Z" transform="translate(48.79 14.56)"/><path class="cls-5" d="M118.17,145.26a3.2,3.2,0,1,1-3.2-3.2A3.2,3.2,0,0,1,118.17,145.26Z" transform="translate(48.79 14.56)"/><path class="cls-5" d="M42.05,127a.64.64,0,0,1-.64.64.64.64,0,1,1,.64-.64Z" transform="translate(48.79 14.56)"/><path class="cls-5" d="M220.8,92.14a1.41,1.41,0,1,1-1.41-1.41A1.41,1.41,0,0,1,220.8,92.14Z" transform="translate(48.79 14.56)"/><path class="cls-5" d="M100,223.52a.72.72,0,1,1-.72-.71A.72.72,0,0,1,100,223.52Z" transform="translate(48.79 14.56)"/><path class="cls-5" d="M18.41,210.87a.86.86,0,1,1-.85-.85A.85.85,0,0,1,18.41,210.87Z" transform="translate(48.79 14.56)"/><path class="cls-5" d="M169.38,190.36a.57.57,0,1,1-.56-.57A.56.56,0,0,1,169.38,190.36Z" transform="translate(48.79 14.56)"/><path class="cls-5" d="M15.81,50.6a.53.53,0,1,1-.53-.53A.53.53,0,0,1,15.81,50.6Z" transform="translate(48.79 14.56)"/><path class="cls-5" d="M210.25,195a3,3,0,1,1-3-3A3,3,0,0,1,210.25,195Z" transform="translate(48.79 14.56)"/><path class="cls-5" d="M36.35,177.68a2.6,2.6,0,1,1-2.59-2.59A2.59,2.59,0,0,1,36.35,177.68Z" transform="translate(48.79 14.56)"/><path class="cls-5" d="M99.89,100.81a.73.73,0,0,1-.72.73.73.73,0,0,1-.73-.73.73.73,0,0,1,.73-.72A.72.72,0,0,1,99.89,100.81Z" transform="translate(48.79 14.56)"/><path class="cls-5" d="M252.08,71a3.66,3.66,0,1,1-3.65-3.66A3.64,3.64,0,0,1,252.08,71Z" transform="translate(48.79 14.56)"/><circle class="cls-5" cx="93.33" cy="287.85" r="2.15"/><path class="cls-5" d="M199.09,157.63a.57.57,0,1,1-.57-.57A.56.56,0,0,1,199.09,157.63Z" transform="translate(48.79 14.56)"/><circle class="cls-5" cx="116.62" cy="177.08" r="0.59"/><path class="cls-5" d="M92.18,185.74a1,1,0,1,1-1-1A1,1,0,0,1,92.18,185.74Z" transform="translate(48.79 14.56)"/><path class="cls-5" d="M285.42,274.74a.6.6,0,1,1-.59-.59A.59.59,0,0,1,285.42,274.74Z" transform="translate(48.79 14.56)"/><circle class="cls-5" cx="339.39" cy="147.2" r="3.62"/><path class="cls-5" d="M64.11,211.38a.61.61,0,0,1-.61.62.62.62,0,0,1-.62-.62.61.61,0,0,1,.62-.61A.61.61,0,0,1,64.11,211.38Z" transform="translate(48.79 14.56)"/><circle class="cls-5" cx="63.39" cy="276.3" r="2.86"/><path class="cls-5" d="M78.28,259.37a2.63,2.63,0,1,1-2.63-2.62A2.63,2.63,0,0,1,78.28,259.37Z" transform="translate(48.79 14.56)"/><path class="cls-5" d="M193.75,225.6a2.41,2.41,0,1,1-2.41-2.4A2.41,2.41,0,0,1,193.75,225.6Z" transform="translate(48.79 14.56)"/><circle class="cls-5" cx="288.07" cy="275.82" r="4.36"/><circle class="cls-5" cx="187" cy="244.11" r="2.47"/><circle class="cls-5" cx="217.22" cy="288.24" r="2.38"/><circle class="cls-5" cx="251.91" cy="27.06" r="3.05"/><path class="cls-5" d="M15.78,156.74a3.52,3.52,0,1,1-3.52-3.52A3.52,3.52,0,0,1,15.78,156.74Z" transform="translate(48.79 14.56)"/><path class="cls-5" d="M278.34,96.12a.64.64,0,0,1-1.28,0,.64.64,0,0,1,.64-.64A.64.64,0,0,1,278.34,96.12Z" transform="translate(48.79 14.56)"/><path class="cls-5" d="M253.67,215.05a.63.63,0,0,1-1.25,0,.63.63,0,0,1,1.25,0Z" transform="translate(48.79 14.56)"/><path class="cls-5" d="M29.14,83.3a.84.84,0,0,1-.84.83.83.83,0,0,1,0-1.66A.84.84,0,0,1,29.14,83.3Z" transform="translate(48.79 14.56)"/><circle class="cls-5" cx="141.43" cy="27.73" r="0.63"/><path class="cls-5" d="M147.19,96.89a2.73,2.73,0,1,1-2.73-2.73A2.74,2.74,0,0,1,147.19,96.89Z" transform="translate(48.79 14.56)"/><circle class="cls-5" cx="211.44" cy="144.47" r="0.57"/><path class="cls-5" d="M142.05,260.71a1.11,1.11,0,1,1-1.11-1.1A1.11,1.11,0,0,1,142.05,260.71Z" transform="translate(48.79 14.56)"/><path class="cls-5" d="M293.74,210.6a1,1,0,1,1-1-1A1,1,0,0,1,293.74,210.6Z" transform="translate(48.79 14.56)"/><path class="cls-5" d="M80.6,127a4,4,0,1,1-4-4A4,4,0,0,1,80.6,127Z" transform="translate(48.79 14.56)"/><circle class="cls-5" cx="295.91" cy="25.92" r="3.11"/><path class="cls-5" d="M50.45,32.46a1.28,1.28,0,1,1-1.28-1.27A1.28,1.28,0,0,1,50.45,32.46Z" transform="translate(48.79 14.56)"/><path class="cls-5" d="M215.73,40.89a.56.56,0,1,1-.55-.55A.56.56,0,0,1,215.73,40.89Z" transform="translate(48.79 14.56)"/><circle class="cls-5" cx="177.98" cy="45.87" r="0.58"/><path class="cls-5" d="M107.16,270.48a.54.54,0,1,1-.53-.53A.54.54,0,0,1,107.16,270.48Z" transform="translate(48.79 14.56)"/><circle class="cls-5" cx="61.88" cy="128.11" r="0.86"/><path class="cls-5" d="M184.9,98.61a.89.89,0,1,1-.88-.88A.87.87,0,0,1,184.9,98.61Z" transform="translate(48.79 14.56)"/><path class="cls-5" d="M126.5,69.53a3.59,3.59,0,1,1-3.59-3.59A3.59,3.59,0,0,1,126.5,69.53Z" transform="translate(48.79 14.56)"/><circle class="cls-5" cx="20.16" cy="15.18" r="3.4" transform="translate(50.76 47.22) rotate(-80.84)"/><circle class="cls-5" cx="256.99" cy="36.1" r="4.21" transform="translate(173.39 273.86) rotate(-67.32)"/><circle class="cls-6" cx="145.91" cy="170.65" r="106.58"/><circle class="cls-7" cx="155.57" cy="153.1" r="79.91"/><polygon class="cls-1" points="199.85 87.25 131.16 87.25 96.82 146.73 131.16 206.22 199.85 206.22 234.19 146.73 199.85 87.25"/><polygon class="cls-8" points="199.12 88.5 131.89 88.5 98.27 146.73 131.89 204.96 199.12 204.96 232.74 146.73 199.12 88.5"/><polygon class="cls-9" points="195.5 94.78 135.51 94.78 105.52 146.73 135.51 198.68 195.5 198.68 225.49 146.73 195.5 94.78"/><polygon class="cls-10" points="193.08 98.97 137.93 98.97 110.35 146.73 137.93 194.5 193.08 194.5 220.66 146.73 193.08 98.97"/><circle class="cls-11" cx="186.23" cy="216.31" r="37.89" transform="translate(-6.07 383.67) rotate(-81.64)"/><polygon class="cls-1" points="256.02 199.64 223.45 199.64 207.16 227.85 223.45 256.06 256.02 256.06 272.3 227.85 256.02 199.64"/><polygon class="cls-12" points="255.67 200.24 223.79 200.24 207.85 227.85 223.79 255.46 255.67 255.46 271.61 227.85 255.67 200.24"/><polygon class="cls-13" points="253.95 203.22 225.51 203.22 211.29 227.85 225.51 252.48 253.95 252.48 268.18 227.85 253.95 203.22"/><polygon class="cls-14" points="252.26 206.15 227.2 206.15 214.67 227.85 227.2 249.55 252.26 249.55 264.79 227.85 252.26 206.15"/><circle class="cls-15" cx="198.01" cy="91.08" r="43.67" transform="translate(42.38 181.25) rotate(-45)"/><polygon class="cls-1" points="271 69.65 233.47 69.65 214.7 102.16 233.47 134.67 271 134.67 289.77 102.16 271 69.65"/><polygon class="cls-16" points="270.61 70.34 233.86 70.34 215.49 102.16 233.86 133.98 270.61 133.98 288.98 102.16 270.61 70.34"/><polygon class="cls-17" points="268.62 73.77 235.84 73.77 219.45 102.16 235.84 130.55 268.62 130.55 285.01 102.16 268.62 73.77"/><polygon class="cls-18" points="266.68 77.15 237.79 77.15 223.35 102.16 237.79 127.17 266.68 127.17 281.12 102.16 266.68 77.15"/><circle class="cls-19" cx="159.01" cy="228.56" r="21.26"/><polygon class="cls-1" points="170.78 211.04 152.51 211.04 143.38 226.86 152.51 242.69 170.78 242.69 179.92 226.86 170.78 211.04"/><polygon class="cls-20" points="170.59 211.38 152.71 211.38 143.76 226.86 152.71 242.35 170.59 242.35 179.53 226.86 170.59 211.38"/><polygon class="cls-21" points="169.63 213.04 153.67 213.04 145.69 226.86 153.67 240.68 169.63 240.68 177.6 226.86 169.63 213.04"/><polygon class="cls-22" points="168.68 214.69 154.62 214.69 147.59 226.86 154.62 239.04 168.68 239.04 175.71 226.86 168.68 214.69"/><circle class="cls-23" cx="204.29" cy="61.28" r="21.26"/><polygon class="cls-1" points="216.07 43.76 197.8 43.76 188.66 59.58 197.8 75.41 216.07 75.41 225.21 59.58 216.07 43.76"/><polygon class="cls-24" points="215.88 44.09 197.99 44.09 189.05 59.58 197.99 75.07 215.88 75.07 224.82 59.58 215.88 44.09"/><polygon class="cls-25" points="214.91 45.76 198.96 45.76 190.98 59.58 198.96 73.4 214.91 73.4 222.89 59.58 214.91 45.76"/><polygon class="cls-26" points="213.96 47.41 199.9 47.41 192.87 59.58 199.9 71.76 213.96 71.76 220.99 59.58 213.96 47.41"/><circle class="cls-27" cx="33.04" cy="244.96" r="34.2" transform="translate(-164.08 234.53) rotate(-76.52)"/><polygon class="cls-1" points="100.78 231.34 71.39 231.34 56.69 256.79 71.39 282.25 100.78 282.25 115.48 256.79 100.78 231.34"/><polygon class="cls-28" points="100.47 231.88 71.7 231.88 57.31 256.79 71.7 281.71 100.47 281.71 114.86 256.79 100.47 231.88"/><polygon class="cls-29" points="98.92 234.56 73.25 234.56 60.42 256.79 73.25 279.02 98.92 279.02 111.75 256.79 98.92 234.56"/><polygon class="cls-30" points="97.39 237.21 74.78 237.21 63.47 256.79 74.78 276.38 97.39 276.38 108.7 256.79 97.39 237.21"/><circle class="cls-31" cx="105.4" cy="95.01" r="45.98"/><polygon class="cls-1" points="130.88 57.12 91.36 57.12 71.6 91.35 91.36 125.57 130.88 125.57 150.64 91.35 130.88 57.12"/><polygon class="cls-32" points="130.46 57.84 91.77 57.84 72.43 91.35 91.77 124.85 130.46 124.85 149.81 91.35 130.46 57.84"/><polygon class="cls-33" points="128.38 61.46 93.86 61.46 76.6 91.35 93.86 121.24 128.38 121.24 145.63 91.35 128.38 61.46"/><polygon class="cls-34" points="126.32 65.01 95.91 65.01 80.71 91.35 95.91 117.69 126.32 117.69 141.53 91.35 126.32 65.01"/><g class="cls-35"><circle class="cls-36" cx="110.5" cy="125.13" r="113.3" transform="translate(-7.32 129.34) rotate(-45)"/><polygon class="cls-1" points="222.07 46.32 124.68 46.32 75.99 130.66 124.68 215 222.07 215 270.77 130.66 222.07 46.32"/><polygon class="cls-37" points="221.04 48.1 125.71 48.1 78.04 130.66 125.71 213.22 221.04 213.22 268.71 130.66 221.04 48.1"/><polygon class="cls-9" points="215.91 57.01 130.85 57.01 88.32 130.66 130.85 204.32 215.91 204.32 258.43 130.66 215.91 57.01"/><polygon class="cls-38" points="212.48 62.94 134.28 62.94 95.18 130.66 134.28 198.39 212.48 198.39 251.58 130.66 212.48 62.94"/><circle class="cls-39" cx="223.15" cy="235.4" r="53.73" transform="translate(-52.3 241.29) rotate(-45)"/><polygon class="cls-1" points="301.71 205.69 255.53 205.69 232.44 245.68 255.53 285.68 301.71 285.68 324.8 245.68 301.71 205.69"/><polygon class="cls-40" points="301.23 206.53 256.02 206.53 233.42 245.68 256.02 284.83 301.23 284.83 323.83 245.68 301.23 206.53"/><polygon class="cls-13" points="298.79 210.75 258.46 210.75 238.29 245.68 258.46 280.61 298.79 280.61 318.95 245.68 298.79 210.75"/><polygon class="cls-41" points="296.39 214.91 260.85 214.91 243.09 245.68 260.85 276.46 296.39 276.46 314.16 245.68 296.39 214.91"/><circle class="cls-42" cx="278.45" cy="165.94" r="61.92"/><polygon class="cls-1" points="312.75 114.92 259.53 114.92 232.92 161.01 259.53 207.1 312.75 207.1 339.36 161.01 312.75 114.92"/><polygon class="cls-43" points="312.19 115.89 260.1 115.89 234.05 161.01 260.1 206.13 312.19 206.13 338.24 161.01 312.19 115.89"/><polygon class="cls-17" points="309.38 120.76 262.9 120.76 239.66 161.01 262.9 201.26 309.38 201.26 332.62 161.01 309.38 120.76"/><polygon class="cls-44" points="306.62 125.54 265.67 125.54 245.19 161.01 265.67 196.48 306.62 196.48 327.1 161.01 306.62 125.54"/><circle class="cls-45" cx="115.37" cy="232.13" r="30.14" transform="translate(-67.93 131.24) rotate(-37.13)"/><polygon class="cls-1" points="180.86 221.85 154.95 221.85 142 244.28 154.95 266.72 180.86 266.72 193.81 244.28 180.86 221.85"/><polygon class="cls-46" points="180.59 222.32 155.23 222.32 142.55 244.28 155.23 266.25 180.59 266.25 193.27 244.28 180.59 222.32"/><polygon class="cls-21" points="179.22 224.69 156.59 224.69 145.28 244.28 156.59 263.88 179.22 263.88 190.53 244.28 179.22 224.69"/><polygon class="cls-47" points="177.87 227.02 157.94 227.02 147.97 244.28 157.94 261.55 177.87 261.55 187.84 244.28 177.87 227.02"/><circle class="cls-48" cx="133.66" cy="94.44" r="30.14" transform="translate(21.16 136.72) rotate(-45)"/><polygon class="cls-1" points="199.15 84.16 173.24 84.16 160.29 106.59 173.24 129.03 199.15 129.03 212.1 106.59 199.15 84.16"/><polygon class="cls-49" points="198.88 84.63 173.52 84.63 160.84 106.59 173.52 128.55 198.88 128.55 211.56 106.59 198.88 84.63"/><polygon class="cls-25" points="197.51 87 174.88 87 163.57 106.59 174.88 126.19 197.51 126.19 208.82 106.59 197.51 87"/><polygon class="cls-50" points="196.16 89.33 176.23 89.33 166.26 106.59 176.23 123.86 196.16 123.86 206.13 106.59 196.16 89.33"/><circle class="cls-51" cx="22.95" cy="206.29" r="48.49" transform="translate(-90.36 91.21) rotate(-45)"/><polygon class="cls-1" points="98.61 180.9 56.94 180.9 36.1 216.99 56.94 253.08 98.61 253.08 119.45 216.99 98.61 180.9"/><polygon class="cls-52" points="98.17 181.66 57.38 181.66 36.98 216.99 57.38 252.32 98.17 252.32 118.57 216.99 98.17 181.66"/><polygon class="cls-29" points="95.97 185.47 59.58 185.47 41.38 216.99 59.58 248.51 95.97 248.51 114.17 216.99 95.97 185.47"/><polygon class="cls-53" points="93.81 189.22 61.74 189.22 45.7 216.99 61.74 244.76 93.81 244.76 109.84 216.99 93.81 189.22"/><circle class="cls-54" cx="65.19" cy="148.32" r="65.19"/><polygon class="cls-1" points="101.32 94.6 45.28 94.6 17.26 143.13 45.28 191.66 101.32 191.66 129.34 143.13 101.32 94.6"/><polygon class="cls-55" points="100.73 95.62 45.87 95.62 18.45 143.13 45.87 190.63 100.73 190.63 128.15 143.13 100.73 95.62"/><polygon class="cls-33" points="97.77 100.75 48.83 100.75 24.36 143.13 48.83 185.51 97.77 185.51 122.24 143.13 97.77 100.75"/><polygon class="cls-56" points="94.86 105.78 51.74 105.78 30.18 143.13 51.74 180.47 94.86 180.47 116.42 143.13 94.86 105.78"/></g><polygon class="cls-57" points="249.33 161.93 247.34 161.93 246.34 163.65 247.34 165.38 249.33 165.38 250.32 163.65 249.33 161.93"/><polygon class="cls-57" points="254.22 161.93 252.23 161.93 251.23 163.65 252.23 165.38 254.22 165.38 255.21 163.65 254.22 161.93"/><polygon class="cls-57" points="259.11 161.93 257.12 161.93 256.12 163.65 257.12 165.38 259.11 165.38 260.1 163.65 259.11 161.93"/><polygon class="cls-57" points="264 161.93 262 161.93 261.01 163.65 262 165.38 264 165.38 264.99 163.65 264 161.93"/><g class="cls-58"><polygon class="cls-59" points="97.69 174.31 85.29 174.31 79.09 185.06 85.29 195.8 97.69 195.8 103.89 185.06 97.69 174.31"/><polygon class="cls-59" points="128.15 174.31 115.75 174.31 109.55 185.06 115.75 195.8 128.15 195.8 134.35 185.06 128.15 174.31"/><polygon class="cls-59" points="158.61 174.31 146.21 174.31 140 185.06 146.21 195.8 158.61 195.8 164.81 185.06 158.61 174.31"/><polygon class="cls-59" points="189.07 174.31 176.66 174.31 170.46 185.06 176.66 195.8 189.07 195.8 195.27 185.06 189.07 174.31"/></g></g></g></g></svg>