<svg width="1052" height="83" viewBox="0 0 1052 83" fill="none" xmlns="http://www.w3.org/2000/svg">
<g clip-path="url(#clip0_8_223)">
<rect width="1052" height="83" fill="white"/>
<path d="M919 -189H0V106H919V-189Z" fill="white"/>
<mask id="mask0_8_223" style="mask-type:luminance" maskUnits="userSpaceOnUse" x="0" y="-189" width="919" height="295">
<path d="M919 -189H0V106H919V-189Z" fill="white"/>
</mask>
<g mask="url(#mask0_8_223)">
<path d="M327.113 114.584H146.07L145.968 114.482L119.028 85.0022H-59.854V84.6232H119.402L119.504 84.7154L146.444 114.205H326.739L391.954 42.8521H517.38V43.231H392.328L327.113 114.584Z" fill="#A6A6A6"/>
<path d="M517.363 43.7631C517.679 43.7631 517.982 43.6876 518.205 43.5531C518.428 43.4186 518.554 43.2363 518.554 43.0461C518.556 42.9511 518.527 42.8567 518.468 42.7686C518.409 42.6804 518.322 42.6001 518.211 42.5325C518.1 42.4648 517.968 42.4111 517.822 42.3744C517.677 42.3377 517.52 42.3188 517.363 42.3188C517.042 42.3188 516.735 42.3955 516.508 42.5318C516.282 42.6682 516.154 42.8532 516.154 43.0461C516.154 43.1411 516.186 43.2352 516.247 43.3229C516.308 43.4105 516.397 43.49 516.509 43.5568C516.622 43.6235 516.755 43.6761 516.901 43.7115C517.048 43.7469 517.205 43.7645 517.363 43.7631Z" fill="#A6A6A6"/>
<path d="M14.1588 84.9712L13.5972 84.7868L39.9929 55.9116H151.022L176.005 83.2401H316.306L329.495 68.7974L330.057 68.992L316.68 83.6191H175.613L150.647 56.2906H40.3673L14.1588 84.9712Z" fill="#A6A6A6"/>
<path d="M330.579 69.4497C331.054 69.1758 331.071 68.7219 330.615 68.4359C330.16 68.15 329.406 68.1402 328.931 68.4142C328.456 68.6881 328.44 69.142 328.895 69.4279C329.35 69.7139 330.104 69.7236 330.579 69.4497Z" fill="#A6A6A6"/>
<path d="M324.272 97.8055H131.23V97.4265H323.897L356.13 62.1494L356.692 62.3338L324.272 97.8055Z" fill="#A6A6A6"/>
<path d="M357.39 62.6205C357.477 62.536 357.534 62.4416 357.558 62.3432C357.582 62.2448 357.572 62.1445 357.529 62.0485C357.486 61.9525 357.41 61.8628 357.307 61.785C357.204 61.7072 357.076 61.643 356.93 61.5962C356.788 61.5458 356.63 61.5132 356.467 61.5003C356.303 61.4875 356.137 61.4947 355.978 61.5215C355.819 61.5482 355.671 61.5941 355.542 61.6562C355.413 61.7183 355.306 61.7955 355.228 61.883C355.152 61.9658 355.104 62.0567 355.087 62.1506C355.069 62.2446 355.082 62.3396 355.126 62.4305C355.169 62.5213 355.242 62.6061 355.34 62.68C355.438 62.7539 355.559 62.8155 355.696 62.8612C355.834 62.907 355.985 62.936 356.141 62.9466C356.297 62.9572 356.455 62.9492 356.606 62.923C356.757 62.8968 356.898 62.8531 357.021 62.7941C357.143 62.7352 357.246 62.6623 357.322 62.5796L357.39 62.6205Z" fill="#A6A6A6"/>
<path d="M326.16 49.7253H203.439L188.582 33.4594H-62.373V33.0804H188.956L203.814 49.3361H325.785L366.102 5.22949H563.857V5.6085H366.477L326.16 49.7253Z" fill="#A6A6A6"/>
<path d="M563.789 6.14107C564.447 6.14107 564.98 5.82004 564.98 5.42404C564.98 5.02805 564.447 4.70703 563.789 4.70703C563.131 4.70703 562.598 5.02805 562.598 5.42404C562.598 5.82004 563.131 6.14107 563.789 6.14107Z" fill="#A6A6A6"/>
<path d="M451.297 28.2349H345.306V28.6139H451.297V28.2349Z" fill="#A6A6A6"/>
<path d="M451.229 29.1769C451.387 29.1783 451.543 29.1607 451.69 29.1253C451.836 29.0899 451.97 29.0373 452.082 28.9706C452.194 28.9038 452.284 28.8243 452.345 28.7367C452.406 28.649 452.437 28.5549 452.437 28.4599C452.457 28.3578 452.441 28.2544 452.39 28.1563C452.339 28.0582 452.254 27.9678 452.141 27.8909C452.027 27.8141 451.888 27.7525 451.732 27.7104C451.577 27.6683 451.408 27.6465 451.237 27.6465C451.066 27.6465 450.898 27.6683 450.742 27.7104C450.586 27.7525 450.447 27.8141 450.334 27.8909C450.22 27.9678 450.135 28.0582 450.084 28.1563C450.033 28.2544 450.017 28.3578 450.037 28.4599C450.037 28.5541 450.068 28.6473 450.128 28.7343C450.188 28.8213 450.276 28.9003 450.386 28.9669C450.497 29.0335 450.628 29.0863 450.773 29.1223C450.917 29.1584 451.072 29.1769 451.229 29.1769Z" fill="#A6A6A6"/>
<path d="M51.6343 7.9848H39.415V7.60581H51.2599L71.6141 -14.6626H192.565V-14.2836H71.9885L51.6343 7.9848Z" fill="#A6A6A6"/>
<path d="M39.4833 8.51752C40.1412 8.51752 40.6746 8.1965 40.6746 7.80051C40.6746 7.40451 40.1412 7.0835 39.4833 7.0835C38.8253 7.0835 38.292 7.40451 38.292 7.80051C38.292 8.1965 38.8253 8.51752 39.4833 8.51752Z" fill="#A6A6A6"/>
<path d="M323.641 29.9962H260.672L260.57 29.904L232.438 -0.886601L233 -1.08122L261.047 29.6172H323.266L357.729 -8.09772H464.265L472.315 -16.9067L472.876 -16.7224L464.639 -7.70848H358.103L323.641 29.9962Z" fill="#A6A6A6"/>
<path d="M-40.4701 33.7047L-41.0317 33.5204L-29.7144 21.1365H148.742L161.165 7.5542H182.251V7.94344H161.54L149.116 21.5257H-29.34L-40.4701 33.7047Z" fill="#A6A6A6"/>
<path d="M182.201 8.476C182.439 8.476 182.673 8.43336 182.872 8.35345C183.071 8.27353 183.225 8.15994 183.317 8.02705C183.408 7.89416 183.432 7.74794 183.386 7.60686C183.339 7.46579 183.224 7.33621 183.055 7.2345C182.886 7.13279 182.671 7.06352 182.436 7.03546C182.202 7.0074 181.959 7.0218 181.738 7.07685C181.517 7.13189 181.329 7.22511 181.196 7.34471C181.063 7.4643 180.992 7.60491 180.992 7.74875C180.992 7.94163 181.119 8.12661 181.346 8.263C181.573 8.39938 181.88 8.476 182.201 8.476Z" fill="#A6A6A6"/>
<path d="M320.476 14.6934H286.678L272.433 -0.876081L272.995 -1.06046L287.052 14.3041H320.102L355.552 -24.4863H433.905V-24.0971H355.926L320.476 14.6934Z" fill="#A6A6A6"/>
<path d="M-42.682 84.8988L-43.2437 84.7144L-7.89619 46.0469H74.1331V46.4259H-7.52179L-42.682 84.8988Z" fill="#A6A6A6"/>
<path d="M74.0814 46.9589C74.7394 46.9589 75.2727 46.6379 75.2727 46.2419C75.2727 45.8459 74.7394 45.5249 74.0814 45.5249C73.4235 45.5249 72.8901 45.8459 72.8901 46.2419C72.8901 46.6379 73.4235 46.9589 74.0814 46.9589Z" fill="#A6A6A6"/>
<path d="M307.287 66.5844H196.088L196.003 66.482L165.88 33.5301L166.441 33.3457L196.462 66.1952H307.287V66.5844Z" fill="#A6A6A6"/>
<path d="M307.237 67.0766C307.476 67.0766 307.709 67.0339 307.908 66.954C308.107 66.8741 308.262 66.7605 308.353 66.6276C308.444 66.4947 308.468 66.3485 308.422 66.2074C308.375 66.0664 308.26 65.9368 308.091 65.8351C307.922 65.7334 307.707 65.6641 307.472 65.636C307.238 65.608 306.995 65.6224 306.774 65.6774C306.553 65.7325 306.365 65.8257 306.232 65.9453C306.099 66.0649 306.028 66.2055 306.028 66.3493C306.028 66.4448 306.06 66.5394 306.12 66.6276C306.181 66.7159 306.27 66.7961 306.382 66.8636C306.494 66.9311 306.628 66.9847 306.774 67.0212C306.921 67.0578 307.078 67.0766 307.237 67.0766Z" fill="#A6A6A6"/>
<path d="M229.12 36.8288L211.149 17.1621H249.628V17.5411H212.238L229.682 36.6342L229.12 36.8288Z" fill="#A6A6A6"/>
<path d="M228.321 37.0536C228.444 37.171 228.621 37.2643 228.83 37.3224C229.039 37.3804 229.272 37.4006 229.5 37.3806C229.728 37.3606 229.942 37.3012 230.115 37.2096C230.288 37.1179 230.413 36.9981 230.476 36.8644C230.538 36.7308 230.534 36.5893 230.465 36.4569C230.396 36.3245 230.265 36.2069 230.087 36.1185C229.91 36.0301 229.693 35.9746 229.464 35.9588C229.235 35.943 229.004 35.9675 228.797 36.0293C228.646 36.0728 228.512 36.1351 228.405 36.2122C228.297 36.2893 228.218 36.3794 228.173 36.4764C228.128 36.5734 228.118 36.6751 228.143 36.7746C228.169 36.8742 228.229 36.9693 228.321 37.0536Z" fill="#A6A6A6"/>
<path d="M75.9206 54.2515C75.9172 55.1571 75.4678 56.0417 74.6291 56.7935C73.7904 57.5453 72.6001 58.1306 71.2088 58.4753C69.8174 58.8199 68.2875 58.9086 66.8125 58.7299C65.3375 58.5513 63.9837 58.1133 62.9222 57.4716C61.8606 56.8298 61.1392 56.013 60.8489 55.1244C60.5587 54.2359 60.7128 53.3155 61.2916 52.4796C61.8705 51.6438 62.8482 50.93 64.1011 50.4286C65.354 49.9271 66.8258 49.6606 68.3303 49.6626C69.3293 49.664 70.3181 49.7837 71.2402 50.0151C72.1623 50.2464 72.9997 50.5848 73.7045 51.0109C74.4093 51.437 74.9678 51.9425 75.348 52.4985C75.7283 53.0546 75.9228 53.6502 75.9206 54.2515Z" fill="#CFCFCF"/>
<path d="M478.578 62.9175C478.548 63.0525 478.437 63.1764 478.267 63.266C478.096 63.3557 477.877 63.405 477.651 63.405C477.424 63.405 477.206 63.3557 477.035 63.266C476.865 63.1764 476.754 63.0525 476.723 62.9175C476.705 62.8378 476.716 62.7568 476.754 62.6798C476.793 62.6028 476.858 62.5316 476.946 62.4711C477.034 62.4105 477.142 62.362 477.264 62.3288C477.385 62.2955 477.517 62.2783 477.651 62.2783C477.784 62.2783 477.916 62.2955 478.038 62.3288C478.16 62.362 478.268 62.4105 478.356 62.4711C478.444 62.5316 478.509 62.6028 478.547 62.6798C478.586 62.7568 478.596 62.8378 478.578 62.9175Z" fill="#CFCFCF"/>
<path d="M350.071 76.5099C350.075 77.4017 349.639 78.2741 348.818 79.0166C347.997 79.7591 346.829 80.3384 345.461 80.6811C344.093 81.0238 342.587 81.1145 341.133 80.9417C339.679 80.769 338.343 80.3405 337.294 79.7106C336.246 79.0808 335.531 78.2777 335.24 77.4032C334.95 76.5286 335.097 75.6219 335.664 74.7978C336.23 73.9736 337.19 73.2692 338.421 72.7735C339.653 72.2778 341.102 72.0132 342.583 72.0132C343.566 72.0118 344.539 72.1272 345.448 72.3525C346.356 72.5779 347.182 72.9089 347.877 73.3266C348.573 73.7443 349.125 74.2405 349.501 74.7867C349.878 75.3329 350.071 75.9185 350.071 76.5099Z" fill="#CFCFCF"/>
<path d="M218.722 7.11306C218.722 7.24879 218.656 7.38147 218.53 7.49433C218.405 7.60719 218.227 7.69515 218.018 7.74709C217.81 7.79903 217.581 7.81263 217.36 7.78615C217.139 7.75967 216.935 7.6943 216.776 7.59833C216.616 7.50235 216.508 7.38007 216.464 7.24694C216.42 7.11381 216.442 6.97582 216.529 6.85042C216.615 6.72501 216.761 6.61783 216.949 6.54242C217.136 6.46701 217.357 6.42676 217.582 6.42676C217.732 6.42676 217.88 6.44452 218.018 6.47901C218.157 6.5135 218.283 6.56404 218.388 6.62777C218.494 6.6915 218.578 6.76715 218.636 6.85042C218.693 6.93368 218.722 7.02293 218.722 7.11306Z" fill="#CFCFCF"/>
<path d="M170.185 39.9528C170.189 40.0991 170.12 40.2427 169.987 40.3653C169.855 40.488 169.664 40.5841 169.441 40.6415C169.217 40.6989 168.97 40.7149 168.732 40.6876C168.493 40.6604 168.273 40.5909 168.1 40.4882C167.927 40.3855 167.808 40.2541 167.76 40.1108C167.711 39.9674 167.734 39.8186 167.826 39.6833C167.919 39.5479 168.076 39.4321 168.278 39.3506C168.479 39.2691 168.717 39.2256 168.96 39.2256C169.282 39.2256 169.591 39.3019 169.821 39.438C170.05 39.5741 170.181 39.759 170.185 39.9528Z" fill="#CFCFCF"/>
<path d="M31.3324 26.9952C31.3357 27.1703 31.2523 27.342 31.0928 27.4884C30.9333 27.6349 30.7049 27.7494 30.4368 27.8173C30.1686 27.8852 29.873 27.9035 29.5875 27.8699C29.302 27.8362 29.0397 27.7521 28.834 27.6283C28.6282 27.5045 28.4885 27.3466 28.4326 27.1748C28.3766 27.0029 28.4071 26.825 28.5199 26.6636C28.6328 26.5022 28.823 26.3648 29.0663 26.2688C29.3096 26.1727 29.5949 26.1225 29.8858 26.1246C30.2694 26.1246 30.6374 26.2163 30.9087 26.3796C31.18 26.5429 31.3324 26.7643 31.3324 26.9952Z" fill="#CFCFCF"/>
<path d="M288.26 5.98678C288.26 6.10269 288.203 6.21597 288.095 6.31219C287.988 6.40842 287.835 6.48323 287.657 6.5271C287.479 6.57097 287.283 6.58192 287.094 6.55855C286.906 6.53518 286.733 6.47856 286.598 6.39587C286.463 6.31319 286.372 6.20821 286.336 6.09428C286.301 5.98036 286.323 5.86266 286.399 5.75617C286.475 5.64968 286.602 5.55922 286.763 5.49631C286.925 5.4334 287.114 5.40089 287.307 5.40292C287.434 5.40291 287.559 5.41808 287.676 5.44754C287.792 5.47701 287.898 5.52018 287.987 5.57454C288.076 5.62889 288.145 5.69334 288.192 5.76412C288.239 5.8349 288.262 5.9106 288.26 5.98678Z" fill="#CFCFCF"/>
<path d="M357.814 10.7394C357.814 11.3472 357.515 11.9413 356.954 12.4466C356.393 12.952 355.595 13.3458 354.662 13.5784C353.729 13.811 352.703 13.8719 351.713 13.7533C350.722 13.6347 349.812 13.3421 349.098 12.9123C348.384 12.4825 347.898 11.935 347.701 11.3389C347.504 10.7428 347.605 10.125 347.992 9.56346C348.378 9.00196 349.032 8.52203 349.872 8.18438C350.712 7.84672 351.699 7.6665 352.709 7.6665C354.063 7.6665 355.361 7.99025 356.319 8.56654C357.276 9.14282 357.814 9.92443 357.814 10.7394Z" fill="#CFCFCF"/>
<path d="M156.876 1.25429C156.876 1.45687 156.777 1.6549 156.59 1.82335C156.403 1.99179 156.137 2.12309 155.826 2.20062C155.515 2.27814 155.173 2.29842 154.842 2.2589C154.512 2.21937 154.209 2.12183 153.971 1.97858C153.733 1.83533 153.571 1.65281 153.505 1.45411C153.44 1.25542 153.473 1.04946 153.602 0.862294C153.731 0.675127 153.949 0.515147 154.229 0.402594C154.509 0.290042 154.838 0.22998 155.175 0.22998C155.626 0.22998 156.059 0.337897 156.378 0.529992C156.697 0.722086 156.876 0.982623 156.876 1.25429Z" fill="#CFCFCF"/>
<path d="M109.106 27.518C109.109 27.6009 109.084 27.6832 109.032 27.7602C108.981 27.8372 108.905 27.9073 108.808 27.9664C108.712 28.0255 108.597 28.0725 108.47 28.1045C108.343 28.1366 108.206 28.1531 108.068 28.153C107.788 28.153 107.52 28.0861 107.322 27.967C107.124 27.8479 107.013 27.6864 107.013 27.518C107.013 27.4351 107.041 27.353 107.094 27.2765C107.147 27.2 107.225 27.1306 107.323 27.0725C107.421 27.0143 107.538 26.9685 107.666 26.9377C107.794 26.907 107.931 26.8918 108.068 26.8932C108.344 26.8932 108.608 26.959 108.802 27.0762C108.997 27.1933 109.106 27.3523 109.106 27.518Z" fill="#CFCFCF"/>
<path d="M24.8473 82.0309C27.5354 82.0309 29.7146 80.7193 29.7146 79.1014C29.7146 77.4834 27.5354 76.1719 24.8473 76.1719C22.1591 76.1719 19.98 77.4834 19.98 79.1014C19.98 80.7193 22.1591 82.0309 24.8473 82.0309Z" fill="#CFCFCF"/>
<path d="M133.22 76.6739C133.224 77.2071 132.964 77.729 132.474 78.1734C131.984 78.6177 131.287 78.9646 130.469 79.1701C129.652 79.3755 128.751 79.4304 127.882 79.3276C127.012 79.2248 126.213 78.969 125.586 78.5927C124.958 78.2163 124.53 77.7364 124.356 77.2135C124.182 76.6907 124.269 76.1485 124.608 75.6556C124.946 75.1628 125.52 74.7414 126.256 74.445C126.992 74.1485 127.858 73.9902 128.744 73.9902C129.929 73.9902 131.064 74.2727 131.903 74.7757C132.742 75.2787 133.216 75.9612 133.22 76.6739Z" fill="#CFCFCF"/>
<path d="M329.734 42.0833C329.738 42.572 329.5 43.0503 329.051 43.4576C328.603 43.8649 327.963 44.1829 327.214 44.3713C326.465 44.5597 325.64 44.61 324.843 44.516C324.046 44.4219 323.314 44.1876 322.739 43.8428C322.163 43.4979 321.771 43.0581 321.611 42.579C321.452 42.0998 321.532 41.603 321.842 41.1513C322.152 40.6996 322.677 40.3135 323.352 40.0417C324.027 39.77 324.821 39.625 325.633 39.625C326.718 39.625 327.758 39.8837 328.527 40.3444C329.296 40.8051 329.73 41.4304 329.734 42.0833Z" fill="#CFCFCF"/>
<path d="M407.22 83.076C411.318 83.076 414.64 81.0765 414.64 78.61C414.64 76.1435 411.318 74.144 407.22 74.144C403.122 74.144 399.8 76.1435 399.8 78.61C399.8 81.0765 403.122 83.076 407.22 83.076Z" fill="#CFCFCF"/>
<path d="M235.212 48.6602C237.534 48.6602 239.416 47.5274 239.416 46.1301C239.416 44.7328 237.534 43.6001 235.212 43.6001C232.891 43.6001 231.009 44.7328 231.009 46.1301C231.009 47.5274 232.891 48.6602 235.212 48.6602Z" fill="#CFCFCF"/>
<path d="M431.71 31.2766C431.678 31.4324 431.551 31.5757 431.356 31.6796C431.16 31.7834 430.908 31.8407 430.647 31.8407C430.386 31.8407 430.134 31.7834 429.938 31.6796C429.742 31.5757 429.616 31.4324 429.583 31.2766C429.616 31.1207 429.742 30.9774 429.938 30.8736C430.134 30.7697 430.386 30.7124 430.647 30.7124C430.908 30.7124 431.16 30.7697 431.356 30.8736C431.551 30.9774 431.678 31.1207 431.71 31.2766Z" fill="#CFCFCF"/>
<path d="M241.749 78.0467C241.752 78.272 241.644 78.4928 241.439 78.6811C241.233 78.8694 240.939 79.0168 240.594 79.1044C240.25 79.192 239.869 79.216 239.502 79.1733C239.134 79.1306 238.796 79.0231 238.53 78.8645C238.264 78.7059 238.083 78.5033 238.008 78.2825C237.934 78.0617 237.97 77.8326 238.113 77.6242C238.255 77.4159 238.497 77.2377 238.808 77.1123C239.119 76.9869 239.485 76.9199 239.86 76.9199C240.358 76.9199 240.836 77.0383 241.189 77.2493C241.543 77.4603 241.744 77.7469 241.749 78.0467Z" fill="#CFCFCF"/>
<path d="M499.903 26.7186C499.903 26.9212 499.803 27.1193 499.616 27.2877C499.429 27.4561 499.163 27.5874 498.852 27.665C498.541 27.7425 498.199 27.7628 497.869 27.7233C497.539 27.6837 497.235 27.5862 496.997 27.4429C496.759 27.2997 496.597 27.1172 496.532 26.9185C496.466 26.7198 496.5 26.5138 496.629 26.3266C496.757 26.1395 496.975 25.9795 497.255 25.8669C497.535 25.7544 497.864 25.6943 498.201 25.6943C498.652 25.6943 499.085 25.8023 499.404 25.9943C499.723 26.1864 499.903 26.447 499.903 26.7186Z" fill="#CFCFCF"/>
<path style="mix-blend-mode:multiply" d="M165.284 80.0534C265.459 80.0534 346.667 31.1761 346.667 -29.1171C346.667 -89.4103 265.459 -138.288 165.284 -138.288C65.1085 -138.288 -16.0996 -89.4103 -16.0996 -29.1171C-16.0996 31.1761 65.1085 80.0534 165.284 80.0534Z" fill="url(#paint0_radial_8_223)"/>
<path style="mix-blend-mode:multiply" d="M181.724 34.7592C256.832 34.7592 317.719 -1.88731 317.719 -47.0931C317.719 -92.2988 256.832 -128.945 181.724 -128.945C106.616 -128.945 45.729 -92.2988 45.729 -47.0931C45.729 -1.88731 106.616 34.7592 181.724 34.7592Z" fill="url(#paint1_radial_8_223)"/>
<path d="M257.083 -114.543H140.182L81.7407 -53.6178L140.182 7.31817H257.083L315.524 -53.6178L257.083 -114.543Z" fill="white"/>
<path d="M255.839 -113.263H141.424L84.2075 -53.6174L141.424 6.02794H255.839L313.056 -53.6174L255.839 -113.263Z" fill="url(#paint2_linear_8_223)"/>
<path style="mix-blend-mode:multiply" d="M380.731 38.2089C385.908 17.0019 361.543 -2.71604 326.308 -5.83248C291.073 -8.94892 258.313 5.71631 253.135 26.9232C247.957 48.1302 272.323 67.8482 307.557 70.9646C342.792 74.081 375.553 59.4158 380.731 38.2089Z" fill="url(#paint3_radial_8_223)"/>
<path d="M352.674 0.578613H297.245L269.522 29.4743L297.245 58.3699H352.674L380.381 29.4743L352.674 0.578613Z" fill="white"/>
<path d="M352.079 1.19336H297.824L270.697 29.4744L297.824 57.7555H352.079L379.207 29.4744L352.079 1.19336Z" fill="url(#paint4_linear_8_223)"/>
<path d="M349.152 4.24561H300.752L276.551 29.4743L300.752 54.7029H349.152L373.37 29.4743L349.152 4.24561Z" fill="#0097CE"/>
<path d="M346.277 7.24658H303.628L282.304 29.474L303.628 51.7015H346.277L367.601 29.474L346.277 7.24658Z" fill="url(#paint5_linear_8_223)"/>
<path style="mix-blend-mode:multiply" d="M187.578 51.9778C207.561 51.9778 223.76 42.228 223.76 30.201C223.76 18.1741 207.561 8.42432 187.578 8.42432C167.596 8.42432 151.397 18.1741 151.397 30.201C151.397 42.228 167.596 51.9778 187.578 51.9778Z" fill="url(#paint6_radial_8_223)"/>
<path d="M207.61 12.2554H176.517L160.979 28.4599L176.517 44.6747H207.61L223.165 28.4599L207.61 12.2554Z" fill="white"/>
<path d="M207.285 12.6035H176.856L161.625 28.4598L176.856 44.3263H207.285L222.5 28.4598L207.285 12.6035Z" fill="url(#paint7_linear_8_223)"/>
<path d="M205.652 14.3042H178.491L164.91 28.4601L178.491 42.616H205.652L219.216 28.4601L205.652 14.3042Z" fill="#92377E"/>
<path d="M204.035 15.9941H180.107L168.143 28.4599L180.107 40.936H204.035L215.999 28.4599L204.035 15.9941Z" fill="url(#paint8_linear_8_223)"/>
<path style="mix-blend-mode:multiply" d="M112.836 70.0612C120.329 51.247 101.063 32.339 69.8034 27.829C38.5441 23.3191 7.12905 34.915 -0.364096 53.7292C-7.85724 72.5435 11.409 91.4515 42.6683 95.9614C73.9275 100.471 105.343 88.8754 112.836 70.0612Z" fill="url(#paint9_radial_8_223)"/>
<path d="M88.4795 33.0488H38.462L13.4448 59.1174L38.462 85.1962H88.4795L113.497 59.1174L88.4795 33.0488Z" fill="white"/>
<path d="M87.9519 33.6021H38.9896L14.5 59.1175L38.9896 84.6432H87.9519L112.442 59.1175L87.9519 33.6021Z" fill="url(#paint10_linear_8_223)"/>
<path d="M85.3152 36.3472H41.6287L19.7939 59.1175L41.6287 81.8878H85.3152L107.15 59.1175L85.3152 36.3472Z" fill="#919191"/>
<path d="M82.7097 39.0615H44.2309L24.9829 59.1174L44.2309 79.1836H82.7097L101.958 59.1174L82.7097 39.0615Z" fill="url(#paint11_linear_8_223)"/>
<g style="mix-blend-mode:overlay" opacity="0.5">
<path style="mix-blend-mode:multiply" d="M324.409 21.2284C399.709 -24.0934 399.709 -97.5746 324.409 -142.896C249.108 -188.218 127.021 -188.218 51.7202 -142.896C-23.5807 -97.5746 -23.5807 -24.0934 51.7202 21.2284C127.021 66.5503 249.108 66.5503 324.409 21.2284Z" fill="url(#paint12_radial_8_223)"/>
<path d="M294.898 -156.469H129.154L46.291 -70.0788L129.154 16.3111H294.898L377.778 -70.0788L294.898 -156.469Z" fill="white"/>
<path d="M293.144 -154.645H130.907L49.7793 -70.0783L130.907 14.4883H293.144L374.271 -70.0783L293.144 -154.645Z" fill="url(#paint13_linear_8_223)"/>
<path d="M284.414 -145.519H139.654L67.2744 -70.0784L139.654 5.3719H284.414L356.776 -70.0784L284.414 -145.519Z" fill="#006FBC"/>
<path style="mix-blend-mode:multiply" d="M444.433 91.0291C480.143 69.5362 480.143 34.6894 444.433 13.1965C408.723 -8.29637 350.826 -8.29636 315.117 13.1965C279.407 34.6894 279.407 69.5362 315.117 91.0291C350.826 112.522 408.723 112.522 444.433 91.0291Z" fill="url(#paint14_radial_8_223)"/>
<path d="M430.433 6.77539H351.842L312.546 47.7374L351.842 88.7096H430.433L469.729 47.7374L430.433 6.77539Z" fill="white"/>
<path d="M429.615 7.63574H352.674L314.212 47.7373L352.674 87.8388H429.615L468.077 47.7373L429.615 7.63574Z" fill="url(#paint15_linear_8_223)"/>
<path d="M425.464 11.9585H356.828L322.502 47.7375L356.828 83.5165H425.464L459.773 47.7375L425.464 11.9585Z" fill="#0097CE"/>
<path d="M421.38 16.2197H360.896L330.671 47.7376L360.896 79.2657H421.38L451.622 47.7376L421.38 16.2197Z" fill="url(#paint16_linear_8_223)"/>
<path style="mix-blend-mode:multiply" d="M390.848 29.4843C449.047 29.4843 496.227 1.08794 496.227 -33.9407C496.227 -68.9694 449.047 -97.3657 390.848 -97.3657C332.649 -97.3657 285.469 -68.9694 285.469 -33.9407C285.469 1.08794 332.649 29.4843 390.848 29.4843Z" fill="url(#paint17_radial_8_223)"/>
<path d="M449.221 -86.2007H358.649L313.362 -38.9904L358.649 8.21981H449.221L494.507 -38.9904L449.221 -86.2007Z" fill="white"/>
<path d="M448.269 -85.2075H359.619L315.286 -38.9909L359.619 7.22582H448.269L492.602 -38.9909L448.269 -85.2075Z" fill="url(#paint18_linear_8_223)"/>
<path d="M443.485 -80.2188H364.383L324.832 -38.9905L364.383 2.23784H443.485L483.036 -38.9905L443.485 -80.2188Z" fill="#FF3036"/>
<path style="mix-blend-mode:multiply" d="M227.323 73.3644C249.908 63.0723 254.355 43.709 237.255 30.1152C220.156 16.5215 187.984 13.8449 165.398 24.137C142.813 34.4291 138.366 53.7924 155.466 67.3862C172.566 80.9799 204.737 83.6565 227.323 73.3644Z" fill="url(#paint19_radial_8_223)"/>
<path d="M224.764 23.3281H180.669L158.63 46.3033L180.669 69.2887H224.764L246.803 46.3033L224.764 23.3281Z" fill="white"/>
<path d="M224.304 23.8096H181.145L159.566 46.3033L181.145 68.8073H224.304L245.884 46.3033L224.304 23.8096Z" fill="url(#paint20_linear_8_223)"/>
<path d="M221.973 26.2373H183.46L164.212 46.3034L183.46 66.3798H221.973L241.221 46.3034L221.973 26.2373Z" fill="#92377E"/>
<path d="M219.675 28.624H185.757L168.79 46.3035L185.757 63.9933H219.675L236.642 46.3035L219.675 28.624Z" fill="url(#paint21_linear_8_223)"/>
<path style="mix-blend-mode:multiply" d="M97.4059 57.4262C129.633 38.0294 129.633 6.58096 97.4059 -12.8158C65.1787 -32.2126 12.9282 -32.2126 -19.2989 -12.8158C-51.5261 6.58097 -51.5261 38.0294 -19.299 57.4262C12.9282 76.8229 65.1787 76.8229 97.4059 57.4262Z" fill="url(#paint22_radial_8_223)"/>
<path d="M84.7866 -18.6172H13.8704L-21.5962 18.35L13.8704 55.3172H84.7866L120.253 18.35L84.7866 -18.6172Z" fill="white"/>
<path d="M84.0382 -17.8384H14.6196L-20.0981 18.3503L14.6196 54.5391H84.0382L118.756 18.3503L84.0382 -17.8384Z" fill="url(#paint23_linear_8_223)"/>
<path d="M80.2942 -13.9355H18.3638L-12.6099 18.3506L18.3638 50.6367H80.2942L111.268 18.3506L80.2942 -13.9355Z" fill="#919191"/>
<path d="M76.6173 -10.0952H22.0389L-5.25879 18.3498L22.0389 46.7947H76.6173L103.898 18.3498L76.6173 -10.0952Z" fill="url(#paint24_linear_8_223)"/>
<path style="mix-blend-mode:multiply" d="M27.911 14.7853C89.1835 14.7853 138.855 -15.1106 138.855 -51.9892C138.855 -88.8677 89.1835 -118.764 27.911 -118.764C-33.3615 -118.764 -83.0327 -88.8677 -83.0327 -51.9892C-83.0327 -15.1106 -33.3615 14.7853 27.911 14.7853Z" fill="url(#paint25_radial_8_223)"/>
</g>
</g>
<path d="M710.255 -27.4303L860.369 -27.6822L860.454 -27.5824L882.84 1.16008L1031.16 0.911098L1031.16 1.28109L882.53 1.5306L882.446 1.44074L860.059 -27.3117L710.566 -27.0608L656.61 42.6899L552.611 42.8645L552.61 42.4945L656.299 42.3204L710.255 -27.4303Z" fill="#A6A6A6"/>
<path d="M1031.1 0.411504C1031.24 0.409959 1031.37 0.426866 1031.49 0.461247C1031.61 0.495627 1031.72 0.546786 1031.81 0.611763C1031.91 0.67674 1031.98 0.754228 1032.03 0.839729C1032.08 0.925231 1032.11 1.01706 1032.11 1.10983C1032.11 1.29814 1032 1.4789 1031.82 1.61237C1031.63 1.74584 1031.37 1.82106 1031.11 1.82151C1030.98 1.82174 1030.85 1.80352 1030.73 1.76792C1030.6 1.73232 1030.5 1.68004 1030.4 1.61413C1030.31 1.54822 1030.24 1.46999 1030.19 1.38399C1030.14 1.29799 1030.12 1.20594 1030.12 1.11317C1030.12 1.02125 1030.14 0.930176 1030.19 0.845165C1030.24 0.760153 1030.31 0.682849 1030.41 0.617694C1030.5 0.552539 1030.61 0.500802 1030.73 0.465422C1030.85 0.430043 1030.97 0.411722 1031.1 0.411504Z" fill="#A6A6A6"/>
<path d="M552.624 41.975C552.362 41.9754 552.111 42.0496 551.926 42.1812C551.741 42.3128 551.637 42.491 551.638 42.6767C551.636 42.7694 551.66 42.8615 551.709 42.9475C551.758 43.0335 551.831 43.1117 551.923 43.1776C552.015 43.2435 552.124 43.2958 552.245 43.3314C552.366 43.367 552.496 43.3852 552.627 43.385C552.892 43.3845 553.147 43.3093 553.335 43.1758C553.522 43.0424 553.628 42.8616 553.627 42.6733C553.627 42.5805 553.601 42.4887 553.55 42.4032C553.5 42.3177 553.425 42.2402 553.332 42.1753C553.239 42.1103 553.128 42.0591 553.007 42.0247C552.885 41.9903 552.755 41.9734 552.624 41.975Z" fill="#A6A6A6"/>
<path d="M969.793 1.04489L970.259 1.2241L948.42 29.4508L856.36 29.6053L835.6 2.96016L719.268 3.15544L708.355 17.2738L707.889 17.0846L718.957 2.78597L835.924 2.58962L856.669 29.2348L948.109 29.0813L969.793 1.04489Z" fill="#A6A6A6"/>
<path d="M707.456 16.6384C707.062 16.9065 707.05 17.3496 707.427 17.6282C707.805 17.9067 708.431 17.9151 708.824 17.6471C709.218 17.379 709.23 16.9358 708.852 16.6573C708.475 16.3787 707.849 16.3703 707.456 16.6384Z" fill="#A6A6A6"/>
<path d="M712.639 -11.0535L872.701 -11.3222L872.702 -10.9522L712.95 -10.684L686.282 23.8008L685.816 23.6216L712.639 -11.0535Z" fill="#A6A6A6"/>
<path d="M685.237 23.3425C685.165 23.4252 685.118 23.5174 685.098 23.6135C685.079 23.7096 685.087 23.8075 685.123 23.9012C685.159 23.9948 685.221 24.0823 685.307 24.1581C685.392 24.2339 685.499 24.2964 685.62 24.3419C685.738 24.3909 685.868 24.4225 686.004 24.4348C686.14 24.4472 686.278 24.4399 686.41 24.4136C686.541 24.3872 686.664 24.3422 686.771 24.2814C686.878 24.2205 686.966 24.1451 687.03 24.0595C687.093 23.9786 687.133 23.8898 687.147 23.7981C687.162 23.7063 687.151 23.6135 687.115 23.5249C687.078 23.4363 687.018 23.3536 686.937 23.2816C686.855 23.2096 686.755 23.1496 686.641 23.1052C686.527 23.0607 686.401 23.0326 686.272 23.0225C686.143 23.0124 686.012 23.0204 685.886 23.0461C685.761 23.0719 685.645 23.1148 685.543 23.1725C685.441 23.2302 685.356 23.3015 685.294 23.3824L685.237 23.3425Z" fill="#A6A6A6"/>
<path d="M711.152 35.8884L812.907 35.7176L825.253 51.5769L1033.34 51.2276L1033.34 51.5976L824.943 51.9475L812.597 36.0981L711.463 36.2679L678.106 79.384L514.136 79.6592L514.135 79.2892L677.795 79.0145L711.152 35.8884Z" fill="#A6A6A6"/>
<path d="M1033.29 50.7084C1033.42 50.7081 1033.55 50.726 1033.67 50.761C1033.79 50.796 1033.9 50.8474 1033.99 50.9122C1034.08 50.977 1034.16 51.0541 1034.21 51.1389C1034.26 51.2238 1034.28 51.3148 1034.28 51.4067C1034.28 51.4995 1034.26 51.5916 1034.21 51.6778C1034.16 51.7639 1034.09 51.8424 1034 51.9086C1033.91 51.9748 1033.8 52.0275 1033.68 52.0635C1033.55 52.0995 1033.43 52.1181 1033.29 52.1184C1033.16 52.1186 1033.03 52.1004 1032.91 52.0648C1032.79 52.0292 1032.68 51.9769 1032.59 51.911C1032.5 51.8451 1032.43 51.7668 1032.38 51.6808C1032.33 51.5948 1032.3 51.5028 1032.31 51.41C1032.31 51.2244 1032.41 51.0461 1032.59 50.9145C1032.78 50.783 1033.03 50.7088 1033.29 50.7084Z" fill="#A6A6A6"/>
<path d="M514.191 78.7696C513.645 78.7705 513.204 79.0847 513.204 79.4713C513.205 79.8579 513.648 80.1705 514.193 80.1696C514.739 80.1687 515.181 79.8546 515.18 79.468C515.179 79.0814 514.737 78.7687 514.191 78.7696Z" fill="#A6A6A6"/>
<path d="M607.429 57.043L695.312 56.8955L695.312 56.5255L607.428 56.673L607.429 57.043Z" fill="#A6A6A6"/>
<path d="M607.484 56.1233C607.353 56.1222 607.223 56.1395 607.102 56.1743C606.98 56.2091 606.87 56.2606 606.777 56.3259C606.684 56.3912 606.61 56.469 606.559 56.5546C606.509 56.6403 606.483 56.7322 606.483 56.825C606.467 56.9246 606.48 57.0256 606.523 57.1213C606.565 57.217 606.636 57.3052 606.73 57.38C606.824 57.4549 606.94 57.5148 607.069 57.5557C607.198 57.5966 607.338 57.6176 607.48 57.6174C607.621 57.6172 607.761 57.5957 607.89 57.5543C608.019 57.513 608.135 57.4527 608.228 57.3775C608.322 57.3023 608.393 57.2139 608.435 57.1181C608.477 57.0223 608.49 56.9212 608.473 56.8216C608.473 56.7297 608.447 56.6387 608.397 56.5539C608.348 56.469 608.275 56.392 608.183 56.3271C608.091 56.2623 607.982 56.2109 607.862 56.1759C607.742 56.141 607.614 56.1231 607.484 56.1233Z" fill="#A6A6A6"/>
<path d="M938.847 76.2562L948.979 76.2392L948.979 76.6091L939.158 76.6256L922.317 98.3939L822.03 98.5623L822.029 98.1923L922.006 98.0244L938.847 76.2562Z" fill="#A6A6A6"/>
<path d="M948.921 75.7193C948.376 75.7203 947.934 76.0344 947.935 76.421C947.936 76.8076 948.378 77.1202 948.924 77.1193C949.469 77.1184 949.911 76.8043 949.91 76.4177C949.91 76.0311 949.467 75.7184 948.921 75.7193Z" fill="#A6A6A6"/>
<path d="M713.273 55.1456L765.484 55.058L765.569 55.1478L788.945 85.1686L788.48 85.3594L765.174 55.4285L713.584 55.5151L685.071 92.383L596.735 92.5313L590.075 101.142L589.609 100.963L596.424 92.1518L684.76 92.0035L713.273 55.1456Z" fill="#A6A6A6"/>
<path d="M1015.17 51.0187L1015.64 51.1979L1006.28 63.3036L858.307 63.552L848.028 76.8293L830.545 76.8586L830.544 76.4786L847.717 76.4498L857.996 63.1725L1005.96 62.9241L1015.17 51.0187Z" fill="#A6A6A6"/>
<path d="M830.586 75.9586C830.387 75.959 830.194 76.0009 830.029 76.0792C829.865 76.1575 829.736 76.2686 829.661 76.3985C829.585 76.5283 829.565 76.6711 829.604 76.8088C829.643 76.9465 829.739 77.0728 829.879 77.1719C830.019 77.2709 830.198 77.3383 830.392 77.3653C830.587 77.3924 830.788 77.378 830.971 77.3239C831.154 77.2699 831.311 77.1786 831.42 77.0617C831.53 76.9447 831.589 76.8074 831.589 76.6669C831.588 76.4786 831.482 76.2982 831.294 76.1654C831.106 76.0326 830.851 75.9582 830.586 75.9586Z" fill="#A6A6A6"/>
<path d="M715.922 70.0811L743.947 70.034L755.784 85.2142L755.318 85.395L743.637 70.4146L716.234 70.4606L686.904 108.38L621.936 108.489L621.936 108.109L686.593 108L715.922 70.0811Z" fill="#A6A6A6"/>
<path d="M1016.92 1.03617L1017.39 1.21538L988.145 39.0145L920.129 39.1287L920.129 38.7587L987.834 38.6451L1016.92 1.03617Z" fill="#A6A6A6"/>
<path d="M920.171 38.2384C919.625 38.2393 919.184 38.5534 919.184 38.94C919.185 39.3266 919.628 39.6393 920.173 39.6384C920.719 39.6375 921.161 39.3233 921.16 38.9367C921.159 38.5501 920.717 38.2375 920.171 38.2384Z" fill="#A6A6A6"/>
<path d="M726.774 19.4031L818.975 19.2484L819.046 19.3482L844.077 51.4763L843.611 51.657L818.666 19.6289L726.774 19.7831L726.774 19.4031Z" fill="#A6A6A6"/>
<path d="M726.815 18.9225C726.616 18.9228 726.423 18.9648 726.258 19.0431C726.094 19.1214 725.965 19.2325 725.89 19.3624C725.814 19.4922 725.794 19.635 725.833 19.7727C725.872 19.9103 725.968 20.0367 726.108 20.1357C726.248 20.2348 726.427 20.3021 726.621 20.3292C726.816 20.3563 727.017 20.3419 727.2 20.2878C727.383 20.2338 727.54 20.1425 727.649 20.0256C727.759 19.9086 727.818 19.7713 727.818 19.6308C727.817 19.5376 727.791 19.4453 727.741 19.3592C727.69 19.2732 727.617 19.195 727.523 19.1293C727.43 19.0635 727.32 19.0114 727.198 18.9759C727.076 18.9404 726.946 18.9223 726.815 18.9225Z" fill="#A6A6A6"/>
<path d="M791.635 48.3441L806.568 67.519L774.663 67.5726L774.663 67.2026L805.665 67.1506L791.169 48.5349L791.635 48.3441Z" fill="#A6A6A6"/>
<path d="M792.298 48.1231C792.196 48.0087 792.049 47.9178 791.875 47.8615C791.702 47.8051 791.509 47.7857 791.319 47.8055C791.13 47.8254 790.953 47.8837 790.81 47.9734C790.667 48.0631 790.563 48.1803 790.512 48.3108C790.46 48.4413 790.464 48.5796 790.521 48.7087C790.578 48.8379 790.687 48.9525 790.835 49.0385C790.982 49.1246 791.162 49.1784 791.352 49.1936C791.542 49.2087 791.734 49.1845 791.905 49.1238C792.03 49.0812 792.141 49.0201 792.23 48.9447C792.319 48.8692 792.384 48.7812 792.422 48.6865C792.459 48.5917 792.467 48.4924 792.446 48.3953C792.424 48.2981 792.374 48.2053 792.298 48.1231Z" fill="#A6A6A6"/>
<path d="M918.634 31.1213C918.635 30.2372 919.007 29.3729 919.701 28.6378C920.395 27.9026 921.381 27.3296 922.534 26.9912C923.687 26.6527 924.955 26.5641 926.179 26.7364C927.402 26.9088 928.525 27.3344 929.407 27.9595C930.288 28.5845 930.887 29.381 931.129 30.248C931.372 31.1151 931.245 32.0139 930.767 32.8307C930.288 33.6475 929.479 34.3458 928.441 34.837C927.403 35.3283 926.183 35.5906 924.935 35.5907C924.107 35.5908 923.287 35.4752 922.522 35.2506C921.757 35.0261 921.062 34.6969 920.477 34.2819C919.892 33.8668 919.428 33.3741 919.112 32.8318C918.795 32.2895 918.633 31.7083 918.634 31.1213Z" fill="#CFCFCF"/>
<path d="M584.752 23.2214C584.777 23.0895 584.868 22.9684 585.01 22.8807C585.151 22.7929 585.332 22.7444 585.52 22.7441C585.708 22.7438 585.889 22.7917 586.031 22.879C586.172 22.9663 586.264 23.087 586.29 23.2188C586.305 23.2965 586.296 23.3757 586.264 23.4509C586.233 23.5261 586.179 23.5957 586.106 23.6549C586.033 23.7141 585.943 23.7617 585.843 23.7943C585.742 23.8269 585.632 23.8439 585.522 23.8441C585.411 23.8443 585.302 23.8277 585.201 23.7954C585.1 23.7631 585.01 23.7159 584.937 23.6569C584.864 23.5979 584.81 23.5285 584.778 23.4534C584.746 23.3783 584.737 23.2992 584.752 23.2214Z" fill="#CFCFCF"/>
<path d="M691.282 9.77246C691.278 8.9018 691.638 8.04951 692.317 7.32348C692.997 6.59745 693.964 6.0303 695.098 5.69384C696.232 5.35738 697.481 5.26671 698.686 5.43333C699.892 5.59995 701 6.01637 701.871 6.62986C702.742 7.24335 703.336 8.02633 703.578 8.87971C703.82 9.7331 703.699 10.6185 703.231 11.4239C702.763 12.2292 701.968 12.9184 700.948 13.404C699.927 13.8896 698.727 14.1499 697.498 14.152C696.683 14.1547 695.876 14.0435 695.123 13.8247C694.369 13.606 693.684 13.2839 693.107 12.8771C692.529 12.4703 692.071 11.9867 691.758 11.4539C691.445 10.9212 691.283 10.3498 691.282 9.77246Z" fill="#CFCFCF"/>
<path d="M800.305 77.34C800.305 77.2075 800.36 77.0779 800.464 76.9675C800.568 76.8572 800.715 76.771 800.888 76.72C801.061 76.669 801.251 76.6554 801.434 76.681C801.617 76.7065 801.786 76.7701 801.918 76.8635C802.051 76.957 802.141 77.0762 802.178 77.2061C802.214 77.3361 802.196 77.4708 802.125 77.5934C802.053 77.7159 801.932 77.8207 801.777 77.8946C801.622 77.9685 801.439 78.0081 801.252 78.0084C801.128 78.0086 801.005 77.9915 800.89 77.958C800.775 77.9245 800.671 77.8754 800.583 77.8133C800.495 77.7512 800.425 77.6775 800.378 77.5963C800.33 77.5151 800.305 77.428 800.305 77.34Z" fill="#CFCFCF"/>
<path d="M840.496 45.2119C840.493 45.0691 840.55 44.9288 840.66 44.8089C840.77 44.689 840.927 44.5949 841.112 44.5386C841.298 44.4822 841.502 44.4662 841.7 44.4925C841.898 44.5188 842.081 44.5863 842.225 44.6863C842.368 44.7863 842.467 44.9144 842.507 45.0543C842.548 45.1942 842.529 45.3395 842.453 45.4718C842.376 45.604 842.246 45.7173 842.079 45.7971C841.912 45.877 841.715 45.9198 841.513 45.9202C841.246 45.9206 840.99 45.8466 840.8 45.714C840.609 45.5815 840.5 45.4011 840.496 45.2119Z" fill="#CFCFCF"/>
<path d="M955.65 57.6687C955.647 57.4978 955.715 57.33 955.847 57.1868C955.98 57.0437 956.169 56.9316 956.391 56.8649C956.613 56.7982 956.858 56.7799 957.095 56.8124C957.332 56.8448 957.549 56.9266 957.72 57.0471C957.891 57.1677 958.007 57.3217 958.054 57.4893C958.1 57.657 958.075 57.8308 957.982 57.9885C957.889 58.1462 957.731 58.2807 957.53 58.3747C957.328 58.4688 957.092 58.5182 956.851 58.5167C956.532 58.5172 956.227 58.4281 956.002 58.2691C955.777 58.1101 955.65 57.8941 955.65 57.6687Z" fill="#CFCFCF"/>
<path d="M742.649 78.5361C742.649 78.423 742.696 78.3123 742.785 78.2182C742.874 78.1241 743 78.0509 743.148 78.0078C743.296 77.9647 743.458 77.9537 743.615 77.9763C743.771 77.9989 743.915 78.0539 744.027 78.1344C744.139 78.215 744.214 78.3173 744.244 78.4285C744.273 78.5397 744.256 78.6546 744.193 78.7587C744.13 78.8627 744.025 78.9512 743.891 79.0129C743.757 79.0745 743.6 79.1065 743.44 79.1048C743.335 79.105 743.231 79.0904 743.135 79.0618C743.038 79.0331 742.95 78.9911 742.876 78.9382C742.803 78.8853 742.745 78.8224 742.706 78.7534C742.667 78.6844 742.647 78.6105 742.649 78.5361Z" fill="#CFCFCF"/>
<path d="M684.97 73.9932C684.969 73.3999 685.216 72.8194 685.68 72.3253C686.145 71.8312 686.805 71.4456 687.578 71.2172C688.352 70.9888 689.203 70.928 690.024 71.0424C690.845 71.1568 691.6 71.4412 692.193 71.8598C692.786 72.2783 693.19 72.8122 693.354 73.3939C693.518 73.9755 693.436 74.5789 693.116 75.1276C692.797 75.6763 692.255 76.1458 691.559 76.4766C690.864 76.8074 690.045 76.9847 689.208 76.9861C688.085 76.988 687.008 76.6737 686.213 76.1125C685.418 75.5512 684.971 74.7889 684.97 73.9932Z" fill="#CFCFCF"/>
<path d="M851.595 82.9735C851.595 82.7757 851.677 82.5822 851.832 82.4175C851.987 82.2528 852.207 82.1243 852.465 82.0482C852.722 81.972 853.006 81.9518 853.28 81.9899C853.554 82.028 853.805 82.1228 854.003 82.2623C854.2 82.4019 854.335 82.5798 854.39 82.7737C854.445 82.9676 854.417 83.1687 854.31 83.3516C854.204 83.5345 854.023 83.691 853.792 83.8013C853.56 83.9116 853.287 83.9707 853.008 83.9711C852.634 83.9717 852.274 83.867 852.01 83.6799C851.745 83.4928 851.595 83.2387 851.595 82.9735Z" fill="#CFCFCF"/>
<path d="M891.161 57.2669C891.159 57.1859 891.18 57.1055 891.222 57.0302C891.264 56.955 891.327 56.8865 891.407 56.8286C891.487 56.7708 891.583 56.7248 891.688 56.6934C891.793 56.6619 891.906 56.6456 892.021 56.6454C892.253 56.645 892.475 56.71 892.639 56.826C892.804 56.942 892.896 57.0995 892.896 57.2639C892.897 57.3449 892.874 57.4251 892.83 57.4998C892.786 57.5746 892.721 57.6424 892.64 57.6993C892.559 57.7562 892.462 57.8011 892.356 57.8313C892.25 57.8616 892.137 57.8765 892.023 57.8754C891.794 57.8758 891.575 57.8119 891.414 57.6978C891.252 57.5836 891.161 57.4286 891.161 57.2669Z" fill="#CFCFCF"/>
<path d="M960.936 3.92985C958.707 3.93359 956.902 5.2171 956.905 6.79663C956.907 8.37617 958.716 9.65358 960.945 9.64984C963.174 9.6461 964.979 8.36262 964.976 6.78308C964.974 5.20355 963.164 3.92611 960.936 3.92985Z" fill="#CFCFCF"/>
<path d="M871.086 9.31044C871.083 8.78986 871.297 8.28003 871.702 7.84553C872.108 7.41104 872.686 7.07142 873.363 6.86969C874.041 6.66796 874.788 6.61317 875.509 6.71231C876.23 6.81145 876.893 7.06005 877.414 7.42658C877.935 7.79312 878.29 8.26111 878.436 8.7713C878.581 9.2815 878.509 9.81097 878.229 10.2926C877.95 10.7742 877.475 11.1863 876.865 11.4768C876.254 11.7673 875.537 11.923 874.802 11.9242C873.82 11.9259 872.878 11.6517 872.181 11.1618C871.485 10.6719 871.091 10.0062 871.086 9.31044Z" fill="#CFCFCF"/>
<path d="M708.201 43.3541C708.197 42.877 708.393 42.4098 708.765 42.0115C709.136 41.6133 709.666 41.3019 710.287 41.1169C710.907 40.9319 711.592 40.8816 712.252 40.9724C712.913 41.0631 713.521 41.2908 713.998 41.6267C714.476 41.9625 714.802 42.3914 714.935 42.8589C715.068 43.3265 715.003 43.8117 714.746 44.253C714.49 44.6944 714.055 45.0722 713.496 45.3384C712.937 45.6045 712.279 45.7473 711.606 45.7484C710.706 45.7499 709.843 45.4988 709.205 45.0501C708.567 44.6014 708.206 43.9915 708.201 43.3541Z" fill="#CFCFCF"/>
<path d="M643.886 3.44219C640.488 3.4479 637.736 5.40454 637.741 7.8125C637.745 10.2205 640.502 12.1679 643.9 12.1622C647.298 12.1565 650.049 10.1998 650.045 7.79185C650.041 5.38389 647.284 3.43649 643.886 3.44219Z" fill="#CFCFCF"/>
<path d="M786.564 36.8017C784.639 36.8049 783.08 37.9134 783.083 39.2775C783.085 40.6417 784.647 41.7449 786.572 41.7417C788.497 41.7385 790.056 40.63 790.053 39.2658C790.051 37.9017 788.489 36.7985 786.564 36.8017Z" fill="#CFCFCF"/>
<path d="M623.664 54.0459C623.691 53.8937 623.796 53.7537 623.958 53.652C624.12 53.5503 624.329 53.494 624.545 53.4937C624.762 53.4933 624.971 53.5489 625.133 53.65C625.296 53.7512 625.401 53.8909 625.428 54.043C625.401 54.1952 625.297 54.3352 625.135 54.4369C624.973 54.5386 624.764 54.5949 624.547 54.5952C624.331 54.5956 624.122 54.54 623.959 54.4389C623.797 54.3378 623.692 54.198 623.664 54.0459Z" fill="#CFCFCF"/>
<path d="M781.097 8.12156C781.093 7.90162 781.182 7.68588 781.353 7.50175C781.523 7.31761 781.766 7.17336 782.052 7.08733C782.338 7.00131 782.653 6.97737 782.958 7.01855C783.263 7.05973 783.543 7.16419 783.764 7.31865C783.985 7.47311 784.136 7.67062 784.198 7.8861C784.26 8.10159 784.23 8.32531 784.112 8.52892C783.994 8.73252 783.794 8.90682 783.536 9.02967C783.278 9.15252 782.975 9.21841 782.665 9.21894C782.252 9.21964 781.855 9.10471 781.562 8.89919C781.268 8.69368 781.101 8.41421 781.097 8.12156Z" fill="#CFCFCF"/>
<path d="M567.129 58.5907C567.129 58.3929 567.211 58.1994 567.366 58.0347C567.521 57.87 567.741 57.7415 567.999 57.6653C568.257 57.5892 568.54 57.5689 568.814 57.6071C569.088 57.6452 569.339 57.74 569.537 57.8795C569.735 58.019 569.869 58.197 569.924 58.3909C569.979 58.5848 569.951 58.7859 569.845 58.9688C569.738 59.1517 569.558 59.3082 569.326 59.4185C569.094 59.5287 568.821 59.5878 568.542 59.5883C568.168 59.5889 567.809 59.4842 567.544 59.2971C567.279 59.11 567.13 58.8559 567.129 58.5907Z" fill="#CFCFCF"/>
<path style="mix-blend-mode:multiply" d="M844.495 6.05613C761.434 6.19557 694.179 54.026 694.278 112.888C694.377 171.751 761.792 219.355 844.853 219.216C927.914 219.076 995.169 171.246 995.07 112.384C994.971 53.5211 927.557 5.9167 844.495 6.05613Z" fill="url(#paint26_radial_8_223)"/>
<path style="mix-blend-mode:multiply" d="M830.937 50.2982C768.661 50.4028 718.236 86.2644 718.31 130.397C718.384 174.53 768.929 210.223 831.206 210.118C893.482 210.013 943.907 174.152 943.833 130.019C943.759 85.8858 893.214 50.1937 830.937 50.2982Z" fill="url(#paint27_radial_8_223)"/>
<path d="M768.698 196.163L865.627 196L913.985 136.439L865.427 77.0305L768.498 77.1932L720.141 136.764L768.698 196.163Z" fill="white"/>
<path d="M769.726 194.911L864.595 194.752L911.939 136.442L864.4 78.2922L769.531 78.4514L722.187 136.761L769.726 194.911Z" fill="url(#paint28_linear_8_223)"/>
<path style="mix-blend-mode:multiply" d="M665.923 47.2075C661.664 67.9184 681.9 87.1346 711.12 90.128C740.34 93.1215 767.48 78.7586 771.739 58.0477C775.997 37.3369 755.762 18.1207 726.542 15.1273C697.321 12.1338 670.181 26.4966 665.923 47.2075Z" fill="url(#paint29_radial_8_223)"/>
<path d="M689.248 83.9058L735.207 83.8286L758.147 55.5801L735.113 27.4087L689.153 27.4859L666.227 55.7344L689.248 83.9058Z" fill="white"/>
<path d="M689.74 83.3047L734.727 83.2292L757.173 55.5814L734.634 28.0092L689.648 28.0847L667.201 55.7325L689.74 83.3047Z" fill="url(#paint30_linear_8_223)"/>
<path d="M692.163 80.3208L732.295 80.2534L752.319 55.5898L732.212 30.9935L692.08 31.0609L672.042 55.7245L692.163 80.3208Z" fill="#0097CE"/>
<path d="M694.542 77.3874L729.904 77.328L747.549 55.5984L729.831 33.9281L694.469 33.9874L676.824 55.7171L694.542 77.3874Z" fill="url(#paint31_linear_8_223)"/>
<path style="mix-blend-mode:multiply" d="M826.055 33.4962C809.486 33.524 796.071 43.065 796.09 54.8066C796.11 66.5481 809.558 76.044 826.126 76.0162C842.695 75.9884 856.11 66.4474 856.091 54.7059C856.071 42.9643 842.624 33.4684 826.055 33.4962Z" fill="url(#paint32_radial_8_223)"/>
<path d="M809.511 72.3042L835.292 72.2609L848.149 56.4193L835.239 40.6109L809.458 40.6542L796.587 56.5058L809.511 72.3042Z" fill="white"/>
<path d="M809.779 71.9639L835.01 71.9216L847.613 56.4204L834.958 40.9516L809.727 40.994L797.138 56.5051L809.779 71.9639Z" fill="url(#paint33_linear_8_223)"/>
<path d="M811.131 70.3013L833.652 70.2635L844.889 56.4246L833.606 42.6236L811.084 42.6614L799.861 56.5002L811.131 70.3013Z" fill="#92377E"/>
<path d="M812.469 68.6491L832.309 68.6158L842.209 56.4291L832.268 44.2658L812.428 44.2991L802.528 56.4958L812.469 68.6491Z" fill="url(#paint34_linear_8_223)"/>
<path style="mix-blend-mode:multiply" d="M888 15.7379C881.817 34.1161 897.823 52.5485 923.75 56.908C949.676 61.2674 975.705 49.9029 981.887 31.5247C988.069 13.1465 972.064 -5.28597 946.137 -9.64539C920.211 -14.0048 894.182 -2.64034 888 15.7379Z" fill="url(#paint35_radial_8_223)"/>
<path d="M908.255 51.8383L949.727 51.7687L970.428 26.2839L949.642 0.858774L908.169 0.928393L887.469 26.4232L908.255 51.8383Z" fill="white"/>
<path d="M908.691 51.2975L949.289 51.2294L969.553 26.2853L949.205 1.39948L908.608 1.46763L888.344 26.4217L908.691 51.2975Z" fill="url(#paint36_linear_8_223)"/>
<path d="M910.873 48.6137L947.097 48.5529L965.164 26.2925L947.022 4.09292L910.799 4.15373L892.732 26.4141L910.873 48.6137Z" fill="#919191"/>
<path d="M913.029 45.9602L944.934 45.9067L960.861 26.2999L944.869 6.73673L912.963 6.79029L897.037 26.407L913.029 45.9602Z" fill="url(#paint37_linear_8_223)"/>
<g style="mix-blend-mode:overlay" opacity="0.5">
<path style="mix-blend-mode:multiply" d="M712.651 63.7062C650.289 108.057 650.409 179.795 712.92 223.936C775.431 268.078 876.66 267.908 939.023 223.557C1001.38 179.206 1001.26 107.468 938.754 63.3267C876.243 19.1851 775.013 19.3551 712.651 63.7062Z" fill="url(#paint38_radial_8_223)"/>
<path d="M737.412 237.146L874.84 236.915L943.405 152.46L874.557 68.2354L737.129 68.4661L668.549 152.921L737.412 237.146Z" fill="white"/>
<path d="M738.863 235.363L873.384 235.137L940.513 152.465L873.107 70.0176L738.586 70.2434L671.457 152.916L738.863 235.363Z" fill="url(#paint39_linear_8_223)"/>
<path d="M746.086 226.441L866.115 226.239L926.006 152.489L865.868 78.9296L745.839 79.1311L685.962 152.892L746.086 226.441Z" fill="#006FBC"/>
<path style="mix-blend-mode:multiply" d="M613.017 -4.27066C583.443 16.7619 583.5 50.7818 613.144 71.7149C642.788 92.6481 690.794 92.5675 720.368 71.5349C749.942 50.5024 749.885 16.4825 720.241 -4.45064C690.596 -25.3838 642.59 -25.3032 613.017 -4.27066Z" fill="url(#paint40_radial_8_223)"/>
<path d="M624.763 77.9644L689.928 77.855L722.444 37.8104L689.794 -2.13489L624.629 -2.0255L592.114 38.0291L624.763 77.9644Z" fill="white"/>
<path d="M625.44 77.1235L689.236 77.0164L721.062 37.813L689.105 -1.28346L625.309 -1.17636L593.483 38.0271L625.44 77.1235Z" fill="url(#paint41_linear_8_223)"/>
<path d="M628.875 72.8972L685.785 72.8017L714.189 37.824L685.668 2.9418L628.758 3.03733L600.369 38.015L628.875 72.8972Z" fill="#0097CE"/>
<path d="M632.255 68.7312L682.405 68.6471L707.415 37.835L682.302 7.09715L632.151 7.18133L607.128 38.0034L632.255 68.7312Z" fill="url(#paint42_linear_8_223)"/>
<path style="mix-blend-mode:multiply" d="M657.549 55.739C609.292 55.82 570.219 83.6081 570.277 117.806C570.334 152.003 609.5 179.66 657.756 179.579C706.013 179.498 745.086 151.71 745.028 117.512C744.971 83.3148 705.805 55.6579 657.549 55.739Z" fill="url(#paint43_radial_8_223)"/>
<path d="M609.337 168.76L684.437 168.634L721.909 122.481L684.282 76.4544L609.183 76.5805L571.711 122.733L609.337 168.76Z" fill="white"/>
<path d="M610.126 167.789L683.63 167.666L720.314 122.484L683.479 77.4258L609.974 77.5492L573.29 122.731L610.126 167.789Z" fill="url(#paint44_linear_8_223)"/>
<path d="M614.084 162.912L679.672 162.802L712.399 122.497L679.537 82.3022L613.949 82.4123L581.222 122.717L614.084 162.912Z" fill="#FF3036"/>
<path style="mix-blend-mode:multiply" d="M793.065 12.6726C774.355 22.7519 770.699 41.6619 784.9 54.9093C799.101 68.1567 825.781 70.725 844.491 60.6457C863.201 50.5664 866.857 31.6564 852.656 18.409C838.455 5.16159 811.775 2.59334 793.065 12.6726Z" fill="url(#paint45_radial_8_223)"/>
<path d="M795.269 61.5178L831.831 61.4565L850.067 38.9958L831.755 16.5865L795.193 16.6479L776.957 39.1185L795.269 61.5178Z" fill="white"/>
<path d="M795.65 61.0476L831.436 60.9876L849.292 38.9976L831.362 17.0576L795.576 17.1177L777.72 39.1177L795.65 61.0476Z" fill="url(#paint46_linear_8_223)"/>
<path d="M797.579 58.6741L829.512 58.6205L845.439 39.0038L829.446 19.4306L797.513 19.4842L781.586 39.111L797.579 58.6741Z" fill="#92377E"/>
<path d="M799.48 56.3408L827.603 56.2936L841.643 39.01L827.545 21.7637L799.422 21.8109L785.382 39.1045L799.48 56.3408Z" fill="url(#paint47_linear_8_223)"/>
<path style="mix-blend-mode:multiply" d="M900.814 28.0523C874.124 47.0337 874.176 77.7358 900.929 96.6274C927.682 115.519 971.006 115.446 997.696 96.465C1024.39 77.4836 1024.33 46.7815 997.581 27.8899C970.828 8.99823 927.503 9.07096 900.814 28.0523Z" fill="url(#paint48_radial_8_223)"/>
<path d="M911.402 102.273L970.203 102.174L999.55 66.035L970.082 29.9945L911.281 30.0932L881.934 66.2325L911.402 102.273Z" fill="white"/>
<path d="M912.021 101.512L969.58 101.416L998.307 66.0372L969.461 30.7556L911.902 30.8522L883.175 66.2305L912.021 101.512Z" fill="url(#paint49_linear_8_223)"/>
<path d="M915.119 97.6967L966.469 97.6105L992.098 66.0474L966.363 34.5706L915.013 34.6568L889.384 66.2198L915.119 97.6967Z" fill="#919191"/>
<path d="M918.161 93.9421L963.416 93.8661L986.003 66.0582L963.322 38.3262L918.068 38.4022L895.495 66.2101L918.161 93.9421Z" fill="url(#paint50_linear_8_223)"/>
<path style="mix-blend-mode:multiply" d="M958.506 69.5842C907.701 69.6695 866.565 98.9251 866.625 134.928C866.686 170.932 907.92 200.049 958.725 199.964C1009.53 199.879 1050.67 170.623 1050.61 134.62C1050.55 98.6163 1009.31 69.4989 958.506 69.5842Z" fill="url(#paint51_radial_8_223)"/>
</g>
<path d="M486.998 75.5901L542.765 75.4965L570.591 41.2198L542.651 7.04661L486.883 7.14023L459.057 41.407L486.998 75.5901Z" fill="white"/>
<path d="M487.59 74.8694L542.186 74.7777L569.42 41.222L542.073 7.76784L487.477 7.85949L460.229 41.4053L487.59 74.8694Z" fill="url(#paint52_linear_8_223)"/>
<path d="M490.52 71.2442L539.231 71.1625L563.537 41.2316L539.131 11.3826L490.419 11.4643L466.128 41.3951L490.52 71.2442Z" fill="#009D7E"/>
<path d="M493.42 67.6891L536.331 67.6171L557.736 41.2411L536.243 14.9371L493.331 15.0092L471.912 41.3852L493.42 67.6891Z" fill="url(#paint53_linear_8_223)"/>
</g>
<defs>
<radialGradient id="paint0_radial_8_223" cx="0" cy="0" r="1" gradientUnits="userSpaceOnUse" gradientTransform="translate(165.284 -29.1171) scale(181.383 109.17)">
<stop stop-color="#B8B8B8"/>
<stop offset="0.24" stop-color="#D2D2D2"/>
<stop offset="0.52" stop-color="#EBEBEB"/>
<stop offset="0.79" stop-color="#FAFAFA"/>
<stop offset="1" stop-color="white"/>
</radialGradient>
<radialGradient id="paint1_radial_8_223" cx="0" cy="0" r="1" gradientUnits="userSpaceOnUse" gradientTransform="translate(181.724 -47.0931) scale(135.995 81.8522)">
<stop/>
<stop offset="0.03" stop-color="#0C0C0C"/>
<stop offset="0.19" stop-color="#4B4B4B"/>
<stop offset="0.34" stop-color="#828282"/>
<stop offset="0.5" stop-color="#AFAFAF"/>
<stop offset="0.64" stop-color="#D2D2D2"/>
<stop offset="0.78" stop-color="#EBEBEB"/>
<stop offset="0.9" stop-color="#FAFAFA"/>
<stop offset="1" stop-color="white"/>
</radialGradient>
<linearGradient id="paint2_linear_8_223" x1="112.918" y1="-113.703" x2="191.433" y2="38.2348" gradientUnits="userSpaceOnUse">
<stop stop-color="#C2C2C2"/>
<stop offset="0.16" stop-color="#D2D2D2"/>
<stop offset="0.48" stop-color="#EBEBEB"/>
<stop offset="0.77" stop-color="#FAFAFA"/>
<stop offset="1" stop-color="white"/>
</linearGradient>
<radialGradient id="paint3_radial_8_223" cx="0" cy="0" r="1" gradientUnits="userSpaceOnUse" gradientTransform="translate(316.952 32.5627) scale(64.4832 38.8109)">
<stop/>
<stop offset="0.03" stop-color="#0C0C0C"/>
<stop offset="0.19" stop-color="#4B4B4B"/>
<stop offset="0.34" stop-color="#828282"/>
<stop offset="0.5" stop-color="#AFAFAF"/>
<stop offset="0.64" stop-color="#D2D2D2"/>
<stop offset="0.78" stop-color="#EBEBEB"/>
<stop offset="0.9" stop-color="#FAFAFA"/>
<stop offset="1" stop-color="white"/>
</radialGradient>
<linearGradient id="paint4_linear_8_223" x1="284.312" y1="0.978256" x2="321.547" y2="73.0254" gradientUnits="userSpaceOnUse">
<stop stop-color="#C2C2C2"/>
<stop offset="0.16" stop-color="#D2D2D2"/>
<stop offset="0.48" stop-color="#EBEBEB"/>
<stop offset="0.77" stop-color="#FAFAFA"/>
<stop offset="1" stop-color="white"/>
</linearGradient>
<linearGradient id="paint5_linear_8_223" x1="292.158" y1="3.36446" x2="320.247" y2="65.0777" gradientUnits="userSpaceOnUse">
<stop stop-color="#C2C2C2"/>
<stop offset="0.16" stop-color="#D2D2D2"/>
<stop offset="0.48" stop-color="#EBEBEB"/>
<stop offset="0.77" stop-color="#FAFAFA"/>
<stop offset="1" stop-color="white"/>
</linearGradient>
<radialGradient id="paint6_radial_8_223" cx="0" cy="0" r="1" gradientUnits="userSpaceOnUse" gradientTransform="translate(187.578 30.2011) scale(36.1814 21.7767)">
<stop/>
<stop offset="0.03" stop-color="#0C0C0C"/>
<stop offset="0.19" stop-color="#4B4B4B"/>
<stop offset="0.34" stop-color="#828282"/>
<stop offset="0.5" stop-color="#AFAFAF"/>
<stop offset="0.64" stop-color="#D2D2D2"/>
<stop offset="0.78" stop-color="#EBEBEB"/>
<stop offset="0.9" stop-color="#FAFAFA"/>
<stop offset="1" stop-color="white"/>
</radialGradient>
<linearGradient id="paint7_linear_8_223" x1="169.266" y1="12.4806" x2="190.152" y2="52.8982" gradientUnits="userSpaceOnUse">
<stop stop-color="#C2C2C2"/>
<stop offset="0.16" stop-color="#D2D2D2"/>
<stop offset="0.48" stop-color="#EBEBEB"/>
<stop offset="0.77" stop-color="#FAFAFA"/>
<stop offset="1" stop-color="white"/>
</linearGradient>
<linearGradient id="paint8_linear_8_223" x1="173.657" y1="13.8226" x2="189.428" y2="48.4448" gradientUnits="userSpaceOnUse">
<stop stop-color="#C2C2C2"/>
<stop offset="0.16" stop-color="#D2D2D2"/>
<stop offset="0.48" stop-color="#EBEBEB"/>
<stop offset="0.77" stop-color="#FAFAFA"/>
<stop offset="1" stop-color="white"/>
</linearGradient>
<radialGradient id="paint9_radial_8_223" cx="0" cy="0" r="1" gradientUnits="userSpaceOnUse" gradientTransform="translate(56.2217 61.893) scale(58.2033 35.0313)">
<stop/>
<stop offset="0.03" stop-color="#0C0C0C"/>
<stop offset="0.19" stop-color="#4B4B4B"/>
<stop offset="0.34" stop-color="#828282"/>
<stop offset="0.5" stop-color="#AFAFAF"/>
<stop offset="0.64" stop-color="#D2D2D2"/>
<stop offset="0.78" stop-color="#EBEBEB"/>
<stop offset="0.9" stop-color="#FAFAFA"/>
<stop offset="1" stop-color="white"/>
</radialGradient>
<linearGradient id="paint10_linear_8_223" x1="26.7874" y1="33.4074" x2="60.3853" y2="98.4278" gradientUnits="userSpaceOnUse">
<stop stop-color="#C2C2C2"/>
<stop offset="0.16" stop-color="#D2D2D2"/>
<stop offset="0.48" stop-color="#EBEBEB"/>
<stop offset="0.77" stop-color="#FAFAFA"/>
<stop offset="1" stop-color="white"/>
</linearGradient>
<linearGradient id="paint11_linear_8_223" x1="33.8666" y1="35.5584" x2="59.2179" y2="91.2567" gradientUnits="userSpaceOnUse">
<stop stop-color="#C2C2C2"/>
<stop offset="0.16" stop-color="#D2D2D2"/>
<stop offset="0.48" stop-color="#EBEBEB"/>
<stop offset="0.77" stop-color="#FAFAFA"/>
<stop offset="1" stop-color="white"/>
</linearGradient>
<radialGradient id="paint12_radial_8_223" cx="0" cy="0" r="1" gradientUnits="userSpaceOnUse" gradientTransform="translate(188.065 -60.8263) scale(192.82 116.054)">
<stop/>
<stop offset="0.03" stop-color="#0C0C0C"/>
<stop offset="0.19" stop-color="#4B4B4B"/>
<stop offset="0.34" stop-color="#828282"/>
<stop offset="0.5" stop-color="#AFAFAF"/>
<stop offset="0.64" stop-color="#D2D2D2"/>
<stop offset="0.78" stop-color="#EBEBEB"/>
<stop offset="0.9" stop-color="#FAFAFA"/>
<stop offset="1" stop-color="white"/>
</radialGradient>
<linearGradient id="paint13_linear_8_223" x1="90.4876" y1="-155.27" x2="201.82" y2="60.1538" gradientUnits="userSpaceOnUse">
<stop stop-color="#C2C2C2"/>
<stop offset="0.16" stop-color="#D2D2D2"/>
<stop offset="0.48" stop-color="#EBEBEB"/>
<stop offset="0.77" stop-color="#FAFAFA"/>
<stop offset="1" stop-color="white"/>
</linearGradient>
<radialGradient id="paint14_radial_8_223" cx="0" cy="0" r="1" gradientUnits="userSpaceOnUse" gradientTransform="translate(379.777 52.117) scale(91.4405 55.0359)">
<stop/>
<stop offset="0.03" stop-color="#0C0C0C"/>
<stop offset="0.19" stop-color="#4B4B4B"/>
<stop offset="0.34" stop-color="#828282"/>
<stop offset="0.5" stop-color="#AFAFAF"/>
<stop offset="0.64" stop-color="#D2D2D2"/>
<stop offset="0.78" stop-color="#EBEBEB"/>
<stop offset="0.9" stop-color="#FAFAFA"/>
<stop offset="1" stop-color="white"/>
</radialGradient>
<linearGradient id="paint15_linear_8_223" x1="333.511" y1="7.33869" x2="386.296" y2="109.49" gradientUnits="userSpaceOnUse">
<stop stop-color="#C2C2C2"/>
<stop offset="0.16" stop-color="#D2D2D2"/>
<stop offset="0.48" stop-color="#EBEBEB"/>
<stop offset="0.77" stop-color="#FAFAFA"/>
<stop offset="1" stop-color="white"/>
</linearGradient>
<linearGradient id="paint16_linear_8_223" x1="344.626" y1="10.7192" x2="384.461" y2="98.2306" gradientUnits="userSpaceOnUse">
<stop stop-color="#C2C2C2"/>
<stop offset="0.16" stop-color="#D2D2D2"/>
<stop offset="0.48" stop-color="#EBEBEB"/>
<stop offset="0.77" stop-color="#FAFAFA"/>
<stop offset="1" stop-color="white"/>
</linearGradient>
<radialGradient id="paint17_radial_8_223" cx="0" cy="0" r="1" gradientUnits="userSpaceOnUse" gradientTransform="translate(390.848 -33.9407) scale(105.379 63.425)">
<stop/>
<stop offset="0.03" stop-color="#0C0C0C"/>
<stop offset="0.19" stop-color="#4B4B4B"/>
<stop offset="0.34" stop-color="#828282"/>
<stop offset="0.5" stop-color="#AFAFAF"/>
<stop offset="0.64" stop-color="#D2D2D2"/>
<stop offset="0.78" stop-color="#EBEBEB"/>
<stop offset="0.9" stop-color="#FAFAFA"/>
<stop offset="1" stop-color="white"/>
</radialGradient>
<linearGradient id="paint18_linear_8_223" x1="337.529" y1="-85.5455" x2="398.364" y2="32.1707" gradientUnits="userSpaceOnUse">
<stop stop-color="#C2C2C2"/>
<stop offset="0.16" stop-color="#D2D2D2"/>
<stop offset="0.48" stop-color="#EBEBEB"/>
<stop offset="0.77" stop-color="#FAFAFA"/>
<stop offset="1" stop-color="white"/>
</linearGradient>
<radialGradient id="paint19_radial_8_223" cx="0" cy="0" r="1" gradientUnits="userSpaceOnUse" gradientTransform="translate(196.349 48.7562) scale(51.2938 30.8726)">
<stop/>
<stop offset="0.03" stop-color="#0C0C0C"/>
<stop offset="0.19" stop-color="#4B4B4B"/>
<stop offset="0.34" stop-color="#828282"/>
<stop offset="0.5" stop-color="#AFAFAF"/>
<stop offset="0.64" stop-color="#D2D2D2"/>
<stop offset="0.78" stop-color="#EBEBEB"/>
<stop offset="0.9" stop-color="#FAFAFA"/>
<stop offset="1" stop-color="white"/>
</radialGradient>
<linearGradient id="paint20_linear_8_223" x1="170.39" y1="23.6457" x2="199.999" y2="80.9436" gradientUnits="userSpaceOnUse">
<stop stop-color="#C2C2C2"/>
<stop offset="0.16" stop-color="#D2D2D2"/>
<stop offset="0.48" stop-color="#EBEBEB"/>
<stop offset="0.77" stop-color="#FAFAFA"/>
<stop offset="1" stop-color="white"/>
</linearGradient>
<linearGradient id="paint21_linear_8_223" x1="176.618" y1="25.5409" x2="198.97" y2="74.631" gradientUnits="userSpaceOnUse">
<stop stop-color="#C2C2C2"/>
<stop offset="0.16" stop-color="#D2D2D2"/>
<stop offset="0.48" stop-color="#EBEBEB"/>
<stop offset="0.77" stop-color="#FAFAFA"/>
<stop offset="1" stop-color="white"/>
</linearGradient>
<radialGradient id="paint22_radial_8_223" cx="0" cy="0" r="1" gradientUnits="userSpaceOnUse" gradientTransform="translate(39.0609 22.2966) scale(82.5228 49.6686)">
<stop/>
<stop offset="0.03" stop-color="#0C0C0C"/>
<stop offset="0.19" stop-color="#4B4B4B"/>
<stop offset="0.34" stop-color="#828282"/>
<stop offset="0.5" stop-color="#AFAFAF"/>
<stop offset="0.64" stop-color="#D2D2D2"/>
<stop offset="0.78" stop-color="#EBEBEB"/>
<stop offset="0.9" stop-color="#FAFAFA"/>
<stop offset="1" stop-color="white"/>
</radialGradient>
<linearGradient id="paint23_linear_8_223" x1="-2.6882" y1="-18.1047" x2="44.9633" y2="74.0865" gradientUnits="userSpaceOnUse">
<stop stop-color="#C2C2C2"/>
<stop offset="0.16" stop-color="#D2D2D2"/>
<stop offset="0.48" stop-color="#EBEBEB"/>
<stop offset="0.77" stop-color="#FAFAFA"/>
<stop offset="1" stop-color="white"/>
</linearGradient>
<linearGradient id="paint24_linear_8_223" x1="7.35193" y1="-15.0529" x2="43.3033" y2="63.9141" gradientUnits="userSpaceOnUse">
<stop stop-color="#C2C2C2"/>
<stop offset="0.16" stop-color="#D2D2D2"/>
<stop offset="0.48" stop-color="#EBEBEB"/>
<stop offset="0.77" stop-color="#FAFAFA"/>
<stop offset="1" stop-color="white"/>
</linearGradient>
<radialGradient id="paint25_radial_8_223" cx="0" cy="0" r="1" gradientUnits="userSpaceOnUse" gradientTransform="translate(27.911 -51.9892) scale(110.944 66.7745)">
<stop/>
<stop offset="0.03" stop-color="#0C0C0C"/>
<stop offset="0.19" stop-color="#4B4B4B"/>
<stop offset="0.34" stop-color="#828282"/>
<stop offset="0.5" stop-color="#AFAFAF"/>
<stop offset="0.64" stop-color="#D2D2D2"/>
<stop offset="0.78" stop-color="#EBEBEB"/>
<stop offset="0.9" stop-color="#FAFAFA"/>
<stop offset="1" stop-color="white"/>
</radialGradient>
<radialGradient id="paint26_radial_8_223" cx="0" cy="0" r="1" gradientUnits="userSpaceOnUse" gradientTransform="translate(844.674 112.636) rotate(179.904) scale(150.396 106.58)">
<stop stop-color="#B8B8B8"/>
<stop offset="0.24" stop-color="#D2D2D2"/>
<stop offset="0.52" stop-color="#EBEBEB"/>
<stop offset="0.79" stop-color="#FAFAFA"/>
<stop offset="1" stop-color="white"/>
</radialGradient>
<radialGradient id="paint27_radial_8_223" cx="0" cy="0" r="1" gradientUnits="userSpaceOnUse" gradientTransform="translate(831.071 130.208) rotate(179.904) scale(112.762 79.91)">
<stop/>
<stop offset="0.03" stop-color="#0C0C0C"/>
<stop offset="0.19" stop-color="#4B4B4B"/>
<stop offset="0.34" stop-color="#828282"/>
<stop offset="0.5" stop-color="#AFAFAF"/>
<stop offset="0.64" stop-color="#D2D2D2"/>
<stop offset="0.78" stop-color="#EBEBEB"/>
<stop offset="0.9" stop-color="#FAFAFA"/>
<stop offset="1" stop-color="white"/>
</radialGradient>
<linearGradient id="paint28_linear_8_223" x1="888.232" y1="195.142" x2="804.545" y2="58.1179" gradientUnits="userSpaceOnUse">
<stop stop-color="#C2C2C2"/>
<stop offset="0.16" stop-color="#D2D2D2"/>
<stop offset="0.48" stop-color="#EBEBEB"/>
<stop offset="0.77" stop-color="#FAFAFA"/>
<stop offset="1" stop-color="white"/>
</linearGradient>
<radialGradient id="paint29_radial_8_223" cx="0" cy="0" r="1" gradientUnits="userSpaceOnUse" gradientTransform="translate(718.815 52.6309) rotate(179.904) scale(53.467 37.89)">
<stop/>
<stop offset="0.03" stop-color="#0C0C0C"/>
<stop offset="0.19" stop-color="#4B4B4B"/>
<stop offset="0.34" stop-color="#828282"/>
<stop offset="0.5" stop-color="#AFAFAF"/>
<stop offset="0.64" stop-color="#D2D2D2"/>
<stop offset="0.78" stop-color="#EBEBEB"/>
<stop offset="0.9" stop-color="#FAFAFA"/>
<stop offset="1" stop-color="white"/>
</radialGradient>
<linearGradient id="paint30_linear_8_223" x1="745.931" y1="83.4204" x2="706.244" y2="18.4459" gradientUnits="userSpaceOnUse">
<stop stop-color="#C2C2C2"/>
<stop offset="0.16" stop-color="#D2D2D2"/>
<stop offset="0.48" stop-color="#EBEBEB"/>
<stop offset="0.77" stop-color="#FAFAFA"/>
<stop offset="1" stop-color="white"/>
</linearGradient>
<linearGradient id="paint31_linear_8_223" x1="739.421" y1="81.1021" x2="709.047" y2="24.65" gradientUnits="userSpaceOnUse">
<stop stop-color="#C2C2C2"/>
<stop offset="0.16" stop-color="#D2D2D2"/>
<stop offset="0.48" stop-color="#EBEBEB"/>
<stop offset="0.77" stop-color="#FAFAFA"/>
<stop offset="1" stop-color="white"/>
</linearGradient>
<radialGradient id="paint32_radial_8_223" cx="0" cy="0" r="1" gradientUnits="userSpaceOnUse" gradientTransform="translate(826.091 54.7562) rotate(179.904) scale(30.0002 21.26)">
<stop/>
<stop offset="0.03" stop-color="#0C0C0C"/>
<stop offset="0.19" stop-color="#4B4B4B"/>
<stop offset="0.34" stop-color="#828282"/>
<stop offset="0.5" stop-color="#AFAFAF"/>
<stop offset="0.64" stop-color="#D2D2D2"/>
<stop offset="0.78" stop-color="#EBEBEB"/>
<stop offset="0.9" stop-color="#FAFAFA"/>
<stop offset="1" stop-color="white"/>
</radialGradient>
<linearGradient id="paint33_linear_8_223" x1="841.303" y1="72.031" x2="819.042" y2="35.5807" gradientUnits="userSpaceOnUse">
<stop stop-color="#C2C2C2"/>
<stop offset="0.16" stop-color="#D2D2D2"/>
<stop offset="0.48" stop-color="#EBEBEB"/>
<stop offset="0.77" stop-color="#FAFAFA"/>
<stop offset="1" stop-color="white"/>
</linearGradient>
<linearGradient id="paint34_linear_8_223" x1="837.661" y1="70.7268" x2="820.607" y2="39.059" gradientUnits="userSpaceOnUse">
<stop stop-color="#C2C2C2"/>
<stop offset="0.16" stop-color="#D2D2D2"/>
<stop offset="0.48" stop-color="#EBEBEB"/>
<stop offset="0.77" stop-color="#FAFAFA"/>
<stop offset="1" stop-color="white"/>
</linearGradient>
<radialGradient id="paint35_radial_8_223" cx="0" cy="0" r="1" gradientUnits="userSpaceOnUse" gradientTransform="translate(934.955 23.6334) rotate(179.904) scale(48.26 34.2)">
<stop/>
<stop offset="0.03" stop-color="#0C0C0C"/>
<stop offset="0.19" stop-color="#4B4B4B"/>
<stop offset="0.34" stop-color="#828282"/>
<stop offset="0.5" stop-color="#AFAFAF"/>
<stop offset="0.64" stop-color="#D2D2D2"/>
<stop offset="0.78" stop-color="#EBEBEB"/>
<stop offset="0.9" stop-color="#FAFAFA"/>
<stop offset="1" stop-color="white"/>
</radialGradient>
<linearGradient id="paint36_linear_8_223" x1="959.407" y1="51.4024" x2="923.596" y2="-7.23624" gradientUnits="userSpaceOnUse">
<stop stop-color="#C2C2C2"/>
<stop offset="0.16" stop-color="#D2D2D2"/>
<stop offset="0.48" stop-color="#EBEBEB"/>
<stop offset="0.77" stop-color="#FAFAFA"/>
<stop offset="1" stop-color="white"/>
</linearGradient>
<linearGradient id="paint37_linear_8_223" x1="953.534" y1="49.3122" x2="926.119" y2="-1.63756" gradientUnits="userSpaceOnUse">
<stop stop-color="#C2C2C2"/>
<stop offset="0.16" stop-color="#D2D2D2"/>
<stop offset="0.48" stop-color="#EBEBEB"/>
<stop offset="0.77" stop-color="#FAFAFA"/>
<stop offset="1" stop-color="white"/>
</linearGradient>
<radialGradient id="paint38_radial_8_223" cx="0" cy="0" r="1" gradientUnits="userSpaceOnUse" gradientTransform="translate(825.836 143.624) rotate(179.904) scale(159.879 113.3)">
<stop/>
<stop offset="0.03" stop-color="#0C0C0C"/>
<stop offset="0.19" stop-color="#4B4B4B"/>
<stop offset="0.34" stop-color="#828282"/>
<stop offset="0.5" stop-color="#AFAFAF"/>
<stop offset="0.64" stop-color="#D2D2D2"/>
<stop offset="0.78" stop-color="#EBEBEB"/>
<stop offset="0.9" stop-color="#FAFAFA"/>
<stop offset="1" stop-color="white"/>
</radialGradient>
<linearGradient id="paint39_linear_8_223" x1="906.899" y1="235.691" x2="788.234" y2="41.4146" gradientUnits="userSpaceOnUse">
<stop stop-color="#C2C2C2"/>
<stop offset="0.16" stop-color="#D2D2D2"/>
<stop offset="0.48" stop-color="#EBEBEB"/>
<stop offset="0.77" stop-color="#FAFAFA"/>
<stop offset="1" stop-color="white"/>
</linearGradient>
<radialGradient id="paint40_radial_8_223" cx="0" cy="0" r="1" gradientUnits="userSpaceOnUse" gradientTransform="translate(666.691 33.628) rotate(179.904) scale(75.819 53.73)">
<stop/>
<stop offset="0.03" stop-color="#0C0C0C"/>
<stop offset="0.19" stop-color="#4B4B4B"/>
<stop offset="0.34" stop-color="#828282"/>
<stop offset="0.5" stop-color="#AFAFAF"/>
<stop offset="0.64" stop-color="#D2D2D2"/>
<stop offset="0.78" stop-color="#EBEBEB"/>
<stop offset="0.9" stop-color="#FAFAFA"/>
<stop offset="1" stop-color="white"/>
</radialGradient>
<linearGradient id="paint41_linear_8_223" x1="705.126" y1="77.2798" x2="648.864" y2="-14.8452" gradientUnits="userSpaceOnUse">
<stop stop-color="#C2C2C2"/>
<stop offset="0.16" stop-color="#D2D2D2"/>
<stop offset="0.48" stop-color="#EBEBEB"/>
<stop offset="0.77" stop-color="#FAFAFA"/>
<stop offset="1" stop-color="white"/>
</linearGradient>
<linearGradient id="paint42_linear_8_223" x1="695.905" y1="73.9944" x2="652.829" y2="-6.05572" gradientUnits="userSpaceOnUse">
<stop stop-color="#C2C2C2"/>
<stop offset="0.16" stop-color="#D2D2D2"/>
<stop offset="0.48" stop-color="#EBEBEB"/>
<stop offset="0.77" stop-color="#FAFAFA"/>
<stop offset="1" stop-color="white"/>
</linearGradient>
<radialGradient id="paint43_radial_8_223" cx="0" cy="0" r="1" gradientUnits="userSpaceOnUse" gradientTransform="translate(657.653 117.659) rotate(179.904) scale(87.376 61.92)">
<stop/>
<stop offset="0.03" stop-color="#0C0C0C"/>
<stop offset="0.19" stop-color="#4B4B4B"/>
<stop offset="0.34" stop-color="#828282"/>
<stop offset="0.5" stop-color="#AFAFAF"/>
<stop offset="0.64" stop-color="#D2D2D2"/>
<stop offset="0.78" stop-color="#EBEBEB"/>
<stop offset="0.9" stop-color="#FAFAFA"/>
<stop offset="1" stop-color="white"/>
</radialGradient>
<linearGradient id="paint44_linear_8_223" x1="701.947" y1="167.965" x2="637.106" y2="61.8039" gradientUnits="userSpaceOnUse">
<stop stop-color="#C2C2C2"/>
<stop offset="0.16" stop-color="#D2D2D2"/>
<stop offset="0.48" stop-color="#EBEBEB"/>
<stop offset="0.77" stop-color="#FAFAFA"/>
<stop offset="1" stop-color="white"/>
</linearGradient>
<radialGradient id="paint45_radial_8_223" cx="0" cy="0" r="1" gradientUnits="userSpaceOnUse" gradientTransform="translate(818.788 36.6538) rotate(179.904) scale(42.5309 30.14)">
<stop/>
<stop offset="0.03" stop-color="#0C0C0C"/>
<stop offset="0.19" stop-color="#4B4B4B"/>
<stop offset="0.34" stop-color="#828282"/>
<stop offset="0.5" stop-color="#AFAFAF"/>
<stop offset="0.64" stop-color="#D2D2D2"/>
<stop offset="0.78" stop-color="#EBEBEB"/>
<stop offset="0.9" stop-color="#FAFAFA"/>
<stop offset="1" stop-color="white"/>
</radialGradient>
<linearGradient id="paint46_linear_8_223" x1="840.354" y1="61.1326" x2="808.795" y2="9.45877" gradientUnits="userSpaceOnUse">
<stop stop-color="#C2C2C2"/>
<stop offset="0.16" stop-color="#D2D2D2"/>
<stop offset="0.48" stop-color="#EBEBEB"/>
<stop offset="0.77" stop-color="#FAFAFA"/>
<stop offset="1" stop-color="white"/>
</linearGradient>
<linearGradient id="paint47_linear_8_223" x1="835.186" y1="59.2909" x2="811.015" y2="14.3877" gradientUnits="userSpaceOnUse">
<stop stop-color="#C2C2C2"/>
<stop offset="0.16" stop-color="#D2D2D2"/>
<stop offset="0.48" stop-color="#EBEBEB"/>
<stop offset="0.77" stop-color="#FAFAFA"/>
<stop offset="1" stop-color="white"/>
</linearGradient>
<radialGradient id="paint48_radial_8_223" cx="0" cy="0" r="1" gradientUnits="userSpaceOnUse" gradientTransform="translate(949.249 62.2671) rotate(179.904) scale(68.4248 48.49)">
<stop/>
<stop offset="0.03" stop-color="#0C0C0C"/>
<stop offset="0.19" stop-color="#4B4B4B"/>
<stop offset="0.34" stop-color="#828282"/>
<stop offset="0.5" stop-color="#AFAFAF"/>
<stop offset="0.64" stop-color="#D2D2D2"/>
<stop offset="0.78" stop-color="#EBEBEB"/>
<stop offset="0.9" stop-color="#FAFAFA"/>
<stop offset="1" stop-color="white"/>
</radialGradient>
<linearGradient id="paint49_linear_8_223" x1="983.931" y1="101.651" x2="933.143" y2="18.5115" gradientUnits="userSpaceOnUse">
<stop stop-color="#C2C2C2"/>
<stop offset="0.16" stop-color="#D2D2D2"/>
<stop offset="0.48" stop-color="#EBEBEB"/>
<stop offset="0.77" stop-color="#FAFAFA"/>
<stop offset="1" stop-color="white"/>
</linearGradient>
<linearGradient id="paint50_linear_8_223" x1="975.602" y1="98.6857" x2="936.725" y2="26.4528" gradientUnits="userSpaceOnUse">
<stop stop-color="#C2C2C2"/>
<stop offset="0.16" stop-color="#D2D2D2"/>
<stop offset="0.48" stop-color="#EBEBEB"/>
<stop offset="0.77" stop-color="#FAFAFA"/>
<stop offset="1" stop-color="white"/>
</linearGradient>
<radialGradient id="paint51_radial_8_223" cx="0" cy="0" r="1" gradientUnits="userSpaceOnUse" gradientTransform="translate(958.616 134.774) rotate(179.904) scale(91.9903 65.19)">
<stop/>
<stop offset="0.03" stop-color="#0C0C0C"/>
<stop offset="0.19" stop-color="#4B4B4B"/>
<stop offset="0.34" stop-color="#828282"/>
<stop offset="0.5" stop-color="#AFAFAF"/>
<stop offset="0.64" stop-color="#D2D2D2"/>
<stop offset="0.78" stop-color="#EBEBEB"/>
<stop offset="0.9" stop-color="#FAFAFA"/>
<stop offset="1" stop-color="white"/>
</radialGradient>
<linearGradient id="paint52_linear_8_223" x1="555.775" y1="75.0049" x2="507.631" y2="-3.83268" gradientUnits="userSpaceOnUse">
<stop stop-color="#C2C2C2"/>
<stop offset="0.16" stop-color="#D2D2D2"/>
<stop offset="0.48" stop-color="#EBEBEB"/>
<stop offset="0.77" stop-color="#FAFAFA"/>
<stop offset="1" stop-color="white"/>
</linearGradient>
<linearGradient id="paint53_linear_8_223" x1="547.882" y1="72.1877" x2="511.023" y2="3.68212" gradientUnits="userSpaceOnUse">
<stop stop-color="#C2C2C2"/>
<stop offset="0.16" stop-color="#D2D2D2"/>
<stop offset="0.48" stop-color="#EBEBEB"/>
<stop offset="0.77" stop-color="#FAFAFA"/>
<stop offset="1" stop-color="white"/>
</linearGradient>
<clipPath id="clip0_8_223">
<rect width="1052" height="83" fill="white"/>
</clipPath>
</defs>
</svg>
