<?xml version="1.0" encoding="utf-8"?>
<!-- Generator: Adobe Illustrator 26.0.1, SVG Export Plug-In . SVG Version: 6.00 Build 0)  -->
<svg version="1.1" id="Layer_1" xmlns="http://www.w3.org/2000/svg" xmlns:xlink="http://www.w3.org/1999/xlink" x="0px" y="0px"
	 viewBox="0 0 5.18 4.84" style="enable-background:new 0 0 5.18 4.84;" xml:space="preserve">
<style type="text/css">
	.st0{fill:#81BF41;}
	.st1{fill:#80BF48;}
	.st2{fill:#009E53;}
	.st3{fill:url(#SVGID_1_);}
	.st4{fill:url(#SVGID_00000050662484217915054460000006551847742137779331_);}
	.st5{fill:url(#SVGID_00000051368102240577271030000017403716938537464966_);}
	.st6{fill:url(#SVGID_00000002353541478378106560000007856269708495997114_);}
	.st7{fill:url(#SVGID_00000160884541928856077900000008772246494820831882_);}
	.st8{fill:url(#SVGID_00000034805768168731308180000016548316435214044839_);}
	.st9{fill:url(#SVGID_00000138565215543119955960000015120346757123207861_);}
	.st10{fill:url(#SVGID_00000170986614731040755180000008777913030846391962_);}
	.st11{fill:url(#SVGID_00000027584491896730373550000002460116508129702058_);}
	.st12{fill:url(#SVGID_00000082341679176029755140000006827240348596822206_);}
	.st13{fill:#FFFFFF;}
	.st14{fill:url(#SVGID_00000016788928571595738530000002932973653676137135_);}
	.st15{fill:url(#SVGID_00000159428175514126069160000002658642052298289288_);}
	.st16{fill:url(#SVGID_00000102534954069396669000000008755610125653327262_);}
	.st17{fill:#00864A;}
	.st18{fill:#50B848;}
	.st19{fill:#00AEEF;}
	.st20{fill:url(#SVGID_00000099648324473237643300000006821732341046044318_);}
	.st21{fill:url(#SVGID_00000083781047285538660580000011665569190852410274_);}
	.st22{fill:url(#SVGID_00000027567826897929731650000009006960960748476550_);}
	.st23{fill:url(#SVGID_00000091013877538632470240000002281771511228725408_);}
	.st24{fill:url(#SVGID_00000117677040855045059970000002385575038577033398_);}
	.st25{fill:url(#SVGID_00000106145790139203298160000012367227598617000120_);}
	.st26{fill:url(#SVGID_00000006696491817219347230000011836716494591146942_);}
	.st27{fill:url(#SVGID_00000092429064533341879500000013471114573452849564_);}
	.st28{fill:url(#SVGID_00000081619105040477249280000016264011009474024881_);}
	.st29{fill:url(#SVGID_00000173153081673210054410000004129462496845192579_);}
	.st30{fill:url(#SVGID_00000035489104553612655120000010371472782335160225_);}
	.st31{fill:url(#SVGID_00000168795488705770661720000012065930137177450378_);}
	.st32{fill:url(#SVGID_00000155148636736458437720000006153404885353165704_);}
</style>
<g>
	<path class="st0" d="M2.56,3.65c0,0,0.88-0.37,1.1-1.09l0.01-1.38c0,0-0.42,0.15-0.84-0.11c0,0-0.09-0.03-0.23-0.03H2.53
		c-0.14,0-0.23,0.03-0.23,0.03C1.88,1.33,1.46,1.18,1.46,1.18l0.01,1.38c0.22,0.72,1.1,1.09,1.1,1.09H2.56z"/>
	<path class="st1" d="M4.47,2.64L4.32,2.73C3.81,3.08,3.97,3.27,3.97,3.27C4.19,3.15,4.4,3.24,4.4,3.24
		c0.12-0.1,0.24-0.16,0.34-0.21C4.73,3.04,4.29,3.01,4.47,2.64z"/>
	<rect x="2.33" y="0.91" class="st2" width="0.53" height="0.08"/>
	<linearGradient id="SVGID_1_" gradientUnits="userSpaceOnUse" x1="2.5918" y1="0.4629" x2="2.5918" y2="0.8834">
		<stop  offset="0" style="stop-color:#FDE92B"/>
		<stop  offset="1" style="stop-color:#E93E2E"/>
	</linearGradient>
	<path class="st3" d="M2.74,0.88c0,0,0.21-0.08,0.11-0.26c0,0-0.03-0.05-0.13-0.12c0,0-0.09-0.07-0.07-0.14c0,0-0.06,0.04-0.01,0.15
		c0,0,0.12,0.1,0.13,0.18c0,0,0.03,0.1-0.09,0.15l-0.02,0c0,0,0.1-0.11,0.04-0.21c0,0-0.17-0.18-0.08-0.28l0.07-0.06
		c0,0-0.11,0-0.19,0.12c0,0-0.05,0.1,0.04,0.2c0,0,0.06,0.08,0.08,0.11c0,0,0.04,0.1-0.02,0.15c0,0,0.01-0.13-0.05-0.19
		c0,0-0.12-0.11-0.07-0.21c0,0-0.09,0.04-0.09,0.13c0,0,0,0.08,0.1,0.17c0,0,0.07,0.05,0.07,0.1l-0.01,0c0,0-0.05-0.06-0.12-0.1
		c0,0-0.08-0.05-0.06-0.15c0,0-0.1,0.07-0.05,0.18c0,0,0.01,0.05,0.13,0.1L2.74,0.88z"/>
	<path class="st1" d="M2.76,2.62l0.09-1.55C2.72,1.05,2.53,1.02,2.34,1.06L2.4,2.62L2.76,2.62z"/>
	
		<linearGradient id="SVGID_00000018209662283973498880000016429233928547560095_" gradientUnits="userSpaceOnUse" x1="2.3373" y1="1.8263" x2="2.8487" y2="1.8263">
		<stop  offset="0" style="stop-color:#FDE92B"/>
		<stop  offset="1" style="stop-color:#00864A"/>
	</linearGradient>
	<path style="fill:url(#SVGID_00000018209662283973498880000016429233928547560095_);" d="M2.76,2.62l0.09-1.55
		C2.7,1.02,2.52,1.01,2.34,1.05L2.4,2.62L2.76,2.62z"/>
	<g>
		
			<linearGradient id="SVGID_00000051355782931952363080000017790713490827427984_" gradientUnits="userSpaceOnUse" x1="0.2814" y1="2.1384" x2="-0.1191" y2="2.5389">
			<stop  offset="0" style="stop-color:#FDE92B"/>
			<stop  offset="1" style="stop-color:#F6AF26"/>
		</linearGradient>
		<path style="fill:url(#SVGID_00000051355782931952363080000017790713490827427984_);" d="M1.13,1.29
			C1.13,1.29,1.13,1.29,1.13,1.29C1.13,1.29,1.13,1.29,1.13,1.29z"/>
		
			<linearGradient id="SVGID_00000164491714435915002130000013682665576437165984_" gradientUnits="userSpaceOnUse" x1="1.5014" y1="2.764" x2="1.2393" y2="3.0261">
			<stop  offset="0" style="stop-color:#FDE92B"/>
			<stop  offset="1" style="stop-color:#F6AF26"/>
		</linearGradient>
		<path style="fill:url(#SVGID_00000164491714435915002130000013682665576437165984_);" d="M2.55,3.71C2.46,3.7,2.38,3.66,2.36,3.65
			C2.19,3.6,2.08,3.56,2.07,3.51C2.03,3.36,1.91,3.31,1.91,3.31l-0.07,0c0,0-0.07-0.05-0.08-0.08C1.73,3.17,1.67,3.17,1.67,3.17
			L1.65,3.13L1.6,3.06L1.55,3.01L1.53,2.96c0,0-0.06-0.06-0.06-0.09c0-0.09-0.04-0.1-0.04-0.1S1.38,2.77,1.39,2.72
			c0-0.08-0.07-0.11-0.07-0.11C1.3,2.45,1.25,2.42,1.25,2.42c0.03-0.09-0.03-0.21-0.03-0.21c0.02-0.18-0.05-0.23-0.05-0.23
			c0.05-0.1,0.02-0.24,0.02-0.24c0.06-0.08,0.06-0.23,0.06-0.23c0.07-0.06,0.07-0.17,0.06-0.22h0c0.08-0.07,0.08-0.21,0.08-0.21
			c0.07-0.02,0.18-0.12,0.16-0.19c-0.04-0.1-0.07,0-0.07,0s0.01,0.03,0,0.06c-0.02,0.07-0.1,0.1-0.09,0.08c0.03-0.06,0-0.11,0-0.11
			S1.36,0.89,1.33,0.88C1.27,0.86,1.28,0.94,1.28,0.94s0.03,0,0.04,0.04c0.01,0.06-0.04,0.1-0.04,0.1L1.25,1.09
			c0,0,0,0.06-0.02,0.05C1.14,1.12,1.13,1.19,1.16,1.2C1.2,1.21,1.2,1.3,1.19,1.32C1.16,1.35,1.13,1.3,1.13,1.29
			c0,0.01,0.02,0.04,0,0.04C1.03,1.32,1.09,1.46,1.1,1.44c0.01-0.02,0.05-0.03,0.05,0c0.01,0.12-0.06,0.11-0.06,0.11
			s0-0.04-0.01-0.07c-0.01-0.03-0.03,0.1-0.03,0.1c-0.11,0.01-0.06,0.2-0.06,0.2S1.02,1.84,1,1.86C0.92,1.93,1,1.99,1,1.95
			c0.01-0.03,0.04-0.05,0.05-0.03c0.07,0.12,0.02,0.16,0,0.13C0.99,1.94,0.99,2.03,0.99,2.03s0.06,0.1,0.02,0.11
			C0.95,2.14,0.97,2.2,0.99,2.22c0.1,0.09,0.09,0.16,0.06,0.16C0.93,2.4,1.01,2.44,1.03,2.48c0.06,0.12,0.05,0.11,0.02,0.13
			C0.98,2.69,1.08,2.67,1.09,2.69c0.02,0.02,0.02,0.03,0.02,0.06c0.01,0.12,0.08,0.16,0.1,0.17C1.24,2.94,1.25,2.97,1.24,3
			C1.21,3.07,1.28,3.1,1.3,3.07c0.02-0.02,0.03,0.05,0.03,0.05l0.01,0.07C1.42,3.21,1.5,3.25,1.49,3.28
			C1.47,3.34,1.51,3.35,1.55,3.36c0.1,0.02,0.12,0.06,0.12,0.06L1.63,3.45l0.14,0.11c0,0,0.13,0,0.16,0.01
			C2.4,3.8,2.51,3.8,2.53,3.8C2.62,3.79,2.55,3.71,2.55,3.71z M1.45,2.86V3c0,0-0.03-0.03-0.09-0.02c0,0-0.01-0.11,0.01-0.12
			C1.39,2.84,1.39,2.83,1.45,2.86z M1.31,2.69C1.33,2.76,1.32,2.71,1.35,2.7c0.03-0.01,0.03,0.1,0.01,0.13
			C1.33,2.86,1.3,2.8,1.3,2.8S1.26,2.81,1.27,2.77C1.28,2.69,1.31,2.69,1.31,2.69z M1.25,2.66C1.24,2.68,1.17,2.64,1.17,2.6
			C1.16,2.55,1.22,2.51,1.22,2.51C1.3,2.49,1.27,2.64,1.25,2.66z M1.2,2.4C1.19,2.49,1.14,2.47,1.16,2.44c0.03-0.06,0-0.07,0-0.07
			S1.12,2.43,1.12,2.4c0-0.11,0.02-0.11,0.02-0.11C1.24,2.28,1.21,2.36,1.2,2.4z M1.19,2.06c0,0,0,0.11-0.02,0.15
			C1.16,2.24,1.14,2.25,1.14,2.15c0,0-0.05,0.01-0.05,0.01s0-0.09,0.02-0.1L1.19,2.06z M1.28,1.12c0,0,0.07,0,0.05,0.06
			C1.32,1.22,1.28,1.33,1.28,1.22c0-0.03-0.03-0.03-0.03-0.03S1.27,1.13,1.28,1.12z M1.23,1.32c0,0,0.07-0.01,0.05,0.1
			C1.26,1.48,1.24,1.5,1.23,1.48C1.22,1.45,1.18,1.42,1.18,1.42S1.17,1.34,1.23,1.32z M1.16,1.56c0,0,0.08-0.02,0.04,0.11
			c-0.01,0.03-0.06,0.12-0.07,0c0-0.04-0.02-0.01-0.02-0.01S1.08,1.6,1.16,1.56z M1.03,1.82c0,0-0.07-0.12,0.02-0.17
			c0,0,0.04,0.03,0.04,0.11c0.01,0,0.01-0.01,0.01-0.01S1.09,1.81,1.09,1.77c0,0,0-0.01,0-0.01C1.07,1.78,1.03,1.8,1.03,1.82z
			 M1.08,1.91c0,0-0.02-0.06,0.05-0.13c0,0,0.1,0.03,0.02,0.17c-0.02,0.03-0.03,0.02-0.03,0C1.11,1.93,1.08,1.91,1.08,1.91z
			 M1.03,2.19c0,0,0.08,0.01,0.06,0.09C1.09,2.32,1.01,2.25,1.03,2.19z M1.07,2.42c0,0,0.11,0.06,0.06,0.11
			C1.1,2.57,1.05,2.56,1.07,2.42z M1.12,2.72C1.11,2.7,1.09,2.65,1.14,2.65c0,0,0.16,0.05,0.07,0.1C1.17,2.78,1.16,2.79,1.12,2.72z
			 M1.28,2.98c0,0-0.07-0.06-0.08-0.11c0-0.04,0.01-0.04,0.01-0.04s0.1,0.03,0.09,0.08C1.3,2.94,1.28,2.98,1.28,2.98z M1.39,3.13
			c0,0-0.06-0.01-0.08-0.09C1.3,2.99,1.33,3.01,1.33,3.01s0.08,0.02,0.07,0.08C1.4,3.13,1.39,3.13,1.39,3.13z M1.5,3.23
			c0,0-0.09-0.02-0.06-0.06c0,0,0.09,0.01,0.09,0.07C1.53,3.27,1.5,3.23,1.5,3.23z M1.54,3.16c0,0-0.07-0.04-0.09-0.02
			c0,0-0.02-0.1,0-0.11l0.09,0L1.54,3.16z M1.6,3.14C1.7,3.18,1.66,3.28,1.66,3.28C1.66,3.27,1.6,3.26,1.6,3.26s-0.03,0-0.03-0.03
			C1.56,3.16,1.6,3.14,1.6,3.14z M1.68,3.39c0,0-0.14-0.05-0.11-0.08c0,0,0.11-0.01,0.11,0.04C1.69,3.38,1.68,3.39,1.68,3.39z
			 M1.73,3.26c0,0,0.06,0.02,0.09,0.09c0.01,0.04-0.01,0.07-0.06-0.01C1.76,3.32,1.75,3.38,1.75,3.38S1.68,3.29,1.73,3.26z
			 M1.79,3.53c0-0.02,0.01-0.06-0.06-0.05c-0.02,0,0.01-0.05,0.01-0.05s0.09-0.01,0.11,0.03c0.02,0.04,0.03,0.09,0.03,0.09
			S1.8,3.55,1.79,3.53z M2.09,3.62c0,0-0.13-0.05-0.15-0.08C1.87,3.41,1.92,3.35,1.92,3.35C2,3.4,2.03,3.53,2.03,3.53L2.1,3.61
			L2.09,3.62z"/>
		
			<linearGradient id="SVGID_00000072984764285182560730000016985294775700934847_" gradientUnits="userSpaceOnUse" x1="2.1084" y1="3.3437" x2="1.8313" y2="3.6208">
			<stop  offset="0" style="stop-color:#FDE92B"/>
			<stop  offset="1" style="stop-color:#F6AF26"/>
		</linearGradient>
		<path style="fill:url(#SVGID_00000072984764285182560730000016985294775700934847_);" d="M1.93,3.43c0,0,0.02,0.1,0.06,0.11
			C2.02,3.55,1.97,3.45,1.93,3.43z"/>
	</g>
	
		<linearGradient id="SVGID_00000049196446961878410360000001008316316849455762_" gradientUnits="userSpaceOnUse" x1="0.7334" y1="1.6968" x2="0.542" y2="1.8882">
		<stop  offset="0" style="stop-color:#FDE92B"/>
		<stop  offset="1" style="stop-color:#F6AF26"/>
	</linearGradient>
	<path style="fill:url(#SVGID_00000049196446961878410360000001008316316849455762_);" d="M1.14,1.29C1.14,1.29,1.14,1.29,1.14,1.29
		C1.14,1.29,1.14,1.29,1.14,1.29z"/>
	
		<linearGradient id="SVGID_00000011023261538412934010000014747174605296016528_" gradientUnits="userSpaceOnUse" x1="2.117" y1="3.3452" x2="1.8405" y2="3.6217">
		<stop  offset="0" style="stop-color:#FDE92B"/>
		<stop  offset="1" style="stop-color:#F6AF26"/>
	</linearGradient>
	<path style="fill:url(#SVGID_00000011023261538412934010000014747174605296016528_);" d="M1.94,3.43c0,0,0.02,0.1,0.06,0.11
		C2.03,3.55,1.97,3.45,1.94,3.43z"/>
	<g>
		
			<linearGradient id="SVGID_00000067234779789056412220000012731800933582448519_" gradientUnits="userSpaceOnUse" x1="-706.0302" y1="2.2694" x2="-706.4926" y2="2.7317" gradientTransform="matrix(-1 0 0 1 -701.0134 0)">
			<stop  offset="0" style="stop-color:#FDE92B"/>
			<stop  offset="1" style="stop-color:#F6AF26"/>
		</linearGradient>
		<path style="fill:url(#SVGID_00000067234779789056412220000012731800933582448519_);" d="M4.04,1.29
			C4.04,1.29,4.04,1.29,4.04,1.29C4.04,1.29,4.04,1.29,4.04,1.29z"/>
		
			<linearGradient id="SVGID_00000163752340726143377930000010131714226318017184_" gradientUnits="userSpaceOnUse" x1="-704.6792" y1="2.764" x2="-704.9412" y2="3.026" gradientTransform="matrix(-1 0 0 1 -701.0134 0)">
			<stop  offset="0" style="stop-color:#FDE92B"/>
			<stop  offset="1" style="stop-color:#F6AF26"/>
		</linearGradient>
		<path style="fill:url(#SVGID_00000163752340726143377930000010131714226318017184_);" d="M2.63,3.8c0.02,0,0.13,0,0.62-0.22
			c0.02-0.01,0.16-0.01,0.16-0.01l0.14-0.11L3.5,3.42c0,0,0.02-0.04,0.12-0.06C3.66,3.35,3.7,3.34,3.68,3.28
			C3.67,3.25,3.75,3.21,3.83,3.19l0.01-0.07c0,0,0.01-0.07,0.03-0.05C3.88,3.1,3.96,3.07,3.93,3c-0.01-0.03,0-0.06,0.03-0.08
			c0.02-0.01,0.09-0.05,0.1-0.17c0-0.03,0-0.04,0.02-0.06c0.01-0.02,0.11,0,0.03-0.07C4.09,2.59,4.08,2.61,4.14,2.48
			c0.02-0.04,0.1-0.09-0.01-0.1c-0.03,0-0.05-0.07,0.06-0.16C4.2,2.2,4.22,2.14,4.15,2.13c-0.03,0,0.02-0.11,0.02-0.11
			s0-0.08-0.06,0.03c-0.01,0.03-0.06-0.01,0-0.13c0.01-0.02,0.04-0.01,0.05,0.03c0.01,0.03,0.08-0.02,0-0.1
			C4.15,1.84,4.19,1.79,4.19,1.79s0.04-0.19-0.06-0.2c0,0-0.02-0.14-0.03-0.1C4.08,1.52,4.08,1.56,4.08,1.56S4.01,1.57,4.02,1.45
			c0-0.03,0.04-0.02,0.05,0c0.01,0.02,0.07-0.12-0.03-0.11c-0.02,0-0.01-0.04,0-0.04c0,0.01-0.03,0.06-0.06,0.03
			C3.97,1.3,3.97,1.21,4,1.2c0.03-0.01,0.02-0.07-0.06-0.05C3.92,1.15,3.92,1.09,3.92,1.09L3.89,1.08c0,0-0.05-0.04-0.04-0.1
			c0.01-0.03,0.04-0.04,0.04-0.04S3.9,0.86,3.84,0.88C3.81,0.89,3.78,0.92,3.78,0.92s-0.03,0.05,0,0.11
			c0.01,0.02-0.07-0.01-0.09-0.08c-0.01-0.03,0-0.06,0-0.06s-0.03-0.1-0.07,0C3.6,0.96,3.71,1.06,3.78,1.08c0,0-0.01,0.15,0.08,0.21
			l0,0C3.85,1.34,3.85,1.45,3.92,1.51c0,0,0,0.15,0.06,0.23c0,0-0.04,0.13,0.01,0.24c0,0-0.07,0.05-0.05,0.23
			c0,0-0.07,0.12-0.03,0.21c0,0-0.05,0.03-0.06,0.19c0,0-0.07,0.03-0.07,0.11c0,0.05-0.05,0.05-0.05,0.05S3.7,2.78,3.69,2.87
			c0,0.03-0.06,0.09-0.06,0.09L3.61,3.01L3.57,3.06L3.52,3.13L3.49,3.17c0,0-0.06,0-0.08,0.06C3.4,3.26,3.33,3.31,3.33,3.31l-0.07,0
			c0,0-0.12,0.05-0.16,0.21C3.08,3.56,2.97,3.6,2.81,3.65C2.79,3.66,2.7,3.7,2.62,3.71C2.62,3.71,2.54,3.79,2.63,3.8z M3.8,2.85
			c0.02,0.01,0.01,0.12,0.01,0.12C3.75,2.97,3.72,3,3.72,3V2.86C3.78,2.83,3.78,2.84,3.8,2.85z M3.9,2.77
			C3.91,2.81,3.87,2.8,3.87,2.8S3.83,2.86,3.81,2.83C3.79,2.8,3.78,2.69,3.82,2.7c0.03,0.01,0.02,0.06,0.04-0.01
			C3.86,2.69,3.89,2.69,3.9,2.77z M3.95,2.51c0,0,0.06,0.04,0.05,0.09C3.99,2.64,3.93,2.68,3.91,2.66C3.89,2.64,3.86,2.49,3.95,2.51
			z M4.02,2.29c0,0,0.03,0,0.02,0.11C4.04,2.43,4,2.37,4,2.37s-0.03,0.01,0,0.07C4.02,2.47,3.98,2.49,3.97,2.4
			C3.96,2.36,3.93,2.28,4.02,2.29z M4.06,2.06c0.02,0.01,0.02,0.1,0.02,0.1S4.03,2.15,4.02,2.15c0,0.1-0.01,0.09-0.03,0.06
			C3.97,2.17,3.97,2.06,3.97,2.06L4.06,2.06z M3.92,1.2c0,0-0.03,0-0.03,0.03c0,0.1-0.04,0-0.06-0.05C3.81,1.12,3.88,1.12,3.88,1.12
			C3.9,1.13,3.92,1.2,3.92,1.2z M3.98,1.42c0,0-0.04,0.03-0.05,0.06c-0.01,0.03-0.04,0-0.05-0.05c-0.02-0.11,0.05-0.1,0.05-0.1
			C4,1.34,3.98,1.42,3.98,1.42z M4.07,1.66c0,0-0.02-0.03-0.02,0.01c-0.01,0.12-0.06,0.02-0.07,0C3.93,1.54,4.01,1.56,4.01,1.56
			C4.08,1.6,4.07,1.66,4.07,1.66z M4.08,1.76C4.08,1.77,4.08,1.77,4.08,1.76c0,0.04-0.01-0.01-0.01-0.01S4.07,1.76,4.08,1.76
			c0-0.09,0.04-0.11,0.04-0.11C4.2,1.71,4.13,1.82,4.13,1.82C4.14,1.8,4.1,1.78,4.08,1.76z M4.05,1.94c0,0.02-0.01,0.03-0.03,0
			C3.94,1.81,4.05,1.78,4.05,1.78c0.07,0.07,0.05,0.13,0.05,0.13S4.05,1.93,4.05,1.94z M4.07,2.29C4.06,2.21,4.14,2.19,4.14,2.19
			C4.16,2.25,4.08,2.32,4.07,2.29z M4.03,2.53C3.99,2.48,4.09,2.42,4.09,2.42C4.11,2.56,4.07,2.57,4.03,2.53z M3.96,2.75
			c-0.08-0.06,0.07-0.1,0.07-0.1c0.05,0,0.03,0.05,0.02,0.07C4.01,2.79,4,2.78,3.96,2.75z M3.86,2.91c0-0.05,0.09-0.08,0.09-0.08
			s0.01,0.01,0.01,0.04c0,0.05-0.08,0.11-0.08,0.11S3.86,2.94,3.86,2.91z M3.76,3.08c0-0.05,0.07-0.08,0.07-0.08
			s0.04-0.01,0.03,0.03C3.84,3.11,3.78,3.13,3.78,3.13S3.76,3.13,3.76,3.08z M3.63,3.24c0-0.06,0.09-0.07,0.09-0.07
			c0.03,0.04-0.06,0.06-0.06,0.06S3.63,3.27,3.63,3.24z M3.63,3.02l0.09,0c0.02,0.01,0,0.11,0,0.11C3.7,3.11,3.63,3.16,3.63,3.16
			L3.63,3.02z M3.6,3.23c0,0.03-0.03,0.03-0.03,0.03S3.51,3.27,3.5,3.28c0,0-0.03-0.1,0.06-0.14C3.57,3.14,3.61,3.16,3.6,3.23z
			 M3.49,3.34C3.49,3.3,3.6,3.31,3.6,3.31c0.03,0.04-0.11,0.08-0.11,0.08S3.48,3.38,3.49,3.34z M3.42,3.38c0,0-0.01-0.05-0.02-0.03
			C3.35,3.43,3.32,3.39,3.34,3.36c0.03-0.07,0.09-0.09,0.09-0.09C3.49,3.29,3.42,3.38,3.42,3.38z M3.28,3.54
			c0,0,0.02-0.05,0.03-0.09c0.02-0.04,0.11-0.03,0.11-0.03s0.03,0.05,0.01,0.05C3.36,3.47,3.38,3.51,3.38,3.53
			C3.37,3.55,3.28,3.54,3.28,3.54z M3.07,3.61l0.06-0.08c0,0,0.03-0.13,0.11-0.18c0,0,0.05,0.05-0.02,0.18
			C3.21,3.57,3.08,3.62,3.08,3.62L3.07,3.61z"/>
		
			<linearGradient id="SVGID_00000096767134394063578600000017586846308932847780_" gradientUnits="userSpaceOnUse" x1="-704.0728" y1="3.3442" x2="-704.3488" y2="3.6203" gradientTransform="matrix(-1 0 0 1 -701.0134 0)">
			<stop  offset="0" style="stop-color:#FDE92B"/>
			<stop  offset="1" style="stop-color:#F6AF26"/>
		</linearGradient>
		<path style="fill:url(#SVGID_00000096767134394063578600000017586846308932847780_);" d="M3.24,3.43c0,0-0.02,0.1-0.06,0.11
			C3.14,3.55,3.2,3.45,3.24,3.43z"/>
	</g>
	<g>
		<g>
			<polygon class="st13" points="3.16,1.78 3.24,1.96 3.23,2.23 3.16,2.05 			"/>
			<polygon class="st13" points="3.35,1.79 3.35,2.04 3.28,2.23 3.27,1.97 			"/>
			<polygon class="st13" points="3.1,2.09 3.1,1.92 3.03,1.86 3.03,2.14 3.21,2.24 			"/>
			<polygon class="st13" points="3.31,2.24 3.41,2.09 3.4,1.91 3.46,1.87 3.46,2.14 			"/>
			<polygon class="st13" points="2.99,1.98 2.93,1.98 2.93,2.27 3.19,2.27 2.99,2.18 			"/>
			<polygon class="st13" points="3.33,2.27 3.51,2.2 3.51,1.99 3.57,1.99 3.57,2.27 			"/>
		</g>
	</g>
	<g>
		<g>
			<g>
				<g>
					<polygon class="st13" points="1.57,1.95 1.57,2.02 1.57,2.02 1.57,1.95 1.57,1.95 					"/>
					<path class="st13" d="M1.58,2.02C1.58,2.03,1.57,2.03,1.58,2.02c-0.01,0.01-0.02,0-0.02,0C1.56,2.02,1.56,2.01,1.58,2.02
						C1.57,2.01,1.58,2.02,1.58,2.02L1.58,2.02z"/>
					<polygon class="st13" points="1.57,2.03 1.57,2.03 1.55,2.07 1.55,2.07 1.55,2.07 1.56,2.07 1.56,2.07 1.56,2.08 1.56,2.08 
						1.56,2.08 1.57,2.08 1.57,2.08 1.57,2.08 1.57,2.08 1.58,2.08 1.58,2.07 1.58,2.07 1.58,2.07 1.58,2.07 1.57,2.03 					"/>
				</g>
				<polygon class="st13" points="1.49,1.95 1.86,2 2.25,1.92 1.86,1.87 				"/>
				<path class="st13" d="M1.68,1.99l-0.02,0.1c0,0,0.15,0.03,0.38,0L2.02,1.98L1.85,2.02L1.68,1.99z"/>
			</g>
		</g>
		<path class="st13" d="M2.26,2.01c0,0-0.05,0.03,0.05,0.09C2.31,2.1,2.24,2.04,2.26,2.01z"/>
		<path class="st13" d="M2.26,2.03c0,0,0-0.05,0.05,0.07C2.31,2.09,2.27,2.02,2.26,2.03z"/>
		<path class="st13" d="M1.72,2.25c0,0,0.05,0.05,0.02,0.08C1.74,2.33,1.75,2.31,1.72,2.25z"/>
		<path class="st13" d="M2.13,2.18c0,0,0.02-0.01,0.01-0.03C2.11,2.16,2.09,2.17,2.07,2.18C2.09,2.18,2.12,2.19,2.13,2.18z"/>
		<path class="st13" d="M1.96,2.21c-0.03,0-0.04-0.01-0.05-0.02c-0.1,0.04-0.18,0.07-0.18,0.07C1.78,2.3,1.75,2.33,1.75,2.33
			C1.84,2.28,1.92,2.24,2,2.21C2,2.19,2.01,2.18,2.01,2.18C1.99,2.2,1.96,2.21,1.96,2.21z"/>
		<path class="st13" d="M2.02,2.15C2.02,2.15,2.02,2.15,2.02,2.15C2.03,2.15,2.03,2.15,2.02,2.15c0.01,0,0.1-0.07,0.12,0
			c0.1-0.03,0.16-0.04,0.16-0.04C2.23,2.05,2.24,2.03,2.25,2.02C2.19,2.06,2.09,2.1,2.01,2.14C2.01,2.15,2.02,2.15,2.02,2.15
			C2.02,2.15,2.02,2.15,2.02,2.15z"/>
		<polygon class="st13" points="2.04,2.19 2.04,2.19 2.04,2.18 		"/>
		<path class="st13" d="M2.25,2.02C2.25,2.01,2.25,2.01,2.25,2.02C2.26,2.01,2.25,2.01,2.25,2.02z"/>
		<path class="st13" d="M1.92,2.15c-0.02,0.01,0,0.03,0,0.03c0.02-0.01,0.05-0.02,0.07-0.03C1.97,2.14,1.95,2.14,1.95,2.14
			C1.93,2.13,1.92,2.15,1.92,2.15z"/>
		<path class="st13" d="M1.98,2.24c0,0-0.04,0.09-0.07,0.12l0.04,0c0,0,0.02-0.02,0.05-0.12c0,0,0,0,0.01-0.03
			C2.01,2.2,2,2.2,2,2.21C1.99,2.22,1.98,2.24,1.98,2.24z"/>
		<path class="st13" d="M1.92,2.15c0,0,0.01-0.01,0.03-0.01c0,0,0.02,0.01,0.04,0.01c0.01,0,0.01-0.01,0.02-0.01
			C1.98,2.12,1.92,2.09,1.9,2.16c0,0,0,0.01,0,0.03c0,0,0.01,0,0.01,0C1.91,2.18,1.9,2.16,1.92,2.15z"/>
		<path class="st13" d="M2.02,2.18V2.15c0,0-0.01,0-0.01,0c0,0,0,0-0.01-0.01c-0.01,0-0.01,0-0.02,0.01c0.01,0,0.02,0.01,0.02,0.01
			v0.01c0,0-0.08,0.03-0.09,0.01c0,0,0,0,0,0c0,0-0.01,0-0.01,0C1.91,2.2,1.93,2.21,1.96,2.21c0,0,0.03-0.01,0.05-0.02c0,0,0,0,0,0
			c0,0,0,0,0,0c0,0,0,0.01-0.01,0.02C2,2.2,2.01,2.2,2.01,2.2C2.02,2.19,2.02,2.18,2.02,2.18L2.02,2.18z"/>
		<path class="st13" d="M2.14,2.15C2.14,2.15,2.14,2.15,2.14,2.15c0,0.02-0.01,0.03-0.01,0.03c-0.01,0.01-0.03,0-0.06,0
			c-0.01,0-0.02,0.01-0.02,0.01C2.06,2.2,2.09,2.21,2.09,2.21C2.15,2.21,2.14,2.16,2.14,2.15C2.14,2.15,2.14,2.15,2.14,2.15z"/>
		<path class="st13" d="M2.04,2.23C2.08,2.33,2.1,2.35,2.1,2.35l0.04,0C2.11,2.33,2.06,2.24,2.06,2.24c0,0-0.02-0.04-0.02-0.05
			c0,0-0.01,0-0.01,0.01C2.04,2.23,2.04,2.23,2.04,2.23z"/>
		<path class="st13" d="M2.04,2.17V2.16C2.06,2.15,2.1,2.14,2.1,2.14c0.02,0,0.03,0.01,0.03,0.01c0,0,0.01,0.01,0.01,0.01
			c0,0,0,0,0.01,0c-0.02-0.08-0.11,0-0.11,0c0,0,0,0-0.01,0v0.03L2.04,2.17c-0.01,0.01-0.01,0.02,0,0.02c0,0,0.01,0,0.01-0.01
			c0,0,0,0,0,0c0,0,0,0,0,0c0,0,0,0,0,0c0,0,0,0,0,0c0.01,0,0.02-0.01,0.02-0.01C2.05,2.17,2.04,2.17,2.04,2.17z"/>
		<polygon class="st13" points="2.02,2.18 2.02,2.18 2.02,2.18 2.02,2.15 2.02,2.15 		"/>
	</g>
	<g>
		<g>
			
				<linearGradient id="SVGID_00000163072806577228070960000006268320077314693298_" gradientUnits="userSpaceOnUse" x1="2.3986" y1="3.1303" x2="2.9773" y2="3.1303">
				<stop  offset="0" style="stop-color:#FDE92B"/>
				<stop  offset="1" style="stop-color:#E93E2E"/>
			</linearGradient>
			<path style="fill:url(#SVGID_00000163072806577228070960000006268320077314693298_);" d="M2.75,3.06c0,0-0.03-0.35-0.03-0.39
				V2.65l-0.15,0l0.01,0.95l0.03-0.12c0,0,0.08-0.19,0.14-0.23c0,0,0.02-0.01,0.03-0.03C2.77,3.23,2.78,3.17,2.75,3.06z M2.43,2.65
				v0.02c0,0.04-0.03,0.39-0.03,0.39C2.38,3.17,2.38,3.23,2.38,3.23c0.01,0.01,0.03,0.03,0.03,0.03C2.47,3.3,2.54,3.49,2.54,3.49
				l0.03,0.12l0-0.55l0-0.41L2.43,2.65z"/>
		</g>
	</g>
	
		<linearGradient id="SVGID_00000083085410762323405700000012742516213777961642_" gradientUnits="userSpaceOnUse" x1="2.5691" y1="2.8576" x2="2.5774" y2="2.8576">
		<stop  offset="0" style="stop-color:#FDE92B"/>
		<stop  offset="1" style="stop-color:#00864A"/>
	</linearGradient>
	<polygon style="fill:url(#SVGID_00000083085410762323405700000012742516213777961642_);" points="2.57,3.06 2.58,3.06 2.58,2.65 
		2.58,2.65 2.57,2.65 	"/>
	
		<linearGradient id="SVGID_00000152981492478126515080000009488792523882532779_" gradientUnits="userSpaceOnUse" x1="2.5777" y1="2.6372" x2="2.5777" y2="2.6525">
		<stop  offset="0" style="stop-color:#FDE92B"/>
		<stop  offset="1" style="stop-color:#00864A"/>
	</linearGradient>
	
		<rect x="2.37" y="2.64" style="fill:url(#SVGID_00000152981492478126515080000009488792523882532779_);" width="0.42" height="0.02"/>
	<path class="st1" d="M2.62,3.04c0,0.03-0.02,0.05-0.05,0.05c-0.03,0-0.05-0.02-0.05-0.05c0-0.03,0.02-0.05,0.05-0.05
		C2.6,2.99,2.62,3.01,2.62,3.04z"/>
	<path class="st2" d="M3.96,3.25l0.12,0.41c0,0,0.43-0.15,0.34-0.41C4.42,3.25,4.35,3.12,3.96,3.25z"/>
	<path class="st1" d="M4.43,3.3c0,0-0.05,0.52,0.25,0.59c0,0,0.05,0.19-0.73,0.38c0,0-0.84,0.23-1.39,0.19V3.88
		C2.56,3.88,4.36,3.89,4.43,3.3z"/>
	<path class="st1" d="M0.67,2.64l0.15,0.09c0.51,0.35,0.35,0.54,0.35,0.54C0.95,3.15,0.74,3.24,0.74,3.24
		C0.62,3.15,0.5,3.08,0.41,3.04C0.41,3.04,0.85,3.01,0.67,2.64z"/>
	<path class="st2" d="M1.18,3.25L1.07,3.66c0,0-0.43-0.15-0.34-0.41C0.73,3.25,0.81,3.12,1.18,3.25z"/>
	<path class="st1" d="M0.72,3.3c0,0,0.05,0.52-0.25,0.59c0,0-0.05,0.19,0.73,0.38c0,0,0.84,0.23,1.39,0.19V3.88
		C2.59,3.88,0.8,3.89,0.72,3.3z"/>
	<g>
		<g>
			<path class="st17" d="M1.04,3.98l0.02-0.06L1.2,3.97c0,0,0,0,0,0.01c0,0,0,0.01,0,0.01c-0.01,0.05-0.04,0.08-0.07,0.1
				C1.09,4.1,1.05,4.1,1.01,4.09C0.99,4.08,0.97,4.07,0.95,4.06C0.94,4.05,0.92,4.04,0.92,4.02C0.91,4,0.9,3.98,0.9,3.96
				c0-0.02,0-0.04,0.01-0.06c0.01-0.02,0.01-0.04,0.03-0.05c0.01-0.02,0.03-0.03,0.04-0.04C0.99,3.81,1.01,3.8,1.03,3.8
				c0.02,0,0.04,0,0.06,0.01c0.03,0.01,0.05,0.02,0.07,0.04C1.18,3.86,1.19,3.88,1.2,3.9L1.12,3.92C1.12,3.9,1.11,3.89,1.1,3.89
				C1.1,3.88,1.09,3.87,1.07,3.87c-0.02-0.01-0.04,0-0.06,0.01C1,3.89,0.99,3.9,0.98,3.93C0.97,3.96,0.97,3.98,0.98,4
				C0.99,4.01,1,4.03,1.03,4.03c0.02,0.01,0.04,0.01,0.05,0C1.09,4.03,1.1,4.02,1.11,4L1.04,3.98z"/>
			<path class="st17" d="M1.2,4.13l0.05-0.19l0.06,0.02L1.3,4.01c0.01-0.01,0.02-0.02,0.04-0.03c0.01-0.01,0.03-0.01,0.04,0
				c0,0,0.01,0,0.01,0c0,0,0.01,0,0.01,0L1.38,4.04c0,0-0.01,0-0.01-0.01c0,0-0.01,0-0.01,0c-0.02,0-0.03,0-0.04,0.01
				C1.3,4.04,1.3,4.05,1.29,4.07L1.27,4.15L1.2,4.13z"/>
			<path class="st17" d="M1.6,4.14L1.46,4.11c0,0.01,0,0.03,0,0.04c0.01,0.01,0.02,0.02,0.03,0.02c0.01,0,0.02,0,0.03,0
				c0.01,0,0.01-0.01,0.02-0.01l0.05,0.03C1.58,4.19,1.56,4.2,1.54,4.2c-0.02,0-0.04,0-0.06,0C1.45,4.2,1.43,4.18,1.41,4.16
				C1.39,4.14,1.39,4.11,1.39,4.08C1.4,4.05,1.42,4.03,1.44,4.01C1.47,4,1.49,4,1.52,4c0.03,0.01,0.06,0.02,0.07,0.05
				C1.61,4.07,1.61,4.1,1.6,4.14L1.6,4.14z M1.54,4.08c0-0.01,0-0.02-0.01-0.03C1.53,4.05,1.52,4.04,1.51,4.04
				c-0.01,0-0.02,0-0.03,0c-0.01,0-0.01,0.01-0.02,0.02L1.54,4.08z"/>
			<path class="st17" d="M1.85,4.18L1.7,4.15c0,0.01,0,0.03,0.01,0.04C1.71,4.2,1.72,4.2,1.74,4.21c0.01,0,0.02,0,0.03,0
				c0.01,0,0.01-0.01,0.02-0.01l0.05,0.03C1.82,4.23,1.81,4.24,1.79,4.25c-0.02,0.01-0.04,0.01-0.06,0C1.7,4.24,1.67,4.23,1.66,4.21
				C1.64,4.19,1.63,4.16,1.64,4.13C1.64,4.1,1.66,4.08,1.68,4.06c0.02-0.02,0.05-0.02,0.08-0.02C1.8,4.05,1.82,4.06,1.84,4.09
				C1.85,4.11,1.86,4.14,1.85,4.18L1.85,4.18z M1.79,4.13c0-0.01,0-0.02-0.01-0.03C1.77,4.09,1.77,4.09,1.76,4.09
				c-0.01,0-0.02,0-0.03,0c-0.01,0-0.01,0.01-0.02,0.02L1.79,4.13z"/>
			<path class="st17" d="M1.88,4.27l0.02-0.19l0.06,0.01L1.96,4.12C1.98,4.11,1.99,4.1,2,4.09c0.01-0.01,0.03-0.01,0.04-0.01
				c0.01,0,0.02,0.01,0.03,0.01C2.09,4.1,2.1,4.11,2.1,4.11c0,0.01,0.01,0.01,0.01,0.02c0,0.01,0,0.02,0,0.04L2.09,4.29L2.02,4.28
				l0.01-0.1c0-0.01,0-0.03,0-0.03c0-0.01-0.01-0.01-0.02-0.01c-0.01,0-0.03,0-0.03,0.01C1.97,4.15,1.96,4.17,1.96,4.19L1.95,4.27
				L1.88,4.27z"/>
			<path class="st17" d="M2.3,4.03l0.08,0L2.37,4.17c0,0.02,0,0.03,0,0.04c0,0.01,0,0.02,0,0.02c0,0.01,0.01,0.01,0.02,0.02
				c0.01,0,0.02,0.01,0.03,0.01c0.01,0,0.02,0,0.03,0c0.01,0,0.01-0.01,0.02-0.02c0-0.01,0-0.01,0.01-0.02c0-0.01,0-0.02,0-0.04
				l0-0.02l0.01-0.12l0.08,0L2.55,4.19c0,0.03,0,0.05-0.01,0.07c0,0.01-0.01,0.03-0.02,0.04C2.51,4.3,2.49,4.31,2.47,4.31
				C2.46,4.32,2.44,4.32,2.41,4.32c-0.02,0-0.05,0-0.06-0.01C2.33,4.3,2.32,4.29,2.31,4.28C2.3,4.27,2.3,4.26,2.29,4.24
				c0-0.01,0-0.04,0-0.07l0-0.03L2.3,4.03z"/>
			<path class="st17" d="M2.6,4.32l0-0.19l0.06,0l0,0.04C2.68,4.15,2.69,4.14,2.7,4.13c0.01-0.01,0.03-0.01,0.04-0.01
				c0.01,0,0.02,0,0.03,0.01c0.01,0,0.02,0.01,0.02,0.02c0.01,0.01,0.01,0.01,0.01,0.02c0,0.01,0,0.02,0,0.04l0,0.11l-0.07,0l0-0.1
				c0-0.02,0-0.03-0.01-0.03C2.73,4.17,2.72,4.17,2.71,4.17c-0.01,0-0.03,0.01-0.03,0.02C2.67,4.2,2.67,4.21,2.67,4.24l0,0.08
				L2.6,4.32z"/>
			<path class="st17" d="M2.86,4.06c0-0.01,0-0.02,0.01-0.03C2.88,4.03,2.88,4.02,2.9,4.02c0.01,0,0.02,0,0.03,0.01
				c0.01,0.01,0.01,0.02,0.01,0.03c0,0.01,0,0.02-0.01,0.03C2.92,4.09,2.91,4.1,2.9,4.1c-0.01,0-0.02,0-0.03-0.01
				C2.86,4.08,2.86,4.07,2.86,4.06z M2.88,4.31L2.87,4.12l0.07,0l0.01,0.19L2.88,4.31z"/>
			<path class="st17" d="M3.07,4.3L2.96,4.12l0.07-0.01l0.04,0.08c0,0,0,0,0,0c0.01,0.01,0.01,0.02,0.01,0.03
				c0-0.01,0-0.02,0.01-0.03c0,0,0,0,0,0L3.12,4.1L3.19,4.1L3.12,4.3L3.07,4.3z"/>
			<path class="st17" d="M3.43,4.17L3.28,4.2c0,0.01,0.01,0.03,0.02,0.03c0.01,0.01,0.02,0.01,0.03,0.01c0.01,0,0.02,0,0.03-0.01
				c0.01,0,0.01-0.01,0.01-0.02l0.05,0.01c0,0.02-0.01,0.03-0.03,0.04C3.39,4.27,3.37,4.28,3.34,4.28c-0.03,0-0.06,0-0.09-0.02
				C3.23,4.25,3.22,4.22,3.22,4.19c0-0.03,0-0.06,0.02-0.08c0.02-0.02,0.04-0.04,0.07-0.04c0.03,0,0.06,0,0.08,0.02
				C3.41,4.11,3.43,4.14,3.43,4.17L3.43,4.17z M3.36,4.15c0-0.01-0.01-0.02-0.02-0.02C3.33,4.12,3.32,4.11,3.31,4.12
				c-0.01,0-0.02,0.01-0.03,0.01C3.28,4.14,3.28,4.14,3.28,4.16L3.36,4.15z"/>
			<path class="st17" d="M3.49,4.25L3.45,4.06l0.06-0.01l0.01,0.04c0-0.02,0.01-0.03,0.02-0.04c0.01-0.01,0.02-0.02,0.04-0.02
				c0,0,0.01,0,0.01,0c0,0,0.01,0,0.01,0l0,0.06c0,0-0.01,0-0.01,0c0,0-0.01,0-0.01,0c-0.02,0-0.03,0.01-0.04,0.02
				C3.54,4.12,3.54,4.14,3.54,4.16l0.02,0.08L3.49,4.25z"/>
			<path class="st17" d="M3.65,4.2l0-0.05c0.01,0.01,0.02,0.01,0.04,0.01c0.01,0,0.03,0,0.04,0c0.01,0,0.01-0.01,0.02-0.01
				c0,0,0.01-0.01,0-0.01c0-0.01-0.01-0.01-0.03-0.01c-0.01,0-0.01,0-0.01,0c-0.02,0-0.04,0-0.05-0.01C3.65,4.1,3.64,4.09,3.64,4.08
				c0-0.02,0-0.03,0.01-0.05C3.66,4.02,3.67,4.01,3.7,4c0.01,0,0.03,0,0.04,0c0.01,0,0.03,0,0.04,0l0,0.05
				c-0.01,0-0.02-0.01-0.03-0.01c-0.01,0-0.02,0-0.03,0c-0.01,0-0.01,0-0.02,0.01c0,0,0,0.01,0,0.01c0,0.01,0.01,0.01,0.03,0.01
				c0,0,0.01,0,0.01,0c0.03,0,0.04,0,0.05,0.01C3.8,4.09,3.81,4.1,3.81,4.12c0,0.02,0,0.04-0.01,0.05C3.79,4.19,3.77,4.2,3.75,4.2
				c-0.02,0-0.03,0.01-0.05,0C3.68,4.21,3.67,4.21,3.65,4.2z"/>
			<path class="st17" d="M3.8,3.92c0-0.01,0-0.02,0-0.03c0-0.01,0.01-0.01,0.02-0.02c0.01,0,0.02,0,0.03,0
				C3.86,3.88,3.87,3.89,3.87,3.9c0,0.01,0,0.02,0,0.03C3.86,3.94,3.86,3.94,3.85,3.95c-0.01,0-0.02,0-0.03,0
				C3.81,3.94,3.8,3.93,3.8,3.92z M3.87,4.16L3.82,3.98l0.07-0.02l0.05,0.19L3.87,4.16z"/>
			<path class="st17" d="M4.01,4.12L3.96,3.99L3.93,4L3.92,3.95l0.03-0.01L3.93,3.89L4,3.87l0.02,0.06l0.03-0.01l0.01,0.05
				L4.03,3.97L4.07,4.1L4.01,4.12z"/>
			<path class="st17" d="M4.16,4.17l0.01-0.13L4.04,3.91l0.07-0.03l0.05,0.06c0,0,0.01,0.01,0.01,0.01c0,0,0.01,0.01,0.01,0.01
				c0,0,0-0.01,0-0.01c0,0,0-0.01,0-0.02l0-0.08l0.07-0.03l-0.02,0.3L4.16,4.17z"/>
		</g>
		<g>
			<path class="st13" d="M1.05,4l0.02-0.06l0.15,0.04c0,0,0,0,0,0.01c0,0,0,0.01,0,0.01C1.19,4.05,1.17,4.08,1.14,4.1
				C1.1,4.12,1.07,4.12,1.02,4.11C1,4.1,0.98,4.1,0.96,4.08C0.95,4.07,0.94,4.06,0.93,4.04C0.92,4.02,0.91,4.01,0.91,3.99
				c0-0.02,0-0.04,0.01-0.06c0.01-0.02,0.02-0.04,0.03-0.05c0.01-0.01,0.03-0.03,0.04-0.04C1,3.83,1.02,3.82,1.04,3.82
				c0.02,0,0.04,0,0.06,0.01c0.03,0.01,0.05,0.02,0.07,0.04C1.19,3.88,1.2,3.9,1.21,3.93L1.14,3.94c0-0.01-0.01-0.02-0.02-0.03
				C1.11,3.9,1.1,3.89,1.09,3.89c-0.02-0.01-0.04,0-0.06,0.01C1.01,3.91,1,3.93,0.99,3.95C0.98,3.98,0.98,4,0.99,4.02
				C1,4.04,1.02,4.05,1.04,4.06c0.02,0.01,0.04,0.01,0.05,0C1.1,4.05,1.12,4.04,1.12,4.03L1.05,4z"/>
			<path class="st13" d="M1.22,4.16l0.05-0.19l0.06,0.01L1.32,4.03C1.33,4.01,1.34,4,1.35,4C1.37,3.99,1.38,3.99,1.4,4
				c0,0,0.01,0,0.01,0c0,0,0.01,0,0.01,0L1.39,4.06c0,0-0.01,0-0.01-0.01c0,0-0.01,0-0.01,0c-0.02,0-0.03,0-0.04,0.01
				C1.32,4.06,1.31,4.08,1.3,4.1L1.28,4.17L1.22,4.16z"/>
			<path class="st13" d="M1.62,4.16L1.47,4.13c0,0.01,0,0.03,0,0.04C1.48,4.18,1.49,4.18,1.5,4.18c0.01,0,0.02,0,0.03,0
				c0.01,0,0.01-0.01,0.02-0.01L1.6,4.2C1.59,4.21,1.57,4.22,1.56,4.23c-0.02,0.01-0.04,0.01-0.06,0C1.46,4.22,1.44,4.21,1.42,4.18
				C1.4,4.16,1.4,4.14,1.41,4.1c0.01-0.03,0.02-0.05,0.05-0.07C1.48,4.02,1.5,4.02,1.54,4.02C1.57,4.03,1.59,4.05,1.6,4.07
				C1.62,4.09,1.62,4.12,1.62,4.16L1.62,4.16z M1.56,4.11c0-0.01,0-0.02-0.01-0.03C1.54,4.07,1.54,4.07,1.52,4.06
				c-0.01,0-0.02,0-0.03,0c-0.01,0-0.01,0.01-0.02,0.02L1.56,4.11z"/>
			<path class="st13" d="M1.86,4.2L1.71,4.18c0,0.01,0,0.03,0.01,0.04c0.01,0.01,0.02,0.01,0.03,0.02c0.01,0,0.02,0,0.03,0
				c0.01,0,0.01-0.01,0.02-0.01l0.05,0.03C1.83,4.26,1.82,4.27,1.81,4.27c-0.02,0.01-0.04,0.01-0.06,0
				C1.71,4.27,1.69,4.25,1.67,4.23C1.65,4.21,1.64,4.18,1.65,4.15c0-0.03,0.02-0.05,0.04-0.07c0.02-0.02,0.05-0.02,0.08-0.02
				c0.03,0.01,0.06,0.02,0.07,0.04C1.86,4.13,1.87,4.16,1.86,4.2L1.86,4.2z M1.8,4.15c0-0.01,0-0.02-0.01-0.03
				C1.79,4.12,1.78,4.11,1.77,4.11c-0.01,0-0.02,0-0.03,0C1.73,4.12,1.73,4.13,1.72,4.14L1.8,4.15z"/>
			<path class="st13" d="M1.89,4.29L1.92,4.1L1.98,4.1L1.98,4.14C1.99,4.13,2,4.12,2.01,4.11C2.03,4.11,2.04,4.1,2.06,4.11
				c0.01,0,0.02,0.01,0.03,0.01C2.1,4.12,2.11,4.13,2.11,4.14c0,0.01,0.01,0.02,0.01,0.02c0,0.01,0,0.02,0,0.04L2.11,4.31L2.04,4.31
				l0.01-0.1c0-0.01,0-0.03,0-0.03c0-0.01-0.01-0.01-0.02-0.01c-0.01,0-0.03,0-0.03,0.01C1.98,4.18,1.97,4.19,1.97,4.22L1.96,4.3
				L1.89,4.29z"/>
			<path class="st13" d="M2.31,4.05l0.08,0L2.38,4.19c0,0.02,0,0.03,0,0.04c0,0.01,0,0.02,0,0.02c0,0.01,0.01,0.01,0.01,0.02
				c0.01,0,0.02,0.01,0.03,0.01c0.01,0,0.02,0,0.03,0c0.01,0,0.01-0.01,0.02-0.02c0-0.01,0-0.01,0.01-0.02c0-0.01,0-0.02,0-0.04
				l0-0.02l0.01-0.12l0.08,0L2.56,4.21c0,0.03,0,0.05-0.01,0.07c0,0.01-0.01,0.03-0.02,0.04C2.52,4.33,2.5,4.33,2.49,4.34
				C2.47,4.34,2.45,4.34,2.42,4.34c-0.02,0-0.04-0.01-0.06-0.01C2.34,4.33,2.33,4.32,2.32,4.31C2.31,4.29,2.31,4.28,2.31,4.27
				c0-0.01,0-0.04,0-0.07l0-0.03L2.31,4.05z"/>
			<path class="st13" d="M2.62,4.34l0-0.19l0.06,0l0,0.04C2.69,4.17,2.7,4.16,2.71,4.15c0.01-0.01,0.03-0.01,0.04-0.01
				c0.01,0,0.02,0,0.03,0.01c0.01,0,0.02,0.01,0.02,0.02c0.01,0.01,0.01,0.01,0.01,0.02c0,0.01,0,0.02,0,0.04l0,0.11l-0.07,0l0-0.1
				c0-0.02,0-0.03-0.01-0.03C2.74,4.2,2.74,4.19,2.72,4.19c-0.01,0-0.02,0.01-0.03,0.02C2.69,4.22,2.68,4.24,2.68,4.26l0,0.08
				L2.62,4.34z"/>
			<path class="st13" d="M2.87,4.08c0-0.01,0-0.02,0.01-0.03C2.89,4.05,2.9,4.05,2.91,4.04c0.01,0,0.02,0,0.03,0.01
				c0.01,0.01,0.01,0.02,0.01,0.03c0,0.01,0,0.02-0.01,0.03C2.93,4.12,2.92,4.12,2.91,4.12c-0.01,0-0.02,0-0.03-0.01
				C2.88,4.1,2.87,4.09,2.87,4.08z M2.89,4.34L2.88,4.14l0.07,0l0.01,0.19L2.89,4.34z"/>
			<path class="st13" d="M3.08,4.33L2.97,4.14l0.07-0.01l0.04,0.08c0,0,0,0,0,0C3.09,4.23,3.1,4.24,3.1,4.25
				c0-0.01,0-0.01,0.01-0.03c0,0,0,0,0-0.01l0.03-0.09L3.2,4.12l-0.07,0.2L3.08,4.33z"/>
			<path class="st13" d="M3.44,4.2L3.29,4.22c0,0.02,0.01,0.03,0.02,0.03c0.01,0.01,0.02,0.01,0.03,0.01c0.01,0,0.02,0,0.03-0.01
				c0.01,0,0.01-0.01,0.01-0.02l0.05,0.01c0,0.02-0.01,0.03-0.03,0.04C3.4,4.29,3.38,4.3,3.36,4.3c-0.03,0-0.06,0-0.09-0.02
				C3.25,4.27,3.23,4.25,3.23,4.22c0-0.03,0-0.06,0.02-0.08C3.27,4.12,3.29,4.1,3.32,4.1c0.03,0,0.06,0,0.08,0.02
				C3.42,4.13,3.44,4.16,3.44,4.2L3.44,4.2z M3.37,4.17c0-0.01-0.01-0.02-0.02-0.02C3.35,4.14,3.34,4.14,3.33,4.14
				c-0.01,0-0.02,0.01-0.03,0.01C3.29,4.16,3.29,4.17,3.29,4.18L3.37,4.17z"/>
			<path class="st13" d="M3.5,4.27L3.47,4.08l0.06-0.01l0.01,0.05c0-0.02,0.01-0.03,0.02-0.04C3.57,4.06,3.58,4.06,3.6,4.05
				c0,0,0.01,0,0.01,0c0,0,0.01,0,0.01,0l0.01,0.06c0,0-0.01,0-0.01,0c0,0-0.01,0-0.01,0c-0.02,0-0.03,0.01-0.04,0.02
				C3.55,4.15,3.55,4.16,3.56,4.18l0.02,0.08L3.5,4.27z"/>
			<path class="st13" d="M3.67,4.22l0-0.05c0.01,0.01,0.02,0.01,0.04,0.01c0.01,0,0.03,0,0.04,0c0.01,0,0.01-0.01,0.02-0.01
				c0,0,0.01-0.01,0-0.01c0-0.01-0.01-0.01-0.03-0.01c-0.01,0-0.01,0-0.01,0c-0.02,0-0.04,0-0.05-0.01C3.66,4.13,3.65,4.12,3.65,4.1
				c0-0.02,0-0.03,0.01-0.05c0.01-0.01,0.03-0.02,0.05-0.03c0.01,0,0.03,0,0.04,0c0.01,0,0.03,0,0.04,0l0,0.05
				c-0.01,0-0.02-0.01-0.03-0.01c-0.01,0-0.02,0-0.03,0c-0.01,0-0.01,0-0.02,0.01c0,0,0,0.01,0,0.01c0,0.01,0.01,0.01,0.03,0.01
				c0,0,0.01,0,0.01,0c0.03,0,0.04,0,0.06,0.01c0.01,0.01,0.02,0.02,0.02,0.03c0.01,0.02,0,0.04-0.01,0.05
				C3.8,4.21,3.78,4.22,3.76,4.23c-0.02,0-0.03,0.01-0.05,0.01C3.7,4.23,3.68,4.23,3.67,4.22z"/>
			<path class="st13" d="M3.81,3.94c0-0.01,0-0.02,0-0.03C3.82,3.91,3.83,3.9,3.84,3.9c0.01,0,0.02,0,0.03,0
				c0.01,0,0.02,0.01,0.02,0.02c0,0.01,0,0.02,0,0.03C3.88,3.96,3.87,3.97,3.86,3.97c-0.01,0-0.02,0-0.03,0
				C3.82,3.96,3.81,3.95,3.81,3.94z M3.88,4.19L3.83,4L3.9,3.98l0.05,0.19L3.88,4.19z"/>
			<path class="st13" d="M4.02,4.15L3.97,4.01L3.95,4.02L3.93,3.97l0.03-0.01L3.94,3.91l0.07-0.02l0.02,0.06l0.03-0.01l0.02,0.05
				L4.04,3.99l0.05,0.14L4.02,4.15z"/>
			<path class="st13" d="M4.17,4.19l0.01-0.13L4.05,3.94l0.07-0.03l0.05,0.06c0,0,0.01,0.01,0.01,0.01c0,0,0.01,0.01,0.01,0.01
				c0,0,0-0.01,0-0.01c0,0,0-0.01,0-0.02l0-0.07l0.07-0.03l-0.02,0.3L4.17,4.19z"/>
		</g>
	</g>
</g>
</svg>
