<?xml version="1.0" encoding="utf-8"?>
<!-- Generator: Adobe Illustrator 26.0.0, SVG Export Plug-In . SVG Version: 6.00 Build 0)  -->
<svg version="1.1" id="Layer_1" xmlns="http://www.w3.org/2000/svg" xmlns:xlink="http://www.w3.org/1999/xlink" x="0px" y="0px"
	 viewBox="0 0 4000 4000" style="enable-background:new 0 0 4000 4000;" xml:space="preserve">
<style type="text/css">
	.st0{fill:#092430;}
	.st1{fill:#EF9B06;}
	.st2{fill:#00AAAD;}
	.st3{opacity:0.17;fill:#092430;enable-background:new    ;}
	.st4{fill:#E81E26;}
	.st5{fill:#DD2310;}
	.st6{opacity:0.17;}
</style>
<g>
	<g>
		<path class="st0" d="M1169.2,1205.9l142.1-255.9l144.8,4.8l105.8-28l50.7-170.7l-78.5-185.1l132.1-20.9l111.1,333.1l109.9-46.5
			l33.6-186l150.4,59.5l65.6,159.5l96.2-71.2l160.4-275.2l85,116.3l-10.7,257l149.5,42l186,54.8l52,192.5c0,0,7.9,78.2,5.4,75.6
			c-2.5-2.6-296.2-329.8-488.2-327.1c-191.9,2.7-393.3-110.9-621,1.5s-360.8,183.7-360.8,183.7l-198.9,174.6"/>
		<g>
			<g>
				<path class="st0" d="M1219.5,1166.8c-0.1-2-0.2-4-0.3-6c-1.9-30.2-11.2-59.6-27.9-87.4c-0.4-0.7-0.8-1.3-1.2-2
					c-5.3-8.6-13.8-14.3-23.4-15.7c-9.6-1.4-19.4,1.7-26.7,8.5c-8.3,7.7-16.7,15.5-25,23.2c-12.5,11.7-15.1,31.6-6.1,46.3
					c21.6,35.3,22.7,62.2,4,82.2c-13.7,14.7-29.8,18.8-49.3,12.9c-20.5-6.3-49.3-28.8-86.1-66.8c-41.3-42.6-65.7-75.5-72-98.4
					c-6.1-21.9-3-39.2,9.6-52.9c20.7-22.5,48.5-20.1,84.3,7.7c14.1,10.9,34.1,8.4,45.7-5.7c6.8-8.3,13.6-16.5,20.3-24.8
					c6.3-7.6,9.2-17.7,8.2-27.7c-1.1-10-6.2-19-13.9-24.8c-77.9-58.1-149.6-54.2-209.3,11.1c-39.8,43.5-54.6,91.9-44.8,143.5
					c9.6,50.8,40.5,102.3,90.7,153.6c49.8,50.8,98.8,80.7,146.4,88.8c29,4.9,56.4,0.9,82-11.9c17-8.6,33.2-21,48.7-37.4
					C1205.1,1249.3,1220.8,1210.3,1219.5,1166.8z M1165.4,1274.4c-35.9,38.2-76.4,53.6-121,46c-45.3-7.7-92.3-36.5-140.3-85.6
					c-48.5-49.5-78.2-98.8-87.2-147.1c-8.9-47.5,4.9-92.2,41.9-132.6c14.6-15.9,29.7-27.9,45.5-35.9c44.7-22.9,94.2-14.2,148.6,26.4
					c5.2,3.8,8.4,9.6,9.1,16.2c0.7,6.6-1.2,13.2-5.4,18.2c-6.8,8.3-13.6,16.5-20.3,24.8c-7.6,9.3-20.7,11-30,3.8
					c-40.7-31.6-74.5-33.6-99.6-6.3c-15.6,16.9-19.7,38.8-12.4,64.9c7,25.3,31.9,59.1,75.2,103.7c38.7,39.9,68.3,62.8,90.9,69.8
					c23.5,7.2,43.8,1.8,60.4-16c22.9-24.4,22.3-57.2-2.4-97.6c-5.9-9.7-4.2-22.8,4-30.4c8.3-7.8,16.7-15.5,25-23.2
					c4.8-4.5,11.2-6.5,17.6-5.6c6.3,0.9,11.9,4.6,15.3,10.2c17.4,28.4,26.7,58.4,27.7,89.2
					C1209.3,1207.1,1194.9,1243.1,1165.4,1274.4z"/>
				<path class="st0" d="M1246.7,1165.7c-0.2-6-0.6-11.9-1.3-17.8c-3.4-30.2-13.2-59.4-29.1-87.1c0,0,0,0,0,0c-1.2-2-2.3-4-3.6-6
					c-8-13-20-22.3-33.7-26.6c-2.8-0.9-5.7-1.5-8.6-1.9c-17.2-2.5-34.7,3.1-47.9,15.3c-8.4,7.8-16.8,15.5-25.1,23.3
					c-23,21.4-27.7,58.1-11.1,85.3c19.5,31.9,11.5,40.4,7.6,44.6c-5.8,6.2-11.4,9-22.9,5.5c-8.9-2.7-30.5-14.1-74.8-59.8
					c-50-51.6-62-75.7-64.7-85.4c-4.3-15.6-0.1-20.2,2.8-23.3c4.4-4.8,14.7-16,49.4,10.9c12.3,9.5,27.4,13.7,42.6,11.8
					c15.2-1.9,29.1-9.7,39.1-22c6.8-8.2,13.5-16.5,20.3-24.7c11.5-14,16.9-32.6,15-51c-2-18.4-11.3-35.1-25.5-45.7
					c-43.8-32.6-86.8-48-128.1-45.8c-42.1,2.3-81.1,22.6-115.8,60.5c-22.8,24.8-38.8,51.8-47.5,80.2c-9,28.9-10.6,59.3-4.7,90.3
					c10.6,56.3,43.9,113.2,98.7,169.2c53.9,55,108,87.4,160.8,96.4c8.7,1.5,17.2,2.3,25.7,2.4c25,0.3,49.1-5.2,71.9-16.7
					c19.7-9.9,38.7-24.4,56.2-43.1c33.6-35.7,51.8-76.7,54.2-122C1246.8,1176.8,1246.8,1171.3,1246.7,1165.7z M858.8,955.1
					c14.6-15.9,29.7-27.9,45.5-35.9c44.7-22.9,94.2-14.2,148.6,26.4c5.2,3.8,8.4,9.6,9.1,16.2c0.7,6.6-1.2,13.2-5.4,18.2
					c-6.8,8.3-13.6,16.5-20.3,24.8c-7.6,9.3-20.7,11-30,3.8c-40.7-31.6-74.5-33.6-99.6-6.3c-15.6,16.9-19.7,38.8-12.4,64.9
					c7,25.3,31.9,59.1,75.2,103.7c38.7,39.9,68.3,62.8,90.9,69.8c23.5,7.2,43.8,1.8,60.4-16c22.9-24.4,22.3-57.2-2.4-97.6
					c-5.9-9.7-4.2-22.8,4-30.4c8.3-7.8,16.7-15.5,25-23.2c4.8-4.5,11.2-6.5,17.6-5.6c6.3,0.9,11.9,4.6,15.3,10.2
					c17.4,28.4,26.7,58.4,27.7,89.2c1.2,39.9-13.2,75.9-42.7,107.1c-35.9,38.2-76.4,53.6-121,46c-45.3-7.7-92.3-36.5-140.3-85.6
					c-48.5-49.5-78.2-98.8-87.2-147.1C807.9,1040.1,821.8,995.4,858.8,955.1z"/>
				<path class="st0" d="M1208.1,1167.2c-1-30.8-10.2-60.8-27.7-89.2c-3.4-5.6-9-9.3-15.3-10.2c-6.3-0.9-12.7,1.1-17.6,5.6
					c-8.3,7.7-16.7,15.5-25,23.2c-8.2,7.7-9.9,20.7-4,30.4c24.7,40.4,25.2,73.2,2.4,97.6c-16.7,17.8-37,23.2-60.4,16
					c-22.6-6.9-52.2-29.8-90.9-69.8c-43.3-44.6-68.2-78.4-75.2-103.7c-7.3-26.2-3.2-48,12.4-64.9c25.1-27.3,58.9-25.3,99.6,6.3
					c9.2,7.2,22.4,5.5,30-3.8c6.8-8.3,13.6-16.6,20.3-24.8c4.1-5,6.1-11.6,5.4-18.2c-0.7-6.6-4-12.4-9.1-16.2
					C998.5,905,949,896.2,904.2,919.1c-15.7,8.1-30.9,20-45.5,35.9c-37,40.4-50.9,85.1-41.9,132.6c9.1,48.3,38.7,97.6,87.2,147.1
					c48.1,49.1,95,77.9,140.3,85.6c44.6,7.6,85.1-7.8,121-46C1194.9,1243.1,1209.3,1207.1,1208.1,1167.2z M1146.5,1253.2
					c-29.8,31.6-61.8,44-97.8,37.9c-39.5-6.7-81.9-32.9-126-78c-44.8-45.7-71.4-89.9-79.2-131.5c-7.2-37.9,4.1-72.5,34.5-105.6
					c12.3-13.4,25-23.5,37.8-30c12.8-6.5,26.1-9.7,40.1-9.6c23.4,0.3,48.5,10.1,76,29.5c-4.4,5.3-8.7,10.7-13.1,16
					c-67.8-50.6-111.1-22.2-131.1-0.5c-22.5,24.5-29.4,58.1-19.2,94.5c8.5,30.6,33.9,66.6,82.5,116.6
					c42.8,44.1,75.2,68.5,102.2,76.7c33,10.1,63,2,86.8-23.3c18.5-19.8,43.2-62.6,4.2-130.3c5.6-5.2,11.2-10.4,16.9-15.7
					c12.5,22,19.2,45,20,68.5c0.1,1.8,0.1,3.6,0.1,5.4C1180.6,1202.9,1169.3,1229,1146.5,1253.2z"/>
				<path class="st0" d="M1181,1173.7c-0.4,29.2-11.7,55.3-34.5,79.5c-29.8,31.6-61.8,44-97.8,37.9c-39.5-6.7-81.9-32.9-126-78
					c-44.8-45.7-71.4-89.9-79.2-131.5c-7.2-37.9,4.1-72.5,34.5-105.6c12.3-13.4,25-23.5,37.8-30c12.8-6.5,26.1-9.7,40.1-9.6
					c23.4,0.3,48.5,10.1,76,29.5c-4.4,5.3-8.7,10.7-13.1,16c-67.8-50.6-111.1-22.2-131.1-0.5c-22.5,24.5-29.4,58.1-19.2,94.5
					c8.5,30.6,33.9,66.6,82.5,116.6c42.8,44.1,75.2,68.5,102.2,76.7c33,10.1,63,2,86.8-23.3c18.5-19.8,43.2-62.6,4.2-130.3
					c5.6-5.2,11.2-10.4,16.9-15.7c12.5,22,19.2,45,20,68.5C1181,1170.1,1181,1171.9,1181,1173.7z"/>
			</g>
			<g>
				<path class="st0" d="M1294.6,836.5c-11.4-11.8-28.3-13.7-42.1-4.8c-13.7,8.9-19.6,25.5-14.7,41.5c3.3,10.6,6.6,21.3,9.8,31.9
					c3.2,10.4,10.7,18.6,20.5,22.4c8.4,3.3,17.5,2.9,25.5-0.8c1.4-0.6,2.7-1.3,4-2.2c4.4-2.8,8.7-5.5,13.1-8.3
					c9.1-5.7,15.1-15.3,16.4-26.3c1.3-11-2.2-21.8-9.7-29.6C1309.8,852.3,1302.2,844.4,1294.6,836.5z M1315.5,888.4
					c-0.9,7.2-4.8,13.5-10.8,17.3c-4.4,2.8-8.7,5.5-13.1,8.3c-5.9,3.7-13,4.5-19.4,2c-6.4-2.5-11.3-7.9-13.4-14.7
					c-3.3-10.6-6.5-21.3-9.8-31.9c-4-12.9,2.7-22.7,9.7-27.2c0.9-0.6,1.8-1.1,2.8-1.6c7-3.2,16.7-3.6,24.8,4.7
					c7.6,7.9,15.3,15.8,22.9,23.7C1314.1,874,1316.4,881.2,1315.5,888.4z"/>
				<path class="st0" d="M1336.2,838.8c-7.6-7.9-15.3-15.8-22.9-23.8v0c-20.3-21-50.3-24.5-74.6-8.8c-24.7,15.9-35.6,47.4-26.6,76.5
					c3.3,10.6,6.6,21.2,9.8,31.8c5.9,19.1,19.4,34,37.1,40.8c6.6,2.6,13.4,3.9,20.2,4c8.5,0.1,17-1.7,25-5.4
					c2.4-1.1,4.8-2.4,7.1-3.8c4.3-2.8,8.7-5.5,13.1-8.3c16.5-10.4,27.3-28,29.8-48.2C1356.6,873.1,1350.1,853.1,1336.2,838.8z
					 M1284.5,884.3c-0.6,0.4-1.2,0.8-1.8,1.2c-0.5-1.5-0.9-3-1.4-4.5C1282.4,882.1,1283.4,883.2,1284.5,884.3z"/>
			</g>
			<g>
				<path class="st0" d="M1525,937.9c-0.9-0.9-1.9-1.8-2.8-2.7c-95.5-91.7-193.3-181.9-293.7-270.5c-11.6-10.2-28.8-11.3-41.7-2.7
					c-15.9,10.7-31.7,21.3-47.5,32.1c-13,8.8-18.7,25-14.4,40.2c31.2,108.7,61.6,217.6,91.4,326.6c0,0,0,0,0,0
					c6.4,23.3,12.7,46.7,19,70.1c1.8,6.7,5.3,12.6,10.1,17c3,2.8,6.4,4.9,10.2,6.5c8.6,3.4,17.8,2.9,25.9-1.2
					c1.3-0.7,2.6-1.5,3.9-2.3c7.9-5.4,15.8-10.8,23.7-16.3c13.1-9,18.8-26.2,13.7-41.9c-5.1-15.7-10.2-31.4-15.3-47.2
					c-3.3-10.3,0.4-21.6,9.1-27.5c22.2-15,44.6-30,67-44.8c8.7-5.8,19.9-4.5,27.2,3c11.4,11.7,22.9,23.5,34.3,35.3
					c11.1,11.5,28,13.4,41.3,4.8c11.1-7.2,22.1-14.4,33.2-21.5c9.2-5.9,15.1-15.8,16.2-27.1c0.1-1.3,0.2-2.6,0.2-3.8
					C1536,954,1532.1,944.7,1525,937.9z M1524.2,966.6c-0.7,7.4-4.6,13.9-10.6,17.8c-11.1,7.2-22.2,14.3-33.2,21.5
					c-8.7,5.7-19.9,4.4-27.1-3.2c-11.4-11.8-22.8-23.6-34.3-35.3c-11.1-11.4-28.3-13.3-41.5-4.5c-22.4,14.9-44.8,29.8-67,44.8
					c-13.3,9-18.9,26.2-13.8,41.9c5.1,15.7,10.2,31.4,15.3,47.2c3.3,10.3-0.4,21.6-9,27.5c-7.9,5.4-15.8,10.8-23.7,16.3
					c-5.9,4.1-13,4.9-19.6,2.3c-6.6-2.6-11.4-8.2-13.3-15.4c-35.6-132.5-72.3-264.8-110-396.8c-2.8-10,0.9-20.6,9.5-26.4
					c15.8-10.7,31.6-21.4,47.5-32c8.5-5.7,19.8-5,27.4,1.7c101.3,89.4,200.1,180.4,296.5,273C1522.4,952,1524.9,959.2,1524.2,966.6z
					"/>
				<path class="st0" d="M1561.7,949.5c-2.4-11.5-7.8-22.2-15.8-30.8c-0.9-1-1.9-2-2.9-2.9c-12.3-11.8-24.6-23.6-37-35.4
					c-85.1-80.9-172.5-161-260.3-238.6c-20.4-18-50.4-20-73.1-4.8c-15.9,10.7-31.9,21.5-47.7,32.2c-23.7,16.1-34.1,45.9-26,74.2
					c27,94.2,53.8,189.7,80,285.1c4.1,15,8.2,30.1,12.3,45.1c6,22,12,44,17.9,66c2.1,7.9,5.5,15.1,10,21.4
					c6.8,9.6,16.1,17.1,27,21.4c0.1,0,0.2,0.1,0.2,0.1c6.6,2.6,13.3,3.9,20.1,4c9,0.1,18-2,26.4-6.2c2.4-1.2,4.7-2.6,6.9-4.1
					c7.8-5.4,15.7-10.8,23.6-16.2c24-16.4,34.2-48,24.9-76.8c-4.6-14.1-9.1-28.2-13.7-42.2c19.9-13.4,40-26.9,60-40.2
					c10.6,10.9,21.2,21.8,31.6,32.5c19.8,20.5,50.2,24.1,73.9,8.8c11-7.1,22.1-14.3,33.1-21.4c13.6-8.7,23.2-22.3,27.4-38.2
					c1-3.7,1.7-7.5,2.1-11.4C1563.5,963.5,1563.1,956.3,1561.7,949.5z M1296.2,982.6c-24.3,16.4-34.6,48.1-25.1,77.1
					c4.6,14.1,9.2,28.1,13.7,42.2c-4.8,3.3-9.6,6.6-14.3,9.8C1235.9,983.4,1200,854,1163.8,727c13.8-9.4,27.9-18.8,41.8-28.2
					c97.3,85.9,193.9,174.9,287.4,264.5c-7.9,5.1-15.8,10.2-23.6,15.3c-10.3-10.7-21-21.7-31.8-32.8c-20-20.5-50.6-23.9-74.2-8.2
					C1341,952.5,1318.4,967.6,1296.2,982.6z"/>
				<path class="st0" d="M1205.5,698.8c-13.9,9.3-27.9,18.8-41.8,28.2c36.2,127.1,72.1,256.4,106.7,384.7c4.8-3.3,9.6-6.6,14.3-9.8
					c-4.6-14.1-9.1-28.1-13.7-42.2c-9.5-29,0.9-60.7,25.1-77.1c22.2-15,44.8-30.1,67.2-45c23.7-15.7,54.2-12.3,74.2,8.2
					c10.8,11,21.4,22,31.8,32.8c7.8-5.1,15.7-10.2,23.6-15.3C1399.5,873.6,1302.8,784.7,1205.5,698.8z M1354.1,893.7
					c-2.4,20.2-13.3,37.8-29.8,48.2c-4.4,2.7-8.7,5.5-13.1,8.3c-2.3,1.4-4.7,2.7-7.1,3.8c-8,3.7-16.5,5.5-25,5.4
					c-6.8-0.1-13.7-1.4-20.2-4c-17.7-6.9-31.2-21.7-37.1-40.8c-3.3-10.6-6.5-21.2-9.8-31.8c-9-29.1,1.9-60.5,26.6-76.5
					c24.3-15.7,54.3-12.2,74.6,8.8v0c7.7,7.9,15.3,15.8,22.9,23.8C1350.1,853.1,1356.6,873.1,1354.1,893.7z"/>
			</g>
			<g>
				<path class="st0" d="M1837.8,827c-29.2-38.1-58.8-76-88.6-113.8c-6.7-8.5-7.1-20.4-1.1-29c23.4-33.1,28.7-74.2,15.3-122.1
					c-6.7-24-17.3-44.7-31.3-61.6c-14.2-17-30.9-29-49.5-35.7c-18.5-6.6-36-9-51.9-6.9c-15.3,2-36.7,7.2-63.6,15.7
					c-36.5,11.5-72.9,23.3-109.2,35.2c-18.5,6.1-28.8,26.3-22.9,45c38.1,121.4,75.1,243,110.9,364.8c1.3,4.3,2.5,8.6,3.8,12.9
					c2.1,7.3,6.3,13.5,12,18v0c1.4,1.1,3,2.2,4.6,3c8,4.4,17.2,5.3,25.9,2.5c12.8-4.2,25.6-8.3,38.4-12.5
					c17.8-5.7,28.1-25.7,22.8-44.5c-11-38.7-22.1-77.3-33.2-116c-3.6-12.3,3.2-25.5,15.1-29.2c9.3-2.9,19.3,0.6,25,8.8
					c27.6,40.1,54.9,80.3,81.9,120.7c8.4,12.5,23.4,18,37.4,13.8c13.6-4.1,27.3-8.2,40.9-12.3c0.9-0.3,1.8-0.6,2.7-0.9
					c9.7-3.8,17.3-12.1,20.5-22.6C1847.2,848.7,1845,836.3,1837.8,827z M1832.4,856.4c-2.3,7.6-7.9,13.2-15.3,15.5
					c-13.7,4.1-27.3,8.2-40.9,12.3c-9.2,2.8-19.1-0.8-24.6-9.1c-27-40.4-54.2-80.6-81.8-120.8c-8.6-12.5-23.9-17.8-38-13.3
					c-0.9,0.3-1.8,0.6-2.7,1c-16.5,6.8-25.5,25.7-20.3,43.5c11.2,38.6,22.3,77.3,33.3,116c3.5,12.3-3.2,25.5-14.9,29.2
					c-12.8,4.1-25.6,8.3-38.4,12.5c-5.7,1.9-11.7,1.3-17-1.6c-5.3-2.9-9.1-7.8-10.9-13.8c-36.9-126.2-75-252.1-114.3-377.8
					c-3.8-12.3,2.9-25.5,15-29.5c36.3-11.9,72.7-23.7,109.2-35.2c26.2-8.3,47-13.4,61.5-15.3c14-1.8,29.6,0.3,46.3,6.3
					c16.6,6,31.6,16.8,44.4,32.1c13,15.5,22.7,34.7,29,57c12.4,44,7.7,81.5-13.4,111.5c-9.2,13.1-8.6,31.2,1.5,43.9
					c29.8,37.8,59.4,75.7,88.6,113.7C1833.4,840.9,1834.8,848.8,1832.4,856.4z"/>
				<path class="st0" d="M1858.7,807.9c-4.3-5.7-8.7-11.3-13.1-17c-24-31.2-48.4-62.5-72.8-93.3c26.1-40,31.9-89.8,16.7-144.2
					c-7.9-28.3-20.4-52.8-37.2-72.9c-17.4-20.8-37.9-35.5-61.1-43.9c-22.3-8-43.7-10.8-63.6-8.2c-17,2.2-39.8,7.8-67.9,16.7
					c-36.5,11.5-73.3,23.4-109.6,35.3c-16.2,5.3-29.9,17.6-37.4,33.6c-7.3,15.5-8.5,33-3.3,49.4c32.8,104.6,65.3,210.9,96.7,316.8h0
					c5.4,18.3,10.8,36.7,16.2,55c0.5,1.8,1.1,3.6,1.6,5.4c2.6,8.7,6.7,16.6,12.2,23.3v0c5,6.1,11,11.2,17.9,15
					c2.2,1.2,4.5,2.3,6.9,3.2c6.6,2.6,13.4,4,20.3,4.1c6.3,0.1,12.6-0.9,18.7-2.9c13-4.2,25.8-8.4,38.3-12.4
					c15.9-5.1,28.9-16.6,36.6-32.3c7.5-15.3,9.1-32.9,4.5-49.4c-8.1-28.7-16.4-57.6-24.7-86.3c21.9,32.1,43.9,64.5,65.5,96.8
					c15,22.4,41.7,32.4,66.6,24.8c13.5-4.1,27.2-8.2,40.8-12.3c1.6-0.5,3.2-1,4.8-1.7c13.6-5.4,24.8-15.5,31.9-28.6
					c2.1-3.9,3.9-8,5.2-12.4C1875.9,848.3,1871.9,825.2,1858.7,807.9z M1624.2,712.6c-1.6,0.5-3.2,1.1-4.8,1.7
					c-1.1,0.5-2.2,1-3.3,1.5c-27.9,13.5-42.5,47.4-33.4,78.8c10.5,36,21.1,72.8,31.5,109.5c-9.7,3.2-19.5,6.3-29.1,9.5
					c-35.7-122.1-73-245.3-110.8-366.3c34.4-11.3,69.3-22.5,103.8-33.4c30.6-9.7,48-13.1,57.2-14.3c10-1.3,21.7,0.4,34.6,5
					c12.1,4.4,23.2,12.4,32.8,23.9c10.2,12.2,18,27.7,23.1,45.8c9.7,34.7,6.8,62.4-8.9,84.7c-17.2,24.3-16.2,57.8,2.4,81.3
					c27.5,34.8,55.2,70.3,82.3,105.5c-10.1,3-20.1,6-30,9c-26.3-39.3-53.2-79.1-80.2-118.2c-13-19-34.6-28.8-56.2-26.3
					C1631.7,710.7,1627.9,711.5,1624.2,712.6z"/>
				<path class="st0" d="M1801.7,845.8c-10.1,3-20.1,6-30,9c-26.3-39.3-53.2-79.1-80.2-118.2c-13-19-34.6-28.8-56.2-26.3
					c0.6-0.2,1.3-0.4,1.9-0.6c3.4-1.1,6.7-2.2,9.8-3.5c47.8-19.5,66.5-65.1,50.1-121.8v0c-6.1-21-15.7-37.6-28.8-49.6
					c-13.3-12.2-27.6-19.3-42.6-21.1c-12.9-1.6-28.2,0.5-46.9,6.4c-3.5,1.1-7,2.2-10.5,3.3c-16.2,5.1-29.9,17.2-37.7,33.1
					c-7.5,15.4-8.9,33-3.9,49.4c6.4,21.3,13,43.4,19.6,65.5c5,16.7,15.8,30.4,30.6,38.4c8.6,4.7,18,7.1,27.5,7.2
					c3.8,0,7.7-0.3,11.5-1c-27.9,13.5-42.5,47.4-33.4,78.8c10.5,36,21.1,72.8,31.5,109.5c-9.7,3.2-19.5,6.3-29.1,9.5
					c-35.7-122.1-73-245.3-110.8-366.3c34.4-11.3,69.3-22.5,103.8-33.4c30.6-9.7,48-13.1,57.2-14.3c10-1.3,21.7,0.4,34.6,5
					c12.1,4.4,23.2,12.4,32.8,23.9c10.2,12.2,18,27.7,23.1,45.8c9.7,34.7,6.8,62.4-8.9,84.7c-17.2,24.3-16.2,57.8,2.4,81.3
					C1746.9,775.1,1774.6,810.5,1801.7,845.8z"/>
			</g>
			<g>
				<path class="st0" d="M1671.3,593.3c-4.5-15.5-11.3-27.6-20.4-35.9c-9.1-8.4-18.6-13.2-28.1-14.4c-9.2-1.1-21.1,0.6-36.3,5.4
					c-3.5,1.1-6.9,2.2-10.4,3.3c-18.5,5.8-28.9,25.9-23.2,44.7c6.6,21.8,13.1,43.7,19.6,65.6c2.7,9.1,8.7,16.6,16.9,21.1
					c8.2,4.5,17.6,5.4,26.5,2.5c4.7-1.5,9.3-2.9,13.9-4.4c2.7-0.8,5.3-1.8,7.8-2.8C1671.6,664.5,1683.4,635.3,1671.3,593.3
					L1671.3,593.3z M1626.4,669.5c-4.7,1.5-9.3,2.9-14,4.4c-5.8,1.8-12,1.3-17.4-1.7c-5.4-2.9-9.3-7.8-11.1-13.8
					c-6.5-21.9-13-43.7-19.6-65.6c-3.5-11.7,2.5-24.2,13.5-28.7c0.6-0.2,1.2-0.5,1.8-0.7c3.5-1.1,6.9-2.2,10.4-3.3
					c13.3-4.2,23.9-5.9,31.3-5c7,0.9,14.3,4.7,21.5,11.3c7.4,6.8,13.1,17,16.9,30.3C1671.1,635.8,1660.3,658.8,1626.4,669.5z"/>
				<path class="st0" d="M1697.2,584.3L1697.2,584.3c-6.1-21-15.7-37.7-28.8-49.6c-13.3-12.2-27.6-19.3-42.6-21.1
					c-12.9-1.6-28.2,0.5-46.9,6.4c-3.5,1.1-7,2.2-10.5,3.3c-16.2,5.1-29.9,17.2-37.7,33.1c-7.5,15.4-8.9,33-3.9,49.4
					c6.4,21.3,13,43.4,19.6,65.5c5,16.7,15.8,30.4,30.6,38.4c8.6,4.7,18,7.1,27.5,7.2c3.8,0,7.7-0.3,11.5-1c2.4-0.5,4.8-1,7.2-1.8
					c4-1.3,8-2.5,12-3.8c0.6-0.2,1.3-0.4,1.9-0.6c3.4-1.1,6.7-2.2,9.8-3.5C1694.8,686.6,1713.6,641,1697.2,584.3z M1635.7,630.7
					c-0.9,1.9-2.9,3.8-5.8,5.5c-2.8,1.7-6.6,3.4-11,4.8c-3.6,1.1-7.1,2.2-10.6,3.3c-5.4-18.3-10.8-36.5-16.1-54.1
					c1.8-0.6,3.6-1.1,5.3-1.7c14.4-4.6,20.1-4.1,20.7-4c0.8,0.1,3.4,1.2,7.1,4.6c3.3,3,6.3,8.9,8.6,16.6
					C1637.2,617.2,1637.8,626.3,1635.7,630.7z"/>
			</g>
			<g>
				<path class="st0" d="M2179.9,431.9c-0.1-9.6-3.9-18.6-10.8-25.3c-6.9-6.7-15.9-10.3-25.5-10.1c-6.4,0.1-12.8,0.2-19.2,0.4
					c-19.5,0.4-35.1,16.7-34.8,36.2c0.6,35.7,1.2,71.4,1.8,107.1c0.2,14.2-9.6,21.4-18.1,23.3c-8.5,1.9-20.4-0.5-26.1-13.4
					c-18.6-42.5-37.4-85-56.5-127.4c-6-13.2-19.2-21.5-33.7-20.9c-21.1,0.8-42.1,1.7-63.1,2.6c-19.5,0.9-34.7,17.5-34,37.1
					c5,132.2,9.8,264.4,14.4,396.7c0.3,9.6,4.2,18.5,11,25c6.7,6.5,15.5,9.8,24.7,9.4c6.1-0.3,12.2-0.5,18.3-0.8
					c18.6-0.8,33.4-17.3,32.9-36.8c-1.4-52-2.8-104.1-4.3-156.1c-0.4-14.1,9.2-21.5,17.6-23.5c8.4-2,20.2,0.2,26,13.1
					c26.1,58.6,51.7,117.4,77,176.3c5.6,13.2,18.2,21.5,32,21.2c13.2-0.3,26.4-0.6,39.7-0.8c3.6-0.1,7-0.7,10.3-1.9
					c13.6-4.8,23.5-18.3,23.4-34.1C2182.1,696.6,2181.1,564.3,2179.9,431.9z M2149,852.7c-13.2,0.2-26.5,0.5-39.7,0.8
					c-9.1,0.2-17.3-5.2-21.1-13.9c-25.2-58.9-50.8-117.7-76.8-176.4c-8.1-18.3-25.7-23.2-39.5-19.9c-1.3,0.3-2.6,0.7-3.9,1.2
					c-12.3,4.5-23.5,16.4-22.9,34.6c1.5,52,3,104.1,4.5,156.1c0.3,12.8-9.3,23.7-21.6,24.2c-6.1,0.3-12.2,0.5-18.4,0.8
					c-6,0.3-11.8-1.9-16.2-6.2c-4.4-4.3-7-10.1-7.2-16.4c-4.5-132.2-9.2-264.5-14-396.7c-0.5-12.8,9.5-23.8,22.3-24.3
					c21-1,42-1.8,63.1-2.6c9.5-0.4,18.2,5,22.1,13.8c19.1,42.4,37.9,84.8,56.6,127.3c8.1,18.4,25.8,23.5,39.7,20.4
					c14-3.1,27.9-15.3,27.6-35.5c-0.5-35.7-1.1-71.4-1.6-107.1c-0.2-12.8,10-23.5,22.8-23.8c6.4-0.1,12.8-0.3,19.1-0.4
					c6.3-0.1,12.2,2.2,16.8,6.6c4.5,4.4,7,10.3,7.1,16.6c1.3,132.3,2.4,264.7,3.4,397C2171.2,841.8,2161.3,852.5,2149,852.7z"/>
				<path class="st0" d="M2210.1,828.7c-0.1-22.2-0.3-44.3-0.4-66.5c-0.8-110.9-1.6-221.8-2.5-330.5c-0.1-9-1.9-17.7-5.2-25.6
					c-3.4-8-8.2-15.2-14.6-21.4c-12-11.7-27.6-18-44.1-17.6c-6.4,0.1-12.8,0.2-19.2,0.4c-17,0.3-33.4,8-44.9,21.1
					c-11,12.4-16.9,28.5-16.6,45.3c0.5,28.6,0.9,57.2,1.4,85.8c-16.1-36.6-32.5-73.5-48.8-109.8c-10.7-23.7-33.8-38.4-59-37.5
					c-20.9,0.8-42.2,1.7-63.3,2.6c-17,0.8-33.2,8.9-44.5,22.2c-10.7,12.7-16.2,28.9-15.6,45.7c4.4,116,8.7,232.8,12.7,348.1
					c0.6,16.2,1.1,32.4,1.7,48.5c0.6,16.1,6.5,31.1,16.9,42.6c1,1.2,2.1,2.3,3.2,3.4c11.1,10.8,25.3,16.7,40.3,16.9
					c1.2,0,2.3,0,3.4-0.1c6.1-0.3,12.2-0.5,18.3-0.8c33.5-1.5,60-31.7,59-67.3c-1.2-44.1-2.4-88.8-3.6-133.2
					c22.9,51.8,45.8,104.3,68.1,156.3c10.2,23.8,32.7,38.8,57.2,38.2c13.1-0.3,26.5-0.6,39.6-0.8c6.2-0.1,12.3-1.2,18.2-3.3
					c14.3-5,25.9-15.2,33.3-28.1C2206.9,853,2210.1,841.1,2210.1,828.7z M1966.1,614.4c-2.2,0.5-4.5,1.2-6.7,2
					c-26,9.6-42.3,34.6-41.5,63.7c1.4,49.4,2.9,99.8,4.3,149.9c-3,0.1-6.1,0.3-9.1,0.4c-4.3-127.6-8.9-256.9-13.6-384.4
					c18.9-0.8,38-1.6,57-2.4c18.5,41.1,37.1,82.9,55.2,124.2c14.4,32.8,45.4,42,69.7,36.6c29.5-6.6,49.8-33.4,49.4-65
					c-0.5-33.6-1-67.2-1.6-100.8c3.8-0.1,7.6-0.1,11.4-0.2c1.2,127.7,2.4,257,3.3,384.7c-10.9,0.2-21.8,0.4-32.4,0.7
					c-24.7-57.8-50.2-116.2-75.6-173.5C2023.5,622.3,1994.8,607.5,1966.1,614.4z"/>
				<path class="st0" d="M2143.9,823.1c-10.9,0.2-21.8,0.4-32.4,0.7c-24.7-57.8-50.2-116.2-75.6-173.5c-12.4-28-41.1-42.8-69.8-35.9
					c-2.2,0.5-4.5,1.2-6.7,2c-26,9.6-42.3,34.6-41.5,63.7c1.4,49.4,2.9,99.8,4.3,149.9c-3,0.1-6.1,0.3-9.1,0.4
					c-4.3-127.6-8.9-256.9-13.6-384.4c18.9-0.8,38-1.6,57-2.4c18.5,41.1,37.1,82.9,55.2,124.2c14.4,32.8,45.3,42,69.7,36.6
					c29.5-6.6,49.8-33.4,49.4-65c-0.5-33.6-1-67.2-1.6-100.8c3.8-0.1,7.6-0.1,11.4-0.2C2141.9,566.1,2143,695.5,2143.9,823.1z"/>
			</g>
			<g>
				<path class="st0" d="M2386.4,436.5c-5.7-7.7-14.1-12.7-23.6-14.1c-13.8-2-27.6-3.9-41.5-5.8c-19.2-2.6-37.2,11-40,30.2
					c-18.9,131.2-37.2,262.5-54.9,393.8c-1.3,9.5,1.1,19,6.7,26.6c5.6,7.6,13.6,12.5,22.8,13.8c13.3,1.8,26.5,3.6,39.8,5.5
					c5.6,0.8,11,0.1,16-1.8c11.5-4.3,20.5-15,22.5-28.4c19-131.1,38.6-262.2,58.8-393.2C2394.4,453.7,2392.1,444.2,2386.4,436.5z
					 M2380.9,461.4c-20.1,131-39.6,262.1-58.4,393.3c-1.8,12.7-13.1,21.5-25.2,19.8c-13.3-1.9-26.5-3.7-39.8-5.5c-6-0.8-11.3-4-15-9
					c-3.7-5-5.2-11.2-4.4-17.5c17.8-131.3,36.2-262.6,55.3-393.8c1.3-8.8,7.4-15.8,15.3-18.7c3.4-1.2,7.1-1.7,10.9-1.1
					c13.8,1.9,27.6,3.8,41.4,5.8c6.2,0.9,11.7,4.2,15.5,9.2C2380.3,448.9,2381.8,455.1,2380.9,461.4z"/>
				<path class="st0" d="M2407.6,417.9c-10.1-13.7-24.7-22.5-41.2-24.9l0,0c-13.9-2-27.9-3.9-41.6-5.8
					c-33.7-4.6-65.2,20.1-70.3,55.1c-15.2,105.6-30.3,212.9-44.9,319.8c-3.4,24.8-6.7,49.6-10.1,74.4c-1.2,9.1-0.7,18.1,1.6,26.6
					c2.1,8.1,5.7,15.8,10.7,22.7c10,13.7,24.4,22.5,40.6,24.7c13.2,1.8,26.5,3.7,39.7,5.5c2.4,0.3,4.8,0.5,7.2,0.5
					c7.2,0.1,14.4-1.2,21.1-3.7c21.5-8.1,37-27.9,40.5-51.9c16.3-112.5,33.1-225.8,50.3-337.7c0,0,0-0.1,0-0.1
					c2.8-18.4,5.6-36.8,8.5-55.1c0.5-3.2,0.8-6.4,0.8-9.6C2420.7,443.9,2416.3,429.8,2407.6,417.9z M2319.5,458.6
					c11,1.5,22.3,3.1,33.6,4.7c-19.3,125.7-38.3,253.9-56.6,381.1c-10-1.4-20.2-2.8-30.6-4.2
					C2283.1,713.1,2301.1,584.8,2319.5,458.6z"/>
				<path class="st0" d="M2353,463.3c-19.3,125.7-38.3,253.9-56.6,381.1c-10-1.4-20.2-2.8-30.6-4.2
					c17.3-127.1,35.3-255.4,53.6-381.6C2330.5,460.1,2341.7,461.7,2353,463.3z"/>
			</g>
			<g>
				<path class="st0" d="M2754.6,563.7c-3.2-10.7-10.9-19.1-21.2-23.1c-7.6-3-15.2-5.9-22.9-8.9c-15.6-6-32.9-0.4-41.9,13.7
					c-33.9,53-67.3,106.2-100.3,159.5c-7.4,11.9-19.3,12.4-27.3,9.3c-8-3.2-16.6-11.8-14.5-25.7c9.4-61.6,18.8-123.1,28.4-184.6
					c2.6-16.9-7.1-33.5-23.1-39.3c-13.8-5-27.7-10-41.6-15c-10.3-3.7-21.4-2.5-30.6,3.3c-9.2,5.8-15.1,15.4-16.3,26.2
					c-14.6,135.6-28.9,271.2-42.9,406.9c-1.7,16.3,7.4,31.7,22,37.4c19.8,7.8,39.6,15.6,59.3,23.4c7.2,2.9,14.8,3,21.7,0.9
					c7.3-2.3,13.9-7.1,18.5-14.2c73.7-113.9,149.7-226.9,227.8-338.9C2756,585.7,2757.8,574.4,2754.6,563.7z M2739.9,587.6
					c-78.1,112.1-153.9,225.2-227.6,339.2c-5.8,9-16.7,12.6-26.4,8.8c-19.7-7.9-39.5-15.7-59.4-23.5c-9.6-3.8-15.6-13.9-14.5-24.6
					c14.1-135.6,28.6-271.2,43.4-406.8c0.8-7.1,4.7-13.4,10.7-17.2c1.8-1.1,3.7-2,5.7-2.6c4.7-1.4,9.7-1.3,14.4,0.4
					c13.9,5,27.7,10,41.5,15c10.5,3.8,16.9,14.7,15.2,25.8c-9.5,61.5-18.9,123.1-28.2,184.6c-3,19.9,9,33.9,22.1,39.1
					c13.1,5.2,31.1,2.8,41.6-14.1c33-53.3,66.5-106.5,100.4-159.5c5.9-9.3,17.2-13,27.5-9c7.6,3,15.2,5.9,22.8,8.9
					c6.8,2.6,11.8,8.2,14,15.2C2745.2,574.2,2744,581.7,2739.9,587.6z"/>
				<path class="st0" d="M2780.4,554.4c-5.8-19.4-19.6-34.6-37.9-41.7c-7.6-3-15.3-5.9-22.9-8.9c-27.1-10.5-57.3-0.3-73.3,24.8
					c-30.1,47-60.1,94.8-89.6,142.3c8.2-53.6,16.6-108,24.9-161.9c4.9-31.4-12.5-61.9-41.3-72.3c-13.8-5-27.8-10.1-41.7-15
					c-17.6-6.3-36.8-4.2-52.7,5.8c-11.7,7.4-20.5,18.2-25.5,31.1c-2.1,5.5-3.6,11.3-4.2,17.4c-1.7,15.7-3.4,31.5-5.1,47.3
					c0,0.1,0,0.1,0,0.2c-12.8,119.5-25.5,240.2-37.8,359.5c-3.1,30,13.3,58.2,39.8,68.5c19.8,7.7,39.7,15.6,59.1,23.4
					c6.7,2.7,13.7,4.1,20.7,4.2c5.9,0.1,11.9-0.8,17.7-2.6c5.3-1.6,10.3-4,14.9-7.1c7.2-4.7,13.5-11.1,18.4-18.6
					c20.7-32,41.6-64,62.8-96c53.9-81.5,109-162.6,164.4-242.1c7.8-11.1,11.9-24.1,12.1-37.4
					C2783.5,568.3,2782.5,561.3,2780.4,554.4z M2527.6,753.7c23,9,54.6,4.6,73.3-25.5c32.4-52.3,65.4-104.8,98.4-156.2
					c4.6,1.8,9.2,3.5,13.8,5.3c-75.1,108-149.3,218.7-220.8,329.2c-17.5-7-35.2-14-52.6-20.8c13.8-131.8,27.9-264.5,42.1-394.8
					c11.1,4,22.4,8,33.6,12.1c-9.2,59.9-18.4,120.1-27.3,179C2483.2,713.2,2499.5,742.7,2527.6,753.7z"/>
				<path class="st0" d="M2713,577.3c-75.1,108-149.3,218.7-220.8,329.2c-17.5-7-35.2-14-52.6-20.8
					c13.8-131.8,27.9-264.5,42.1-394.8c11.1,4,22.4,8,33.6,12.1c-9.2,59.9-18.4,120.1-27.3,179c-4.7,31.2,11.6,60.7,39.7,71.7
					c23,9,54.6,4.6,73.3-25.5c32.4-52.3,65.4-104.8,98.4-156.2C2703.8,573.7,2708.4,575.5,2713,577.3z"/>
			</g>
			<g>
				<path class="st0" d="M2958.6,690.9c-15.6-10.6-31.1-21.1-46.8-31.6c-12.9-8.7-29.5-7.8-41.3,2.2
					c-104.8,88.8-207.1,179.2-306.8,271.4c-8.2,7.6-12.3,18.5-11.4,30c1,11.5,6.9,21.4,16.2,27.4c7.9,5.1,15.7,10.1,23.6,15.2
					c13.2,8.6,30.2,6.6,41.3-4.9c11.6-12,23.3-23.9,35.1-35.9c7.3-7.5,18.6-8.7,27.3-3c22.1,14.6,44.2,29.3,66.2,44.1
					c8.8,5.9,12.5,17.3,9,27.7c-5.3,15.7-10.6,31.4-15.8,47.1c-5.3,15.8,0.3,33.1,13.6,42.2c10.7,7.3,21.4,14.6,32.1,22
					c7.6,5.2,16.7,6.9,25.4,4.8c0.3-0.1,0.6-0.2,1-0.2c1-0.3,2.1-0.6,3.1-1c9.9-3.8,17.4-12.1,20.6-22.7c0.6-2,1.2-3.9,1.8-5.9
					c38.9-129.5,78.9-258.8,120-387.8C2977.4,716.8,2971.7,699.8,2958.6,690.9z M2961.2,728.1c-41.6,131-82,262.3-121.4,393.8
					c-2.1,7-7,12.5-13.5,14.9c-6.5,2.5-13.5,1.6-19.3-2.4c-10.7-7.3-21.4-14.7-32.1-22c-8.7-5.9-12.4-17.3-8.9-27.7
					c5.3-15.7,10.6-31.4,15.9-47.1c5.3-15.8-0.3-33.1-13.7-42.2c-22-14.8-44.1-29.5-66.2-44.1c-8.3-5.4-18-6.8-26.9-4.2
					c-5.4,1.5-10.4,4.5-14.6,8.8c-11.7,11.9-23.4,23.9-35,35.9c-7.3,7.5-18.4,8.8-27.2,3.2c-7.9-5.1-15.7-10.2-23.6-15.2
					c-6.1-3.9-10-10.5-10.6-18c-0.6-7.5,2.1-14.7,7.5-19.7c99.7-92,202-182.5,306.8-271.1c7.7-6.5,18.6-7.1,27.1-1.5
					c15.6,10.5,31.2,21,46.7,31.5C2960.6,707,2964.4,718.1,2961.2,728.1z"/>
				<path class="st0" d="M2972.9,665.8c-15.4-10.5-31.2-21.1-46.9-31.6c-22.5-15.1-51.5-13.5-72.2,4.1
					c-83.2,70.4-166,143-246.9,216.5v0c-20.4,18.5-40.6,37-60.7,55.6c-15.1,13.9-22.7,34.1-20.9,55.3c0.1,1.2,0.2,2.4,0.4,3.6
					c2.6,19.5,13.1,36.3,29,46.5c7.9,5,15.7,10.1,23.5,15.2c23.6,15.3,54,11.7,73.9-8.8c10.6-10.9,21.5-22.1,32.4-33.2
					c19.9,13.2,39.8,26.4,59.3,39.5c-4.7,14-9.4,28.1-14.1,42.1c-9.7,29,0.4,60.9,24.7,77.4c10.4,7.1,21.2,14.4,32,21.9
					c9.1,6.2,19.2,9.7,29.6,10.2c0.7,0,1.4,0.1,2.1,0.1c5.2,0.1,10.5-0.6,15.7-2c1.9-0.5,3.7-1.1,5.5-1.8c2-0.8,3.9-1.6,5.8-2.6
					c14.8-7.5,26-21,31.4-37.9c0.1-0.3,0.2-0.7,0.3-1c6-19.9,12-39.9,18.1-59.8c13.9-45.8,27.9-91.7,42.1-137.5
					c20.3-65.7,40.9-131.1,61.5-195.9C3007.3,713.2,2996.9,682,2972.9,665.8z M2816.2,1105.8c-7.8-5.4-15.5-10.7-23-15.8
					c4.7-14,9.4-28.1,14.2-42.1c9.9-29.2-0.4-61.1-24.9-77.6c-21.9-14.7-44.2-29.6-66.4-44.2c-14.3-9.4-31.7-12.2-47.9-7.5
					c-9.8,2.8-18.9,8.3-26.3,15.8c-10.8,11-21.7,22.2-32.6,33.4c-4.6-3-9.2-6-13.9-8.9c96.8-89.2,196.8-177.5,297.5-262.7
					c13.7,9.2,27.5,18.5,41,27.7C2894,849.7,2854.4,978.2,2816.2,1105.8z"/>
				<path class="st0" d="M2892.9,696.1c-100.6,85.2-200.7,173.5-297.5,262.7c4.6,3,9.2,6,13.9,8.9c10.9-11.2,21.8-22.4,32.6-33.4
					c7.4-7.5,16.5-13,26.3-15.8c16.2-4.6,33.6-1.9,47.9,7.5c22.2,14.7,44.6,29.5,66.4,44.2c24.5,16.5,34.8,48.4,24.9,77.6
					c-4.7,14-9.5,28-14.2,42.1c7.5,5.1,15.2,10.4,23,15.8c38.2-127.6,77.8-256,117.7-382C2920.4,714.6,2906.6,705.3,2892.9,696.1z
					 M2862.3,882.4c-3.6,10.4-7.1,20.8-10.6,31.2c-6.4,18.9-20.3,33.3-38.2,39.7c-1.5,0.5-3,1-4.5,1.4c-5.3,1.4-10.6,2.1-15.9,2
					c-11.1-0.2-22-3.6-31.7-10.1c-4.2-2.8-8.4-5.6-12.6-8.4c-16.2-10.8-26.6-28.6-28.6-48.8c-2-20.5,5-40.4,19.1-54.4
					c7.7-7.7,15.5-15.3,23.2-23c24.1-23.7,55-20.7,75-7c18.4,12.5,28.7,33.7,28.4,55.8C2865.9,868,2864.7,875.3,2862.3,882.4z"/>
			</g>
			<g>
				<path class="st0" d="M2823.2,830.2c-11.3-7.7-28.8-9.5-42.4,3.8c-7.7,7.6-15.4,15.3-23.1,22.9c-7.7,7.6-11.5,18.3-10.4,29.3
					c1.1,11,6.8,20.8,15.8,26.7c4.2,2.8,8.4,5.6,12.6,8.4c8.1,5.4,17.8,7,26.9,4.5c0.8-0.2,1.7-0.5,2.5-0.8
					c9.9-3.5,17.6-11.5,21.1-21.8c3.5-10.4,7.1-20.8,10.6-31.2C2843.1,853.9,2834.5,837.9,2823.2,830.2z M2825.7,868
					c-3.5,10.4-7.1,20.8-10.6,31.2c-2.3,6.8-7.3,12-13.9,14.3c-6.5,2.3-13.6,1.4-19.4-2.5c-4.2-2.8-8.4-5.6-12.6-8.4
					c-5.9-3.9-9.6-10.3-10.3-17.5c-0.7-7.2,1.8-14.3,6.8-19.3c7.7-7.6,15.4-15.3,23.1-22.9c9.5-9.3,20.9-7.2,27.8-2.5
					C2823.6,845.1,2830.1,855.2,2825.7,868z"/>
				<path class="st0" d="M2837.6,805.1c-20-13.6-50.9-16.7-75,7c-7.8,7.6-15.5,15.3-23.2,23c-14.2,14-21.1,33.9-19.1,54.4
					c2,20.2,12.4,38,28.6,48.8c4.2,2.8,8.4,5.6,12.6,8.4c9.7,6.5,20.6,9.9,31.7,10.1c5.3,0.1,10.6-0.6,15.9-2c1.5-0.4,3-0.9,4.5-1.4
					c17.8-6.4,31.7-20.8,38.2-39.7c3.5-10.4,7.1-20.8,10.6-31.2c2.4-7.1,3.6-14.4,3.8-21.6C2866.3,838.8,2856,817.6,2837.6,805.1z
					 M2791.7,882.9c-0.5-0.4-1.1-0.7-1.6-1.1c1-1,2-2,3-3C2792.6,880.2,2792.2,881.5,2791.7,882.9z"/>
			</g>
			<g>
				<path class="st0" d="M3199.3,912.2c-9.2-10-18.5-19.9-27.7-29.8c-13.1-14-34.8-14.5-48.3-1.1c-84.2,83.8-166.5,168.7-247,254.6
					c0,0,0,0,0,0c-8,8.5-16,17.1-23.9,25.6c-3.3,3.6-5.8,7.8-7.5,12.3c-1.5,4.2-2.3,8.6-2.2,13.2c0.1,9.6,3.7,18.6,10.1,25.3
					c42,43.8,83.4,88,124.3,132.4c8.3,9,20.1,12.2,30.9,9.5c5.6-1.4,10.9-4.5,15.4-9.1c6-6.3,12-12.6,18-18.9
					c6.4-6.7,10-15.7,10.1-25.3c0.1-9.6-3.3-18.7-9.5-25.5c-19-20.7-38.1-41.4-57.4-62c-4.2-4.5-6.4-10.4-6.4-16.7
					c0-6.3,2.4-12.2,6.6-16.7c69.9-73.2,141.1-145.5,213.7-217c6.7-6.6,10.5-15.5,10.7-25.1C3209.2,928.3,3205.8,919.1,3199.3,912.2
					z M3190.3,954c-72.6,71.5-143.8,144-213.6,217.2c-6.4,6.7-10,15.7-10,25.4c0,9.6,3.5,18.7,9.8,25.4c19.2,20.6,38.3,41.3,57.3,62
					c4.1,4.5,6.3,10.5,6.3,16.8c-0.1,6.3-2.4,12.2-6.6,16.6c-6,6.3-12,12.6-18,18.9c-8.4,8.9-22.1,8.8-30.4-0.2
					c-40.9-44.5-82.4-88.6-124.3-132.5c-4.2-4.4-6.6-10.3-6.6-16.6s2.2-12.3,6.4-16.8c88.1-94.7,178.4-188,270.9-280
					c3-3,6.7-5,10.6-5.8c7.4-1.7,15.5,0.5,21.2,6.6c9.3,9.9,18.5,19.8,27.7,29.8c4.2,4.6,6.5,10.6,6.4,16.9
					C3197.1,943.9,3194.7,949.7,3190.3,954z"/>
				<path class="st0" d="M3218.5,891.1c-8.9-9.6-18.3-19.7-27.8-29.9c-23.3-24.9-61.7-25.7-85.7-1.8
					c-70.8,70.4-141.3,142.7-210.3,215.7c-14.1,14.9-28.1,29.8-42.1,44.8v0c-6.4,6.9-12.9,13.8-19.3,20.7c-2.7,2.9-5.1,6-7.1,9.2
					c-5.8,9-9.3,19.4-10.3,30.5c-0.2,2.4-0.3,4.8-0.3,7.2c0.2,17.6,6.7,34.1,18.4,46.4c41.5,43.3,83.2,87.7,123.9,132
					c11.2,12.2,26.1,18.8,41.5,19.1c4.9,0.1,9.8-0.5,14.7-1.8c10.6-2.7,20.3-8.4,28.1-16.6c6-6.3,11.9-12.5,17.9-18.8
					c11.7-12.2,18.3-28.7,18.5-46.3c0.2-17.7-6-34.3-17.5-46.8c-17.6-19.2-35.5-38.5-53.3-57.7c34.1-35.7,68.7-71.3,103.6-106.7
					c34.9-35.4,70-70.5,105.1-105.1c12.3-12.1,19.3-28.6,19.6-46.5C3236.5,920.7,3230.3,903.8,3218.5,891.1z M2957.4,1243.2
					c17.6,18.9,35.4,38.1,53,57.3c-3.3,3.5-6.6,6.9-9.9,10.4c-38.4-41.7-77.6-83.5-116.6-124.3c85.5-91.8,173.9-183.2,262.9-271.7
					c7.2,7.7,13.9,14.9,20.4,22c-70.6,69.6-141,141.3-209.4,213c-11.8,12.4-18.3,28.9-18.3,46.7
					C2939.4,1214.2,2945.8,1230.8,2957.4,1243.2z"/>
				<path class="st0" d="M2957.4,1243.2c17.6,18.9,35.4,38.1,53,57.3c-3.3,3.5-6.6,6.9-9.9,10.4c-38.4-41.7-77.6-83.5-116.6-124.3
					c85.5-91.8,173.9-183.2,262.9-271.7c7.2,7.7,13.9,14.9,20.4,22c-70.6,69.6-141,141.3-209.4,213c-11.8,12.4-18.3,28.9-18.3,46.7
					C2939.4,1214.2,2945.8,1230.8,2957.4,1243.2z"/>
			</g>
		</g>
		<g>
			<path class="st1" d="M1191,1069.9c-5.4-8.8-14.2-14.7-24.1-16.1c-9.9-1.4-20,1.8-27.5,8.8c-8.4,7.7-16.7,15.5-25,23.2
				c-12.8,12-15.5,32.4-6.3,47.6c21.3,34.8,22.6,61.2,4.1,81c-13.4,14.3-29.2,18.4-48.3,12.6c-19.9-6.1-48.8-28.5-85.6-66.6
				c-41.5-42.8-65.7-75.8-71.8-97.9c-6-21.6-2.9-38.6,9.4-52c20.4-22.2,47.6-19.6,83,7.8c14.5,11.2,35.2,8.7,47-5.9
				c6.8-8.3,13.6-16.5,20.3-24.8c6.4-7.8,9.5-18.2,8.4-28.4c-1.1-10.2-6.3-19.5-14.3-25.5c-39-29-76.7-42.8-112.1-40.9
				c-35.4,1.9-68.6,19.4-98.5,52.1c-39.8,43.5-55,92.1-45.1,144.4c9.5,50.4,40.1,102.2,91,154.1c50,51.1,99.5,81,147,89.1
				c8,1.4,15.9,2,23.7,2c20.5,0,40.2-4.7,58.9-14.1c17-8.6,33.5-21.2,48.9-37.6c32.1-34.1,47.8-73.5,46.4-117.1
				C1219.6,1132.5,1209.6,1100.2,1191,1069.9z M1164.8,1272.8c-35.6,37.8-76,53.2-120.1,45.7c-44.8-7.6-91.8-36.3-139.8-85.3
				c-48.8-49.8-78-99.1-87-146.6c-9-47.5,5.1-91.8,41.7-131.7c14.4-15.7,29.6-27.8,45.2-35.7c15.9-8.1,32.5-12.2,49.8-12.2
				c30.7,0,63.4,12.9,97.8,38.5c4.9,3.7,8,9.2,8.7,15.6c0.7,6.3-1.2,12.7-5.1,17.5c-6.8,8.3-13.6,16.5-20.3,24.8
				c-7.2,8.9-19.8,10.5-28.6,3.6c-20.4-15.8-39.3-24.4-56.2-25.5c-17-1.1-32,5.4-44.8,19.2c-15.8,17.1-20,39.3-12.6,65.9
				c7,25.2,31,58.3,75.4,104.1c39,40.2,68.9,63.2,91.3,70c23.8,7.3,44.5,1.8,61.5-16.2c23.3-24.9,22.6-58.1-2.2-98.8
				c-5.7-9.3-4-21.8,3.9-29.2c8.3-7.8,16.7-15.5,25-23.2c4.6-4.3,10.7-6.2,16.7-5.3c6,0.9,11.3,4.4,14.6,9.8
				c17.3,28.1,26.5,57.9,27.5,88.7C1208.4,1205.8,1194.1,1241.6,1164.8,1272.8L1164.8,1272.8z"/>
			<path class="st1" d="M1295.4,835c-11.8-12.1-29.2-14.2-43.3-5c-14.1,9.1-20.2,26.2-15.1,42.6c3.3,10.6,6.6,21.3,9.8,31.9
				c3.3,10.7,11,19.1,21.1,23c4,1.5,8.1,2.3,12.2,2.3c4.8,0,9.6-1,14.1-3.1c1.4-0.7,2.8-1.4,4.1-2.2c4.4-2.8,8.7-5.5,13.1-8.3
				c9.3-5.9,15.5-15.8,16.9-27.1c1.4-11.3-2.3-22.4-10-30.4C1310.6,850.8,1303,842.9,1295.4,835z M1314.6,887.4
				c-0.8,6.9-4.6,13-10.3,16.6c-4.4,2.8-8.7,5.5-13.1,8.3c-5.6,3.6-12.4,4.2-18.5,1.9c-6.2-2.4-10.8-7.5-12.8-14.1
				c-3.3-10.6-6.5-21.3-9.8-31.9c-3.8-12.4,2.6-21.8,9.2-26.1c0.9-0.6,1.8-1.1,2.7-1.5c1.5-0.7,4.9-2,9-2c4.4,0,9.7,1.4,14.6,6.5
				c7.6,7.9,15.3,15.8,22.9,23.7C1313.2,873.7,1315.4,880.5,1314.6,887.4z"/>
			<path class="st1" d="M1229.3,663c-11.9-10.5-29.6-11.7-42.9-2.7c-15.8,10.6-31.8,21.4-47.5,32.1c-13.3,9-19.3,25.6-14.8,41.3
				c37.5,130.9,74.7,264.4,110.4,396.7c3,11.2,10.7,20,20.9,24.1c3.9,1.6,8,2.3,12.1,2.3c5,0,10-1.2,14.6-3.6c1.4-0.7,2.7-1.5,4-2.4
				c7.9-5.4,15.8-10.8,23.7-16.2c13.5-9.2,19.3-26.9,14.1-43c-5.1-15.7-10.2-31.4-15.3-47.2c-3.2-9.9,0.4-20.7,8.7-26.4
				c22.2-15,44.7-30.1,67-44.8c8.3-5.5,19-4.3,26,2.8c11.4,11.7,23,23.6,34.3,35.3c11.4,11.8,28.9,13.8,42.5,5
				c11.1-7.2,22.2-14.4,33.2-21.5c9.5-6.1,15.5-16.2,16.6-27.8c1.1-11.6-2.9-22.8-11.1-30.6C1429.4,843.6,1329.6,751.7,1229.3,663z
				 M1295.7,1049.1c5.1,15.7,10.2,31.4,15.3,47.1c3.2,9.9-0.3,20.7-8.6,26.4c-7.9,5.4-15.8,10.8-23.7,16.3
				c-5.6,3.9-12.4,4.7-18.7,2.2c-6.3-2.5-10.9-7.9-12.8-14.8c-35.6-132.3-72.6-265.8-110-396.8c-2.7-9.6,0.9-19.7,9.1-25.3
				c15.7-10.7,31.7-21.5,47.5-32c3.7-2.5,7.9-3.7,12.1-3.7c5.1,0,10.1,1.8,14.1,5.3c100.4,88.6,200.1,180.4,296.5,273
				c5,4.8,7.5,11.6,6.8,18.8c-0.7,7.1-4.4,13.3-10.2,17.1c-11.2,7.2-22.4,14.5-33.3,21.5c-8.3,5.4-18.9,4.2-25.9-3
				c-11.1-11.5-22.6-23.4-34.3-35.3c-11.5-11.8-29.1-13.7-42.8-4.6c-22.3,14.8-44.8,29.9-67,44.8
				C1296.3,1015.3,1290.5,1033,1295.7,1049.1z"/>
			<path class="st1" d="M1750,711.7c-6.4-8.1-6.8-19.5-1-27.8c23.7-33.6,28.9-75,15.5-122.9c-6.8-24.2-17.4-45-31.5-62
				c-14.3-17.1-31.1-29.2-50-36c-18.7-6.7-36.3-9-52.3-7c-15.6,2-37,7.3-63.8,15.8c-36.3,11.5-73.1,23.3-109.3,35.2
				c-19,6.3-29.6,27-23.5,46.2c39.2,124.7,77.7,251.8,114.7,377.6c2.8,9.4,8.8,17,17.1,21.6c5.1,2.8,10.6,4.2,16.2,4.2
				c3.5,0,7-0.6,10.4-1.7c12.9-4.2,25.8-8.4,38.4-12.5c18.4-5.9,28.9-26.4,23.4-45.7c-10.9-38.5-22.1-77.6-33.2-116
				c-3.4-11.8,3.1-24.4,14.5-28c8.9-2.8,18.5,0.5,23.8,8.4c27.3,39.7,54.9,80.3,81.9,120.7c8.6,12.9,24.1,18.6,38.5,14.2
				c13.5-4.1,27.2-8.2,40.9-12.3c1-0.3,1.9-0.6,2.8-1c10.1-4,17.8-12.4,21.1-23.2c3.6-11.8,1.4-24.5-6-34.1
				C1809.5,787.5,1779.7,749.2,1750,711.7z M1607.8,785c11.1,38.1,22.3,77.2,33.3,116c3.4,11.8-3,24.4-14.3,28
				c-12.9,4.1-25.8,8.3-38.4,12.5c-5.4,1.8-11.2,1.2-16.2-1.6c-5-2.8-8.7-7.5-10.4-13.2c-36.8-125.9-75.3-253.1-114.3-377.8
				c-3.7-11.8,2.8-24.5,14.4-28.3c36.1-11.9,72.8-23.7,109.1-35.2c26-8.2,46.6-13.3,61.3-15.2c3.2-0.4,6.4-0.6,9.8-0.6
				c11.2,0,23.3,2.3,36,6.9c16.5,5.9,31.2,16.6,44,31.8c12.8,15.4,22.6,34.4,28.8,56.7c12.2,43.6,7.8,80.8-13.2,110.7
				c-9.5,13.4-8.8,32,1.5,45.1c29.7,37.5,59.5,75.8,88.6,113.7c4.6,6,5.9,13.6,3.7,20.9c-2.2,7.3-7.6,12.7-14.6,14.8
				c-13.8,4.1-27.6,8.3-41,12.3c-8.8,2.7-18.2-0.8-23.5-8.7c-26.8-40.1-54.3-80.8-81.8-120.8c-8.8-12.8-24.6-18.3-39.2-13.7
				c-1,0.3-1.9,0.7-2.8,1C1611.8,747.3,1602.6,766.9,1607.8,785z"/>
			<path class="st1" d="M1638,678.4c34.6-14.2,46.5-44,34.3-86.3l0,0c-4.5-15.7-11.5-27.9-20.6-36.3c-9.3-8.5-18.9-13.5-28.7-14.6
				c-9.4-1.2-21.4,0.6-36.8,5.5c-3.5,1.1-7,2.2-10.4,3.3c-19,6-29.7,26.6-23.9,45.9c6.4,21.4,13,43.4,19.6,65.5
				c2.8,9.4,9,17.1,17.4,21.7c5.2,2.8,10.9,4.3,16.7,4.3c3.6,0,7.1-0.5,10.6-1.7c4.7-1.5,9.3-2.9,13.9-4.4
				C1632.9,680.4,1635.5,679.5,1638,678.4z M1626.1,667.7c-4.7,1.5-9.3,2.9-14,4.4c-5.6,1.8-11.5,1.2-16.7-1.6
				c-5.2-2.8-8.9-7.5-10.6-13.2c-6.6-22.3-13.2-44.4-19.6-65.6c-3.3-11.1,2.3-23.1,12.9-27.5c0.6-0.2,1.1-0.4,1.8-0.6
				c3.5-1.1,6.9-2.2,10.4-3.3c10.9-3.4,19.8-5.2,26.8-5.2c1.5,0,2.8,0.1,4.1,0.2c6.8,0.8,13.9,4.6,21,11.1
				c7.2,6.6,12.8,16.7,16.7,29.8C1669.9,634.5,1659.6,657.2,1626.1,667.7z"/>
			<path class="st1" d="M2169.9,405.1c-7.1-6.9-16.4-10.6-26.2-10.4c-6.4,0.1-12.8,0.2-19.2,0.4c-20.1,0.4-36.1,17.1-35.7,37.2
				c0.6,35.7,1.2,71.4,1.8,107.1c0.2,13.6-9.2,20.5-17.4,22.3c-8.1,1.8-19.6-0.5-25-12.8c-18.6-42.5-37.6-85.3-56.5-127.4
				c-6.1-13.6-19.7-22.1-34.7-21.5c-20.9,0.8-42.2,1.7-63.1,2.6c-20,0.9-35.7,18-34.9,38.1c5,132.2,9.9,265.7,14.4,396.7
				c0.3,9.8,4.3,18.9,11.3,25.6c6.6,6.3,15,9.7,23.8,9.7c0.5,0,1,0,1.6,0c6.1-0.3,12.2-0.5,18.3-0.8c19.2-0.8,34.4-17.8,33.8-37.8
				c-1.4-51.8-2.8-104.4-4.3-156.2c-0.4-13.6,8.8-20.6,16.9-22.5c8-1.9,19.3,0.2,24.8,12.5c25.9,58.3,51.8,117.6,77,176.2
				c5.8,13.5,18.8,22.1,33,21.8c13.1-0.3,26.5-0.6,39.7-0.8c3.6-0.1,7.2-0.7,10.6-1.9c14.5-5.1,24.2-19.2,24.1-35.1
				c-0.8-132.3-1.8-265.8-3-397C2180.9,421.2,2177,412,2169.9,405.1z M2089.2,838.3c-25.1-58.7-50.9-118-76.8-176.4
				c-8.4-18.9-26.4-23.9-40.7-20.5c-1.3,0.3-2.7,0.7-4,1.2c-11.8,4.3-24.2,16-23.6,35.6c1.5,51.3,3,103.8,4.5,156.1
				c0.3,12.3-8.9,22.7-20.7,23.2c-6.1,0.3-12.2,0.5-18.4,0.8c-5.7,0.3-11.2-1.8-15.5-5.9c-4.2-4.1-6.7-9.7-6.9-15.7
				c-4.5-131.6-9.2-265.1-14-396.7c-0.4-12.3,9.1-22.8,21.4-23.3c20.9-0.9,42.1-1.8,63.1-2.6c0.3,0,0.6,0,0.9,0
				c8.8,0,16.7,5.1,20.3,13.2c19,42.1,38,84.9,56.6,127.3c8.3,18.9,26.5,24.2,40.9,21c14.4-3.2,28.7-15.8,28.4-36.5
				c-0.5-35.7-1.1-71.4-1.6-107.1c-0.2-12.3,9.6-22.5,21.9-22.8c6.4-0.1,12.8-0.3,19.1-0.4c6-0.1,11.7,2.1,16,6.4
				c4.3,4.2,6.7,9.9,6.8,15.9c1.3,132.1,2.4,265.7,3.4,397c0.1,12.3-9.4,22.5-21.1,22.7c-13.3,0.2-26.7,0.5-39.7,0.8
				C2100.6,851.8,2092.8,846.6,2089.2,838.3z"/>
			<path class="st1" d="M2363,420.6c-13.8-2-27.7-3.9-41.5-5.8c-19.8-2.7-38.2,11.2-41.1,31.1c-18.8,130.1-37.2,262.6-54.9,393.9
				c-1.3,9.8,1.1,19.5,6.9,27.3c5.7,7.9,14.1,12.9,23.4,14.2c13.2,1.8,26.6,3.7,39.8,5.5c1.5,0.2,3.1,0.3,4.6,0.3
				c4,0,8-0.7,11.8-2.2c12.3-4.6,21.2-15.8,23.1-29.2c19-131.2,38.8-263.5,58.8-393.2c1.5-9.8-0.9-19.5-6.7-27.5
				C2381.4,427.1,2372.8,422,2363,420.6z M2379.9,460.3c-19.9,129.7-39.5,262-58.4,393.3c-1.7,12.1-12.6,20.6-24.1,19
				c-12.9-1.8-26.3-3.7-39.8-5.5c-5.7-0.8-10.8-3.8-14.3-8.7c-3.5-4.8-5-10.8-4.2-16.8c17.8-131.2,36.4-263.7,55.3-393.8
				c1.2-8.2,6.8-15.1,14.6-17.9c2.4-0.9,4.9-1.3,7.5-1.3c1,0,2,0.1,3,0.2c13.5,1.9,27.4,3.8,41.4,5.8c6,0.9,11.2,4,14.8,8.9
				C2379.4,448.4,2380.9,454.4,2379.9,460.3z"/>
			<path class="st1" d="M2755.6,562.6c-3.3-11-11.3-19.6-21.8-23.8c-7.6-3-15.2-5.9-22.9-8.9c-16.1-6.2-33.8-0.4-43.1,14.1
				c-33.7,52.7-67.4,106.4-100.3,159.6c-7,11.3-18.4,11.9-26.1,8.9c-7.7-3-15.9-11.3-13.9-24.6c9.3-61.2,18.9-123.3,28.4-184.6
				c2.7-17.4-7.3-34.4-23.8-40.4c-13.7-5-27.7-10-41.6-15c-10.6-3.8-22-2.5-31.5,3.4c-9.4,6-15.5,15.8-16.7,27
				c-14.5,134.9-29,271.8-42.9,406.9c-1.7,16.7,7.6,32.5,22.7,38.5c19.8,7.7,39.7,15.6,59.3,23.4c4.1,1.6,8.3,2.4,12.5,2.4
				c3.3,0,6.6-0.5,9.8-1.5c7.7-2.4,14.5-7.6,19.1-14.6c73.7-113.9,150.4-227.9,227.8-338.9C2757.1,585.2,2758.9,573.5,2755.6,562.6z
				 M2542,501c-9.6,62-19.1,124.1-28.2,184.6c-3.1,20.4,9.2,34.8,22.7,40.2c13.5,5.3,32,2.8,42.8-14.5c33-53.3,66.8-107,100.4-159.4
				c5.7-8.9,16.5-12.4,26.3-8.6c7.6,3,15.2,5.9,22.8,8.9c6.5,2.5,11.3,7.8,13.4,14.5c2,6.7,0.9,13.8-3.1,19.5l0,0
				c-77.4,111.2-154,225.3-227.6,339.2c-5.6,8.6-15.9,12.1-25.2,8.4c-19.8-7.9-39.7-15.8-59.4-23.5c-9.2-3.6-14.9-13.3-13.8-23.6
				c14.1-135.6,28.7-272.5,43.3-406.8c0.7-6.8,4.5-12.8,10.2-16.5c1.7-1.1,3.5-1.9,5.4-2.5c2.1-0.6,4.2-0.9,6.3-0.9
				c2.5,0,5.1,0.4,7.5,1.3c13.8,4.9,27.7,10,41.5,15C2537.5,480,2543.6,490.4,2542,501z"/>
			<path class="st1" d="M2851.8,1125.1c39.5-131.5,80.5-264,121.8-393.7c5-15.7-0.9-33-14.4-42.2c-15.4-10.5-31.1-21.1-46.8-31.6
				c-13.3-8.9-30.4-8-42.5,2.3c-103.8,87.9-207,179.2-306.8,271.4c-8.4,7.8-12.7,19-11.7,30.8c1,11.8,7.1,22,16.6,28.2
				c7.9,5.1,15.7,10.1,23.6,15.2c13.6,8.8,31.1,6.8,42.6-5c11.4-11.8,23.2-23.8,35.1-35.9c7-7.2,17.7-8.3,26-2.8
				c22.3,14.7,44.5,29.5,66.2,44.1c8.4,5.7,12,16.6,8.6,26.6c-5.3,15.7-10.6,31.4-15.8,47.1c-5.4,16.2,0.3,34,14,43.3
				c10.4,7.1,21.1,14.4,32.1,22c5.7,3.9,12.1,5.9,18.6,5.9c2.9,0,5.7-0.4,8.6-1.2c1.1-0.3,2.1-0.6,3.2-1
				C2840.8,1144.6,2848.5,1136.1,2851.8,1125.1z M2768.8,993.9c-21.8-14.7-44.1-29.5-66.2-44.1c-5.6-3.7-12.1-5.6-18.6-5.6
				c-3.1,0-6.1,0.4-9.1,1.3c-5.6,1.6-10.9,4.7-15.1,9c-11.6,11.8-23.3,23.9-35,35.9c-7,7.2-17.6,8.4-25.9,3
				c-7.9-5.1-15.7-10.2-23.6-15.2c-5.9-3.8-9.6-10-10.2-17.3c-0.6-7.2,2-14.1,7.2-18.8c99.7-92,202.9-183.2,306.7-271.1
				c7.4-6.3,17.8-6.8,25.9-1.4c15.6,10.5,31.3,21.1,46.7,31.5c8.3,5.6,11.9,16.2,8.9,25.8c-41.1,129.8-82,262.3-121.4,393.9
				c-2,6.7-6.7,11.9-12.9,14.3c-6.2,2.4-12.9,1.5-18.4-2.3c-11.3-7.8-21.8-15-32.1-22c-8.4-5.7-11.9-16.6-8.5-26.6
				c5.3-15.7,10.6-31.4,15.9-47.1C2788.3,1021,2782.6,1003.1,2768.8,993.9z"/>
			<path class="st1" d="M2802.9,926c0.9-0.2,1.7-0.5,2.6-0.8c10.2-3.6,18.1-11.8,21.7-22.4c3.5-10.4,7.1-20.8,10.6-31.2
				c6.4-18.8-2.4-35.2-14-43.1c-11.7-7.9-29.7-9.8-43.6,4c-7.7,7.6-15.4,15.3-23.1,22.9c-7.9,7.8-11.8,18.8-10.7,30.2
				c1.1,11.3,7,21.3,16.2,27.4c4.2,2.8,8.4,5.6,12.6,8.4c5.8,3.9,12.3,5.8,18.9,5.8C2797,927.2,2799.9,926.8,2802.9,926z
				 M2824.8,866.8c-3.5,10.4-7.1,20.8-10.6,31.2c-2.2,6.5-7,11.5-13.2,13.7c-6.2,2.2-12.9,1.4-18.5-2.3c-4.2-2.8-8.4-5.6-12.6-8.4
				c-5.6-3.8-9.2-9.9-9.9-16.8c-0.7-7,1.7-13.7,6.6-18.5c7.7-7.6,15.4-15.3,23.1-22.9c4.6-4.5,9.7-6.2,14.4-6.2
				c4.6,0,8.9,1.6,12.1,3.8C2822.8,844.9,2829,854.5,2824.8,866.8z"/>
			<path class="st1" d="M3200.1,910.7c-8.9-9.6-18.2-19.6-27.7-29.8c-6.6-7-15.4-11-24.9-11.2c-9.4-0.2-18.2,3.4-24.8,10
				c-91.7,91.2-182.8,185.5-270.9,280.3c-6.5,7-10,16.3-9.9,26.2c0.1,9.9,3.8,19.1,10.4,26c41.6,43.4,83.4,88,124.3,132.4
				c6.4,7,15,10.8,23.9,10.8c2.6,0,5.3-0.3,7.9-1c6-1.5,11.4-4.8,15.8-9.4c6-6.3,12-12.6,18-18.8c6.6-6.9,10.3-16.1,10.4-25.9
				c0.1-9.9-3.4-19.2-9.8-26.2c-18.8-20.6-38.1-41.4-57.4-62c-4-4.3-6.2-10-6.2-16c0-6.1,2.3-11.8,6.3-16
				c69.8-73.1,141.7-146.1,213.6-217l0,0c6.9-6.8,10.8-15.9,11-25.8C3210.3,927.2,3206.7,917.8,3200.1,910.7z M2965.7,1195.7
				c0,9.9,3.6,19.2,10.1,26.1c19,20.4,38.3,41.2,57.3,62c3.9,4.3,6.1,10,6,16.1s-2.3,11.7-6.4,15.9c-6,6.3-12,12.6-18,18.9
				c-3.9,4.1-9,6.3-14.4,6.3c-0.1,0-0.1,0-0.2,0c-5.5,0-10.6-2.4-14.4-6.5c-40.9-44.4-82.7-89-124.3-132.5c-4-4.2-6.3-9.9-6.4-15.9
				c-0.1-6.1,2.1-11.8,6.1-16.1c88-94.6,179.2-188.8,270.9-280c2.8-2.8,6.3-4.7,10.1-5.6c1.5-0.3,3.1-0.5,4.6-0.5
				c5.8,0,11.5,2.4,15.6,6.8c9.9,10.5,18.9,20.3,27.7,29.8c4.1,4.4,6.2,10.1,6.1,16.2c-0.1,6.1-2.5,11.7-6.7,15.8
				c-72,71-143.9,144-213.6,217.2C2969.4,1176.6,2965.8,1185.8,2965.7,1195.7z"/>
		</g>
	</g>
	<g>
		<circle class="st0" cx="2046.5" cy="1993.6" r="1119.3"/>
		<g>
			<path class="st0" d="M2629.3,3156.5h-113.5l-155.6,254.8v13.5h-98.3l25.4-37.5c22.7-32.9,34.1-67.5,34.1-102.8
				c0-20.2-4.2-39.1-12.6-56.3c-8.3-17-20-31.8-34.8-44.1c-14.5-12-31.8-21.5-51.5-28c-19.3-6.4-40.7-9.7-63.5-9.7
				c-26.3,0-52.1,3.1-76.9,9.2l-18.5,4.6v129.3l32.6-11.9c22.3-8.1,34.8-9.8,41.3-9.8c17.1,0,30.3,3.6,39.2,10.7
				c7.6,6.1,10.9,13.5,10.9,24.2c0,7.6-1.5,15-4.5,22c-3.5,8.2-9,17.3-16.4,26.9l-127.4,166.1v37.1h264.6l56.2-128.4v77.1h144.9
				v51.3h124.2v-51.3h4.4l46.9-115.2h-51.3L2629.3,3156.5L2629.3,3156.5z"/>
			<path class="st0" d="M3256,1490.1h-224.6v-1.8c-6.6,0-12.4-2-17.3-5.5c-12.4-4-21-15.8-21.6-29.3c0-0.2,0-0.4,0-0.6
				c-22.5-16.3-38.7-38.3-52.9-62c-7.4-12.4-14.4-25.2-21.9-37.6c-6.1-5.8-12.2-11.6-18.2-17.4c-37.6-36.1-77.4-69.7-114.5-106.4
				c-34.7-34.4-68.4-70-104.9-102.6c-9.1-8.2-18.4-16.1-27.9-23.8c-2.9-2.3-5.8-4.6-8.7-6.9c-0.1-0.1-0.3-0.2-0.5-0.4
				c-0.8-0.6-1.8-1.3-2.1-1.6c-5-3.8-10-7.4-15.1-11.1c-20.8-14.7-42.9-27-65.6-38.5c-11.5-5.8-23.1-11.3-34.8-16.6
				c-5.6-2.6-11.3-5-17-7.5c-0.8-0.3-4.1-1.7-5.3-2.2c-2.8-1.2-5.6-2.3-8.4-3.4c-24.5-9.8-49.4-18.7-74.6-26.6
				c-50.6-16.1-102.4-28.3-154.6-38.2c-13.6-2.6-27.2-4.9-40.8-7.1c-6.6-1-13.1-2-19.7-2.9c-1-0.1-4.8-0.6-6.1-0.8
				c-3.2-0.4-6.3-0.8-9.5-1.1c-27.5-3.2-55.2-5.1-82.9-5.5c-27.5-0.4-55.1,0.7-82.5,3.6c-4.2,0.4-8.3,1-12.5,1.4
				c-0.5,0.1-1.6,0.2-2.3,0.3c-0.7,0.1-1.4,0.2-2.1,0.3c-6.9,1-13.8,2.1-20.8,3c-15.6,2.1-31.1,4.1-46.7,5.9
				c-55.7,6.4-111.6,10.8-167.3,16.6c-13.8,1.5-27.7,3-41.5,4.7c-3.5,0.4-7,0.9-10.4,1.3c-18.2,6.6-36.2,13.4-54.6,19.5
				c-13.9,4.7-28.1,8.5-42.3,11.9c-20.4,8.7-40.7,17.5-60.8,26.9c-40.7,18.9-80.6,39.6-118.6,63.5c-34.3,21.6-67.5,45.6-99.7,70.3
				c-39.4,30.7-76.1,64.7-106.7,104.3c1.6-2.1,3.2-4.2,4.8-6.2c-13.2,17.1-27.2,33.6-41,50.2c-12.6,15.1-25.2,30.2-38.7,44.5
				c-11.7,12.3-25,22.9-37.7,34.1c-4.2,7.4-8.3,14.7-12.6,22c-7.2,12-14.6,23.9-23.1,35.1c-1.9,2.5-3.9,5-5.8,7.5
				c0.1,0.7,0.1,1.4,0.2,2.1c0.4,8.6-3.6,16.6-9.8,22.3c-5.4,5.9-13,9.8-21,10.4v1.9H828.4c-97,8.3-173.3,89.9-173.3,188.9v648.1
				c0,104.6,85.1,189.7,189.7,189.7h209.8c77.2,146.9,186.1,274.5,317.7,373.6c17.6,30.1,27.7,68.1,37.6,105.2
				c16.1,60.5,34.3,128.6,93.5,151.4c-18.8,1.2-37.2,4-55,8.4l-18.5,4.6v129.3l32.6-11.9c22.3-8.1,34.8-9.8,41.3-9.8
				c17.2,0,30.3,3.6,39.2,10.7c7.6,6.1,10.9,13.5,10.9,24.2c0,7.5-1.5,15-4.5,22c-3.5,8.2-9,17.3-16.4,26.9l-127.3,166.1v37.1h264.6
				l55.5-126.8c7.4,71.1,67.6,126.8,140.7,126.8c78,0,141.4-63.4,141.4-141.4v-118.4c0-65.3-43.8-120.6-105-136.7l0.8-0.9l7.2-19.2
				l0.1-4.2c0.2-9.4,0.2-18.4,0.2-27.1c43.3,5.1,87.4,7.8,132.1,7.8c429.2,0,801.9-242.4,988.5-597.7h208.2
				c104.6,0,189.7-85.1,189.7-189.7V1679C3429.3,1579.9,3352.9,1498.4,3256,1490.1z"/>
		</g>
		<g>
			<circle class="st1" cx="2039.3" cy="2003" r="794.3"/>
			<path class="st0" d="M3236.8,1564h-648.1c-60.7,0-110.6,47.3-114.7,107c-4.1-59.7-53.9-107-114.7-107h-648.1
				c-52.6,0-97,35.5-110.6,83.8c-13.6-48.3-58.1-83.8-110.6-83.8H841.8c-63.4,0-115,51.6-115,115v648.1c0,63.4,51.6,115,115,115
				H1490c52.6,0,97-35.5,110.6-83.8c13.6,48.3,58.1,83.8,110.6,83.8h648.1c60.7,0,110.6-47.3,114.7-107c4.1,59.7,53.9,107,114.7,107
				h648.1c63.4,0,115-51.6,115-115v-648.1C3351.8,1615.6,3300.2,1564,3236.8,1564z"/>
			<g>
				<g>
					<path class="st2" d="M1175.2,1956.3h28.3c0.5-8.3,1.1-16.5,1.8-24.7h-28.3C1176.3,1939.8,1175.7,1948.1,1175.2,1956.3z"/>
					<path class="st2" d="M2873.4,1931.6c0.7,8.2,1.3,16.4,1.8,24.7h28.3c-0.4-8.3-1-16.5-1.7-24.7H2873.4z"/>
					<path class="st2" d="M3236.8,1513.6h-483.6c-29.9-43.4-63.9-84.4-102-122.5c-163.4-163.4-380.8-253.5-611.9-253.5
						c-231.1,0-448.5,90-611.9,253.5c-38.1,38.1-72.1,79.1-102,122.5H841.8c-91.2,0-165.3,74.2-165.3,165.3v648.1
						c0,91.2,74.2,165.3,165.3,165.3h483.6c29.9,43.4,63.9,84.4,102,122.5c163.4,163.4,380.8,253.5,611.9,253.5
						c231.1,0,448.4-90,611.9-253.5c38.1-38.1,72.1-79.1,102-122.5h483.6c91.2,0,165.3-74.2,165.3-165.3V1679
						C3402.1,1587.8,3328,1513.6,3236.8,1513.6z M3373.9,2327.1c0,75.6-61.5,137.1-137.1,137.1h-492.4c0,0.1,0,0.2,0,0.3h-7
						c-150,226.2-406.9,375.6-698,375.6s-548-149.5-698-375.6h-8.4c0-0.1,0-0.2,0-0.3h-491c-75.6,0-137.1-61.5-137.1-137.1V1679
						c0-75.6,61.5-137.1,137.1-137.1h465c-0.2,0.3-0.4,0.6-0.6,0.9h34.2c149.9-226.9,407.2-376.9,698.9-376.9s549,150,698.9,376.9
						h34.2c-0.2-0.3-0.4-0.6-0.6-0.9h465c75.6,0,137.1,61.5,137.1,137.1L3373.9,2327.1L3373.9,2327.1z"/>
				</g>
			</g>
			<path class="st3" d="M1308.8,2305.1v18.9c16.1,2.7,31.1,11.9,39.4,26.8c18.9,34.1,30.8,69.9,36.9,107.3c2.1,2.8,4.1,5.7,6.1,8.7
				c10.8,4.9,19.9,13.1,25.9,23.3h73c52.6,0,97-35.5,110.6-83.8c13.6,48.3,58.1,83.8,110.6,83.8h648.1c60.7,0,110.6-47.3,114.7-107
				c4.1,59.7,53.9,107,114.7,107h78.9c3.9-8.1,9.8-15.2,16.9-20.6c0.3-0.6,0.5-1.2,0.8-1.8c2.3-7,6.1-13,11.6-18.1
				c0.7-0.7,1.4-1.4,2.1-2.1c0.2-0.2,0.4-0.3,0.6-0.5c7.1-16.1,21.5-28.7,38.8-32.9c1.7-2,3.3-3.9,5-5.9c0.1-4.4,0.1-8.9-0.2-13.5
				c-1.4-19.1,9.8-36.4,25.4-46.6v-42.9L1308.8,2305.1L1308.8,2305.1z"/>
			<path class="st3" d="M2739.8,1611.2c0.3-4.6,0.4-9,0.2-13.5c-5.6-6.5-11-13.1-16.5-19.6c-4.2-1.8-8.2-4.2-11.9-7
				c-12.3-7-21.8-18.4-26.3-31.9c-5.5-4.9-10.1-10.8-13.4-17.4c-1.7-1.9-3.3-3.9-4.7-6.1h-82c-60.7,0-110.6,47.3-114.7,107
				c-4.1-59.7-53.9-107-114.7-107h-648.1c-52.6,0-97,35.5-110.6,83.8c-13.6-48.3-58.1-83.8-110.6-83.8h-74.9
				c-3.5,6.3-8.2,11.9-13.7,16.5c-1.2,1.9-2.4,3.7-3.8,5.4c-2.7,10.3-8.3,19.6-15.9,26.9c-6.6,31.3-17.5,61.5-33.6,90.4
				c-8.2,14.8-23.2,24.1-39.4,26.8v18.9h1459.8v-42.9C2749.6,1647.7,2738.4,1630.4,2739.8,1611.2z"/>
			<g>
				<g>
					<g>
						<g>
							<g>
								<path class="st4" d="M1461.5,2279.2H870.3c-8.3,0-15.1-6.7-15.1-15.1v-591.2c0-8.3,6.7-15.1,15.1-15.1h591.2
									c8.3,0,15.1,6.7,15.1,15.1v591.2C1476.6,2272.5,1469.8,2279.2,1461.5,2279.2z"/>
							</g>
						</g>
						<g>
							<g>
								<path class="st5" d="M1490,2413.8H841.8c-47.8,0-86.8-38.9-86.8-86.8V1679c0-47.8,38.9-86.8,86.8-86.8H1490
									c47.8,0,86.8,38.9,86.8,86.8v648.1C1576.7,2374.9,1537.8,2413.8,1490,2413.8z M841.8,1608.3c-39,0-70.6,31.7-70.6,70.6
									v648.1c0,38.9,31.7,70.6,70.6,70.6H1490c38.9,0,70.6-31.7,70.6-70.6V1679c0-38.9-31.7-70.6-70.6-70.6H841.8z"/>
							</g>
						</g>
					</g>
				</g>
				<g>
					<g>
						<g>
							<g>
								<path class="st4" d="M2330.9,2279.2h-591.2c-8.3,0-15.1-6.7-15.1-15.1v-591.2c0-8.3,6.7-15.1,15.1-15.1h591.2
									c8.3,0,15.1,6.7,15.1,15.1v591.2C2346,2272.5,2339.2,2279.2,2330.9,2279.2z"/>
							</g>
						</g>
						<g>
							<g>
								<path class="st1" d="M2359.4,2413.8h-648.1c-47.8,0-86.8-38.9-86.8-86.8V1679c0-47.8,38.9-86.8,86.8-86.8h648.1
									c47.8,0,86.8,38.9,86.8,86.8v648.1C2446.1,2374.9,2407.2,2413.8,2359.4,2413.8z M1711.2,1608.3c-38.9,0-70.6,31.7-70.6,70.6
									v648.1c0,38.9,31.7,70.6,70.6,70.6h648.1c38.9,0,70.6-31.7,70.6-70.6V1679c0-38.9-31.7-70.6-70.6-70.6H1711.2z"/>
							</g>
						</g>
					</g>
				</g>
				<g>
					<g>
						<g>
							<g>
								<path class="st4" d="M3208.4,2279.2h-591.2c-8.3,0-15.1-6.7-15.1-15.1v-591.2c0-8.3,6.7-15.1,15.1-15.1h591.2
									c8.3,0,15.1,6.7,15.1,15.1v591.2C3223.4,2272.5,3216.7,2279.2,3208.4,2279.2z"/>
							</g>
						</g>
						<g>
							<g>
								<path class="st5" d="M3236.8,2413.8h-648.1c-47.8,0-86.8-38.9-86.8-86.8V1679c0-47.8,38.9-86.8,86.8-86.8h648.1
									c47.8,0,86.8,38.9,86.8,86.8v648.1C3323.6,2374.9,3284.6,2413.8,3236.8,2413.8z M2588.7,1608.3c-38.9,0-70.6,31.7-70.6,70.6
									v648.1c0,38.9,31.7,70.6,70.6,70.6h648.1c38.9,0,70.6-31.7,70.6-70.6V1679c0-38.9-31.7-70.6-70.6-70.6H2588.7z"/>
							</g>
						</g>
					</g>
				</g>
			</g>
			<g>
				<g>
					<path class="st2" d="M1654.6,3535.3H1422v-11.2l123.4-160.9c8.3-10.9,14.7-21.3,18.8-31.1c4-9.5,6.1-19.5,6.1-29.6
						c0-16.6-5.9-29.4-18.2-39.2c-12.4-9.9-29.6-15-51.3-15c-11.8,0-27.9,3.7-47.9,11l-6.7,2.4v-86.6l3.8-0.9
						c23.2-5.7,47.5-8.6,72.2-8.6c20.7,0,40.1,2.9,57.4,8.7c17.4,5.8,32.7,14.1,45.3,24.6c12.7,10.6,22.7,23.3,29.8,37.7
						c7.1,14.5,10.7,30.6,10.7,47.9c0,31.3-10.3,62.2-30.8,91.9l-46,67.7h105.9L1654.6,3535.3z M1433.6,3525.3h214.5l31.2-71.2
						h-109.5l56.6-83.3c19.3-28,29-57,29-86.3c0-15.7-3.2-30.3-9.7-43.5c-6.4-13.2-15.6-24.8-27.2-34.4
						c-11.7-9.7-25.8-17.4-42.1-22.8c-16.3-5.4-34.6-8.2-54.2-8.2c-22.6,0-44.8,2.5-66.1,7.4v64.6c18.3-6.2,32.9-9.2,44.6-9.2
						c24,0,43.3,5.8,57.5,17.2c14.5,11.7,21.9,27.5,21.9,47c0,11.5-2.3,22.8-6.9,33.5c-4.5,10.5-11.2,21.7-20.1,33.2L1433.6,3525.3z
						"/>
				</g>
				<g>
					<path class="st2" d="M2290.6,3535.3h-232.6v-11.2l123.4-160.9c8.4-10.9,14.7-21.3,18.8-31.1c4-9.5,6.1-19.5,6.1-29.6
						c0-16.6-5.9-29.4-18.1-39.2c-12.4-9.9-29.6-15-51.3-15c-11.8,0-27.9,3.7-47.9,11l-6.7,2.4v-86.6l3.8-0.9
						c23.2-5.7,47.5-8.6,72.2-8.6c20.7,0,40.1,2.9,57.4,8.7c17.4,5.8,32.7,14.1,45.3,24.6c12.7,10.6,22.7,23.3,29.8,37.7
						c7.1,14.5,10.6,30.6,10.6,47.9c0,31.3-10.4,62.2-30.8,91.9l-46,67.7h105.9L2290.6,3535.3z M2069.6,3525.3h214.5l31.2-71.2
						h-109.5l56.6-83.3c19.3-28,29-57,29-86.3c0-15.7-3.2-30.3-9.6-43.5c-6.4-13.2-15.6-24.8-27.2-34.4
						c-11.7-9.7-25.9-17.4-42.1-22.8c-16.3-5.4-34.6-8.2-54.2-8.2c-22.6,0-44.8,2.5-66.1,7.4v64.6c18.3-6.2,32.9-9.2,44.6-9.2
						c24,0,43.3,5.8,57.5,17.2c14.5,11.7,21.9,27.5,21.9,47c0,11.5-2.3,22.8-6.9,33.5c-4.5,10.5-11.2,21.7-20.1,33.2L2069.6,3525.3z
						"/>
				</g>
				<g>
					<path class="st2" d="M2609.1,3535.3h-85.5V3484h-144.9v-67.3l147.1-240.9h83.3v231.7h41.9l-31.1,76.5h-10.8L2609.1,3535.3
						L2609.1,3535.3z M2533.6,3525.3h65.6V3474h14l23-56.6h-37v-231.7h-67.8l-142.7,233.8v54.5h144.9V3525.3z M2533.6,3417.4h-82.9
						l82.9-128.4V3417.4z M2469,3407.5h54.7v-84.7L2469,3407.5z"/>
				</g>
			</g>
			<g>
				<g>
					<g>
						<path class="st1" d="M1824.1,3281.4c0-17.6,11.5-32.6,27.4-38v-65.1c-59.1,6-105.2,55.9-105.2,116.5v15.4h77.8V3281.4z"/>
						<path class="st1" d="M1875.3,3178.2v64.7c16.6,4.9,28.9,20.3,28.9,38.5v28.8h76.2v-15.4
							C1980.5,3234.1,1934.4,3184.2,1875.3,3178.2z"/>
						<path class="st4" d="M1864.2,3371c-21,0-38.3-16.4-39.9-37h-77.9v79.1c0,64.7,52.4,117.1,117.1,117.1
							c64.7,0,117.1-52.4,117.1-117.1v-79.1h-76.4C1902.5,3354.6,1885.1,3371,1864.2,3371z"/>
					</g>
					<g>
						<path class="st5" d="M1864.2,3261.6L1864.2,3261.6c-13.4,0-24.4,12.4-24.4,27.6v34.1c0,15.2,11,27.6,24.4,27.6l0,0
							c13.4,0,24.4-12.4,24.4-27.6v-34.1C1888.5,3274,1877.6,3261.6,1864.2,3261.6z"/>
					</g>
				</g>
			</g>
			<path class="st2" d="M2979.1,1481.6L2979.1,1481.6c12.6,0,20.6-13.6,14.3-24.6c-57.8-102-132.5-195.4-222.9-276.5
				C2571.3,1001.7,2311.9,903,2044.1,903c-291.3-0.1-565.2,113.3-771.2,319.3c-70.9,70.9-130.8,149.8-178.8,234.8
				c-6.2,11,1.7,24.6,14.3,24.6l0,0c5.9,0,11.4-3.2,14.3-8.4c181.9-320.9,526.5-538,921-538s739.2,217.1,921,538
				C2967.7,1478.4,2973.2,1481.6,2979.1,1481.6z"/>
			<path class="st2" d="M2107.7,3049.1c-8.7,0.5-15.4,7.7-15.4,16.4v1.6c0,8.2,6.9,14.7,15,14.3c267.3-15.2,516.5-126.6,707.4-317.4
				c66.9-66.9,124-141,170.6-220.6c6.4-11-1.5-24.8-14.2-24.8l0,0c-5.9,0-11.3,3.1-14.2,8.2
				C2783.2,2822.9,2469.7,3027.4,2107.7,3049.1z"/>
			<path class="st2" d="M1823.8,2930.1c-46.8-18.9-96.5,28.7-149.2,79.1c-51.4,49.2-104.6,100-149.8,87.2
				c-36.3-10.3-49.2-59-64.3-115.3c-9.9-37.3-20.9-78.2-40.5-113.9c-19.3-38-50.5-60.9-57-65.4c-0.5-0.3-0.9-0.7-1.3-1
				c-91.5-77.4-169.8-170-230.8-274c-3-5.1-8.4-8.2-14.2-8.2h-0.1c-12.7,0-20.7,13.8-14.2,24.8c46.6,79.5,103.7,153.6,170.7,220.6
				c31.1,31.1,63.7,59.9,97.7,86.7c0.1,0.1,0.2,0.2,0.3,0.4c32.4,36.2,46.2,88.1,59.6,138.3c16.8,62.9,32.6,122.3,85.9,137.4
				c62.2,17.7,121.9-39.4,179.7-94.7c43.2-41.4,88-84.1,116.2-72.6c16.2,6.6,43,37.9,40.2,173.9c-0.2,8.5,6.5,15.7,15.2,16
				c0.2,0,0.4,0,0.5,0c4.3,0,8.4-1.8,11.4-5.1c1.4-3.7,2.7-7.2,4.1-10.9C1886,3013.9,1866.4,2947.4,1823.8,2930.1z"/>
			<g>
				<g>
					<g>
						<g>
							<g>
								<g>
									<path class="st2" d="M2124.1,1086.2c-13.5,0-19.8-16.4-25.3-31c-4.9-12.9-9.5-25-17.2-25c-7.7,0-12.3,12.2-17.2,25
										c-5.5,14.5-11.7,31-25.2,31c-13.5,0-19.7-16.4-25.2-31c-4.9-12.9-9.5-25-17.2-25s-12.3,12.2-17.2,25
										c-5.5,14.5-11.7,31-25.2,31s-19.7-16.4-25.2-31c-4.9-12.9-9.5-25-17.2-25c-2.4,0-4.4-2.2-4.4-4.9c0-2.7,2-4.9,4.4-4.9
										c13.5,0,19.7,16.5,25.2,31c4.9,12.9,9.5,25,17.2,25c7.7,0,12.3-12.2,17.2-25c5.5-14.5,11.7-31,25.2-31s19.7,16.4,25.2,31
										c4.9,12.9,9.5,25,17.2,25c7.7,0,12.3-12.2,17.2-25c5.5-14.5,11.7-31,25.2-31c13.5,0,19.8,16.5,25.3,31
										c4.9,12.9,9.5,25,17.2,25s12.3-12.2,17.2-25c5.5-14.5,11.7-31,25.3-31c2.4,0,4.4,2.2,4.4,4.9c0,2.7-2,4.9-4.4,4.9
										c-7.7,0-12.3,12.2-17.2,25C2143.9,1069.7,2137.7,1086.2,2124.1,1086.2z"/>
								</g>
							</g>
						</g>
						<g>
							<g>
								<g>
									<path class="st2" d="M2167.6,3001.4c-13.5,0-19.8-16.4-25.3-31c-4.9-12.9-9.5-25-17.2-25c-7.7,0-12.3,12.1-17.2,25
										c-5.5,14.5-11.7,31-25.2,31c-13.5,0-19.7-16.4-25.2-31c-4.9-12.9-9.5-25-17.2-25c-7.7,0-12.3,12.1-17.2,25
										c-5.5,14.5-11.7,31-25.2,31s-19.7-16.4-25.2-31c-4.9-12.9-9.5-25-17.2-25c-2.4,0-4.4-2.2-4.4-4.9c0-2.7,2-4.9,4.4-4.9
										c13.5,0,19.7,16.5,25.2,31c4.9,12.9,9.5,25,17.2,25c7.7,0,12.3-12.1,17.2-25c5.5-14.5,11.7-31,25.2-31
										c13.5,0,19.7,16.4,25.2,31c4.9,12.9,9.5,25,17.1,25s12.3-12.1,17.2-25c5.5-14.5,11.7-31,25.2-31c13.5,0,19.8,16.4,25.3,31
										c4.9,12.9,9.5,25,17.2,25s12.3-12.1,17.2-25c5.5-14.5,11.7-31,25.3-31c2.4,0,4.4,2.2,4.4,4.9c0,2.7-2,4.9-4.4,4.9
										c-7.7,0-12.3,12.1-17.2,25C2187.3,2984.9,2181.1,3001.4,2167.6,3001.4z"/>
								</g>
							</g>
						</g>
					</g>
					<g>
						<path class="st2" d="M1526.8,1109.4c-2.2-2.2-5.9-2.2-8.1,0l-65.4,65.4c-2.2,2.2-2.2,5.9,0,8.1l65.2,65.2
							c2.2,2.2,5.9,2.2,8.1,0l65.4-65.4c2.2-2.2,2.2-5.9,0-8.1L1526.8,1109.4z M1522.5,1236l-57.1-57.1l57.3-57.3l57.1,57.1
							L1522.5,1236z"/>
						<path class="st2" d="M2713,2768.5l-65.2-65.2c-2.2-2.2-5.9-2.2-8.1,0l-65.4,65.4c-2.2,2.2-2.2,5.9,0,8.1l65.2,65.2
							c2.2,2.2,5.9,2.2,8.1,0l65.4-65.4C2715.2,2774.4,2715.2,2770.7,2713,2768.5z M2643.6,2829.9l-57.1-57.1l57.3-57.3l57.1,57.1
							L2643.6,2829.9z"/>
					</g>
					<g>
						<path class="st2" d="M2578.6,1151.5c-18-18-47.2-18-65.2,0l-8.3,8.3c-18,18-18,47.2,0,65.2l8.1,8.1c18,18,47.2,18,65.2,0
							l8.3-8.3c18-18,18-47.2,0-65.2L2578.6,1151.5z M2517.2,1220.9L2517.2,1220.9c-15.8-15.8-15.8-41.3,0-57.1l0.1-0.2
							c15.8-15.8,41.4-15.8,57.1,0l0,0c15.8,15.8,15.8,41.3,0,57.1l-0.1,0.2C2558.6,1236.7,2533,1236.7,2517.2,1220.9z"/>
						<path class="st2" d="M1617.5,2941.1l-8.1-8.1c-18-18-47.2-18-65.2,0l-8.3,8.3c-18,18-18,47.2,0,65.2l8.1,8.1
							c18,18,47.2,18,65.2,0l8.3-8.3C1635.6,2988.3,1635.6,2959.1,1617.5,2941.1z M1548.1,3002.4L1548.1,3002.4
							c-15.8-15.8-15.8-41.4,0-57.1l0.2-0.1c15.8-15.8,41.3-15.8,57.1,0l0,0c15.8,15.8,15.8,41.4,0,57.1l-0.2,0.1
							C1589.4,3018.2,1563.9,3018.2,1548.1,3002.4z"/>
					</g>
				</g>
			</g>
		</g>
	</g>
	<g class="st6">
		<path class="st0" d="M1075.9,2113.8v-290.6c0-83.5,43.3-132.9,125.2-132.9s125.2,49.5,125.2,132.9v57.2h-80.4v-62.6
			c0-35.6-17-50.2-42.5-50.2s-42.5,14.7-42.5,50.2V2120c0,35.6,17,49.5,42.5,49.5s42.5-13.9,42.5-49.5v-82.7h80.4v76.5
			c0,83.5-43.3,132.9-125.2,132.9S1075.9,2197.3,1075.9,2113.8z"/>
		<path class="st0" d="M1941.2,2110.7v-30.9h80.4v37.1c0,38.6,17,52.6,44,52.6c27.1,0,44.1-13.9,44.1-54.1
			c0-44.8-17-73.4-72.6-122.1c-71.1-62.6-94.3-106.7-94.3-168.5c0-85,44.1-134.5,126.7-134.5c82.7,0,123.6,49.5,123.6,136v22.4
			h-80.4v-27.8c0-38.6-15.5-53.3-42.5-53.3c-27.1,0-42.5,14.7-42.5,51.8c0,39.4,17.8,68,73.4,116.7c71.1,62.6,93.5,105.9,93.5,173.1
			c0,88.1-44.8,137.6-128.3,137.6S1941.2,2197.3,1941.2,2110.7z"/>
		<path class="st0" d="M2845.4,1705.8h231.8v77.3h-146.8v143h116.7v77.3h-116.7v166.1h146.8v77.3h-231.8V1705.8z"/>
	</g>
	<g>
		<path class="st0" d="M1050,2113.8v-290.6c0-83.5,43.3-132.9,125.2-132.9c81.9,0,125.2,49.5,125.2,132.9v57.2H1220v-62.6
			c0-35.6-17-50.2-42.5-50.2s-42.5,14.7-42.5,50.2V2120c0,35.6,17,49.5,42.5,49.5s42.5-13.9,42.5-49.5v-82.7h80.4v76.5
			c0,83.5-43.3,132.9-125.2,132.9C1093.3,2246.8,1050,2197.3,1050,2113.8z"/>
		<path class="st0" d="M1915.4,2110.7v-30.9h80.4v37.1c0,38.6,17,52.6,44.1,52.6s44.1-13.9,44.1-54.1c0-44.8-17-73.4-72.6-122.1
			c-71.1-62.6-94.3-106.7-94.3-168.5c0-85,44.1-134.5,126.7-134.5c82.7,0,123.7,49.5,123.7,136v22.4H2087v-27.8
			c0-38.6-15.5-53.3-42.5-53.3c-27.1,0-42.5,14.7-42.5,51.8c0,39.4,17.8,68,73.4,116.7c71.1,62.6,93.5,105.9,93.5,173.1
			c0,88.1-44.8,137.6-128.3,137.6S1915.4,2197.3,1915.4,2110.7z"/>
		<path class="st0" d="M2819.5,1705.8h231.8v77.3h-146.8v143h116.7v77.3h-116.7v166.1h146.8v77.3h-231.8V1705.8z"/>
	</g>
</g>
</svg>
