<svg width="750" height="500" viewBox="0 0 750 500" fill="none" xmlns="http://www.w3.org/2000/svg">
<mask id="mask0_12_2098" style="mask-type:luminance" maskUnits="userSpaceOnUse" x="0" y="0" width="750" height="500">
<path d="M750 0H0V500H750V0Z" fill="white"/>
</mask>
<g mask="url(#mask0_12_2098)">
<path d="M754.65 395.19H618.09L554.6 331.69H407.82L350.22 269.59L350.95 268.92L408.26 330.69H555.01L618.51 394.19H754.65V395.19Z" fill="#CED6DD"/>
<path d="M756.59 390.96H620.03L556.54 327.46H409.76L352.16 265.36L352.89 264.68L410.2 326.46H556.95L620.45 389.96H756.59V390.96Z" fill="#CED6DD"/>
<path d="M758.53 386.73H621.97L558.48 323.23H411.7L354.1 261.13L354.83 260.45L412.14 322.23H558.89L622.39 385.73H758.53V386.73Z" fill="#CED6DD"/>
<path d="M760.47 382.5H623.92L560.42 319H413.64L356.04 256.9L356.77 256.22L414.08 318H560.83L624.33 381.5H760.47V382.5Z" fill="#CED6DD"/>
<path d="M762.41 378.26H625.86L562.36 314.77H415.58L357.98 252.67L358.72 251.99L416.02 313.77H562.77L626.27 377.26H762.41V378.26Z" fill="#CED6DD"/>
<path d="M769.02 416.21H607.61L544.11 352.71H397.34L339.74 290.61L340.47 289.93L397.77 351.71H544.53L608.03 415.21H769.02V416.21Z" fill="#CED6DD"/>
<path d="M770.95 411.98H609.55L546.06 348.48H399.28L341.68 286.38L342.41 285.7L399.71 347.48H546.47L609.97 410.98H770.95V411.98Z" fill="#CED6DD"/>
<path d="M772.9 407.74H611.49L547.99 344.25H401.22L343.62 282.15L344.35 281.47L401.65 343.25H548.41L611.91 406.74H772.9V407.74Z" fill="#CED6DD"/>
<path d="M774.84 403.51H613.43L549.94 340.02H403.16L345.56 277.92L346.29 277.24L403.59 339.02H550.35L613.85 402.51H774.84V403.51Z" fill="#CED6DD"/>
<path d="M776.78 399.28H615.37L551.88 335.78H405.1L347.5 273.69L348.23 273.01L405.53 334.78H552.29L615.79 398.28H776.78V399.28Z" fill="#CED6DD"/>
<g style="mix-blend-mode:overlay" opacity="0.2">
<path d="M120.6 316.04L142.12 353.32L120.6 390.6H77.5598L56.0298 353.32L77.5598 316.04H120.6Z" fill="#E5E5E5"/>
</g>
<g style="mix-blend-mode:overlay" opacity="0.4">
<path d="M288.99 441.32L298.05 457.02L288.99 472.71H270.87L261.81 457.02L270.87 441.32H288.99Z" fill="#E5E5E5"/>
</g>
<g style="mix-blend-mode:overlay" opacity="0.7">
<path d="M317.65 401.18L333.53 428.68L317.65 456.18H285.9L270.02 428.68L285.9 401.18H317.65Z" fill="#E5E5E5"/>
</g>
<g style="mix-blend-mode:overlay" opacity="0.7">
<path d="M213.45 417.6L224.83 437.31L213.45 457.01H190.7L179.32 437.31L190.7 417.6H213.45Z" fill="#E5E5E5"/>
</g>
<g style="mix-blend-mode:overlay" opacity="0.7">
<path d="M321.66 347.37L329.56 361.05L321.66 374.73H305.86L297.96 361.05L305.86 347.37H321.66Z" fill="#E5E5E5"/>
</g>
<g style="mix-blend-mode:overlay" opacity="0.7">
<path d="M68.74 296.98L76.64 310.66L68.74 324.34H52.94L45.04 310.66L52.94 296.98H68.74Z" fill="#E5E5E5"/>
</g>
<g style="mix-blend-mode:overlay" opacity="0.7">
<path d="M130.91 211.07L137.27 222.09L130.91 233.11H118.18L111.82 222.09L118.18 211.07H130.91Z" fill="#E5E5E5"/>
</g>
<g style="mix-blend-mode:overlay" opacity="0.5">
<path d="M199.75 115.11L209.77 132.46L199.75 149.81H179.72L169.7 132.46L179.72 115.11H199.75Z" fill="#E5E5E5"/>
</g>
<g style="mix-blend-mode:overlay" opacity="0.4">
<path d="M114.95 231.72L130.83 259.22L114.95 286.72H83.1998L67.3198 259.22L83.1998 231.72H114.95Z" fill="#E5E5E5"/>
</g>
<g style="mix-blend-mode:overlay" opacity="0.4">
<path d="M180.47 215.95L209.2 265.71L180.47 315.46H123.02L94.29 265.71L123.02 215.95H180.47Z" fill="#E5E5E5"/>
</g>
<g style="mix-blend-mode:overlay" opacity="0.4">
<path d="M221.01 27.6099L238.1 57.1999L221.01 86.7799H186.85L169.76 57.1999L186.85 27.6099H221.01Z" fill="#E5E5E5"/>
</g>
<g style="mix-blend-mode:overlay" opacity="0.5">
<path d="M228.85 325.63L249.46 361.33L228.85 397.02H187.63L167.02 361.33L187.63 325.63H228.85Z" fill="#E5E5E5"/>
</g>
<g style="mix-blend-mode:overlay" opacity="0.5">
<path d="M146.34 352.01L182.16 414.03L146.34 476.06H74.7197L38.9097 414.03L74.7197 352.01H146.34Z" fill="#E5E5E5"/>
</g>
<g style="mix-blend-mode:overlay" opacity="0.2">
<path d="M196.26 69.0898L226.61 121.65L196.26 174.21H135.57L105.23 121.65L135.57 69.0898H196.26Z" fill="#E5E5E5"/>
</g>
<g style="mix-blend-mode:overlay" opacity="0.2">
<path d="M23.2598 277.08L36.9297 300.76L23.2598 324.45H-4.09026L-17.7603 300.76L-4.09026 277.08H23.2598Z" fill="#E5E5E5"/>
</g>
<g style="mix-blend-mode:overlay" opacity="0.2">
<path d="M323.26 126.13L336.93 149.81L323.26 173.5H295.91L282.24 149.81L295.91 126.13H323.26Z" fill="#E5E5E5"/>
</g>
<g style="mix-blend-mode:overlay" opacity="0.2">
<path d="M350.61 357.14L364.28 380.82L350.61 404.5H323.26L309.58 380.82L323.26 357.14H350.61Z" fill="#E5E5E5"/>
</g>
<g style="mix-blend-mode:overlay" opacity="0.2">
<path d="M342.76 273.08L358.74 300.76L342.76 328.45H310.79L294.8 300.76L310.79 273.08H342.76Z" fill="#E5E5E5"/>
</g>
<g style="mix-blend-mode:overlay" opacity="0.2">
<path d="M110.28 150.22L126.26 177.9L110.28 205.58H78.3096L62.3296 177.9L78.3096 150.22H110.28Z" fill="#E5E5E5"/>
</g>
<g style="mix-blend-mode:overlay" opacity="0.2">
<path d="M93.2797 325.74L116.06 365.2L93.2797 404.66H47.7197L24.9297 365.2L47.7197 325.74H93.2797Z" fill="#E5E5E5"/>
</g>
<g style="mix-blend-mode:overlay" opacity="0.2">
<path d="M290.97 254.62L313.76 294.08L290.97 333.53H245.41L222.63 294.08L245.41 254.62H290.97Z" fill="#E5E5E5"/>
</g>
<path d="M334.46 230.72H295.14L276.06 263.78H229.46L198.7 210.49H137.17L87.1101 124.84L98.0001 105.65L86.3101 85.5996L63.0701 85.7296L51.5701 105.92L63.3001 126L85.3801 125.88L135.44 211.53L105.26 263.81H2.70006L-8.29994 244.68H-31.5699L-43.1899 264.81L-31.5699 284.93H-8.33994L2.66006 265.81H105.26L136 319.06H197.54L223.38 361.81L204.51 395L224.36 428.94L263.68 428.72L283.15 394.56L263.3 360.58L225.12 360.79L199.28 318.05L229.46 265.78H276.06L295.14 298.83H334.46L354.12 264.78L334.46 230.72ZM53.8801 105.9L64.2401 87.7196L85.1701 87.5996L95.7301 105.67L85.3701 123.85L64.4501 124L53.8801 105.9ZM-9.48994 282.9H-30.4199L-40.8799 264.78L-30.4199 246.65H-9.48994L1.00006 264.78L-9.48994 282.9ZM280.84 394.53L262.52 426.69L225.52 426.9L206.82 395L225.14 362.84L262.14 362.63L280.84 394.53ZM197.55 317.06H137.18L107 264.78L137.19 212.49H197.56L227.74 264.78L197.55 317.06ZM333.31 296.83H296.31L277.8 264.78L296.31 232.72H333.31L351.81 264.78L333.31 296.83Z" fill="white"/>
<path d="M151.49 14.6598L163.22 -5.40022L151.72 -25.5902L128.48 -25.7202L116.75 -5.66022L127.68 13.5198L84.6099 87.2098H86.9299L129.41 14.5298L151.49 14.6598ZM160.91 -5.41022L150.35 12.6498L129.42 12.5298L119.06 -5.65022L129.63 -23.7102L150.55 -23.5902L160.91 -5.41022Z" fill="white"/>
<path d="M133 364.22H114.61L105.71 379.64H84.0001L69.6301 354.79H40.9301L17.5801 314.79L22.6801 305.84L17.2101 296.49L6.37006 296.55L1.00006 306L6.47006 315.35L16.7701 315.29L40.1201 355.24L26.0501 379.64H-21.7899L-26.9399 370.72H-37.7699L-43.1899 380.1L-37.7699 389.49H-26.9399L-21.7899 380.57H26.0501L40.4001 405.42H69.1001L81.1501 425.36L72.3401 440.82L81.6001 456.65L99.9401 456.55L109 440.62L99.7401 424.79L81.9401 424.89L69.9001 405L84.0001 380.57H105.73L114.63 395.99H133L142.17 380.1L133 364.22ZM2.08006 306L6.92006 297.52H16.6801L21.6001 305.94L16.7701 314.42L7.00006 314.43L2.08006 306ZM-27.4699 388.56H-37.2299L-42.1099 380.1L-37.2299 371.65H-27.4699L-22.5899 380.1L-27.4699 388.56ZM107.94 440.62L99.4001 455.62L82.1301 455.72L73.4201 440.82L81.9701 425.82L99.2301 425.72L107.94 440.62ZM69.0901 404.49H40.9401L26.8601 380.1L40.9401 355.72H69.0901L83.1701 380.1L69.0901 404.49ZM132.42 395.05H115.15L106.52 380.1L115.15 365.1H132.42L141.05 380.1L132.42 395.05Z" fill="white"/>
<path opacity="0.3" d="M348.87 84.5397H335.34L329.16 95.2497H272.16L255.56 66.4097L283.34 18.8697L295.71 18.9397L302.54 7.25969L295.85 -4.49031L282.32 -4.57031L275.49 7.10969L281.62 17.8597L253.83 65.3997H219.36L202.12 95.2497H176.53L165.84 76.7397H143.3L132 96.2497L143.27 115.77H165.81L176.5 97.2497H202.09L218.74 126.09L204.56 149.6L183.17 149.48L171.79 168.93L183 188.51L205.54 188.64L216.91 169.19L206.33 150.62L220.5 127.1H255L272.23 97.2497H329.23L335.34 108H348.87L355.63 96.2797L348.87 84.5397ZM283.47 -2.56031L294.68 -2.50031L300.23 7.24969L294.57 16.9297L283.35 16.8697L277.8 7.11969L283.47 -2.56031ZM164.68 113.77H144.46L134.34 96.2497L144.46 78.7397H164.68L174.8 96.2497L164.68 113.77ZM204.34 186.63L184.12 186.52L174.12 168.94L184.33 151.49L204.56 151.6L214.56 169.17L204.34 186.63ZM253.82 125.1H220.51L203.86 96.2497L220.51 67.3997H253.82L270.48 96.2497L253.82 125.1ZM347.71 106H336.5L330.89 96.2797L336.5 86.5697H347.71L353.32 96.2797L347.71 106Z" fill="white"/>
<path opacity="0.7" d="M395.28 318.17H372.05L361.05 337.29H258.45L228.27 285L278.33 199.35L300.41 199.48L312.14 179.42L300.64 159.24L277.4 159.1L265.67 179.16L276.6 198.34L226.54 284H165L134.24 337.28H87.6498L68.5698 304.24H29.2498L9.58984 338.29L29.2498 372.35H68.5698L87.6498 339.29H134.25L164.43 391.56L138.59 434.31L100.41 434.09L80.5598 468L99.9998 502.2L139.32 502.42L159.17 468.48L140.28 435.33L166.12 392.57H227.66L258.42 339.29H361L372 358.41H395.23L406.85 338.29L395.28 318.17ZM278.54 161.17L299.47 161.29L309.83 179.47L299.26 197.53L278.34 197.41L268 179.18L278.54 161.17ZM67.4098 370.35H30.4098L11.8998 338.29L30.3998 306.24H67.3998L85.9099 338.29L67.4098 370.35ZM138.2 500.41L101.2 500.2L82.8698 468L101.56 436.06L138.56 436.27L156.88 468.42L138.2 500.41ZM226.53 390.57H166.16L136 338.29L166.16 286H226.53L256.72 338.28L226.53 390.57ZM394.13 356.41H373.2L362.74 338.29L373.2 320.17H394.13L404.59 338.29L394.13 356.41Z" fill="white"/>
<path opacity="0.5" d="M183.29 186.64H154.6L140.83 210.48H107.53L85.3398 172H40.9398L4.99982 110.51L12.8898 96.6699L4.23982 81.9199L-12.8502 82.0199L-21.3002 96.8599L-12.6802 111.61L3.24982 111.52L39.2498 173.04L17.5898 210.48H-56.0802L-64.0802 196.69H-81.1302L-89.6802 211.48L-81.1302 226.28H-64.0002L-56.0002 212.48H17.5898L39.7898 250.93H84.1898L102.67 281.5L89.0498 305.42L103.53 330.18L132.22 330.02L146.43 305.09L131.94 280.33L104.4 280.48L85.9198 249.92L107.53 212.48H140.83L154.6 236.33H183.29L197.64 211.48L183.29 186.64ZM-19.0002 96.8499L-11.6802 83.9999L3.09982 83.9299L10.5598 96.6799L3.23982 109.52L-11.5302 109.61L-19.0002 96.8499ZM-65.2002 224.28H-80.0002L-87.3902 211.48L-80.0002 198.69H-65.2002L-57.8102 211.48L-65.2002 224.28ZM144.12 305.11L131.06 328L104.68 328.15L91.3498 305.41L104.42 282.48L130.8 282.33L144.12 305.11ZM84.1798 248.93H40.9398L19.3198 211.48L40.9398 174H84.1798L105.8 211.44L84.1798 248.93ZM182.18 234.33H155.75L142.56 211.48L155.75 188.64H182.14L195.33 211.48L182.18 234.33Z" fill="white"/>
<path d="M513.847 383.597C578.877 318.566 578.877 213.132 513.847 148.102C448.817 83.0716 343.382 83.0716 278.352 148.102C213.322 213.132 213.322 318.566 278.352 383.597C343.382 448.627 448.817 448.627 513.847 383.597Z" fill="url(#paint0_radial_12_2098)"/>
<path d="M375 368.21C351.62 368.21 328.765 361.277 309.326 348.288C289.886 335.299 274.735 316.837 265.788 295.237C256.841 273.637 254.5 249.868 259.061 226.938C263.622 204.007 274.881 182.944 291.413 166.413C307.944 149.881 329.007 138.622 351.938 134.061C374.868 129.5 398.637 131.841 420.237 140.788C441.837 149.735 460.299 164.886 473.288 184.326C486.277 203.765 493.21 226.62 493.21 250C493.173 281.339 480.706 311.385 458.546 333.546C436.385 355.706 406.339 368.173 375 368.21ZM375 134.65C352.186 134.65 329.884 141.415 310.915 154.09C291.945 166.764 277.161 184.78 268.43 205.857C259.7 226.935 257.415 250.128 261.866 272.503C266.317 294.879 277.303 315.432 293.435 331.564C309.567 347.696 330.12 358.682 352.496 363.133C374.872 367.584 398.065 365.3 419.142 356.569C440.22 347.839 458.235 333.054 470.91 314.085C483.584 295.115 490.35 272.814 490.35 250C490.313 219.418 478.148 190.1 456.523 168.476C434.899 146.851 405.581 134.687 375 134.65Z" fill="url(#paint1_linear_12_2098)"/>
<path d="M375 384.33C300.93 384.33 240.67 324.07 240.67 250C240.67 175.93 300.93 115.67 375 115.67C449.07 115.67 509.33 175.93 509.33 250C509.33 324.07 449.07 384.33 375 384.33ZM375 126.41C350.556 126.41 326.661 133.658 306.337 147.239C286.013 160.819 270.172 180.121 260.818 202.704C251.463 225.287 249.016 250.137 253.785 274.111C258.553 298.085 270.324 320.107 287.609 337.391C304.893 354.676 326.915 366.446 350.889 371.215C374.863 375.984 399.713 373.536 422.296 364.182C444.879 354.828 464.181 338.987 477.761 318.663C491.341 298.339 498.59 274.444 498.59 250C498.553 217.233 485.52 185.819 462.35 162.65C439.181 139.48 407.767 126.447 375 126.41Z" fill="url(#paint2_linear_12_2098)"/>
<path d="M375 408.84C287.42 408.84 216.16 337.58 216.16 250C216.16 162.42 287.42 91.1597 375 91.1597C462.58 91.1597 533.84 162.42 533.84 250C533.84 337.58 462.58 408.84 375 408.84ZM375 92.1597C288 92.1597 217.16 163 217.16 250C217.16 337 288 407.84 375 407.84C462 407.84 532.84 337 532.84 250C532.84 163 462 92.1597 375 92.1597Z" fill="white"/>
<path d="M375 363C352.651 363 330.803 356.372 312.221 343.956C293.638 331.539 279.154 313.891 270.602 293.243C262.049 272.595 259.811 249.874 264.171 227.954C268.531 206.035 279.294 185.9 295.097 170.097C310.9 154.293 331.035 143.531 352.955 139.171C374.875 134.811 397.595 137.048 418.243 145.601C438.891 154.154 456.54 168.637 468.956 187.22C481.373 205.803 488 227.65 488 250C487.979 279.963 476.067 308.692 454.88 329.879C433.693 351.066 404.963 362.978 375 363ZM375 138.1C352.844 138.1 331.186 144.671 312.766 156.982C294.345 169.293 279.99 186.791 271.516 207.262C263.042 227.733 260.83 250.258 265.159 271.986C269.489 293.715 280.166 313.671 295.84 329.331C311.513 344.99 331.479 355.649 353.211 359.96C374.944 364.27 397.466 362.038 417.93 353.545C438.393 345.053 455.879 330.682 468.173 312.251C480.468 293.819 487.02 272.155 487 250C486.966 220.31 475.153 191.848 454.155 170.859C433.157 149.871 404.689 138.071 375 138.05V138.1Z" fill="white"/>
<path d="M279.93 250C279.93 231.197 285.505 212.816 295.952 197.182C306.398 181.547 321.246 169.362 338.618 162.167C355.99 154.971 375.105 153.088 393.547 156.756C411.989 160.425 428.929 169.479 442.224 182.775C455.52 196.071 464.575 213.011 468.243 231.452C471.911 249.894 470.029 269.01 462.833 286.381C455.637 303.753 443.452 318.601 427.818 329.048C412.184 339.494 393.803 345.07 375 345.07C349.786 345.067 325.606 335.05 307.778 317.221C289.949 299.393 279.932 275.213 279.93 250Z" fill="url(#paint3_linear_12_2098)"/>
<path d="M375 335.94C422.259 335.94 460.57 297.629 460.57 250.37C460.57 203.111 422.259 164.8 375 164.8C327.741 164.8 289.43 203.111 289.43 250.37C289.43 297.629 327.741 335.94 375 335.94Z" fill="url(#paint4_linear_12_2098)"/>
<path d="M439.489 265.43C448.022 229.805 426.06 194.007 390.435 185.474C354.809 176.941 319.012 198.903 310.478 234.529C301.945 270.154 323.908 305.952 359.533 314.485C395.159 323.018 430.956 301.055 439.489 265.43Z" fill="url(#paint5_linear_12_2098)"/>
<path d="M375 309.96C407.971 309.96 434.7 283.231 434.7 250.26C434.7 217.288 407.971 190.56 375 190.56C342.028 190.56 315.3 217.288 315.3 250.26C315.3 283.231 342.028 309.96 375 309.96Z" fill="url(#paint6_linear_12_2098)"/>
<path d="M379.17 91.66C379.172 92.4852 378.929 93.2924 378.472 93.9794C378.015 94.6665 377.365 95.2025 376.603 95.5197C375.841 95.8369 375.002 95.9209 374.193 95.7611C373.383 95.6013 372.639 95.205 372.055 94.6222C371.471 94.0394 371.073 93.2964 370.911 92.4872C370.749 91.678 370.831 90.8391 371.147 90.0765C371.462 89.314 371.996 88.6621 372.682 88.2035C373.368 87.7448 374.175 87.5 375 87.5C376.104 87.5 377.163 87.938 377.945 88.7178C378.727 89.4977 379.167 90.5558 379.17 91.66Z" fill="white"/>
<path d="M379.17 408.34C379.17 409.165 378.925 409.971 378.467 410.657C378.009 411.342 377.357 411.877 376.595 412.192C375.833 412.508 374.995 412.591 374.186 412.43C373.377 412.269 372.634 411.872 372.051 411.289C371.468 410.705 371.071 409.962 370.91 409.153C370.749 408.345 370.831 407.506 371.147 406.744C371.463 405.982 371.997 405.331 372.683 404.873C373.369 404.414 374.175 404.17 375 404.17C375.547 404.17 376.089 404.278 376.595 404.487C377.101 404.697 377.561 405.004 377.948 405.391C378.335 405.778 378.643 406.238 378.852 406.744C379.062 407.25 379.17 407.792 379.17 408.34Z" fill="white"/>
<path d="M533.34 254.17C532.515 254.172 531.707 253.929 531.02 253.472C530.333 253.015 529.797 252.364 529.48 251.602C529.163 250.841 529.079 250.002 529.239 249.192C529.398 248.383 529.795 247.639 530.377 247.054C530.96 246.47 531.703 246.072 532.513 245.91C533.322 245.749 534.161 245.831 534.923 246.146C535.686 246.461 536.338 246.996 536.796 247.682C537.255 248.368 537.5 249.174 537.5 250C537.5 251.104 537.062 252.163 536.282 252.945C535.502 253.726 534.444 254.167 533.34 254.17Z" fill="white"/>
<path d="M216.66 254.17C215.835 254.17 215.029 253.925 214.343 253.467C213.657 253.009 213.123 252.357 212.807 251.595C212.492 250.833 212.409 249.995 212.57 249.186C212.731 248.377 213.128 247.634 213.711 247.051C214.294 246.468 215.037 246.071 215.846 245.91C216.655 245.749 217.494 245.831 218.256 246.147C219.017 246.463 219.669 246.997 220.127 247.683C220.585 248.369 220.83 249.175 220.83 250C220.83 251.106 220.39 252.166 219.608 252.948C218.826 253.73 217.766 254.17 216.66 254.17Z" fill="white"/>
<path d="M489.91 141C489.326 141.583 488.583 141.979 487.775 142.14C486.966 142.301 486.128 142.218 485.366 141.902C484.604 141.586 483.953 141.052 483.495 140.366C483.037 139.681 482.792 138.874 482.792 138.05C482.792 137.225 483.037 136.419 483.495 135.734C483.953 135.048 484.604 134.513 485.366 134.198C486.128 133.882 486.966 133.799 487.775 133.96C488.583 134.12 489.326 134.517 489.91 135.1C490.688 135.885 491.124 136.945 491.124 138.05C491.124 139.155 490.688 140.215 489.91 141Z" fill="white"/>
<path d="M266 364.91C265.416 365.493 264.673 365.89 263.864 366.05C263.056 366.211 262.217 366.128 261.456 365.812C260.694 365.497 260.043 364.962 259.585 364.276C259.127 363.591 258.882 362.785 258.882 361.96C258.882 361.135 259.127 360.329 259.585 359.644C260.043 358.958 260.694 358.424 261.456 358.108C262.217 357.792 263.056 357.709 263.864 357.87C264.673 358.03 265.416 358.427 266 359.01C266.778 359.795 267.214 360.855 267.214 361.96C267.214 363.065 266.778 364.125 266 364.91Z" fill="white"/>
<path d="M484 364.91C483.417 364.326 483.02 363.583 482.86 362.775C482.699 361.966 482.782 361.128 483.098 360.366C483.413 359.604 483.948 358.953 484.633 358.495C485.319 358.037 486.125 357.792 486.95 357.792C487.774 357.792 488.58 358.037 489.266 358.495C489.952 358.953 490.486 359.604 490.802 360.366C491.118 361.128 491.201 361.966 491.04 362.775C490.879 363.583 490.483 364.326 489.9 364.91C489.115 365.688 488.055 366.124 486.95 366.124C485.845 366.124 484.785 365.688 484 364.91Z" fill="white"/>
<path d="M260.09 141C259.507 140.416 259.11 139.673 258.949 138.864C258.789 138.056 258.872 137.217 259.187 136.456C259.503 135.694 260.038 135.043 260.723 134.585C261.409 134.127 262.215 133.882 263.04 133.882C263.864 133.882 264.67 134.127 265.356 134.585C266.042 135.043 266.576 135.694 266.892 136.456C267.208 137.217 267.29 138.056 267.13 138.864C266.969 139.673 266.572 140.416 265.99 141C265.205 141.778 264.145 142.214 263.04 142.214C261.935 142.214 260.874 141.778 260.09 141Z" fill="white"/>
<path d="M375 98.3896V108.73" stroke="white" stroke-miterlimit="10"/>
<path d="M375 391.27V401.61" stroke="white" stroke-miterlimit="10"/>
<path d="M369.71 98.4897L370.07 108.81" stroke="white" stroke-miterlimit="10"/>
<path d="M379.93 391.19L380.29 401.51" stroke="white" stroke-miterlimit="10"/>
<path d="M364.42 98.7598L365.14 109.07" stroke="white" stroke-miterlimit="10"/>
<path d="M384.85 390.93L385.57 401.24" stroke="white" stroke-miterlimit="10"/>
<path d="M359.15 99.2197L360.23 109.5" stroke="white" stroke-miterlimit="10"/>
<path d="M389.76 390.5L390.84 400.77" stroke="white" stroke-miterlimit="10"/>
<path d="M353.9 99.8696L355.34 110.1" stroke="white" stroke-miterlimit="10"/>
<path d="M394.66 389.9L396.1 400.13" stroke="white" stroke-miterlimit="10"/>
<path d="M348.67 100.7L350.47 110.87" stroke="white" stroke-miterlimit="10"/>
<path d="M399.53 389.13L401.32 399.3" stroke="white" stroke-miterlimit="10"/>
<path d="M343.48 101.71L345.63 111.81" stroke="white" stroke-miterlimit="10"/>
<path d="M404.37 388.19L406.52 398.29" stroke="white" stroke-miterlimit="10"/>
<path d="M338.32 102.9L340.82 112.92" stroke="white" stroke-miterlimit="10"/>
<path d="M409.17 387.08L411.67 397.1" stroke="white" stroke-miterlimit="10"/>
<path d="M333.21 104.27L336.06 114.2" stroke="white" stroke-miterlimit="10"/>
<path d="M413.94 385.8L416.79 395.73" stroke="white" stroke-miterlimit="10"/>
<path d="M328.15 105.81L331.34 115.64" stroke="white" stroke-miterlimit="10"/>
<path d="M418.65 384.36L421.85 394.18" stroke="white" stroke-miterlimit="10"/>
<path d="M323.15 107.54L326.68 117.25" stroke="white" stroke-miterlimit="10"/>
<path d="M423.32 382.75L426.85 392.46" stroke="white" stroke-miterlimit="10"/>
<path d="M318.21 109.43L322.08 119.01" stroke="white" stroke-miterlimit="10"/>
<path d="M427.92 380.99L431.79 390.57" stroke="white" stroke-miterlimit="10"/>
<path d="M313.33 111.5L317.54 120.94" stroke="white" stroke-miterlimit="10"/>
<path d="M432.46 379.06L436.66 388.5" stroke="white" stroke-miterlimit="10"/>
<path d="M308.54 113.74L313.07 123.02" stroke="white" stroke-miterlimit="10"/>
<path d="M436.93 376.97L441.46 386.26" stroke="white" stroke-miterlimit="10"/>
<path d="M303.82 116.14L308.67 125.26" stroke="white" stroke-miterlimit="10"/>
<path d="M441.32 374.74L446.17 383.86" stroke="white" stroke-miterlimit="10"/>
<path d="M299.2 118.7L304.36 127.65" stroke="white" stroke-miterlimit="10"/>
<path d="M445.63 372.34L450.8 381.29" stroke="white" stroke-miterlimit="10"/>
<path d="M294.66 121.43L300.13 130.19" stroke="white" stroke-miterlimit="10"/>
<path d="M449.86 369.8L455.34 378.57" stroke="white" stroke-miterlimit="10"/>
<path d="M290.22 124.31L296 132.88" stroke="white" stroke-miterlimit="10"/>
<path d="M454 367.12L459.78 375.69" stroke="white" stroke-miterlimit="10"/>
<path d="M285.89 127.35L291.96 135.71" stroke="white" stroke-miterlimit="10"/>
<path d="M458.04 364.29L464.11 372.65" stroke="white" stroke-miterlimit="10"/>
<path d="M281.66 130.53L288.02 138.67" stroke="white" stroke-miterlimit="10"/>
<path d="M461.97 361.32L468.34 369.47" stroke="white" stroke-miterlimit="10"/>
<path d="M277.55 133.86L284.19 141.78" stroke="white" stroke-miterlimit="10"/>
<path d="M465.81 358.22L472.45 366.14" stroke="white" stroke-miterlimit="10"/>
<path d="M273.55 137.33L280.47 145.01" stroke="white" stroke-miterlimit="10"/>
<path d="M469.53 354.98L476.44 362.66" stroke="white" stroke-miterlimit="10"/>
<path d="M269.68 140.94L276.86 148.38" stroke="white" stroke-miterlimit="10"/>
<path d="M473.13 351.62L480.31 359.05" stroke="white" stroke-miterlimit="10"/>
<path d="M265.94 144.68L273.37 151.86" stroke="white" stroke-miterlimit="10"/>
<path d="M476.62 348.13L484.06 355.31" stroke="white" stroke-miterlimit="10"/>
<path d="M262.33 148.55L270.01 155.47" stroke="white" stroke-miterlimit="10"/>
<path d="M479.98 344.53L487.67 351.44" stroke="white" stroke-miterlimit="10"/>
<path d="M258.86 152.55L266.78 159.19" stroke="white" stroke-miterlimit="10"/>
<path d="M483.22 340.81L491.14 347.45" stroke="white" stroke-miterlimit="10"/>
<path d="M255.53 156.66L263.67 163.02" stroke="white" stroke-miterlimit="10"/>
<path d="M486.32 336.97L494.47 343.34" stroke="white" stroke-miterlimit="10"/>
<path d="M252.34 160.89L260.71 166.96" stroke="white" stroke-miterlimit="10"/>
<path d="M489.29 333.04L497.65 339.11" stroke="white" stroke-miterlimit="10"/>
<path d="M249.31 165.22L257.88 171" stroke="white" stroke-miterlimit="10"/>
<path d="M492.12 329L500.69 334.77" stroke="white" stroke-miterlimit="10"/>
<path d="M246.43 169.66L255.19 175.14" stroke="white" stroke-miterlimit="10"/>
<path d="M494.8 324.86L503.57 330.34" stroke="white" stroke-miterlimit="10"/>
<path d="M243.7 174.2L252.65 179.36" stroke="white" stroke-miterlimit="10"/>
<path d="M497.34 320.63L506.29 325.8" stroke="white" stroke-miterlimit="10"/>
<path d="M241.14 178.82L250.26 183.67" stroke="white" stroke-miterlimit="10"/>
<path d="M499.73 316.32L508.86 321.17" stroke="white" stroke-miterlimit="10"/>
<path d="M238.74 183.54L248.02 188.07" stroke="white" stroke-miterlimit="10"/>
<path d="M501.97 311.93L511.26 316.46" stroke="white" stroke-miterlimit="10"/>
<path d="M236.5 188.34L245.94 192.54" stroke="white" stroke-miterlimit="10"/>
<path d="M504.06 307.46L513.5 311.66" stroke="white" stroke-miterlimit="10"/>
<path d="M234.43 193.21L244.01 197.08" stroke="white" stroke-miterlimit="10"/>
<path d="M505.98 302.92L515.57 306.79" stroke="white" stroke-miterlimit="10"/>
<path d="M232.53 198.15L242.24 201.68" stroke="white" stroke-miterlimit="10"/>
<path d="M507.75 298.32L517.46 301.85" stroke="white" stroke-miterlimit="10"/>
<path d="M230.81 203.15L240.64 206.34" stroke="white" stroke-miterlimit="10"/>
<path d="M509.36 293.65L519.18 296.85" stroke="white" stroke-miterlimit="10"/>
<path d="M229.26 208.21L239.2 211.06" stroke="white" stroke-miterlimit="10"/>
<path d="M510.8 288.94L520.73 291.78" stroke="white" stroke-miterlimit="10"/>
<path d="M227.9 213.32L237.92 215.82" stroke="white" stroke-miterlimit="10"/>
<path d="M512.07 284.17L522.1 286.67" stroke="white" stroke-miterlimit="10"/>
<path d="M226.71 218.48L236.81 220.63" stroke="white" stroke-miterlimit="10"/>
<path d="M513.18 279.37L523.29 281.52" stroke="white" stroke-miterlimit="10"/>
<path d="M225.7 223.67L235.87 225.47" stroke="white" stroke-miterlimit="10"/>
<path d="M514.12 274.53L524.3 276.32" stroke="white" stroke-miterlimit="10"/>
<path d="M224.87 228.9L235.1 230.34" stroke="white" stroke-miterlimit="10"/>
<path d="M514.9 269.66L525.13 271.1" stroke="white" stroke-miterlimit="10"/>
<path d="M224.22 234.15L234.5 235.23" stroke="white" stroke-miterlimit="10"/>
<path d="M515.5 264.76L525.77 265.84" stroke="white" stroke-miterlimit="10"/>
<path d="M223.76 239.42L234.07 240.14" stroke="white" stroke-miterlimit="10"/>
<path d="M515.93 259.85L526.23 260.57" stroke="white" stroke-miterlimit="10"/>
<path d="M223.48 244.71L233.81 245.07" stroke="white" stroke-miterlimit="10"/>
<path d="M516.18 254.93L526.51 255.29" stroke="white" stroke-miterlimit="10"/>
<path d="M223.39 250H233.72" stroke="white" stroke-miterlimit="10"/>
<path d="M516.27 250H526.6" stroke="white" stroke-miterlimit="10"/>
<path d="M223.48 255.29L233.81 254.93" stroke="white" stroke-miterlimit="10"/>
<path d="M516.18 245.07L526.51 244.7" stroke="white" stroke-miterlimit="10"/>
<path d="M223.76 260.57L234.07 259.85" stroke="white" stroke-miterlimit="10"/>
<path d="M515.92 240.14L526.23 239.42" stroke="white" stroke-miterlimit="10"/>
<path d="M224.22 265.85L234.5 264.76" stroke="white" stroke-miterlimit="10"/>
<path d="M515.5 235.23L525.77 234.15" stroke="white" stroke-miterlimit="10"/>
<path d="M224.87 271.1L235.1 269.66" stroke="white" stroke-miterlimit="10"/>
<path d="M514.89 230.34L525.13 228.9" stroke="white" stroke-miterlimit="10"/>
<path d="M225.7 276.32L235.87 274.53" stroke="white" stroke-miterlimit="10"/>
<path d="M514.12 225.47L524.3 223.67" stroke="white" stroke-miterlimit="10"/>
<path d="M226.71 281.52L236.81 279.37" stroke="white" stroke-miterlimit="10"/>
<path d="M513.18 220.63L523.29 218.48" stroke="white" stroke-miterlimit="10"/>
<path d="M227.9 286.68L237.92 284.17" stroke="white" stroke-miterlimit="10"/>
<path d="M512.07 215.82L522.1 213.32" stroke="white" stroke-miterlimit="10"/>
<path d="M229.26 291.79L239.2 288.94" stroke="white" stroke-miterlimit="10"/>
<path d="M510.8 211.06L520.73 208.21" stroke="white" stroke-miterlimit="10"/>
<path d="M230.81 296.85L240.64 293.65" stroke="white" stroke-miterlimit="10"/>
<path d="M509.35 206.34L519.18 203.15" stroke="white" stroke-miterlimit="10"/>
<path d="M232.53 301.85L242.24 298.32" stroke="white" stroke-miterlimit="10"/>
<path d="M507.75 201.68L517.46 198.14" stroke="white" stroke-miterlimit="10"/>
<path d="M234.43 306.79L244.01 302.92" stroke="white" stroke-miterlimit="10"/>
<path d="M505.98 197.08L515.56 193.2" stroke="white" stroke-miterlimit="10"/>
<path d="M236.5 311.66L245.94 307.46" stroke="white" stroke-miterlimit="10"/>
<path d="M504.05 192.54L513.5 188.33" stroke="white" stroke-miterlimit="10"/>
<path d="M238.74 316.46L248.02 311.93" stroke="white" stroke-miterlimit="10"/>
<path d="M501.97 188.07L511.26 183.54" stroke="white" stroke-miterlimit="10"/>
<path d="M241.14 321.17L250.26 316.32" stroke="white" stroke-miterlimit="10"/>
<path d="M499.73 183.67L508.86 178.82" stroke="white" stroke-miterlimit="10"/>
<path d="M243.7 325.8L252.65 320.64" stroke="white" stroke-miterlimit="10"/>
<path d="M497.34 179.36L506.29 174.19" stroke="white" stroke-miterlimit="10"/>
<path d="M246.43 330.34L255.19 324.86" stroke="white" stroke-miterlimit="10"/>
<path d="M494.8 175.13L503.57 169.66" stroke="white" stroke-miterlimit="10"/>
<path d="M249.31 334.78L257.87 329" stroke="white" stroke-miterlimit="10"/>
<path d="M492.12 171L500.68 165.22" stroke="white" stroke-miterlimit="10"/>
<path d="M252.34 339.11L260.7 333.04" stroke="white" stroke-miterlimit="10"/>
<path d="M489.29 166.96L497.65 160.88" stroke="white" stroke-miterlimit="10"/>
<path d="M255.53 343.34L263.67 336.98" stroke="white" stroke-miterlimit="10"/>
<path d="M486.32 163.02L494.46 156.66" stroke="white" stroke-miterlimit="10"/>
<path d="M258.86 347.45L266.77 340.81" stroke="white" stroke-miterlimit="10"/>
<path d="M483.22 159.19L491.13 152.55" stroke="white" stroke-miterlimit="10"/>
<path d="M262.33 351.44L270.01 344.53" stroke="white" stroke-miterlimit="10"/>
<path d="M479.98 155.47L487.66 148.55" stroke="white" stroke-miterlimit="10"/>
<path d="M265.94 355.31L273.37 348.14" stroke="white" stroke-miterlimit="10"/>
<path d="M476.62 151.86L484.05 144.68" stroke="white" stroke-miterlimit="10"/>
<path d="M269.68 359.06L276.86 351.62" stroke="white" stroke-miterlimit="10"/>
<path d="M473.13 148.37L480.31 140.94" stroke="white" stroke-miterlimit="10"/>
<path d="M273.55 362.67L280.47 354.99" stroke="white" stroke-miterlimit="10"/>
<path d="M469.53 145.01L476.44 137.33" stroke="white" stroke-miterlimit="10"/>
<path d="M277.55 366.14L284.19 358.22" stroke="white" stroke-miterlimit="10"/>
<path d="M465.8 141.78L472.45 133.86" stroke="white" stroke-miterlimit="10"/>
<path d="M281.66 369.47L288.02 361.33" stroke="white" stroke-miterlimit="10"/>
<path d="M461.97 138.67L468.33 130.53" stroke="white" stroke-miterlimit="10"/>
<path d="M285.89 372.65L291.96 364.29" stroke="white" stroke-miterlimit="10"/>
<path d="M458.03 135.71L464.11 127.34" stroke="white" stroke-miterlimit="10"/>
<path d="M290.22 375.69L296 367.12" stroke="white" stroke-miterlimit="10"/>
<path d="M453.99 132.88L459.77 124.31" stroke="white" stroke-miterlimit="10"/>
<path d="M294.66 378.57L300.13 369.81" stroke="white" stroke-miterlimit="10"/>
<path d="M449.86 130.19L455.33 121.43" stroke="white" stroke-miterlimit="10"/>
<path d="M299.2 381.29L304.36 372.35" stroke="white" stroke-miterlimit="10"/>
<path d="M445.63 127.65L450.8 118.7" stroke="white" stroke-miterlimit="10"/>
<path d="M303.82 383.86L308.67 374.74" stroke="white" stroke-miterlimit="10"/>
<path d="M441.32 125.26L446.17 116.14" stroke="white" stroke-miterlimit="10"/>
<path d="M308.54 386.26L313.07 376.98" stroke="white" stroke-miterlimit="10"/>
<path d="M436.92 123.02L441.45 113.73" stroke="white" stroke-miterlimit="10"/>
<path d="M313.33 388.5L317.53 379.06" stroke="white" stroke-miterlimit="10"/>
<path d="M432.46 120.94L436.66 111.5" stroke="white" stroke-miterlimit="10"/>
<path d="M318.21 390.57L322.07 380.99" stroke="white" stroke-miterlimit="10"/>
<path d="M427.92 119.01L431.79 109.43" stroke="white" stroke-miterlimit="10"/>
<path d="M323.15 392.46L326.68 382.76" stroke="white" stroke-miterlimit="10"/>
<path d="M423.31 117.25L426.85 107.53" stroke="white" stroke-miterlimit="10"/>
<path d="M328.15 394.19L331.34 384.36" stroke="white" stroke-miterlimit="10"/>
<path d="M418.65 115.64L421.84 105.81" stroke="white" stroke-miterlimit="10"/>
<path d="M333.21 395.73L336.06 385.8" stroke="white" stroke-miterlimit="10"/>
<path d="M413.93 114.2L416.78 104.26" stroke="white" stroke-miterlimit="10"/>
<path d="M338.32 397.1L340.82 387.08" stroke="white" stroke-miterlimit="10"/>
<path d="M409.17 112.92L411.67 102.89" stroke="white" stroke-miterlimit="10"/>
<path d="M343.48 398.29L345.62 388.19" stroke="white" stroke-miterlimit="10"/>
<path d="M404.37 111.81L406.51 101.7" stroke="white" stroke-miterlimit="10"/>
<path d="M348.67 399.3L350.46 389.13" stroke="white" stroke-miterlimit="10"/>
<path d="M399.53 110.87L401.32 100.7" stroke="white" stroke-miterlimit="10"/>
<path d="M353.9 400.13L355.33 389.9" stroke="white" stroke-miterlimit="10"/>
<path d="M394.66 110.1L396.09 99.8696" stroke="white" stroke-miterlimit="10"/>
<path d="M359.15 400.78L360.23 390.5" stroke="white" stroke-miterlimit="10"/>
<path d="M389.76 109.5L390.84 99.2197" stroke="white" stroke-miterlimit="10"/>
<path d="M364.42 401.24L365.14 390.93" stroke="white" stroke-miterlimit="10"/>
<path d="M384.85 109.07L385.57 98.7598" stroke="white" stroke-miterlimit="10"/>
<path d="M369.71 401.51L370.07 391.19" stroke="white" stroke-miterlimit="10"/>
<path d="M379.92 108.81L380.28 98.48" stroke="white" stroke-miterlimit="10"/>
<path d="M216.8 140.34L216.13 139.67C194.704 170.64 182.756 207.176 181.742 244.821C180.728 282.466 190.692 319.592 210.42 351.67L211.09 350.99C191.529 319.1 181.656 282.214 182.67 244.817C183.683 207.42 195.541 171.123 216.8 140.34Z" fill="#CED6DD"/>
<path d="M261.5 94.5198C324.74 48.2998 410 45.4998 475.94 86.0998L476.61 85.4198C410.31 44.4798 324.45 47.2898 260.84 93.8598L261.5 94.5198Z" fill="#CED6DD"/>
<path d="M484.67 408.2C454.024 429.355 417.913 441.196 380.691 442.296C343.468 443.396 306.722 433.708 274.88 414.4L274.2 415.08C306.23 434.553 343.215 444.329 380.684 443.227C418.153 442.125 454.5 430.192 485.33 408.87L484.67 408.2Z" fill="#CED6DD"/>
<path d="M481.49 405C451.723 425.365 416.741 436.768 380.692 437.86C344.642 438.952 309.034 429.686 278.09 411.16L277.41 411.84C308.544 430.531 344.392 439.885 380.69 438.791C416.987 437.698 452.207 426.201 482.16 405.67L481.49 405Z" fill="#CED6DD"/>
<path d="M264.66 97.6798C326.11 53.1198 408.66 50.3298 472.73 89.3098L473.41 88.6298C408.93 49.3098 325.82 52.1098 264 96.9998L264.66 97.6798Z" fill="#CED6DD"/>
<path d="M220 143.51L219.33 142.84C198.708 172.928 187.205 208.326 186.199 244.789C185.193 281.252 194.728 317.231 213.66 348.41L214.33 347.73C195.563 316.74 186.118 281.001 187.124 244.786C188.129 208.57 199.543 173.411 220 143.51Z" fill="#CED6DD"/>
<path d="M223 146.55L222.33 145.88C202.468 175.126 191.384 209.443 190.387 244.783C189.389 280.122 198.519 315.009 216.7 345.33L217.37 344.65C199.356 314.518 190.317 279.871 191.314 244.779C192.311 209.688 203.304 175.61 223 146.55Z" fill="#CED6DD"/>
<path d="M267.69 100.71C296.891 79.8019 331.563 67.876 367.447 66.3963C403.331 64.9165 438.866 73.9472 469.69 92.3798L470.37 91.7098C439.357 73.0994 403.575 63.9725 367.437 65.4545C331.299 66.9365 296.385 78.9625 267 100.05L267.69 100.71Z" fill="#CED6DD"/>
<path d="M478.45 402C449.523 421.606 415.621 432.591 380.692 433.674C345.764 434.758 311.246 425.896 281.16 408.12L280.49 408.8C310.765 426.74 345.521 435.69 380.696 434.605C415.87 433.519 450.009 422.443 479.12 402.67L478.45 402Z" fill="#CED6DD"/>
<path d="M271.26 104.28C299.468 84.2765 332.857 72.8527 367.407 71.3837C401.957 69.9147 436.195 78.4631 466 95.9999L466.68 95.3299C436.686 77.6206 402.205 68.9783 367.404 70.4477C332.604 71.9171 298.974 83.4352 270.58 103.61L271.26 104.28Z" fill="#CED6DD"/>
<path d="M226.59 150.13L225.92 149.46C206.95 177.713 196.358 210.756 195.369 244.773C194.38 278.79 203.033 312.392 220.33 341.7L221 341C203.872 311.884 195.311 278.525 196.3 244.76C197.288 210.994 207.788 178.194 226.59 150.13Z" fill="#CED6DD"/>
<path d="M474.87 398.41C446.938 417.121 414.312 427.611 380.708 428.682C347.105 429.753 313.877 421.364 284.81 404.47L284.13 405.15C313.387 422.21 346.856 430.689 380.707 429.616C414.558 428.542 447.423 417.96 475.54 399.08L474.87 398.41Z" fill="#CED6DD"/>
<path d="M275.25 108.27C302.366 89.2607 334.348 78.392 367.432 76.9428C400.516 75.4937 433.325 83.5244 462 100.09L462.68 99.41C433.826 82.6996 400.794 74.5925 367.482 76.0454C334.17 77.4984 301.969 88.4508 274.68 107.61L275.25 108.27Z" fill="#CED6DD"/>
<path d="M230.61 154.15L229.94 153.48C211.965 180.616 201.922 212.231 200.943 244.766C199.965 277.301 208.088 309.463 224.4 337.63L225.08 336.95C208.933 308.973 200.897 277.052 201.874 244.764C202.851 212.477 212.801 181.1 230.61 154.15Z" fill="#CED6DD"/>
<path d="M470.85 394.39C444.032 412.115 412.826 422.059 380.698 423.118C348.57 424.177 316.776 416.31 288.85 400.39L288.18 401.07C316.291 417.15 348.317 425.104 380.685 424.044C413.053 422.985 444.49 412.954 471.49 395.07L470.85 394.39Z" fill="#CED6DD"/>
<path d="M279.15 112.17C305.183 94.1395 335.773 83.8145 367.408 82.38C399.043 80.9455 430.442 88.4596 458 104.06L458.68 103.38C430.932 87.6214 399.297 80.0227 367.419 81.4594C335.541 82.896 304.718 93.3094 278.5 111.5L279.15 112.17Z" fill="#CED6DD"/>
<path d="M234.52 158.06L233.85 157.39C216.84 183.436 207.331 213.663 206.366 244.757C205.401 275.85 213.018 306.609 228.38 333.66L229.06 332.98C213.859 306.121 206.329 275.602 207.292 244.755C208.254 213.908 217.673 183.918 234.52 158.06Z" fill="#CED6DD"/>
<path d="M466.94 390.48C441.219 407.237 411.407 416.648 380.727 417.695C350.047 418.742 319.663 411.385 292.86 396.42L292.18 397.1C319.18 412.22 349.806 419.654 380.733 418.596C411.66 417.538 441.706 408.029 467.61 391.1L466.94 390.48Z" fill="#CED6DD"/>
<path d="M643.45 194.76L573.96 264.25H444.59V265.55H574.51L643.99 196.07H792.92V194.76H643.45Z" fill="#CED6DD"/>
<path d="M645.57 199.4L576.09 268.88H444.59V270.18H576.63L646.11 200.7H795.05V199.4H645.57Z" fill="#CED6DD"/>
<path d="M647.7 204.03L578.21 273.51H444.59V274.82H578.75L648.24 205.33H797.17V204.03H647.7Z" fill="#CED6DD"/>
<path d="M649.82 208.66L580.34 278.14H444.59V279.45H580.88L650.36 209.96H799.29V208.66H649.82Z" fill="#CED6DD"/>
<path d="M651.94 213.28L582.46 282.77H444.59V284.08H583L652.48 214.59H801.42V213.28H651.94Z" fill="#CED6DD"/>
<path d="M635.62 139.54L582.46 192.71H459.56L414.19 241.62L414.93 242.29L459.99 193.71H582.87L636.04 140.54H750V139.54H635.62Z" fill="#CED6DD"/>
<path d="M637.25 143.08L584.08 196.25H461.18L416.85 244.04L417.59 244.71L461.62 197.25H584.5L637.66 144.08H751.62V143.08H637.25Z" fill="#CED6DD"/>
<path d="M638.87 146.63L585.71 199.79H462.81L419.52 246.47L420.26 247.14L463.24 200.79H586.12L639.29 147.63H753.25V146.63H638.87Z" fill="#CED6DD"/>
<path d="M640.5 150.17L587.33 203.34H464.43L422.18 248.89L422.92 249.56L464.87 204.34H587.75L640.91 151.17H754.87V150.17H640.5Z" fill="#CED6DD"/>
<path d="M642.12 153.71L588.96 206.88H466.06L424.84 251.31L425.58 251.98L466.49 207.88H589.37L642.54 154.71H756.5V153.71H642.12Z" fill="#CED6DD"/>
<path d="M426.61 251.63C426.612 251.909 426.531 252.183 426.377 252.416C426.224 252.649 426.004 252.832 425.747 252.94C425.489 253.048 425.205 253.077 424.931 253.024C424.657 252.971 424.405 252.837 424.207 252.641C424.008 252.444 423.873 252.193 423.818 251.919C423.763 251.645 423.79 251.361 423.896 251.103C424.003 250.845 424.184 250.624 424.416 250.468C424.648 250.313 424.921 250.23 425.2 250.23C425.572 250.23 425.929 250.377 426.194 250.639C426.458 250.902 426.607 251.258 426.61 251.63Z" fill="#B5BDC4"/>
<path d="M446.35 264.8C446.35 265.079 446.267 265.352 446.111 265.584C445.956 265.816 445.735 265.997 445.477 266.103C445.219 266.21 444.935 266.237 444.661 266.182C444.387 266.127 444.136 265.991 443.939 265.793C443.742 265.595 443.609 265.343 443.556 265.069C443.502 264.794 443.532 264.511 443.64 264.253C443.748 263.996 443.931 263.776 444.164 263.622C444.397 263.469 444.671 263.388 444.95 263.39C445.322 263.392 445.678 263.542 445.94 263.806C446.203 264.07 446.35 264.427 446.35 264.8Z" fill="#B5BDC4"/>
<path d="M446.35 269.62C446.35 269.899 446.267 270.172 446.111 270.404C445.956 270.636 445.735 270.817 445.477 270.924C445.219 271.03 444.935 271.057 444.661 271.002C444.387 270.947 444.136 270.812 443.939 270.613C443.742 270.415 443.609 270.163 443.556 269.889C443.502 269.615 443.532 269.331 443.64 269.073C443.748 268.816 443.931 268.596 444.164 268.443C444.397 268.289 444.671 268.208 444.95 268.21C445.134 268.21 445.317 268.247 445.488 268.318C445.658 268.388 445.813 268.493 445.943 268.624C446.073 268.755 446.176 268.91 446.246 269.081C446.316 269.252 446.351 269.435 446.35 269.62Z" fill="#B5BDC4"/>
<path d="M446.35 274.18C446.35 274.459 446.267 274.732 446.111 274.964C445.956 275.196 445.735 275.377 445.477 275.483C445.219 275.59 444.935 275.617 444.661 275.562C444.387 275.506 444.136 275.371 443.939 275.173C443.742 274.975 443.609 274.723 443.556 274.448C443.502 274.174 443.532 273.89 443.64 273.633C443.748 273.376 443.931 273.156 444.164 273.002C444.397 272.849 444.671 272.768 444.95 272.77C445.322 272.772 445.678 272.922 445.94 273.186C446.203 273.45 446.35 273.807 446.35 274.18Z" fill="#B5BDC4"/>
<path d="M446.35 279C446.35 279.279 446.267 279.552 446.111 279.784C445.956 280.016 445.735 280.197 445.477 280.303C445.219 280.41 444.935 280.437 444.661 280.382C444.387 280.327 444.136 280.192 443.939 279.993C443.742 279.795 443.609 279.543 443.556 279.269C443.502 278.995 443.532 278.711 443.64 278.453C443.748 278.196 443.931 277.976 444.164 277.823C444.397 277.669 444.671 277.588 444.95 277.59C445.322 277.593 445.678 277.742 445.94 278.006C446.203 278.271 446.35 278.628 446.35 279Z" fill="#B5BDC4"/>
<path d="M446.35 283.45C446.341 283.729 446.25 284 446.088 284.228C445.925 284.455 445.699 284.629 445.437 284.728C445.176 284.827 444.89 284.845 444.618 284.781C444.346 284.717 444.099 284.574 443.908 284.369C443.718 284.165 443.592 283.908 443.548 283.632C443.504 283.356 443.543 283.073 443.66 282.819C443.777 282.565 443.966 282.351 444.205 282.205C444.444 282.06 444.72 281.988 445 282C445.37 282.015 445.72 282.176 445.972 282.448C446.225 282.719 446.361 283.079 446.35 283.45Z" fill="#B5BDC4"/>
<path d="M424.07 249.1C424.07 249.379 423.987 249.652 423.832 249.884C423.676 250.116 423.455 250.297 423.197 250.404C422.939 250.51 422.655 250.537 422.381 250.482C422.107 250.427 421.856 250.292 421.659 250.093C421.463 249.895 421.329 249.643 421.276 249.369C421.223 249.095 421.252 248.811 421.36 248.553C421.468 248.296 421.651 248.076 421.884 247.923C422.117 247.769 422.391 247.688 422.67 247.69C423.042 247.693 423.398 247.842 423.661 248.106C423.923 248.371 424.07 248.728 424.07 249.1Z" fill="#B5BDC4"/>
<path d="M421.52 246.55C421.52 246.829 421.437 247.101 421.282 247.333C421.127 247.565 420.907 247.746 420.649 247.852C420.392 247.959 420.108 247.987 419.835 247.933C419.561 247.878 419.31 247.744 419.113 247.547C418.915 247.349 418.781 247.098 418.727 246.825C418.672 246.551 418.7 246.268 418.807 246.01C418.914 245.752 419.094 245.532 419.326 245.377C419.558 245.222 419.831 245.14 420.11 245.14C420.484 245.14 420.842 245.288 421.107 245.553C421.371 245.817 421.52 246.176 421.52 246.55Z" fill="#B5BDC4"/>
<path d="M419 244C419 244.279 418.917 244.551 418.762 244.783C418.607 245.015 418.387 245.196 418.129 245.303C417.872 245.409 417.588 245.437 417.315 245.383C417.041 245.328 416.79 245.194 416.593 244.997C416.395 244.8 416.261 244.548 416.207 244.275C416.152 244.001 416.18 243.718 416.287 243.46C416.394 243.203 416.574 242.982 416.806 242.827C417.038 242.673 417.311 242.59 417.59 242.59C417.964 242.59 418.322 242.738 418.587 243.003C418.851 243.267 419 243.626 419 244Z" fill="#B5BDC4"/>
<path d="M416.39 241.42C416.388 241.699 416.303 241.971 416.146 242.202C415.989 242.433 415.767 242.612 415.508 242.717C415.249 242.822 414.965 242.847 414.691 242.79C414.418 242.732 414.168 242.595 413.972 242.396C413.777 242.196 413.645 241.943 413.594 241.669C413.543 241.394 413.574 241.11 413.684 240.854C413.794 240.597 413.978 240.379 414.212 240.227C414.446 240.075 414.721 239.996 415 240C415.372 240.005 415.727 240.157 415.987 240.423C416.248 240.689 416.392 241.047 416.39 241.42Z" fill="#B5BDC4"/>
</g>
<defs>
<radialGradient id="paint0_radial_12_2098" cx="0" cy="0" r="1" gradientUnits="userSpaceOnUse" gradientTransform="translate(395.099 263.248) scale(167.01)">
<stop stop-color="#BBC7C7"/>
<stop offset="0.25" stop-color="#BCC8C8" stop-opacity="0.99"/>
<stop offset="0.39" stop-color="#BFCACA" stop-opacity="0.95"/>
<stop offset="0.51" stop-color="#C4CECE" stop-opacity="0.87"/>
<stop offset="0.62" stop-color="#CBD4D4" stop-opacity="0.77"/>
<stop offset="0.72" stop-color="#D4DBDB" stop-opacity="0.64"/>
<stop offset="0.81" stop-color="#DFE4E4" stop-opacity="0.48"/>
<stop offset="0.9" stop-color="#ECEFEF" stop-opacity="0.28"/>
<stop offset="0.98" stop-color="#FBFBFB" stop-opacity="0.07"/>
<stop offset="1" stop-color="white" stop-opacity="0"/>
</radialGradient>
<linearGradient id="paint1_linear_12_2098" x1="256.79" y1="250" x2="493.21" y2="250" gradientUnits="userSpaceOnUse">
<stop stop-color="#FAFAFA"/>
<stop offset="0.37" stop-color="#F4F6F6"/>
<stop offset="1" stop-color="#EDF2F2"/>
</linearGradient>
<linearGradient id="paint2_linear_12_2098" x1="240.67" y1="250" x2="509.33" y2="250" gradientUnits="userSpaceOnUse">
<stop stop-color="#EDF2F2"/>
<stop offset="0.63" stop-color="#F1F9F9"/>
<stop offset="1" stop-color="#F5FFFF"/>
</linearGradient>
<linearGradient id="paint3_linear_12_2098" x1="470.07" y1="250" x2="279.93" y2="250" gradientUnits="userSpaceOnUse">
<stop stop-color="white"/>
<stop offset="0.49" stop-color="#F4F7F7"/>
<stop offset="1" stop-color="#EDF2F2"/>
</linearGradient>
<linearGradient id="paint4_linear_12_2098" x1="460.57" y1="250.37" x2="289.43" y2="250.37" gradientUnits="userSpaceOnUse">
<stop stop-color="#EDF2F2"/>
<stop offset="0.51" stop-color="#F4F7F7"/>
<stop offset="1" stop-color="white"/>
</linearGradient>
<linearGradient id="paint5_linear_12_2098" x1="441.321" y1="249.963" x2="308.671" y2="249.963" gradientUnits="userSpaceOnUse">
<stop stop-color="white"/>
<stop offset="0.49" stop-color="#F4F7F7"/>
<stop offset="1" stop-color="#EDF2F2"/>
</linearGradient>
<linearGradient id="paint6_linear_12_2098" x1="434.7" y1="250.26" x2="315.3" y2="250.26" gradientUnits="userSpaceOnUse">
<stop stop-color="#EDF2F2"/>
<stop offset="0.51" stop-color="#F4F7F7"/>
<stop offset="1" stop-color="white"/>
</linearGradient>
</defs>
</svg>
